<?xml version="1.0" encoding="UTF-8"?> <svg xmlns="http://www.w3.org/2000/svg" viewBox="0 0 204.474 301.994"> <defs> <style>.\34 f128ea2-7a46-42cd-bbb2-47975e2a4eb6,.b24d9828-d1e4-4fb6-a58f-7a16538144b1{fill:#f4ae9e;}.\39 d7e7326-3989-4e87-ba51-36999a8a355d{fill:#2b2150;}.\31 7c46ad1-e034-4c04-95d6-50f186cdb1f8,.a1a81c1c-53f2-4b02-900f-130a9c6f0737,.af451e0a-8433-49d1-a849-572df1001c31,.ec400126-e2a1-4232-b5da-b5508b7334f0{fill:none;}.\31 10876c8-24a2-4b87-8faf-551be452e44f,.\31 7c46ad1-e034-4c04-95d6-50f186cdb1f8,.\34 c870949-7937-4927-b494-c94fff33a32f,.\35 4b1b150-86e2-4cfe-8f81-f848c137a3f4,.\36 90b26bf-21a3-473e-a6a6-d7e6dcc98c3d,.\37 e700034-6695-4216-9a01-15a2ab9fdeaa,.a1a81c1c-53f2-4b02-900f-130a9c6f0737,.a5fa110f-1165-4f21-9a0b-0fc5f9fc31d6,.af451e0a-8433-49d1-a849-572df1001c31,.b24d9828-d1e4-4fb6-a58f-7a16538144b1,.ccd8fd74-b9b4-4224-a265-8c867cec35a5,.ec400126-e2a1-4232-b5da-b5508b7334f0{stroke:#2b2150;stroke-linejoin:round;}.af451e0a-8433-49d1-a849-572df1001c31{stroke-linecap:square;stroke-width:15.934px;}.\36 90b26bf-21a3-473e-a6a6-d7e6dcc98c3d,.\39 ecd7c50-c87b-4374-9122-c628b910df74{fill:#f6af4e;}.\31 10876c8-24a2-4b87-8faf-551be452e44f,.\31 7c46ad1-e034-4c04-95d6-50f186cdb1f8,.\34 c870949-7937-4927-b494-c94fff33a32f,.\35 4b1b150-86e2-4cfe-8f81-f848c137a3f4,.\36 90b26bf-21a3-473e-a6a6-d7e6dcc98c3d,.\37 e700034-6695-4216-9a01-15a2ab9fdeaa,.a1a81c1c-53f2-4b02-900f-130a9c6f0737,.a5fa110f-1165-4f21-9a0b-0fc5f9fc31d6,.b24d9828-d1e4-4fb6-a58f-7a16538144b1,.ccd8fd74-b9b4-4224-a265-8c867cec35a5,.ec400126-e2a1-4232-b5da-b5508b7334f0{stroke-linecap:round;}.\36 90b26bf-21a3-473e-a6a6-d7e6dcc98c3d{stroke-width:2.223px;}.\31 10876c8-24a2-4b87-8faf-551be452e44f,.\36 4a8f458-5214-4f42-8678-9c7a37b8d967,.ccd8fd74-b9b4-4224-a265-8c867cec35a5{fill:#f1f0ef;}.\35 4b1b150-86e2-4cfe-8f81-f848c137a3f4{fill:#63beb2;}.\35 4b1b150-86e2-4cfe-8f81-f848c137a3f4,.ccd8fd74-b9b4-4224-a265-8c867cec35a5{stroke-width:2.64px;}.\31 7c46ad1-e034-4c04-95d6-50f186cdb1f8{stroke-width:1.482px;stroke-dasharray:6.403 5.122 6.403;}.\31 10876c8-24a2-4b87-8faf-551be452e44f,.\34 c870949-7937-4927-b494-c94fff33a32f,.b24d9828-d1e4-4fb6-a58f-7a16538144b1{stroke-width:2.965px;}.\31 e25d24e-19e0-4705-8304-11236dbf7448,.\34 c870949-7937-4927-b494-c94fff33a32f,.\37 e700034-6695-4216-9a01-15a2ab9fdeaa,.a5fa110f-1165-4f21-9a0b-0fc5f9fc31d6{fill:#ed7e94;}.a1a81c1c-53f2-4b02-900f-130a9c6f0737,.a5fa110f-1165-4f21-9a0b-0fc5f9fc31d6,.ec400126-e2a1-4232-b5da-b5508b7334f0{stroke-width:2.205px;}.\37 e700034-6695-4216-9a01-15a2ab9fdeaa{stroke-width:2.255px;}.ec400126-e2a1-4232-b5da-b5508b7334f0{stroke-dasharray:9.524 7.62 9.524;}</style> </defs> <title>Kid 2</title> <g id="00fda54d-0f97-40e3-b96d-746b17ad4c5f" data-name="Layer 2"> <g id="20c416a3-8736-4b9c-bbce-21411d636844" data-name="Capa 1"> <path class="4f128ea2-7a46-42cd-bbb2-47975e2a4eb6" d="M155.608,154.114l14.7-4c.25-2.107,2.1-4.482,3.771-6.4.15-.171.262-.3.32-.374a13.143,13.143,0,0,1,2.957-2.436,1.473,1.473,0,0,1,.673-.163,1.789,1.789,0,0,1,1.656,1.412,4.123,4.123,0,0,1-.825,3.764c.059-.023.115-.044.17-.06l.451-.2c2.109-.919,5.639-2.457,7.064-3.191a3.153,3.153,0,0,1,1.41-.343,2.083,2.083,0,0,1,2.017,1.214,2.537,2.537,0,0,1-1.212,3.178l-.5.26c.389-.1.728-.191,1-.271a3.114,3.114,0,0,1,.875-.123,2.333,2.333,0,0,1,2.373,1.532,2.433,2.433,0,0,1-1.662,2.96c-.585.19-1.391.468-2.29.777l-.14.048c.565-.033,1.06-.069,1.43-.106a3.028,3.028,0,0,1,.3-.015,2.629,2.629,0,0,1,2.711,1.9,2.311,2.311,0,0,1-2.084,2.675c-.485.062-1.122.154-1.838.259.264.045.52.087.766.124a2.465,2.465,0,0,1,2.088,2.327,2.071,2.071,0,0,1-2.271,1.89h0a3.029,3.029,0,0,1-.416-.03c-1.534-.232-5.476-.588-7.246-.746a24.143,24.143,0,0,1-5.014.905c-.276.016-.528.022-.761.022a4.725,4.725,0,0,1-2.587-.588l-15.35,4.368Z"></path> <path class="9d7e7326-3989-4e87-ba51-36999a8a355d" d="M178.026,141.883c.2,0,.43.18.566.611.67,2.148-1.847,3.847-1.8,4.072,0,0,.115.775.143.931a1.885,1.885,0,0,0,.275.019,7.428,7.428,0,0,0,2.184-.575h0c2.113-.921,6.086-2.642,7.672-3.459a2,2,0,0,1,.886-.215.976.976,0,0,1,.964.517,1.406,1.406,0,0,1-.681,1.713c-2.788,1.439-5.472,3-6.954,3.776l.118.259c2.229-.495,6.475-1.429,8.178-1.93a2,2,0,0,1,.553-.078,1.251,1.251,0,0,1,1.278.715,1.285,1.285,0,0,1-.889,1.537c-1.881.608-5.563,1.956-8.152,2.682.05.213.1.423.14.635,2.406-.083,5.909-.208,7.449-.363.061-.006.123-.009.188-.009.69,0,1.475.356,1.586.96a1.17,1.17,0,0,1-1.07,1.33c-1.8.229-5.194.791-7.821,1.065,0,.151,0,.294-.012.434,2.312.307,4.819.87,6.7,1.153a1.312,1.312,0,0,1,1.115,1.191c-.005.485-.565.751-1.128.751a1.745,1.745,0,0,1-.251-.018c-1.6-.24-5.633-.6-7.57-.776a21.509,21.509,0,0,1-4.918.925c-.252.014-.483.021-.7.021a3.212,3.212,0,0,1-2.363-.7l-14.74,4.194-2-8.328,14.476-3.943c-.439-2.429,3.358-6.313,3.847-6.946a12.448,12.448,0,0,1,2.573-2.117.33.33,0,0,1,.151-.037m0-2.287h0a2.623,2.623,0,0,0-1.2.291,13.98,13.98,0,0,0-3.332,2.749c-.055.068-.154.178-.28.324-1.685,1.929-3.361,4.1-3.9,6.235l-12.936,3.524-2.14.583.517,2.158,2,8.327.557,2.32,2.3-.653,13.756-3.915a6.308,6.308,0,0,0,2.72.507c.253,0,.526-.008.823-.025a26.133,26.133,0,0,0,5.084-.887c1.853.166,5.506.5,6.939.716a4.106,4.106,0,0,0,.591.044,3.183,3.183,0,0,0,3.415-3.015,3.479,3.479,0,0,0-.672-2.014,3.4,3.4,0,0,0,1.064-.925,3.474,3.474,0,0,0,.659-2.661,3.23,3.23,0,0,0-1.4-2.1A3.583,3.583,0,0,0,193.6,147.6a3.3,3.3,0,0,0-2.492-2.25,3.645,3.645,0,0,0-.09-2.461,3.235,3.235,0,0,0-3.069-1.908,4.264,4.264,0,0,0-1.929.467c-1.019.526-3.161,1.481-5.061,2.314a4.659,4.659,0,0,0-.187-1.948,2.943,2.943,0,0,0-2.749-2.217Z"></path> <polyline class="af451e0a-8433-49d1-a849-572df1001c31" points="113.776 152.473 143.481 161.777 166.411 156.116"></polyline> <path class="690b26bf-21a3-473e-a6a6-d7e6dcc98c3d" d="M143.989,278.983c14.547-2.931,19.449,6.312,20.169,7.364s-31.89,6.6-31.89,6.6-3.8-1.782-3.027-10.609C130.216,271.163,140.282,279.731,143.989,278.983Z"></path> <path class="9d7e7326-3989-4e87-ba51-36999a8a355d" d="M91.317,210.052l.824.333c.551.237,1.326.551,2.31.991s2.172.962,3.51,1.614,2.866,1.364,4.491,2.225,3.4,1.772,5.244,2.81,3.783,2.182,5.787,3.4l3.021,1.95,3.1,2.108c1.055.743,2.1,1.537,3.162,2.341l1.616,1.322.808.666c.267.225.558.511.836.766l1.671,1.583c.612.657,1.231,1.366,1.826,2.06l.223.263.112.131.054.066.028.033c.166.229-.332-.468.38.523l.243.372.484.742.244.374.362.629.7,1.267c.217.407.48.893.642,1.236l.432.966c.275.636.592,1.3.822,1.906.483,1.214.957,2.437,1.334,3.583.416,1.163.771,2.3,1.1,3.393.352,1.105.629,2.175.907,3.222.544,2.091,1.049,4.042,1.414,5.865.78,3.631,1.272,6.663,1.549,8.81.153,1.068.235,1.919.3,2.5.057.6.088.922.088.922l.771,8.009-13.027,3.147-3.233-7.416s-.113-.257-.322-.739c-.207-.5-.512-1.241-.9-2.18-.776-1.885-1.822-4.6-3.052-7.824-.612-1.6-1.274-3.326-1.976-5.155-.72-1.793-1.44-3.7-2.218-5.539-.377-.956-.793-1.819-1.178-2.732-.2-.465-.4-.83-.6-1.255l-.3-.618c-.088-.184-.118-.2-.173-.318a2.932,2.932,0,0,1-.13-.284l-.056-.148-.243-.364-.494-.736-.246-.369c.7.978.187.266.342.481l-.009-.008-.018-.018-.035-.035-.069-.072c-.188-.2-.342-.389-.526-.616l-.919-.874c-.274-.286-.649-.6-1.03-.93l-1.111-.969q-1.231-.99-2.448-1.971l-2.552-1.956q-1.312-.956-2.588-1.889c-1.711-1.259-3.389-2.474-5.01-3.608L93.03,230.8l-3.883-2.762-2.99-2.152-2.567-1.893-6.465-4.77,6.746-12.171Z"></path> <path class="690b26bf-21a3-473e-a6a6-d7e6dcc98c3d" d="M17.51,279.5c6.387,13.394-1.381,20.4-2.226,21.356S1.112,271.537,1.112,271.537s.8-4.116,9.554-5.519C21.739,264.241,15.883,276.091,17.51,279.5Z"></path> <path class="9d7e7326-3989-4e87-ba51-36999a8a355d" d="M71.532,211.625s-.043.307-.121.881c-.1.594-.213,1.42-.4,2.481s-.4,2.341-.709,3.8-.625,3.113-1.063,4.9-.892,3.729-1.449,5.771-1.2,4.2-1.882,6.439q-.572,1.677-1.157,3.405-.637,1.743-1.289,3.523c-.462,1.205-.976,2.417-1.5,3.638l-.886,1.89-.45.945c-.153.315-.361.666-.539,1L58.957,252.3c-.486.752-1.023,1.525-1.55,2.271l-.4.561-.428.5-.038.041-.077.081-.148.163-.6.65-.3.328-.522.5-1.058.989c-.342.308-.749.682-1.043.924l-.832.655c-.551.422-1.12.891-1.648,1.261-1.06.763-2.132,1.521-3.15,2.167-1.027.686-2.038,1.306-3.025,1.889-.984.612-1.955,1.142-2.9,1.666-1.9,1.037-3.666,2-5.346,2.8-3.33,1.641-6.152,2.857-8.165,3.649-1,.409-1.8.7-2.356.9l-.871.31-7.582,2.7-6.225-11.87,6.4-4.941.639-.492c.437-.324,1.079-.8,1.9-1.4,1.639-1.211,4.019-2.888,6.844-4.866l4.518-3.173c1.562-1.134,3.238-2.3,4.832-3.5.835-.6,1.57-1.21,2.363-1.807.4-.3.707-.591,1.07-.887l.528-.439c.154-.13.168-.164.263-.245.079-.069.16-.134.245-.2l.13-.09.3-.325.594-.658.149-.165.074-.082.037-.042.018-.02c-.169.2.4-.476-.374.442l.106-.171c.142-.23.294-.427.469-.66l.624-1.1c.21-.336.428-.778.651-1.226l.67-1.314q.659-1.436,1.314-2.854.644-1.489,1.275-2.952l1.2-2.97c.8-1.967,1.574-3.89,2.279-5.738.721-1.852,1.4-3.6,2.031-5.22l1.733-4.439,1.359-3.423,1.211-2.951,3.051-7.432,13.447,3.578Z"></path> <path class="9d7e7326-3989-4e87-ba51-36999a8a355d" d="M60.756,238.931c-14.95-.089-27.26-9.155-28.634-21.086a1.324,1.324,0,0,1,1.312-1.472l85.609.506a1.32,1.32,0,0,1,1.3,1.486c-1.5,11.829-13.825,20.749-28.665,20.749Z"></path> <path class="9d7e7326-3989-4e87-ba51-36999a8a355d" d="M33.434,217.693l85.6.506c-1.4,11.026-13.12,19.6-27.356,19.6h-.207l-30.709-.184c-14.33-.085-26.053-8.822-27.33-19.917m0-2.639A2.64,2.64,0,0,0,30.811,218c1.45,12.6,14.32,22.163,29.937,22.256l30.709.184h.223c15.5,0,28.389-9.416,29.975-21.9a2.639,2.639,0,0,0-2.6-2.972l-85.6-.506Z"></path> <path class="9d7e7326-3989-4e87-ba51-36999a8a355d" d="M34.134,219.018a1.319,1.319,0,0,1-1.227-.857c-.159-.419-3.856-10.473-3.749-28.28.1-17.293,1.186-49.993,1.2-50.321a1.319,1.319,0,0,1,1.319-1.277,1.288,1.288,0,0,1,.214.018l88.471,14.522a1.32,1.32,0,0,1,1.085,1.07c.9,4.992,1.66,8.575,2.269,11.454,1.563,7.347,2.276,10.7,2.206,22.622-.131,22.136-4.809,30.546-5.007,30.892a1.319,1.319,0,0,1-1.146.664Z"></path> <path class="9d7e7326-3989-4e87-ba51-36999a8a355d" d="M31.674,139.6l88.471,14.522c3.148,17.533,4.551,17.341,4.453,33.835-.129,22.043-4.832,30.244-4.832,30.244L34.142,217.7s-3.771-10.041-3.663-27.808c.1-17.475,1.2-50.285,1.2-50.285m0-2.64a2.637,2.637,0,0,0-2.638,2.552c-.011.328-1.1,33.047-1.2,50.357-.109,18.048,3.671,28.323,3.832,28.752a2.639,2.639,0,0,0,2.455,1.712l85.625.508h.016a2.64,2.64,0,0,0,2.29-1.326c.206-.36,5.051-9.063,5.183-31.542.072-12.065-.651-15.461-2.233-22.9-.609-2.87-1.369-6.441-2.262-11.413a2.642,2.642,0,0,0-2.171-2.138L32.1,137a2.684,2.684,0,0,0-.428-.034Z"></path> <path class="64a8f458-5214-4f42-8678-9c7a37b8d967" d="M61.194,217.858l51.489.3s5.493-9.4,5.622-31.446c.1-16.493-3.391-15.108-5.242-32.631l-52.42-6.14s-1.483,24.638-1.586,42.112C58.952,207.825,61.194,217.858,61.194,217.858Z"></path> <polygon class="54b1b150-86e2-4cfe-8f81-f848c137a3f4" points="93.481 172.757 95.594 172.77 102.963 200.582 98.981 208.925 93.295 204.336 93.481 172.757"></polygon> <path class="ccd8fd74-b9b4-4224-a265-8c867cec35a5" d="M115.641,153.8c-.857,1.03-.089,15-.089,15l-22.14-5.026-21.6,15.176L50.891,154.722,48.712,147.3l60.464-.715Z"></path> <polygon class="54b1b150-86e2-4cfe-8f81-f848c137a3f4" points="103.166 165.992 95.565 177.612 83.84 171.711 93.412 163.778 103.166 165.992"></polygon> <path class="17c46ad1-e034-4c04-95d6-50f186cdb1f8" d="M113.268,171.8s5.49,13.979-.221,37.2"></path> <path class="4f128ea2-7a46-42cd-bbb2-47975e2a4eb6" d="M80.755,162.33c-24.8,0-50.432-9.313-51.433-27.113C27.4,101.093,23.829,37.575,64.9,28.6a66.749,66.749,0,0,1,13.912-1.435c9.956,0,23.857,2.225,33.555,12.824C130.7,60.014,150.3,124.732,130.092,145.6,119.942,156.074,101.5,162.33,80.755,162.33Z"></path> <path class="9d7e7326-3989-4e87-ba51-36999a8a355d" d="M78.815,28.644c10.465,0,23.457,2.5,32.461,12.342,17.736,19.383,37.492,83.2,17.752,103.578-10.84,11.191-29.85,16.284-48.272,16.284-25.058,0-49.037-9.414-49.955-25.714C28.829,100.066,25.577,38.71,65.219,30.045a65.748,65.748,0,0,1,13.6-1.4m0-2.965v2.965l0-2.965a68.317,68.317,0,0,0-14.231,1.47C46.133,31.182,34.327,46.32,29.491,72.143c-4,21.365-2.586,46.515-1.65,63.157,1.054,18.719,27.417,28.513,52.915,28.513,21.135,0,39.977-6.425,50.4-17.186,5.531-5.71,13.658-20.432,5.941-54.873-4.781-21.339-14.279-42.545-23.635-52.769-10.061-11-24.393-13.306-34.644-13.306Z"></path> <path class="9d7e7326-3989-4e87-ba51-36999a8a355d" d="M109.52,98.7c-.02,3.248,2.049,5.9,4.619,5.91s4.67-2.606,4.688-5.854-2.047-5.9-4.619-5.912S109.539,95.446,109.52,98.7Z"></path> <path class="9d7e7326-3989-4e87-ba51-36999a8a355d" d="M72.255,104.357c-.019,3.249,2.049,5.9,4.618,5.911s4.67-2.607,4.69-5.856-2.051-5.9-4.619-5.91S72.275,101.108,72.255,104.357Z"></path> <path class="9ecd7c50-c87b-4374-9122-c628b910df74" d="M23.079,109.39a1.112,1.112,0,0,1-1.111-1.054c-.087-1.67-.13-3.306-.171-4.92-.125-4.849-.243-9.429-1.575-14.1a104.875,104.875,0,0,0-5.044-13c-1.018-2.319-2.071-4.717-3-7.076-2.494-6.323-4.557-13.758-.954-20.952,2.84-5.663,8.869-11.759,15.4-11.759h.014a19.251,19.251,0,0,1,5.8-13.136c7.918-8.279,23.172-13.421,39.81-13.421,10.784,0,20.641,2.172,28.508,6.282.784.409,1.489.836,2.17,1.249,1.44.872,2.685,1.625,3.785,1.625.619,0,1.615-.2,3.1-1.963,3.043-3.608,1.615-10.153.671-14.484l-.047-.215a1.11,1.11,0,0,1,1.361-1.314c10.92,2.806,17.969,11.449,21.532,26.408,4.4-1.49,6.812-7.947,7.5-11.377a1.111,1.111,0,0,1,.856-.868,1.171,1.171,0,0,1,.234-.025,1.113,1.113,0,0,1,.9.464c7.139,9.943,6.668,21.388,5.459,30.248-1.215,8.879-11.921,22.9-20.455,26.783a14.921,14.921,0,0,1-6.305,1.267h0c-5.242,0-10.835-2.036-16.244-4a66.4,66.4,0,0,0-9.016-2.84,28.934,28.934,0,0,0-5.64-.538c-8.268,0-16.715,3.163-24.884,6.223C59.466,75.235,53.516,77.463,47.9,78.2c2.642,6.051,1.2,10.054.041,11.97a9.413,9.413,0,0,1-7.992,4.509,8.24,8.24,0,0,1-6.5-3.031c-1.836,1.886-2.647,4.727-3.5,7.712-1.161,4.068-2.363,8.274-6.449,9.944A1.115,1.115,0,0,1,23.079,109.39Z"></path> <path class="9d7e7326-3989-4e87-ba51-36999a8a355d" d="M111.518,2.224c12.771,3.281,18.32,14.726,20.975,26.675,5.351-.821,8.478-7.8,9.424-12.5,6.267,8.728,6.7,18.878,5.261,29.45-1.191,8.7-11.786,22.265-19.814,25.922a13.953,13.953,0,0,1-5.846,1.166c-8.213,0-17.879-5.394-25.041-6.823a29.83,29.83,0,0,0-5.859-.56c-15.411,0-31.241,10.66-44.4,11.712,5.291,10.194-.6,16.306-6.269,16.306A7.181,7.181,0,0,1,33.649,90c-5.9,4.366-3.816,15.514-10.57,18.274-.352-6.714.033-12.881-1.788-19.269-1.916-6.732-5.44-13.486-8.08-20.181-2.583-6.55-4.3-13.45-.994-20.047,2.606-5.2,8.221-11.146,14.406-11.146a9.723,9.723,0,0,1,1.139.069c-.734-16.514,21.8-26.626,44.484-26.625,9.956,0,19.938,1.947,27.994,6.155,2.549,1.333,4.468,3,6.469,3,1.231,0,2.492-.631,3.949-2.358,3.45-4.09,1.862-11.06.86-15.653m0-2.224a2.223,2.223,0,0,0-2.172,2.7l.047.217c.9,4.117,2.256,10.34-.435,13.529-.878,1.04-1.634,1.568-2.249,1.568a8.09,8.09,0,0,1-3.21-1.464c-.664-.4-1.417-.858-2.229-1.283-8.025-4.193-18.061-6.408-29.024-6.409-16.931,0-32.494,5.274-40.615,13.764a20.838,20.838,0,0,0-6.052,12.838c-6.611.572-12.416,6.475-15.35,12.328-3.8,7.586-1.67,15.306.914,21.859.937,2.378,1.994,4.785,3.018,7.113a104.329,104.329,0,0,1,4.992,12.861c1.293,4.539,1.41,9.05,1.533,13.827.041,1.6.084,3.26.172,4.949a2.223,2.223,0,0,0,2.221,2.107,2.206,2.206,0,0,0,.84-.165c4.587-1.874,5.921-6.546,7.1-10.667a21.972,21.972,0,0,1,2.489-6.335,9.359,9.359,0,0,0,6.439,2.46,10.532,10.532,0,0,0,8.941-5.043c1.19-1.958,2.651-5.883.561-11.659,5.316-.909,10.861-2.985,16.675-5.164C74.2,70.9,82.551,67.775,90.618,67.775a27.733,27.733,0,0,1,5.423.518,65.577,65.577,0,0,1,8.852,2.794c5.244,1.908,11.187,4.072,16.625,4.072a16.222,16.222,0,0,0,6.768-1.367c8.972-4.087,19.816-18.3,21.1-27.643,1.237-9.066,1.711-20.786-5.658-31.049a2.225,2.225,0,0,0-1.806-.927,2.19,2.19,0,0,0-.467.051,2.222,2.222,0,0,0-1.712,1.735c-.667,3.315-2.642,8.137-5.661,10.01C130.313,11.387,123.1,2.9,112.071.07a2.224,2.224,0,0,0-.553-.07Z"></path> <path class="4f128ea2-7a46-42cd-bbb2-47975e2a4eb6" d="M34.871,94.491c-1.571-5.815-8.52-7.318-12.558-7.342a13.34,13.34,0,1,0,9.3,22.828"></path> <path class="9d7e7326-3989-4e87-ba51-36999a8a355d" d="M34.871,94.491s-.085-.254-.294-.7a7.718,7.718,0,0,0-1.145-1.781,11.169,11.169,0,0,0-6.383-3.488A18.545,18.545,0,0,0,22.17,88.1a12.73,12.73,0,0,0-5.065,1.4,12.389,12.389,0,0,0-4.21,3.537,12.223,12.223,0,0,0-2.3,5.112,13.791,13.791,0,0,0-.213,2.85,11.912,11.912,0,0,0,.415,2.745,11.432,11.432,0,0,0,1.037,2.565,11.943,11.943,0,0,0,1.522,2.249,12.687,12.687,0,0,0,8.67,4.378,13.688,13.688,0,0,0,4.087-.305,14.075,14.075,0,0,0,3.048-1.106,16.119,16.119,0,0,0,1.837-1.09l.616-.455-.5.583a11.775,11.775,0,0,1-1.619,1.489,12.31,12.31,0,0,1-3.016,1.716,13.3,13.3,0,0,1-2.072.647,14.922,14.922,0,0,1-2.408.3,13.483,13.483,0,0,1-5.439-.894,14.231,14.231,0,0,1-8.542-9.288,14.765,14.765,0,0,1-.578-3.478,14,14,0,0,1,.287-3.481A14.3,14.3,0,0,1,16.079,87.3a13.949,13.949,0,0,1,6.055-1.093,19.586,19.586,0,0,1,5.292.941,14.526,14.526,0,0,1,4.034,2.04,9.466,9.466,0,0,1,2.359,2.54,7.792,7.792,0,0,1,.875,2.018A7.584,7.584,0,0,1,34.871,94.491Z"></path> <path class="4f128ea2-7a46-42cd-bbb2-47975e2a4eb6" d="M27.461,94.2s-11.611-.07-7.853,11.935"></path> <path class="9d7e7326-3989-4e87-ba51-36999a8a355d" d="M27.461,94.2l-.715.336-.781.373c-.295.14-.617.324-.96.5-.335.2-.7.373-1.051.613-.37.2-.7.478-1.054.72a8.705,8.705,0,0,0-.935.859l-.422.462-.339.516a1.858,1.858,0,0,0-.3.538c-.082.191-.191.37-.287.556-.094.419-.279.805-.376,1.226-.066.43-.161.85-.251,1.264-.028.424-.069.834-.117,1.223a7.116,7.116,0,0,0-.095,1.085c-.006.328-.04.625-.062.871-.047.5-.1.8-.1.8a6.691,6.691,0,0,1-.466-.644c-.137-.212-.312-.471-.478-.782q-.13-.236-.277-.5c-.09-.179-.142-.381-.221-.587-.139-.417-.28-.879-.412-1.378-.065-.513-.107-1.072-.131-1.654a11.318,11.318,0,0,1,.258-1.828c.112-.3.229-.612.364-.913a3.725,3.725,0,0,1,.464-.877l.59-.809c.222-.243.477-.453.713-.673a3.534,3.534,0,0,1,.764-.563,6.326,6.326,0,0,1,.791-.448,7.879,7.879,0,0,1,1.58-.535,8,8,0,0,1,1.433-.2,7.886,7.886,0,0,1,2.114.2A3.788,3.788,0,0,1,27.461,94.2Z"></path> <path class="4f128ea2-7a46-42cd-bbb2-47975e2a4eb6" d="M20.4,98.605s7.033,1.4,5.766,6.7"></path> <path class="9d7e7326-3989-4e87-ba51-36999a8a355d" d="M20.7,97.155l.113.042c.084.033.224.08.361.14.289.118.684.3,1.143.546a11.615,11.615,0,0,1,1.5.954,8.551,8.551,0,0,1,1.492,1.405,7.686,7.686,0,0,1,.6.864,4.9,4.9,0,0,1,.4.929,3.521,3.521,0,0,1,.191.907,3.021,3.021,0,0,1,.014.808c-.029.247-.043.469-.08.661-.059.187-.107.351-.148.486l-.127.412s0-.157,0-.432v-.485c-.02-.185-.071-.391-.108-.61a2.619,2.619,0,0,0-.22-.673,2.816,2.816,0,0,0-.37-.669,3.95,3.95,0,0,0-.519-.609,6.494,6.494,0,0,0-.647-.509,6.9,6.9,0,0,0-1.469-.716,9.218,9.218,0,0,0-1.388-.381,10.088,10.088,0,0,0-1-.148c-.125-.014-.194-.012-.25-.016l-.106-.006Z"></path> <path class="9ecd7c50-c87b-4374-9122-c628b910df74" d="M61.752,92.456A1.113,1.113,0,0,1,60.74,91.8L58.746,87.4a1.115,1.115,0,0,1,.556-1.472l15.509-7.011a1.109,1.109,0,0,1,1.469.555l1.993,4.408a1.111,1.111,0,0,1-.555,1.471L62.209,92.358A1.111,1.111,0,0,1,61.752,92.456Z"></path> <path class="9d7e7326-3989-4e87-ba51-36999a8a355d" d="M75.268,79.925l1.992,4.408L61.752,91.344,59.76,86.937l15.508-7.012m0-2.223a2.215,2.215,0,0,0-.916.2L58.844,84.911a2.223,2.223,0,0,0-1.109,2.942l1.992,4.407a2.224,2.224,0,0,0,2.941,1.11l15.508-7.012a2.223,2.223,0,0,0,1.11-2.941l-1.993-4.408A2.221,2.221,0,0,0,75.268,77.7Z"></path> <path class="9ecd7c50-c87b-4374-9122-c628b910df74" d="M122.069,87.864a1.093,1.093,0,0,1-.239-.026L105.2,84.209a1.112,1.112,0,0,1-.848-1.323l1.031-4.726a1.115,1.115,0,0,1,1.086-.875,1.124,1.124,0,0,1,.237.026l16.629,3.63a1.11,1.11,0,0,1,.849,1.323l-1.031,4.725a1.112,1.112,0,0,1-1.086.875Z"></path> <path class="9d7e7326-3989-4e87-ba51-36999a8a355d" d="M106.471,78.4l16.629,3.63-1.031,4.726-16.629-3.63,1.031-4.726m0-2.223a2.222,2.222,0,0,0-2.172,1.749l-1.031,4.726a2.224,2.224,0,0,0,1.7,2.647l16.629,3.629a2.25,2.25,0,0,0,.475.051,2.222,2.222,0,0,0,2.172-1.749l1.031-4.726a2.222,2.222,0,0,0-1.7-2.646l-16.629-3.63a2.257,2.257,0,0,0-.475-.051Z"></path> <path class="b24d9828-d1e4-4fb6-a58f-7a16538144b1" d="M102.647,112.613c-.018,3.721-3.124,4.817-8.824,2.542"></path> <path class="4c870949-7937-4927-b494-c94fff33a32f" d="M116.026,118.435s-16.67,8.635-41.672,3.3c0,0,.971,21.661,22.234,19.932C117.043,140.005,116.026,118.435,116.026,118.435Z"></path> <path class="110876c8-24a2-4b87-8faf-551be452e44f" d="M113.577,119.493c-2.469,5.254-7.338,10.4-16.924,11.18-9.873.8-15.369-3.44-18.426-8.212C95.629,125.3,108.457,121.475,113.577,119.493Z"></path> <path class="17c46ad1-e034-4c04-95d6-50f186cdb1f8" d="M93.369,20.106c-1.113.363-34.158-11.559-58.114,9.661"></path> <path class="64a8f458-5214-4f42-8678-9c7a37b8d967" d="M114.7,96.316a1.3,1.3,0,1,0,.92-1.816A1.457,1.457,0,0,0,114.7,96.316Z"></path> <path class="64a8f458-5214-4f42-8678-9c7a37b8d967" d="M77.561,102.537a1.3,1.3,0,1,0,.92-1.816A1.46,1.46,0,0,0,77.561,102.537Z"></path> <path class="a1a81c1c-53f2-4b02-900f-130a9c6f0737" d="M112.323,156.352c-2.51-1.913-5.5-3.979-8.979-3.073-1.968.517-3.8,3.169-2.936,5.191,1.817,4.243,3.122-1.314,2.415-3.513a5.569,5.569,0,0,0-5.436-4.2"></path> <path class="1e25d24e-19e0-4705-8304-11236dbf7448" d="M179.444,147.725c-.668,0-.77,0-4.629-5.065-2.044-2.682-4.308-5.74-5.768-7.789a1.532,1.532,0,0,1-.029-1.67c1.348-2.613,12.578-10.228,15.774-10.228a1.655,1.655,0,0,1,1.392.623,1.129,1.129,0,0,1,.213.884c-.361,2-3.6,19.6-6.051,22.8A1.146,1.146,0,0,1,179.444,147.725Z"></path> <path class="9d7e7326-3989-4e87-ba51-36999a8a355d" d="M184.791,124.1a.593.593,0,0,1,.5.178s-3.483,19.244-5.836,22.315l-.008,0c-.3,0-6.5-8.2-9.477-12.381-.931-1.308,11.918-10.115,14.824-10.116m0-2.255h0c-3.642,0-15.259,7.9-16.775,10.839a2.645,2.645,0,0,0,.113,2.84c1.467,2.058,3.739,5.126,5.789,7.818,4.04,5.3,4.246,5.51,5.526,5.51a2.277,2.277,0,0,0,1.792-.88c2.5-3.259,5.43-18.652,6.27-23.292a2.248,2.248,0,0,0-.426-1.769,2.77,2.77,0,0,0-2.288-1.066Z"></path> <path class="1e25d24e-19e0-4705-8304-11236dbf7448" d="M167.3,207.171c-2.57-.13-5.588-3.9-7.656-9.482a48.7,48.7,0,0,1-9.094.855q-1.036,0-2.085-.044a49.319,49.319,0,0,1-9.589-1.352c-2.425,5.109-5.652,8.481-8.183,8.481l-7.95-.273a1.565,1.565,0,0,1-1.239-.7c-1.464-2.108.654-11.085,1.7-14.645-10.087-7.237-15.806-18.149-15.335-29.342.81-19.251,19.053-34.332,41.531-34.332q1.046,0,2.105.044c19.54.823,36.151,13.225,39.855,29.618a38.46,38.46,0,0,0,4.141.221c.547,0,.88-.012.892-.013h.1c2.841.147,4.661.769,5.727,1.958,1.292,1.441,1.182,3.374,1.076,5.243l-.416,8.047c-.138,3.044-.3,6.494-6.474,6.494q-.487,0-1.03-.027l-.06,0-.061-.01a36.686,36.686,0,0,0-5.058-.379c-.61,0-1.187.02-1.725.06a37.091,37.091,0,0,1-12.688,13.68c1.055,4.22,2.221,13.593.716,15.621a1.575,1.575,0,0,1-1.274.671h-.025Z"></path> <path class="9d7e7326-3989-4e87-ba51-36999a8a355d" d="M149.391,127.464q1.023,0,2.057.044c19.777.832,35.779,13.466,38.966,29.509a37.854,37.854,0,0,0,5.079.331c.583,0,.933-.014.933-.014,6.391.329,5.883,3.1,5.705,6.539l-.361,7c-.166,3.256.021,5.945-5.373,5.945-.307,0-.63-.009-.973-.026a37.479,37.479,0,0,0-5.236-.394,22.908,22.908,0,0,0-2.444.121,36.019,36.019,0,0,1-13.275,14.243c1.375,4.574,2.465,15.668.748,15.668H175.2l-7.849-.39c-1.972-.1-4.964-3.722-6.976-9.653a47.38,47.38,0,0,1-9.83,1.024q-1.012,0-2.037-.043a47.787,47.787,0,0,1-10.27-1.551c-2.464,5.6-5.611,8.679-7.55,8.679h-.059l-7.853-.271c-1.639-.07.048-9.468,1.736-14.67-9.865-6.786-16.012-17.3-15.525-28.842.787-18.707,18.681-33.252,40.4-33.253m0-2.255h0c-23.085,0-41.822,15.556-42.657,35.413-.478,11.338,5.167,22.383,15.169,29.841-1,3.608-3.121,12.259-1.328,14.837a2.7,2.7,0,0,0,2.107,1.182l7.869.272.137,0c2.9,0,6.187-3.137,8.8-8.306a50.332,50.332,0,0,0,8.923,1.176c.707.03,1.424.045,2.131.045a49.916,49.916,0,0,0,8.383-.707c1.842,4.536,4.871,9.159,8.309,9.333l7.851.39.055,0h.074a2.708,2.708,0,0,0,2.178-1.126c1.885-2.534.572-11.556-.354-15.784a38.208,38.208,0,0,0,12.118-13.1c.33-.014.671-.022,1.029-.022a35.327,35.327,0,0,1,4.882.366l.118.019.12.006c.384.019.745.029,1.089.029,7.256,0,7.463-4.555,7.6-7.571l.026-.514.361-7,.03-.515c.113-2,.244-4.271-1.362-6.061-1.281-1.428-3.349-2.168-6.51-2.331l-.1,0-.1,0c-.02,0-.335.011-.848.011-.7,0-1.9-.021-3.233-.136-4.162-16.488-20.989-28.871-40.719-29.7-.714-.03-1.437-.046-2.149-.046Z"></path> <path class="a5fa110f-1165-4f21-9a0b-0fc5f9fc31d6" d="M180.342,153.032a3.721,3.721,0,0,0-7.436-.313"></path> <path class="a5fa110f-1165-4f21-9a0b-0fc5f9fc31d6" d="M199.236,159.586s-1.443,1.044-1.368,9.6"></path> <path class="7e700034-6695-4216-9a01-15a2ab9fdeaa" d="M156.92,135.722c-1.582-.706,6.244-17.118,8.157-16.34,0,0,3.8,10.319,5.511,17.1"></path> <path class="64a8f458-5214-4f42-8678-9c7a37b8d967" d="M159.719,136.6c-1.006-.45,3.965-10.871,5.178-10.377,0,0,2.418,6.552,3.5,10.858"></path> <path class="ec400126-e2a1-4232-b5da-b5508b7334f0" d="M144.231,133.754s-19.367-.852-28.66,18.985"></path> <path class="4f128ea2-7a46-42cd-bbb2-47975e2a4eb6" d="M90.381,173.892l15.071-2.2c.5-2.064,2.623-4.2,4.516-5.9.169-.151.3-.265.362-.332a13.047,13.047,0,0,1,3.229-2.063,1.466,1.466,0,0,1,.508-.09,1.745,1.745,0,0,1,1.653,1.61,4.128,4.128,0,0,1-1.274,3.639c.064-.017.124-.03.179-.04l.517-.154c2.19-.656,5.854-1.75,7.349-2.307a3.169,3.169,0,0,1,1.084-.191,2.175,2.175,0,0,1,2.214,1.47,2.54,2.54,0,0,1-1.581,3.008c-.178.065-.354.132-.533.2.4-.052.748-.1,1.026-.148a2.931,2.931,0,0,1,.5-.041,2.3,2.3,0,0,1,.545,4.568c-.6.116-1.423.294-2.344.491l-.164.035c.565.035,1.06.059,1.432.066a2.72,2.72,0,0,1,2.767,2.23,2.329,2.329,0,0,1-.636,1.69,2.305,2.305,0,0,1-1.7.718c-.536,0-1.188.017-1.913.036q.387.114.746.215a2.461,2.461,0,0,1,1.793,2.56,1.976,1.976,0,0,1-2.129,1.624h0a2.919,2.919,0,0,1-.768-.1c-1.064-.294-3.453-.835-7.1-1.608a23.2,23.2,0,0,1-4.053.321c-.416,0-.775-.009-1.031-.026a5.6,5.6,0,0,1-3.256-.967l-15.763,2.49Z"></path> <path class="9d7e7326-3989-4e87-ba51-36999a8a355d" d="M114.067,164.444c.211,0,.44.2.529.677.4,2.212-2.3,3.6-2.279,3.826,0,0,.02.782.028.942a2.325,2.325,0,0,0,.6.07,9.117,9.117,0,0,0,1.9-.326h.008c2.209-.661,6.359-1.89,8.032-2.513a2.012,2.012,0,0,1,.685-.12,1.066,1.066,0,0,1,1.115.643,1.409,1.409,0,0,1-.881,1.62c-2.941,1.092-5.8,2.322-7.359,2.912.029.09.058.18.086.272,2.273-.225,6.6-.64,8.353-.933a1.874,1.874,0,0,1,.311-.026c.645,0,1.33.31,1.425.879a1.275,1.275,0,0,1-1.066,1.417c-1.939.378-5.756,1.275-8.414,1.684.023.217.047.432.062.646,2.4.207,5.893.5,7.44.535.73.018,1.6.488,1.646,1.157A1.167,1.167,0,0,1,125.1,179h-.032c-1.586.011-4.41.126-6.861.126-.352,0-.7,0-1.03-.008-.017.149-.039.292-.064.429,2.257.583,4.679,1.443,6.515,1.951a1.308,1.308,0,0,1,.963,1.314c-.056.421-.508.625-.992.625a1.785,1.785,0,0,1-.465-.063c-1.555-.43-5.518-1.275-7.422-1.678a19.264,19.264,0,0,1-4.035.351c-.386,0-.719-.009-.957-.025-1.645-.109-2.386-.4-2.957-1.041l-15.137,2.39-.982-8.508,14.844-2.171c-.145-2.463,4.093-5.864,4.656-6.433a12.238,12.238,0,0,1,2.807-1.793.325.325,0,0,1,.115-.021m0-2.287a2.628,2.628,0,0,0-.9.16,13.856,13.856,0,0,0-3.65,2.337c-.057.055-.168.153-.311.282-1.906,1.713-3.832,3.665-4.626,5.723L91.313,172.6l-2.2.321.254,2.205.983,8.508L90.628,186l2.357-.372,14.127-2.231a7.261,7.261,0,0,0,3.457.905c.371.024.807.029,1.109.029a25.26,25.26,0,0,0,4.046-.3c4.339.921,6.095,1.347,6.8,1.542a4.048,4.048,0,0,0,1.074.145,3.112,3.112,0,0,0,3.26-2.61,3.485,3.485,0,0,0-.424-2.083,3.379,3.379,0,0,0,1.195-.818,3.476,3.476,0,0,0,.946-2.536,3.241,3.241,0,0,0-1.135-2.256,3.572,3.572,0,0,0,1.439-3.437,3.3,3.3,0,0,0-2.2-2.525,3.644,3.644,0,0,0,.2-2.454,3.289,3.289,0,0,0-3.311-2.291,4.32,4.32,0,0,0-1.475.262c-1.076.4-3.322,1.092-5.3,1.69a4.648,4.648,0,0,0,.049-1.955,2.882,2.882,0,0,0-2.779-2.553Z"></path> <polyline class="af451e0a-8433-49d1-a849-572df1001c31" points="49.05 167.233 77.42 180.039 100.864 177.181"></polyline> </g> </g> </svg> 