<?xml version="1.0" encoding="UTF-8"?> <svg xmlns="http://www.w3.org/2000/svg" viewBox="0 0 2734.747 1990.497"> <defs> <style>.f541dd01-3df9-47db-9adb-89f900c7f723{fill:#f7af4d;}.\36 d2ce613-6606-40cb-8e6c-e692c196f486{fill:#5a8dbf;}.ad47e540-9ca2-43a9-a21d-6c1d64f8c7ad{fill:#9fc1e6;}.\37 c1889d5-64dc-44af-ac18-39a0f79d25ba{fill:#b16516;}.\35 ef146b2-5be3-4ea2-830c-98e5eb945304{fill:#9bd3d5;}.\34 dc7947d-e3f8-4bdc-83f2-a9beff583822{fill:#f5ae9e;}.\39 a5a4bc3-497a-4c37-ab6c-da2ba895f724{fill:#e6325c;}.\34 a15566c-c271-409d-8caf-5992075e2441{fill:#109f88;}.cb6773e9-cd91-48f4-8b7d-f94e154658c5{fill:#66bfb4;}.\36 3b6a8c6-68e5-4209-a8c6-6aed82acb121{fill:#2bb19e;}.\31 fcd9b3d-c758-4cc1-88fc-c6330213a26a{fill:#2b2150;}.\34 f5b34c5-dc2b-4675-9ecc-f298241c5ec2{fill:#4b3584;}.\37 be1be79-b04f-4462-95ca-2ed88184b45f{fill:#ee7e94;}.ef21fe53-7267-4cd7-aaeb-b536decf7e6a{fill:#8ecfd4;}.fcfc4b7b-b8d0-40da-87f1-ffaf5daa04c9{fill:#c0e3e9;}.d64c5910-df0e-4d6c-b11d-2b4a6ad175e9{fill:#156c5d;}.c86f729c-d4e1-4660-96f3-f587132eabc0{fill:#e894b1;}.dd17f6c9-ca42-4929-be0d-1797084f226f{fill:#6756a0;}.\39 a2cbefd-ee67-4773-9fab-9a5bd8c70a95{fill:#ee7b9d;}</style> </defs> <title>Asset 91</title> <g id="c5740fc5-25d1-4d52-9ddc-aac8eb3ec61d" data-name="Layer 2"> <g id="77f34c83-afd1-45ff-add5-1549c3dc935c" data-name="Слой 1 (копия)"> <circle class="f541dd01-3df9-47db-9adb-89f900c7f723" cx="1543.224" cy="830.357" r="216.803" transform="translate(-135.151 1334.43) rotate(-45)"></circle> <path class="6d2ce613-6606-40cb-8e6c-e692c196f486" d="M1353.648,563.214v33.458h16.22c7.6,0,13.709,5.158,13.709,11.537V735.05c0,6.312-6.109,11.469-13.709,11.469h-16.22V1894.6c0,35.357-25.925,63.93-57.89,63.93H465.626c-31.964,0-57.889-28.573-57.889-63.93V174.344c0-35.29,25.925-63.929,57.889-63.929h830.132c31.965,0,57.89,28.639,57.89,63.929V302.95h11.469c10.18,0,18.46,8.958,18.46,20.02V543.194c0,11.062-8.28,20.02-18.46,20.02Z"></path> <path class="ad47e540-9ca2-43a9-a21d-6c1d64f8c7ad" d="M468.47,201.6h824.445a21.075,21.075,0,0,1,21.075,21.075V1861.266a21.076,21.076,0,0,1-21.076,21.076H468.47a21.076,21.076,0,0,1-21.076-21.076V222.674A21.076,21.076,0,0,1,468.47,201.6Z"></path> <path class="7c1889d5-64dc-44af-ac18-39a0f79d25ba" d="M1607.343,897.953q-8.783,22.015-35.552,29.555-24.63,6.745-52.971-1.253l-9.461,23.724-25.629-10.22,9.461-23.722q-27.264-14.178-40.758-36.462-13.515-22.278-5.08-43.43l1.368-3.43,27.6,11.009q-6.84,17.144,3.307,34.115,10.128,16.959,33.407,26.238,22.863,9.115,41.4,3.92t24.8-20.919q7.52-18.868-7.188-36.988-8.541-10.687-29.867-24.827-27.741-18.68-39.192-33.519-18.072-23.43-8.386-47.727,7.866-19.725,29.5-27t48.411.089l9.461-23.722,25.627,10.219-9.459,23.723q27.476,13.614,39.408,35.265t3.723,42.228l-27.605-11.009q6.382-16-3.263-30.781t-30.533-23.114q-19.725-7.863-35.7-3.3a32.147,32.147,0,0,0-22.142,19.989q-6.156,15.432,5.523,29.7,7.685,9.363,28.34,22.9,28.253,18.552,41.5,35.762Q1617.82,871.659,1607.343,897.953Z"></path> <path class="5ef146b2-5be3-4ea2-830c-98e5eb945304" d="M357.38,1985.407s-17.1-3.191-42.756-7.262l-188.529-31.9c-16.9-2.58-34.341-5.767-34.341-5.767s-1.9-50.289,21.718-80.151c3.6-4.547,6.989-6.921,10.383-7.94l-.544,2.171c1.358,24.5,39.295,40.652,51.918,33.459,38.073-21.65,56.736-19.41,56.6-19.343,0,0,61.486,45.608,94.808,46.151C377.605,1915.709,357.38,1985.407,357.38,1985.407Z"></path> <path class="4dc7947d-e3f8-4bdc-83f2-a9beff583822" d="M231.829,1868.676c.136-.067-18.527-2.307-56.6,19.343-12.623,7.193-50.56-8.958-51.918-33.459l4.751-18.187L230.269,1856.8Z"></path> <path class="9a5a4bc3-497a-4c37-ab6c-da2ba895f724" d="M525.688,1485.643,524.2,1861.552l-138.921,4.411L382.7,1483.811,358.6,1435.422l-10.791,50.561-75.534,379.233-148.083-29.589,85.443-383.983,7.058-242.01c-2.1-11.672-9.637-39.837-8.279-93.926.2-8.822,1.017-23.413,2.579-38.818,10.044,1.966,24.228,4.41,39.769,6.379,2.647.338,5.361.677,8.076.95,24.635,2.714,51.577,3.935,71.326-.136,4.616-.951,78.046-.408,110.825-.2,6.176,4.275,10.247,7.059,10.316,7.125,13.776,13.166,37.258,12.149,55.921,3.8l-.408,6.175Z"></path> <path class="f541dd01-3df9-47db-9adb-89f900c7f723" d="M2711,1653.878c48.235,107.82-.067,234.328-107.886,282.562s-234.329-.066-282.563-107.886.067-234.327,107.886-282.563S2662.769,1546.059,2711,1653.878Z"></path> <path class="7c1889d5-64dc-44af-ac18-39a0f79d25ba" d="M2607.8,1742.336q9.554,21.341-3.511,45.464-12.159,22.071-37.287,36.634l10.287,23-24.841,11.114-10.285-22.991q-28.77,9.545-53.823,3.789t-34.223-26.253l-1.492-3.326,26.762-11.972q7.435,16.63,26.416,21.1t41.529-5.608q22.167-9.92,31.223-26.6t2.233-31.925q-8.181-18.286-31.117-20.33-13.429-1.3-38.087,4.067-32.292,6.8-50.656,4.713-29.007-3.318-39.545-26.869-8.552-19.124,1.173-39.43t33.329-34.2l-10.286-23,24.84-11.114,10.293,23q28.523-10.089,52.033-3.657t32.448,26.385l-26.754,11.968q-6.94-15.509-24.032-18.842t-37.347,5.732q-19.115,8.554-26.867,23a31.724,31.724,0,0,0-1.075,29.406q6.691,14.957,24.826,16.5,11.89,1,35.678-4.325,32.538-7.241,53.821-4.793Q2596.4,1716.854,2607.8,1742.336Z"></path> <path class="4a15566c-c271-409d-8caf-5992075e2441" d="M2428.369,973.937v354.394h-62.98V973.937a58.87,58.87,0,0,0-58.841-58.84h62.981A58.87,58.87,0,0,1,2428.369,973.937Z"></path> <path class="4a15566c-c271-409d-8caf-5992075e2441" d="M2365.389,1540.546h62.98v354.532a58.87,58.87,0,0,1-58.84,58.838h-62.981a58.869,58.869,0,0,0,58.841-58.838Z"></path> <path class="cb6773e9-cd91-48f4-8b7d-f94e154658c5" d="M2428.369,1328.331v212.215h-62.98v354.532a58.869,58.869,0,0,1-58.841,58.838H1317.339c21.31-9.433,36.309-32.372,36.309-59.314V915.1h952.9a58.87,58.87,0,0,1,58.841,58.84v354.394Z"></path> <path class="63b6a8c6-68e5-4209-a8c6-6aed82acb121" d="M2424.294,1378.077V1364.5h-65.4V930.435A63.315,63.315,0,0,0,2344.6,921v53.343h-65.4V915.233l.208-.136,6.9-5.158H2264.97v64.405h-65.54V915.233l.208-.136,6.975-5.158H2185.2v64.405h-65.4V915.233l.206-.136,6.906-5.158h-21.409v64.405h-65.4V915.233l.208-.136,6.906-5.158h-21.341v64.405h-65.54V915.233l.208-.136,6.975-5.158h-21.409v64.405h-65.4V915.233l.207-.136h-14.5v59.247h-65.4V915.233l.207-.136h-14.433v59.247h-65.54V915.233l.208-.136,6.974-5.158h-21.409v64.405h-65.4V915.233l.206-.136,6.9-5.158h-21.407v64.405h-65.4V915.233l.206-.136,6.908-5.158h-21.341v64.405h-65.539V915.233l.207-.136,6.974-5.158H1468v64.405h-65.471V915.233l.206-.136,6.907-5.158h-21.409v64.405H1358.67v13.573h29.559v64.472H1358.67v13.574h29.559v64.472H1358.67v13.574h29.559v64.4H1358.67v13.572h29.559v64.474H1358.67v13.572h29.559V1364.5H1358.67v13.574h29.559v64.4H1358.67v13.573h29.559v64.473H1358.67V1534.1h29.559v64.4H1358.67v13.573h29.559v64.473H1358.67v13.573h29.559v64.471H1358.67v13.574h29.559v64.405H1358.67v13.573h29.559v64.472H1358.67v13.574h29.559v29.724h14.3v-29.724H1468v29.724h14.157v-29.724h65.539v29.724h14.227v-29.724h65.4v29.724h14.3v-29.724h65.4v29.724h14.227v-29.724h65.54v29.724h14.226v-29.724h65.4v29.724h14.3v-29.724h65.4v29.724h14.226v-29.724h65.54v29.724H2040.1v-29.724h65.4v29.724h14.3v-29.724h65.4v29.724h14.226v-29.724h65.54v29.724H2279.2v-29.724h65.4v23.82a63.282,63.282,0,0,0,14.295-9.434v-14.386h11.741a52.772,52.772,0,0,0,5.8-13.574h-17.541V1534.1h65.4v-13.572h-65.4v-64.473h65.4v-13.573h-65.4v-64.4ZM1468,1910.618h-65.471v-64.472H1468Zm0-78.045h-65.471v-64.405H1468Zm0-77.979h-65.471v-64.471H1468Zm0-78.044h-65.471v-64.473H1468Zm0-78.046h-65.471v-64.4H1468Zm0-77.977h-65.471v-64.473H1468Zm0-78.046h-65.471v-64.4H1468Zm0-77.978h-65.471v-64.472H1468Zm0-78.044h-65.471v-64.474H1468Zm0-78.046h-65.471v-64.4H1468Zm0-77.978h-65.471v-64.472H1468Zm0-78.046h-65.471V987.917H1468Zm79.7,858.229h-65.539v-64.472h65.539Zm0-78.045h-65.539v-64.405h65.539Zm0-77.979h-65.539v-64.471h65.539Zm0-78.044h-65.539v-64.473h65.539Zm0-78.046h-65.539v-64.4h65.539Zm0-77.977h-65.539v-64.473h65.539Zm0-78.046h-65.539v-64.4h65.539Zm0-77.978h-65.539v-64.472h65.539Zm0-78.044h-65.539v-64.474h65.539Zm0-78.046h-65.539v-64.4h65.539Zm0-77.978h-65.539v-64.472h65.539Zm0-78.046h-65.539V987.917h65.539Zm79.63,858.229h-65.4v-64.472h65.4Zm0-78.045h-65.4v-64.405h65.4Zm0-77.979h-65.4v-64.471h65.4Zm0-78.044h-65.4v-64.473h65.4Zm0-78.046h-65.4v-64.4h65.4Zm0-77.977h-65.4v-64.473h65.4Zm0-78.046h-65.4v-64.4h65.4Zm0-77.978h-65.4v-64.472h65.4Zm0-78.044h-65.4v-64.474h65.4Zm0-78.046h-65.4v-64.4h65.4Zm0-77.978h-65.4v-64.472h65.4Zm0-78.046h-65.4V987.917h65.4Zm79.7,858.229h-65.4v-64.472h65.4Zm0-78.045h-65.4v-64.405h65.4Zm0-77.979h-65.4v-64.471h65.4Zm0-78.044h-65.4v-64.473h65.4Zm0-78.046h-65.4v-64.4h65.4Zm0-77.977h-65.4v-64.473h65.4Zm0-78.046h-65.4v-64.4h65.4Zm0-77.978h-65.4v-64.472h65.4Zm0-78.044h-65.4v-64.474h65.4Zm0-78.046h-65.4v-64.4h65.4Zm0-77.978h-65.4v-64.472h65.4Zm0-78.046h-65.4V987.917h65.4Zm79.767,858.229h-65.54v-64.472h65.54Zm0-78.045h-65.54v-64.405h65.54Zm0-77.979h-65.54v-64.471h65.54Zm0-78.044h-65.54v-64.473h65.54Zm0-78.046h-65.54v-64.4h65.54Zm0-77.977h-65.54v-64.473h65.54Zm0-78.046h-65.54v-64.4h65.54Zm0-77.978h-65.54v-64.472h65.54Zm0-78.044h-65.54v-64.474h65.54Zm0-78.046h-65.54v-64.4h65.54Zm0-77.978h-65.54v-64.472h65.54Zm0-78.046h-65.54V987.917h65.54Zm79.628,858.229h-65.4v-64.472h65.4Zm0-78.045h-65.4v-64.405h65.4Zm0-77.979h-65.4v-64.471h65.4Zm0-78.044h-65.4v-64.473h65.4Zm0-78.046h-65.4v-64.4h65.4Zm0-77.977h-65.4v-64.473h65.4Zm0-78.046h-65.4v-64.4h65.4Zm0-77.978h-65.4v-64.472h65.4Zm0-78.044h-65.4v-64.474h65.4Zm0-78.046h-65.4v-64.4h65.4Zm0-77.978h-65.4v-64.472h65.4Zm0-78.046h-65.4V987.917h65.4Zm79.7,858.229h-65.4v-64.472h65.4Zm0-78.045h-65.4v-64.405h65.4Zm0-77.979h-65.4v-64.471h65.4Zm0-78.044h-65.4v-64.473h65.4Zm0-78.046h-65.4v-64.4h65.4Zm0-77.977h-65.4v-64.473h65.4Zm0-78.046h-65.4v-64.4h65.4Zm0-77.978h-65.4v-64.472h65.4Zm0-78.044h-65.4v-64.474h65.4Zm0-78.046h-65.4v-64.4h65.4Zm0-77.978h-65.4v-64.472h65.4Zm0-78.046h-65.4V987.917h65.4Zm79.766,858.229h-65.54v-64.472h65.54Zm0-78.045h-65.54v-64.405h65.54Zm0-77.979h-65.54v-64.471h65.54Zm0-78.044h-65.54v-64.473h65.54Zm0-78.046h-65.54v-64.4h65.54Zm0-77.977h-65.54v-64.473h65.54Zm0-78.046h-65.54v-64.4h65.54Zm0-77.978h-65.54v-64.472h65.54Zm0-78.044h-65.54v-64.474h65.54Zm0-78.046h-65.54v-64.4h65.54Zm0-77.978h-65.54v-64.472h65.54Zm0-78.046h-65.54V987.917h65.54Zm79.628,858.229h-65.4v-64.472h65.4Zm0-78.045h-65.4v-64.405h65.4Zm0-77.979h-65.4v-64.471h65.4Zm0-78.044h-65.4v-64.473h65.4Zm0-78.046h-65.4v-64.4h65.4Zm0-77.977h-65.4v-64.473h65.4Zm0-78.046h-65.4v-64.4h65.4Zm0-77.978h-65.4v-64.472h65.4Zm0-78.044h-65.4v-64.474h65.4Zm0-78.046h-65.4v-64.4h65.4Zm0-77.978h-65.4v-64.472h65.4Zm0-78.046h-65.4V987.917h65.4Zm79.7,858.229h-65.4v-64.472h65.4Zm0-78.045h-65.4v-64.405h65.4Zm0-77.979h-65.4v-64.471h65.4Zm0-78.044h-65.4v-64.473h65.4Zm0-78.046h-65.4v-64.4h65.4Zm0-77.977h-65.4v-64.473h65.4Zm0-78.046h-65.4v-64.4h65.4Zm0-77.978h-65.4v-64.472h65.4Zm0-78.044h-65.4v-64.474h65.4Zm0-78.046h-65.4v-64.4h65.4Zm0-77.978h-65.4v-64.472h65.4Zm0-78.046h-65.4V987.917h65.4Zm79.766,858.229h-65.54v-64.472h65.54Zm0-78.045h-65.54v-64.405h65.54Zm0-77.979h-65.54v-64.471h65.54Zm0-78.044h-65.54v-64.473h65.54Zm0-78.046h-65.54v-64.4h65.54Zm0-77.977h-65.54v-64.473h65.54Zm0-78.046h-65.54v-64.4h65.54Zm0-77.978h-65.54v-64.472h65.54Zm0-78.044h-65.54v-64.474h65.54Zm0-78.046h-65.54v-64.4h65.54Zm0-77.978h-65.54v-64.472h65.54Zm0-78.046h-65.54V987.917h65.54Zm79.629,858.229h-65.4v-64.472h65.4Zm0-78.045h-65.4v-64.405h65.4Zm0-77.979h-65.4v-64.471h65.4Zm0-78.044h-65.4v-64.473h65.4Zm0-78.046h-65.4v-64.4h65.4Zm0-77.977h-65.4v-64.473h65.4Zm0-78.046h-65.4v-64.4h65.4Zm0-77.978h-65.4v-64.472h65.4Zm0-78.044h-65.4v-64.474h65.4Zm0-78.046h-65.4v-64.4h65.4Zm0-77.978h-65.4v-64.472h65.4Zm0-78.046h-65.4V987.917h65.4Z"></path> <path class="1fcd9b3d-c758-4cc1-88fc-c6330213a26a" d="M990.231,166.118H747.15a5.09,5.09,0,0,1,0-10.18H990.231a5.09,5.09,0,0,1,0,10.18Z"></path> <path class="4f5b34c5-dc2b-4675-9ecc-f298241c5ec2" d="M545.708,803.459c.481,1.916-23.605,23.066-26.052,25.912a221.1,221.1,0,0,0-25.323,36.049,174.649,174.649,0,0,0-9.5,19.68C473.8,912.393,466.655,943.319,468,972.918c-4.819-1.22-8.62-2.375-10.316-2.985-7.33-2.512-17.713-2.579-25.721-.2l-49.339,59.18c1.9,13.776,39.7,41.8,58.365,54.97-32.779-.2-106.209-.747-110.825.2-26.028,5.366-53.287,2.493-79.4-.814-15.541-1.969-29.725-4.413-39.769-6.379-9.5-1.765-15.406-3.124-15.406-3.124L223.956,959.21,171.9,926.7s-13.913-19.816-14.388-35.018c-.407-13.233,43.569-242.619,55.515-299.016a24.3,24.3,0,0,1,14.59-17.51L302,547.673s5.09,1.018,6.922-.271c9.637,22.056,59.044,39.362,73.7,40.719,17.713,1.628,21.514-8.619,27.622-9.773a5.273,5.273,0,0,0,4.275-5.9c-.338-2.919-.746-6.99-1.085-11.809a68.1,68.1,0,0,1,48.048,10.655C487.818,589.275,530.912,746.516,545.708,803.459Z"></path> <path class="4dc7947d-e3f8-4bdc-83f2-a9beff583822" d="M421.785,526.771a95.438,95.438,0,0,1-9.773,1.085c.475,16.9,1.358,35.969,2.511,44.588a5.273,5.273,0,0,1-4.275,5.9c-6.108,1.154-9.909,11.4-27.622,9.773-14.658-1.357-64.2-18.731-73.7-40.787,2.308,0,18.46-48.388,20.835-51.985.272-.475.611-.95.883-1.494a149.283,149.283,0,0,1-26.808-32.3,17.433,17.433,0,0,0,6.38-5.836c12.622-19.681-22.735-43.3-14.592-65.219a44.874,44.874,0,0,1,39.635,10.112c15.948-18.391,4.75-46.624-6.923-67.934,49.542,24.636,108.993,28.5,161.385,10.588a296.559,296.559,0,0,1,12.69,49.542C508.924,459.041,474.381,517.473,421.785,526.771Z"></path> <path class="7be1be79-b04f-4462-95ca-2ed88184b45f" d="M467.346,437.076a23.336,23.336,0,0,0,23.311,23.311,16.688,16.688,0,0,0,3.662-.333,143.077,143.077,0,0,0,8.593-42.76,22.574,22.574,0,0,0-12.255-3.528A23.293,23.293,0,0,0,467.346,437.076Z"></path> <path class="1fcd9b3d-c758-4cc1-88fc-c6330213a26a" d="M438.849,447.843a15.782,15.782,0,0,1-10.034-3.1,5.09,5.09,0,1,1,6.323-7.979c2.209,1.752,8.844.828,15.763-2.2a.61.61,0,0,0,.325-.712l-11.453-48.269a5.089,5.089,0,0,1,9.9-2.353L461.131,431.5a10.78,10.78,0,0,1-6.154,12.391C450.927,445.666,444.747,447.843,438.849,447.843Z"></path> <path class="1fcd9b3d-c758-4cc1-88fc-c6330213a26a" d="M427.036,484.546a28.239,28.239,0,0,1-22.969-10.985,5.089,5.089,0,0,1,8.079-6.19c6.691,8.738,17.192,7.221,21.4,6.15,8.208-2.074,12.913-6.8,13.241-8.864a5.091,5.091,0,0,1,10.054,1.6c-1.163,7.283-9.716,14.328-20.8,17.129A36.776,36.776,0,0,1,427.036,484.546Z"></path> <path class="1fcd9b3d-c758-4cc1-88fc-c6330213a26a" d="M470.3,404.032a5.091,5.091,0,0,1-5.09-5.09v-8.47a5.09,5.09,0,0,1,10.18,0v8.47A5.091,5.091,0,0,1,470.3,404.032Z"></path> <path class="1fcd9b3d-c758-4cc1-88fc-c6330213a26a" d="M399.76,407.5a5.091,5.091,0,0,1-5.09-5.09v-8.469a5.09,5.09,0,1,1,10.18,0v8.469A5.091,5.091,0,0,1,399.76,407.5Z"></path> <path class="7be1be79-b04f-4462-95ca-2ed88184b45f" d="M362.116,443.092a23.311,23.311,0,1,0,23.31-23.311A23.31,23.31,0,0,0,362.116,443.092Z"></path> <path class="4a15566c-c271-409d-8caf-5992075e2441" d="M522.7,358.4c-.543,12.487-3.936,25.45-11.944,34.408a29.9,29.9,0,0,1-7.873,6.107c-.067-2.036-.271-4.071-.475-6.107a296.559,296.559,0,0,0-12.69-49.542,211.036,211.036,0,0,1-79,10.859c-2.783-.34-5.5-.68-8.144-.951-27.553-2.714-55.107-9.569-77.707-26.128l5.294,6.515,1.7,2.1c15,17.848,10.248,28.368,14.659,43.773,4.14,14.523-9.23,27.214-16.491,19.477a48.9,48.9,0,0,0-6.38-5.7c-6.108-4.546-12.555-6.446-19.409-4.818a27.631,27.631,0,0,0-2.85,1.154,13.918,13.918,0,0,0-6.923,6.176v.068c-5.361,10.451,5.973,26.942,14.455,36.715,0,0,5.294,14.931.069,24.839-.069.068-.136.136-.136.2a14.07,14.07,0,0,1-4.412,5.022s-17.916.475-38.411-19.477c-22.328-21.649-23.414-40.381-26.128-70.919-2.715-30.473,17.305-71.6,48.8-78.182,6.583-24.771,33.458-44.18,59.857-49,17.577-3.189,37.6-4.682,55.106-1.425,29.184,5.361,46.557,12.623,46.557,12.623s9.433-6.04,17.237-5.972c22.939.2,37.394,16.491,44.588,32.1a29.992,29.992,0,0,1,2.443,12.216,51.927,51.927,0,0,1-2.307,16.152A93.99,93.99,0,0,1,522.7,358.4Z"></path> <path class="1fcd9b3d-c758-4cc1-88fc-c6330213a26a" d="M324.866,423.215a3.392,3.392,0,0,1-3.257-2.439c-1.223-4.172-7.98-8.413-10.253-9.566a3.4,3.4,0,1,1,3.082-6.051c1.159.592,11.425,6.008,13.684,13.709a3.39,3.39,0,0,1-3.256,4.347Z"></path> <path class="1fcd9b3d-c758-4cc1-88fc-c6330213a26a" d="M425,339.082q-1.437,0-2.877-.037c-3.529-.1-7.044-.347-10.541-.735a3.394,3.394,0,0,1,.749-6.747q4.966.554,9.978.7a91.589,91.589,0,0,0,38.407-6.943c5.208-2.214,23.61-14.7,26.526-22.511a3.392,3.392,0,0,1,6.356,2.373c-4.07,10.912-25.433,24.347-30.225,26.382A98.563,98.563,0,0,1,425,339.082Z"></path> <path class="1fcd9b3d-c758-4cc1-88fc-c6330213a26a" d="M385.275,384.017a5.09,5.09,0,0,1-2.253-9.656c1.525-.746,15.2-7.28,25.483-6.82a5.089,5.089,0,0,1-.471,10.167c-6.482-.352-17.029,4.072-20.521,5.788A5.089,5.089,0,0,1,385.275,384.017Z"></path> <path class="1fcd9b3d-c758-4cc1-88fc-c6330213a26a" d="M480.079,382.353a5.051,5.051,0,0,1-1.824-.341c-4.065-1.561-11.292-3.334-14.609-2.369a5.09,5.09,0,1,1-2.817-9.782c7.914-2.28,19.767,2.14,21.089,2.654a5.09,5.09,0,0,1-1.839,9.838Z"></path> <path class="1fcd9b3d-c758-4cc1-88fc-c6330213a26a" d="M540.087,854.868a5.094,5.094,0,0,1-4.894-6.5A97.613,97.613,0,0,1,546.234,823.6a5.091,5.091,0,1,1,8.636,5.4,87.471,87.471,0,0,0-9.895,22.188A5.091,5.091,0,0,1,540.087,854.868Z"></path> <path class="f541dd01-3df9-47db-9adb-89f900c7f723" d="M895.622,968.44c0,118.085-95.689,213.845-213.844,213.845a213.557,213.557,0,0,1-172.989-88.158c8.416-3.936,15.676-9.366,20.5-15.61,4.954-7.125-5.159-23.617-18.121-39.565-11.4-14.048-25.111-27.62-32.576-33.934-1.153-.882-2.1-1.627-2.917-2.237,0,0,15.269-2.106,21.309-4.208,4.344-1.494,13.709-11.131,13.506-14.185-.747-9.433-3.394-11.062-10.248-8.958-8.348,2.51-22.4-.068-32.237-2.512-3.837-1.042,3.268-42.676,4.141-46.894a213.832,213.832,0,0,1,73.566-122.565,212.8,212.8,0,0,1,136.07-48.932C799.933,754.527,895.622,850.286,895.622,968.44Z"></path> <path class="7c1889d5-64dc-44af-ac18-39a0f79d25ba" d="M765.084,1006.916q0,23.376-21.778,40.067-20.1,15.18-48.99,18.211v25.191H667.1v-25.191q-30.151-3.03-50.674-18.517t-20.518-37.941v-3.643h29.313q0,18.213,15.494,30.05t40.2,11.84q24.278,0,39.361-11.535t15.077-28.23q0-20.032-20.1-31.262-11.728-6.677-36.43-11.84-32.249-6.98-48.162-16.39-25.122-14.868-25.125-40.674,0-20.946,17.173-35.512t44.39-17.607V828.739h27.219v25.194q30.151,2.436,48.99,17.908t18.849,37.335H732.841q0-16.994-14.242-27.012t-36.431-10.018q-20.946,0-33.92,10.018a31.739,31.739,0,0,0-12.983,26.406q0,16.389,15.919,25.194,10.458,5.768,34.337,10.621,32.657,6.681,51.085,17.607Q765.086,979,765.084,1006.916Z"></path> <path class="f541dd01-3df9-47db-9adb-89f900c7f723" d="M2254.922,1434.431a67.947,67.947,0,1,1-67.948-67.948A67.946,67.946,0,0,1,2254.922,1434.431Z"></path> <path class="1fcd9b3d-c758-4cc1-88fc-c6330213a26a" d="M2186.974,1507.468a73.037,73.037,0,1,1,73.039-73.039A73.123,73.123,0,0,1,2186.974,1507.468Zm0-135.893a62.857,62.857,0,1,0,62.86,62.854A62.926,62.926,0,0,0,2186.974,1371.575Z"></path> <path class="1fcd9b3d-c758-4cc1-88fc-c6330213a26a" d="M2278.651,1901.45h-27.688a3.393,3.393,0,0,1,0-6.786h27.688a35.006,35.006,0,0,0,34.556-28.992,3.394,3.394,0,1,1,6.686,1.169A41.779,41.779,0,0,1,2278.651,1901.45Zm-109.126,0h-81.439a3.393,3.393,0,1,1,0-6.786h81.439a3.393,3.393,0,0,1,0,6.786Zm-162.877,0h-81.439a3.393,3.393,0,1,1,0-6.786h81.439a3.393,3.393,0,0,1,0,6.786Zm-325.756,0h-81.438a3.393,3.393,0,1,1,0-6.786h81.438a3.393,3.393,0,1,1,0,6.786Zm-162.877,0h-81.439a3.393,3.393,0,1,1,0-6.786h81.439a3.393,3.393,0,1,1,0,6.786Zm-162.878,0H1345a3.393,3.393,0,0,1,0-6.786h10.134a3.393,3.393,0,1,1,0,6.786Zm961.99-113.205a3.393,3.393,0,0,1-3.395-3.393v-81.438a3.394,3.394,0,0,1,6.787,0v81.438A3.391,3.391,0,0,1,2317.127,1788.245Z"></path> <polygon class="f541dd01-3df9-47db-9adb-89f900c7f723" points="1390.769 1527.314 1390.769 1612.077 1450.152 1612.077 1450.152 1700.302 1414.523 1700.302 1414.523 1953.307 967.968 1953.307 967.968 1700.031 1003.597 1700.031 1003.597 1615.54 944.214 1615.54 944.214 1527.314 1032.846 1527.314 1032.846 1439.088 1479.471 1439.088 1479.471 1527.314 1390.769 1527.314"></polygon> <path class="9a5a4bc3-497a-4c37-ab6c-da2ba895f724" d="M1748.219,1290.936c-.612.681-12.08,64.677-12.08,64.677a9.7,9.7,0,0,1-10.927,7.669h-.135a9.652,9.652,0,0,1-8.212-10.587l5.158-51.374a66.482,66.482,0,0,0-23.143,16.492c-11.061,12.554-17.373,31.081-31.423,38.75-6.65,3.666-14.114,4.276-21.376,4.547a228.044,228.044,0,0,1-68.41-7.8c-3.052-.882-6.311-1.9-8.414-4.479-2.173-2.646-2.716-6.514-3.121-10.112-1.765-13.979-2.919-30.2,6.038-40.584,10.521-12.147,28.233-8.686,42.349-14.589,23.754-9.841,31.693-42.079,42.281-67.8a7.631,7.631,0,0,1,.474-1.086l-.814,6.787c-3.121,23.956,18.731,37.393,51.306,18.392,13.98-8.077,27.894-27.893,31.083-43.707l.747-3.664c8.279,6.651,14.659,16.83,17.509,27.96,5.293,20.564,1.085,43.1-5.566,63.659C1750.73,1286.525,1749.846,1289.1,1748.219,1290.936Z"></path> <path class="4dc7947d-e3f8-4bdc-83f2-a9beff583822" d="M1731.659,1084.354c9.908,1.766,19.818,3.326,29.793,4.75-1.019,3.461-10.79,48.187-10.79,48.187l-11.809,58.837c-3.189,15.814-17.1,35.63-31.083,43.707-32.575,19-54.427,5.564-51.306-18.392l17.17-147.337C1697.048,1079.671,1726.569,1083.4,1731.659,1084.354Z"></path> <path class="9a5a4bc3-497a-4c37-ab6c-da2ba895f724" d="M1960.91,1310.279h-.137a9.659,9.659,0,0,1-12.216-5.5l-19.2-47.913c-5.837,7.4-10.587,15.676-12.894,25.246-3.937,16.287-.951,35.63-9.841,49-4.207,6.243-10.519,10.314-16.831,13.912a229,229,0,0,1-64.2,24.771c-3.121.679-6.445,1.29-9.569-.068s-5.36-4.479-7.464-7.466c-8.008-11.537-16.558-25.449-13.437-38.75,3.664-15.677,20.969-20.835,30.742-32.577,16.424-19.747,8.552-51.984,6.041-79.673,0-.34-.067-.679-.067-1.018l2.375,6.244c8.346,22.6,33.931,24.431,54.02-7.533,8.552-13.641,11.741-37.666,7.194-53.138l-1.086-3.666a53.769,53.769,0,0,1,28.572,16.764c14.251,15.743,20.9,37.665,24.567,58.906.475,2.579.067,8.551.272,7.669s19.274,62.843,19.274,62.843A9.722,9.722,0,0,1,1960.91,1310.279Z"></path> <path class="4dc7947d-e3f8-4bdc-83f2-a9beff583822" d="M1888.225,1208.956c-20.089,31.964-45.674,30.132-54.02,7.533L1786.629,1092.3q6.72.814,13.439,1.425a681.456,681.456,0,0,0,78.181,3.121l17.17,58.977C1899.966,1171.29,1896.777,1195.315,1888.225,1208.956Z"></path> <path class="4f5b34c5-dc2b-4675-9ecc-f298241c5ec2" d="M2206.04,714.623c-8.007-16.084-14.931-31.762-19.681-49.135,5.837-.883,11.808-1.358,17.305-3.665,16.22-6.651,26.265-24.5,23.415-43.434,0,0-31.22-205.7-31.287-206.243-2.646-17.375-1.967-42.552-10.926-58.025-14.8-25.586-58.229-33.73-84.9-43.978a45.723,45.723,0,0,0,1.9,4.683c6.513,11.809-21.651,32.983-43.231,40.313C1985.68,379.909,2000,322.834,2000,322.834l2.782-14.523c-12.624,1.425-21.175,2.782-21.175,2.782v.34c-10.995.95-30.065,5.158-35.9,23.277-12.353,38.209-55.516,74.246-48.594,132.814l-25.45,72.345c16.22-6.72,36.715-8.619,53.208-5.362l66.169,22.667-14.931,59.179-42.22-8.083c6.515,20.9,8.423,91.694,8.423,91.694-4.411,1.289-10.248,2.985-17.035,5.022l16.425,59.857H1773.737c-16.425,9.5-29.184,19.274-35.223,28.911-10.791,17.373-16.831,39.09-23.957,58.16-25.449,68.137-50.7,137.225-70.445,207.262-3.664,13.369,78.724,23.617,87.547,25.178,22.667,4,45.47,7.194,68.409,9.366,49.067,4.614,97.184,4.614,139.464-1.765,7.6-1.154,15.066-2.511,22.259-4.072a274.308,274.308,0,0,0,32.373-9.093c4.208-1.7-3.122-45.81-3.666-50.153-7.193-59.587-21.988-114.965-19.952-109.536,7.262.747,22.532.95,40.244.747,36.038-.407,72.481-1.9,108.382-4.954,27.418-2.308,53.478-8.008,75.67-26.739,24.771-20.9,41.262-53.207,42.213-85.647C2238.005,772.172,2219.273,741.158,2206.04,714.623Zm-257.076-53.615a5.044,5.044,0,0,0,.069-1.017C1949.1,660.805,1949.1,661.145,1948.964,661.008Zm-52.392-60.332,8.824,31.965a22.5,22.5,0,0,0,21.377-15l3.6-10.316Z"></path> <path class="4dc7947d-e3f8-4bdc-83f2-a9beff583822" d="M2167.423,187.51c-8.686,11.74-20.495,20.224-29.317,31.761-11.333,14.863-22.056,26.468-37.055,37.869q-4.989,2.953-10.179,5.5a13.591,13.591,0,0,0,.068,1.7,129.314,129.314,0,0,0,1.222,14.252v.136a135.655,135.655,0,0,0,9.568,35.832c.137.2.137.272.137.272,6.513,11.809-21.651,32.983-43.231,40.313C1985.68,379.909,2000,322.834,2000,322.834l9.567-50.085v-.067c-31.623-11.4-46.555-43.231-49.2-81.778a191.719,191.719,0,0,1,.406-31.829c1.018-10.317,2.85-20.5,6.65-30.065,7.806-19.477,14.456-36.1,21.04-49.949,3.8,5.09,9.161,9.772,13.233,13.438,16.153,14.523,46.421,12.011,67.73,16.219,48.66,9.637,60.2,60.74,60.2,60.74C2147.946,143.194,2185.612,163.01,2167.423,187.51Z"></path> <path class="1fcd9b3d-c758-4cc1-88fc-c6330213a26a" d="M2017.577,200.86c-6.847,0-14.615-3.212-17.355-4.455a8.834,8.834,0,0,1-4.576-7.074,9.606,9.606,0,0,1,2.366-7.148l21.326-40.59a5.09,5.09,0,1,1,9.013,4.732l-21.677,41.259c-.079.153-.169.3-.262.445,4.681,1.826,11.051,3.32,13.023,2.418a5.089,5.089,0,0,1,4.241,9.253A14.67,14.67,0,0,1,2017.577,200.86Z"></path> <path class="f541dd01-3df9-47db-9adb-89f900c7f723" d="M2241.277,446.051l38.972-1.946a54.188,54.188,0,0,0-.013-40.524c-9.324-22.8-36.843-40.461-33.763-67.628,1.293-11.417,8.641-21.285,11.181-32.493,3.93-17.342-3.907-35.34-13.377-49.541-6.92-10.376-21.74-19.71-24.2-32.312-5.908-30.306,4.888-59.518,3.329-90.069-1.523-29.85-9.913-60.318-28.276-84.322-20.621-26.954-51.624-38.788-84.79-41.6-47.27-4.015-70.142,16.539-74.436,16.875C2013,24.281,1978.2,44,1984.345,70.746c1.872,8.146,11.152,16.171,17.36,21.769,16.121,14.536,46.407,12.016,67.7,16.224,48.655,9.615,60.2,60.712,60.2,60.712,18.349-26.287,55.976-6.472,37.794,18.064-8.681,11.714-20.471,20.251-29.274,31.778-13.7,17.948-26.558,31.208-47.19,45.041-2.194,9.541,10.893,50.475,10.893,50.475l47.067,15.439c9.23,6.128,29.051,11.865,34.282,21.633,7.086,13.23,18.048,96.168,18.048,96.168l19.128-.955Z"></path> <path class="7be1be79-b04f-4462-95ca-2ed88184b45f" d="M2038.636,199.547a23.752,23.752,0,1,0,29.192-16.624A23.753,23.753,0,0,0,2038.636,199.547Z"></path> <path class="1fcd9b3d-c758-4cc1-88fc-c6330213a26a" d="M2137.4,196.024a3.393,3.393,0,0,1-1.822-6.256c6-3.814,11.376-9.258,12.234-12.4a3.395,3.395,0,0,1,6.548,1.795c-1.537,5.61-8.714,12.245-15.143,16.328A3.387,3.387,0,0,1,2137.4,196.024Z"></path> <path class="1fcd9b3d-c758-4cc1-88fc-c6330213a26a" d="M1990.072,149.049a5.019,5.019,0,0,1-1.349-.182,5.083,5.083,0,0,1-3.562-6.253l1.948-7.1a5.089,5.089,0,1,1,9.815,2.691l-1.948,7.1A5.092,5.092,0,0,1,1990.072,149.049Z"></path> <path class="1fcd9b3d-c758-4cc1-88fc-c6330213a26a" d="M2060.28,174.442a5,5,0,0,1-1.351-.182A5.087,5.087,0,0,1,2055.37,168l1.8-6.542a5.09,5.09,0,1,1,9.815,2.7l-1.8,6.541A5.092,5.092,0,0,1,2060.28,174.442Z"></path> <path class="7be1be79-b04f-4462-95ca-2ed88184b45f" d="M1965.962,157.31c-.168,1.842-.274,3.7-.382,5.553a217.9,217.9,0,0,0,.269,31.964c.273,3.267.624,6.482,1.067,9.579,10.346.3,20.042-7.42,22.652-18.727,2.964-12.828-4.237-25.357-16.02-28.079A19.552,19.552,0,0,0,1965.962,157.31Z"></path> <path class="4dc7947d-e3f8-4bdc-83f2-a9beff583822" d="M1991.042,557.174l-14.931,59.179-37.258-7.33-8.482-1.7-33.8-6.651-9.161-33.39h-42.552c2.307-12.487,13.03-21.716,26.806-27.417,16.22-6.72,36.715-8.619,53.208-5.362Z"></path> <path class="1fcd9b3d-c758-4cc1-88fc-c6330213a26a" d="M2191.147,271.081a3.391,3.391,0,0,1-2.937-1.687c-3.976-6.843-8.339-15.054-10.55-24.087-3.1-12.7-1.714-26,.056-37.343a3.394,3.394,0,1,1,6.707,1.047c-1.667,10.677-2.988,23.15-.17,34.685,2.006,8.195,6.092,15.863,9.823,22.285a3.393,3.393,0,0,1-2.929,5.1Z"></path> <path class="1fcd9b3d-c758-4cc1-88fc-c6330213a26a" d="M2033.513,230.509c-1.175,2.164-7.479,13-15.777,15.555a32.568,32.568,0,0,1-9.44,1.329c-7.53,0-15.589-2.3-20.462-7.411-4.467-4.686,2.754-11.821,7.378-7.037,3.613,3.8,12.932,5.4,19.526,3.391,1.642-.5,2.9-1.838,4.123-2.965,0,.729-11.4-1.248-12.355-1.507a37.445,37.445,0,0,1-11.873-5.427,29.579,29.579,0,0,1-8.349-8.978c-3.318-5.645,5.507-10.816,8.808-5.129a18.917,18.917,0,0,0,5.452,5.809c6.3,4.494,17.818,7.027,24.076,4.856C2030.686,220.89,2036.578,224.867,2033.513,230.509Z"></path> <polygon class="ef21fe53-7267-4cd7-aaeb-b536decf7e6a" points="1941.723 764.853 2075.724 726.294 1855.917 718.438 1659.208 764.853 1941.723 764.853"></polygon> <polygon class="fcfc4b7b-b8d0-40da-87f1-ffaf5daa04c9" points="1941.723 764.853 1659.208 764.853 1604.915 567.31 1887.431 567.31 1941.723 764.853"></polygon> <path class="d64c5910-df0e-4d6c-b11d-2b4a6ad175e9" d="M1743.863,664.822c3.02,10.7,11.8,17.592,19.621,15.387s11.7-12.671,8.681-23.374-11.8-17.591-19.62-15.386S1740.843,654.12,1743.863,664.822Z"></path> <path class="1fcd9b3d-c758-4cc1-88fc-c6330213a26a" d="M1760.5,685.708c-9.44,0-18.3-8.02-21.532-19.5a29.306,29.306,0,0,1,.405-18.024c2.186-5.891,6.484-10.13,11.793-11.628a16.018,16.018,0,0,1,4.368-.6c9.434,0,18.291,8.019,21.532,19.5a29.344,29.344,0,0,1-.4,18.027c-2.19,5.892-6.49,10.13-11.793,11.625A16.07,16.07,0,0,1,1760.5,685.708Zm-4.966-39.58a5.9,5.9,0,0,0-1.6.219c-2.937.828-4.4,3.724-5.018,5.375a19.408,19.408,0,0,0-.148,11.717c2.517,8.917,9.013,13.09,13.34,11.87,2.933-.829,4.4-3.721,5.014-5.372a19.432,19.432,0,0,0,.153-11.72C1765.051,650.367,1759.564,646.128,1755.532,646.128Z"></path> <path class="c86f729c-d4e1-4660-96f3-f587132eabc0" d="M1958.56,341.952a15.846,15.846,0,0,1-23.617,13.844c.066-.136.135-.2.2-.339,2.511-5.9,4.953-11.809,7.464-17.646a28.392,28.392,0,0,1,3.123-6.039c1.153-1.493,2.511-2.783,3.8-4.208A15.96,15.96,0,0,1,1958.56,341.952Z"></path> <path class="c86f729c-d4e1-4660-96f3-f587132eabc0" d="M2114.356,341.952a15.847,15.847,0,0,1-30.539,5.972c.2-.068.8,1.619.542-.272,7.805-4,14.8-9.7,19.477-17.034a18.275,18.275,0,0,0,1.63-2.987A16.012,16.012,0,0,1,2114.356,341.952Z"></path> <path class="c86f729c-d4e1-4660-96f3-f587132eabc0" d="M2184.891,354.1a15.534,15.534,0,0,1-10.18,3.732,15.9,15.9,0,0,1-15.879-15.88,15.109,15.109,0,0,1,1.966-7.6C2170.1,338.694,2179.53,344.87,2184.891,354.1Z"></path> <path class="c86f729c-d4e1-4660-96f3-f587132eabc0" d="M1990.655,382.891a10.26,10.26,0,1,1-10.26-10.259A10.261,10.261,0,0,1,1990.655,382.891Z"></path> <path class="c86f729c-d4e1-4660-96f3-f587132eabc0" d="M2066.01,382.891a10.26,10.26,0,1,1-10.261-10.259A10.261,10.261,0,0,1,2066.01,382.891Z"></path> <path class="c86f729c-d4e1-4660-96f3-f587132eabc0" d="M2141.364,382.891a10.26,10.26,0,1,1-10.26-10.259A10.261,10.261,0,0,1,2141.364,382.891Z"></path> <path class="c86f729c-d4e1-4660-96f3-f587132eabc0" d="M1958.59,423.837a15.872,15.872,0,1,1-15.872-15.871A15.872,15.872,0,0,1,1958.59,423.837Z"></path> <path class="c86f729c-d4e1-4660-96f3-f587132eabc0" d="M2035.923,423.837a15.872,15.872,0,1,1-15.871-15.871A15.871,15.871,0,0,1,2035.923,423.837Z"></path> <path class="c86f729c-d4e1-4660-96f3-f587132eabc0" d="M2113.257,423.837a15.872,15.872,0,1,1-15.871-15.871A15.87,15.87,0,0,1,2113.257,423.837Z"></path> <path class="c86f729c-d4e1-4660-96f3-f587132eabc0" d="M2190.591,423.837a15.871,15.871,0,1,1-15.87-15.871A15.87,15.87,0,0,1,2190.591,423.837Z"></path> <path class="c86f729c-d4e1-4660-96f3-f587132eabc0" d="M1915.3,464.783a10.26,10.26,0,1,1-10.262-10.261A10.261,10.261,0,0,1,1915.3,464.783Z"></path> <path class="c86f729c-d4e1-4660-96f3-f587132eabc0" d="M1990.655,464.783a10.26,10.26,0,1,1-10.26-10.261A10.261,10.261,0,0,1,1990.655,464.783Z"></path> <path class="c86f729c-d4e1-4660-96f3-f587132eabc0" d="M2066.01,464.783a10.26,10.26,0,1,1-10.261-10.261A10.261,10.261,0,0,1,2066.01,464.783Z"></path> <path class="c86f729c-d4e1-4660-96f3-f587132eabc0" d="M2141.364,464.783a10.26,10.26,0,1,1-10.26-10.261A10.261,10.261,0,0,1,2141.364,464.783Z"></path> <circle class="c86f729c-d4e1-4660-96f3-f587132eabc0" cx="1942.718" cy="505.728" r="15.872" transform="translate(1419.705 2443.864) rotate(-89.49)"></circle> <path class="c86f729c-d4e1-4660-96f3-f587132eabc0" d="M2035.923,505.728a15.872,15.872,0,1,1-15.871-15.872A15.872,15.872,0,0,1,2035.923,505.728Z"></path> <path class="c86f729c-d4e1-4660-96f3-f587132eabc0" d="M2113.257,505.728a15.872,15.872,0,1,1-15.871-15.872A15.871,15.871,0,0,1,2113.257,505.728Z"></path> <path class="c86f729c-d4e1-4660-96f3-f587132eabc0" d="M2190.591,505.728a15.871,15.871,0,1,1-15.87-15.872A15.871,15.871,0,0,1,2190.591,505.728Z"></path> <path class="c86f729c-d4e1-4660-96f3-f587132eabc0" d="M1990.66,546.7a9.551,9.551,0,0,1-1.493,5.158,19.006,19.006,0,0,0-1.9-.408c-6.04-.882-11.13-5.428-16.967-6.447a10.245,10.245,0,0,1,20.36,1.7Z"></path> <path class="c86f729c-d4e1-4660-96f3-f587132eabc0" d="M2066.01,546.674a10.26,10.26,0,1,1-10.261-10.26A10.26,10.26,0,0,1,2066.01,546.674Z"></path> <path class="c86f729c-d4e1-4660-96f3-f587132eabc0" d="M2141.364,546.674a10.26,10.26,0,1,1-10.26-10.26A10.26,10.26,0,0,1,2141.364,546.674Z"></path> <path class="c86f729c-d4e1-4660-96f3-f587132eabc0" d="M2216.719,546.674a10.26,10.26,0,1,1-10.26-10.26A10.259,10.259,0,0,1,2216.719,546.674Z"></path> <path class="c86f729c-d4e1-4660-96f3-f587132eabc0" d="M2035.923,587.619a15.872,15.872,0,1,1-15.871-15.871A15.87,15.87,0,0,1,2035.923,587.619Z"></path> <path class="c86f729c-d4e1-4660-96f3-f587132eabc0" d="M2113.257,587.619a15.872,15.872,0,1,1-15.871-15.871A15.869,15.869,0,0,1,2113.257,587.619Z"></path> <path class="c86f729c-d4e1-4660-96f3-f587132eabc0" d="M2190.591,587.619a15.871,15.871,0,1,1-15.87-15.871A15.869,15.869,0,0,1,2190.591,587.619Z"></path> <path class="c86f729c-d4e1-4660-96f3-f587132eabc0" d="M1990.655,628.564a10.26,10.26,0,1,1-10.26-10.26A10.261,10.261,0,0,1,1990.655,628.564Z"></path> <path class="c86f729c-d4e1-4660-96f3-f587132eabc0" d="M2066.01,628.564a10.26,10.26,0,1,1-10.261-10.26A10.261,10.261,0,0,1,2066.01,628.564Z"></path> <path class="c86f729c-d4e1-4660-96f3-f587132eabc0" d="M2141.364,628.564a10.26,10.26,0,1,1-10.26-10.26A10.261,10.261,0,0,1,2141.364,628.564Z"></path> <path class="c86f729c-d4e1-4660-96f3-f587132eabc0" d="M2216.719,628.564a10.26,10.26,0,1,1-10.26-10.26A10.26,10.26,0,0,1,2216.719,628.564Z"></path> <path class="c86f729c-d4e1-4660-96f3-f587132eabc0" d="M1953.5,668.5a15.621,15.621,0,0,1-8.076,13.71V681.8c-.425-8.305-1.173-14.323-1.765-26.4a9.274,9.274,0,0,0-.27-1.763A15.938,15.938,0,0,1,1953.5,668.5Z"></path> <path class="c86f729c-d4e1-4660-96f3-f587132eabc0" d="M2035.923,669.51a15.872,15.872,0,1,1-15.871-15.871A15.871,15.871,0,0,1,2035.923,669.51Z"></path> <path class="c86f729c-d4e1-4660-96f3-f587132eabc0" d="M2113.257,669.51a15.872,15.872,0,1,1-15.871-15.871A15.87,15.87,0,0,1,2113.257,669.51Z"></path> <path class="c86f729c-d4e1-4660-96f3-f587132eabc0" d="M2177.833,663.431a63.079,63.079,0,0,0,3.122,20.7,17.067,17.067,0,0,1-6.244,1.222,15.847,15.847,0,1,1,12.759-25.247A59.954,59.954,0,0,0,2177.833,663.431Z"></path> <path class="c86f729c-d4e1-4660-96f3-f587132eabc0" d="M1990.66,710.462a10.441,10.441,0,0,1-2.783,7.058l-15.337-.543a9.964,9.964,0,0,1-2.376-6.515,10.248,10.248,0,0,1,20.5,0Z"></path> <path class="c86f729c-d4e1-4660-96f3-f587132eabc0" d="M2066.01,710.455a10.26,10.26,0,1,1-10.261-10.26A10.26,10.26,0,0,1,2066.01,710.455Z"></path> <path class="c86f729c-d4e1-4660-96f3-f587132eabc0" d="M2141.364,710.455a10.26,10.26,0,1,1-10.26-10.26A10.26,10.26,0,0,1,2141.364,710.455Z"></path> <path class="c86f729c-d4e1-4660-96f3-f587132eabc0" d="M2035.925,751.384a15.857,15.857,0,0,1-31.691.883l29.656-8.619A15.844,15.844,0,0,1,2035.925,751.384Z"></path> <path class="c86f729c-d4e1-4660-96f3-f587132eabc0" d="M2113.257,751.4a15.872,15.872,0,1,1-15.871-15.872A15.87,15.87,0,0,1,2113.257,751.4Z"></path> <path class="c86f729c-d4e1-4660-96f3-f587132eabc0" d="M2190.591,751.4a15.871,15.871,0,1,1-15.87-15.872A15.87,15.87,0,0,1,2190.591,751.4Z"></path> <path class="c86f729c-d4e1-4660-96f3-f587132eabc0" d="M1764.591,792.346a10.26,10.26,0,1,1-10.259-10.26A10.26,10.26,0,0,1,1764.591,792.346Z"></path> <path class="c86f729c-d4e1-4660-96f3-f587132eabc0" d="M1839.946,792.346a10.26,10.26,0,1,1-10.26-10.26A10.259,10.259,0,0,1,1839.946,792.346Z"></path> <path class="c86f729c-d4e1-4660-96f3-f587132eabc0" d="M1915.3,792.346a10.26,10.26,0,1,1-10.262-10.26A10.26,10.26,0,0,1,1915.3,792.346Z"></path> <path class="c86f729c-d4e1-4660-96f3-f587132eabc0" d="M1990.655,792.346a10.26,10.26,0,1,1-10.26-10.26A10.26,10.26,0,0,1,1990.655,792.346Z"></path> <path class="c86f729c-d4e1-4660-96f3-f587132eabc0" d="M2066.01,792.346a10.26,10.26,0,1,1-10.261-10.26A10.26,10.26,0,0,1,2066.01,792.346Z"></path> <path class="c86f729c-d4e1-4660-96f3-f587132eabc0" d="M2141.364,792.346a10.26,10.26,0,1,1-10.26-10.26A10.26,10.26,0,0,1,2141.364,792.346Z"></path> <path class="c86f729c-d4e1-4660-96f3-f587132eabc0" d="M2216.719,792.346a10.26,10.26,0,1,1-10.26-10.26A10.259,10.259,0,0,1,2216.719,792.346Z"></path> <path class="c86f729c-d4e1-4660-96f3-f587132eabc0" d="M1803.921,833.291a15.872,15.872,0,1,1-15.872-15.871A15.872,15.872,0,0,1,1803.921,833.291Z"></path> <path class="c86f729c-d4e1-4660-96f3-f587132eabc0" d="M1881.254,833.291a15.871,15.871,0,1,1-15.871-15.871A15.872,15.872,0,0,1,1881.254,833.291Z"></path> <path class="c86f729c-d4e1-4660-96f3-f587132eabc0" d="M1958.59,833.291a15.872,15.872,0,1,1-15.872-15.871A15.872,15.872,0,0,1,1958.59,833.291Z"></path> <path class="c86f729c-d4e1-4660-96f3-f587132eabc0" d="M2035.923,833.291a15.872,15.872,0,1,1-15.871-15.871A15.871,15.871,0,0,1,2035.923,833.291Z"></path> <path class="c86f729c-d4e1-4660-96f3-f587132eabc0" d="M2113.257,833.291a15.872,15.872,0,1,1-15.871-15.871A15.87,15.87,0,0,1,2113.257,833.291Z"></path> <path class="c86f729c-d4e1-4660-96f3-f587132eabc0" d="M2190.591,833.291a15.871,15.871,0,1,1-15.87-15.871A15.87,15.87,0,0,1,2190.591,833.291Z"></path> <path class="c86f729c-d4e1-4660-96f3-f587132eabc0" d="M1764.591,874.237a10.26,10.26,0,1,1-10.259-10.261A10.26,10.26,0,0,1,1764.591,874.237Z"></path> <path class="c86f729c-d4e1-4660-96f3-f587132eabc0" d="M1839.946,874.237a10.26,10.26,0,1,1-10.26-10.261A10.26,10.26,0,0,1,1839.946,874.237Z"></path> <path class="c86f729c-d4e1-4660-96f3-f587132eabc0" d="M1915.3,874.237a10.26,10.26,0,1,1-10.262-10.261A10.261,10.261,0,0,1,1915.3,874.237Z"></path> <path class="c86f729c-d4e1-4660-96f3-f587132eabc0" d="M1990.655,874.237a10.26,10.26,0,1,1-10.26-10.261A10.261,10.261,0,0,1,1990.655,874.237Z"></path> <path class="c86f729c-d4e1-4660-96f3-f587132eabc0" d="M2066.01,874.237a10.26,10.26,0,1,1-10.261-10.261A10.261,10.261,0,0,1,2066.01,874.237Z"></path> <path class="c86f729c-d4e1-4660-96f3-f587132eabc0" d="M2141.364,874.237a10.26,10.26,0,1,1-10.26-10.261A10.261,10.261,0,0,1,2141.364,874.237Z"></path> <path class="c86f729c-d4e1-4660-96f3-f587132eabc0" d="M1726.585,915.182a15.871,15.871,0,1,1-15.87-15.871A15.87,15.87,0,0,1,1726.585,915.182Z"></path> <path class="c86f729c-d4e1-4660-96f3-f587132eabc0" d="M1803.921,915.182a15.872,15.872,0,1,1-15.872-15.871A15.872,15.872,0,0,1,1803.921,915.182Z"></path> <path class="c86f729c-d4e1-4660-96f3-f587132eabc0" d="M1881.254,915.182a15.871,15.871,0,1,1-15.871-15.871A15.872,15.872,0,0,1,1881.254,915.182Z"></path> <path class="c86f729c-d4e1-4660-96f3-f587132eabc0" d="M1958.59,915.182a15.872,15.872,0,1,1-15.872-15.871A15.872,15.872,0,0,1,1958.59,915.182Z"></path> <path class="c86f729c-d4e1-4660-96f3-f587132eabc0" d="M2035.383,919.012c-10.316.408-20.766.679-30.539.815-3.733-12.962,8.754-24.567,21.92-19.138a14.88,14.88,0,0,1,7.806,7.805A16.323,16.323,0,0,1,2035.383,919.012Z"></path> <path class="c86f729c-d4e1-4660-96f3-f587132eabc0" d="M2113.224,914.873c-10.382.95-20.97,1.357-31.625,1.833-1.085-11.673,10.452-20.971,22.464-16.017a14.427,14.427,0,0,1,7.806,7.805A18.534,18.534,0,0,1,2113.224,914.873Z"></path> <path class="c86f729c-d4e1-4660-96f3-f587132eabc0" d="M1764.591,956.128a10.26,10.26,0,1,1-10.259-10.26A10.259,10.259,0,0,1,1764.591,956.128Z"></path> <path class="c86f729c-d4e1-4660-96f3-f587132eabc0" d="M1839.946,956.128a10.26,10.26,0,1,1-10.26-10.26A10.259,10.259,0,0,1,1839.946,956.128Z"></path> <path class="c86f729c-d4e1-4660-96f3-f587132eabc0" d="M1915.3,956.128a10.26,10.26,0,1,1-10.262-10.26A10.26,10.26,0,0,1,1915.3,956.128Z"></path> <path class="c86f729c-d4e1-4660-96f3-f587132eabc0" d="M1689.268,956.135a10.3,10.3,0,0,1-10.314,10.248,10.031,10.031,0,0,1-9.027-5.565c1.561-4.615,3.121-9.3,4.75-13.981a10.114,10.114,0,0,1,4.277-.95A10.253,10.253,0,0,1,1689.268,956.135Z"></path> <path class="c86f729c-d4e1-4660-96f3-f587132eabc0" d="M1726.585,997.074a15.871,15.871,0,1,1-15.87-15.872A15.871,15.871,0,0,1,1726.585,997.074Z"></path> <path class="c86f729c-d4e1-4660-96f3-f587132eabc0" d="M1803.921,997.074a15.872,15.872,0,1,1-15.872-15.872A15.872,15.872,0,0,1,1803.921,997.074Z"></path> <path class="c86f729c-d4e1-4660-96f3-f587132eabc0" d="M1881.254,997.074a15.871,15.871,0,1,1-15.871-15.872A15.872,15.872,0,0,1,1881.254,997.074Z"></path> <path class="c86f729c-d4e1-4660-96f3-f587132eabc0" d="M1958.59,997.074a15.872,15.872,0,1,1-15.872-15.872A15.872,15.872,0,0,1,1958.59,997.074Z"></path> <path class="c86f729c-d4e1-4660-96f3-f587132eabc0" d="M1764.591,1038.018a10.26,10.26,0,1,1-10.259-10.26A10.261,10.261,0,0,1,1764.591,1038.018Z"></path> <path class="c86f729c-d4e1-4660-96f3-f587132eabc0" d="M1839.946,1038.018a10.26,10.26,0,1,1-10.26-10.26A10.261,10.261,0,0,1,1839.946,1038.018Z"></path> <path class="c86f729c-d4e1-4660-96f3-f587132eabc0" d="M1915.3,1038.018a10.26,10.26,0,1,1-10.262-10.26A10.262,10.262,0,0,1,1915.3,1038.018Z"></path> <path class="c86f729c-d4e1-4660-96f3-f587132eabc0" d="M1986.383,1046.33a10.255,10.255,0,1,1-5.971-18.6,10.513,10.513,0,0,1,4.139.882C1985.23,1034.453,1985.841,1040.424,1986.383,1046.33Z"></path> <path class="c86f729c-d4e1-4660-96f3-f587132eabc0" d="M1689.236,1038.018a10.26,10.26,0,1,1-10.259-10.26A10.26,10.26,0,0,1,1689.236,1038.018Z"></path> <path class="c86f729c-d4e1-4660-96f3-f587132eabc0" d="M1726.6,1078.971a17.342,17.342,0,0,1-.884,5.363c-10.381-1.832-20.7-3.8-30.878-5.973a15.887,15.887,0,0,1,31.762.61Z"></path> <path class="c86f729c-d4e1-4660-96f3-f587132eabc0" d="M1803.921,1078.964a15.872,15.872,0,1,1-15.872-15.872A15.87,15.87,0,0,1,1803.921,1078.964Z"></path> <path class="c86f729c-d4e1-4660-96f3-f587132eabc0" d="M1881.254,1078.964a15.871,15.871,0,1,1-15.871-15.872A15.87,15.87,0,0,1,1881.254,1078.964Z"></path> <path class="c86f729c-d4e1-4660-96f3-f587132eabc0" d="M1958.56,1078.971a15.836,15.836,0,0,1-2.715,8.892c-7.193,1.56-14.659,2.917-22.26,4.071a15.861,15.861,0,1,1,24.975-12.963Z"></path> <path class="1fcd9b3d-c758-4cc1-88fc-c6330213a26a" d="M2116.8,748.692a3.383,3.383,0,0,1-1.577-.391c-23.008-12.129-57.086-18.086-80.656-18.614a3.4,3.4,0,0,1-3.318-3.469,3.274,3.274,0,0,1,3.469-3.317c22.58.507,58.044,5.889,83.67,19.4a3.394,3.394,0,0,1-1.588,6.4Z"></path> <path class="1fcd9b3d-c758-4cc1-88fc-c6330213a26a" d="M2021.307,521.952h-.065a144.19,144.19,0,0,1-26.187-2.873,106.1,106.1,0,0,0-15.991-1.932l-4.889-.348c-5.016-.381-12.375.129-19.507.63a170.851,170.851,0,0,1-18.666.686,3.4,3.4,0,1,1,.364-6.781c4.615.263,11.336-.222,17.828-.676,7.376-.51,15.009-1.033,20.5-.625l4.828.344a112.65,112.65,0,0,1,16.9,2.054,137.183,137.183,0,0,0,24.948,2.734,3.394,3.394,0,0,1-.066,6.787Z"></path> <path class="dd17f6c9-ca42-4929-be0d-1797084f226f" d="M312.954,564.347a71.208,71.208,0,0,1,7.6,8.687H241.831a70.9,70.9,0,0,1,17.781-8.687Z"></path> <path class="dd17f6c9-ca42-4929-be0d-1797084f226f" d="M460.629,573.034H426.085c-.746-2.919-1.492-5.836-2.307-8.687h26.128A65.973,65.973,0,0,1,460.629,573.034Z"></path> <path class="dd17f6c9-ca42-4929-be0d-1797084f226f" d="M340.032,602.963c1.764,2.85,3.6,5.768,5.361,8.619H215.77a72.671,72.671,0,0,1,3.19-8.619Z"></path> <path class="dd17f6c9-ca42-4929-be0d-1797084f226f" d="M484.993,611.582H435.452c-.68-2.851-1.29-5.769-1.969-8.619h47.575C482.482,605.813,483.771,608.663,484.993,611.582Z"></path> <path class="dd17f6c9-ca42-4929-be0d-1797084f226f" d="M362.428,641.51a85.859,85.859,0,0,1,3.461,8.687H206.065c.611-2.918,1.222-5.836,1.9-8.687Z"></path> <path class="dd17f6c9-ca42-4929-be0d-1797084f226f" d="M499.856,650.2H444.139c-.612-2.918-1.29-5.769-1.9-8.687H496.8C497.888,644.361,498.906,647.279,499.856,650.2Z"></path> <path class="dd17f6c9-ca42-4929-be0d-1797084f226f" d="M373.354,680.058a67.789,67.789,0,0,0,3.394,8.687h-179.1c.61-2.919,1.221-5.769,1.831-8.687Z"></path> <path class="dd17f6c9-ca42-4929-be0d-1797084f226f" d="M511.936,688.745H452.282c-.611-2.919-1.154-5.769-1.7-8.687h58.772C510.24,682.908,511.054,685.826,511.936,688.745Z"></path> <path class="dd17f6c9-ca42-4929-be0d-1797084f226f" d="M392.289,718.673c1.425,2.851,2.714,5.769,3.868,8.687H189.914c.543-2.918,1.085-5.836,1.7-8.687Z"></path> <path class="dd17f6c9-ca42-4929-be0d-1797084f226f" d="M523.269,727.36H459c-.408-2.918-.882-5.769-1.357-8.687H520.69C521.573,721.591,522.387,724.51,523.269,727.36Z"></path> <path class="dd17f6c9-ca42-4929-be0d-1797084f226f" d="M405.455,757.221c.678,2.85,1.29,5.769,1.765,8.687H182.449c.135-.814.339-1.629.474-2.443.408-2.1.815-4.14,1.222-6.244Z"></path> <path class="dd17f6c9-ca42-4929-be0d-1797084f226f" d="M535.689,765.908H464.43c-.475-2.85-.951-5.768-1.289-8.687H532.7C533.653,760.14,534.6,763.058,535.689,765.908Z"></path> <path class="dd17f6c9-ca42-4929-be0d-1797084f226f" d="M411.427,795.837c.271,2.918.543,5.768.747,8.686H175.051c.475-2.918,1.086-5.768,1.629-8.686Z"></path> <path class="dd17f6c9-ca42-4929-be0d-1797084f226f" d="M548.583,804.523H473.252c-.543-2.918-1.289-5.768-2.1-8.686h76.078C548.312,798.755,549.059,801.741,548.583,804.523Z"></path> <path class="dd17f6c9-ca42-4929-be0d-1797084f226f" d="M413.87,834.384c.136,2.919.271,5.769.407,8.687H167.586c.542-2.918,1.154-5.768,1.7-8.687Z"></path> <path class="dd17f6c9-ca42-4929-be0d-1797084f226f" d="M510.714,834.384a101.807,101.807,0,0,0-8.415,8.687H475.9c0-2.918,0-5.837-.068-8.687Z"></path> <path class="dd17f6c9-ca42-4929-be0d-1797084f226f" d="M415.77,873c.2,2.918.34,5.768.611,8.687H161.138a73.892,73.892,0,0,1,.883-8.687Z"></path> <path class="dd17f6c9-ca42-4929-be0d-1797084f226f" d="M483.771,873c-1.153,2.85-2.238,5.768-3.121,8.687H479.9A76.978,76.978,0,0,1,477.8,873Z"></path> <path class="dd17f6c9-ca42-4929-be0d-1797084f226f" d="M421.132,920.234H176.409a63.023,63.023,0,0,1-6.719-8.687H419.639C420.045,914.466,420.52,917.384,421.132,920.234Z"></path> <path class="dd17f6c9-ca42-4929-be0d-1797084f226f" d="M432.33,958.782H235.519c-5.293-2.918-10.586-5.836-15.88-8.687h208.89A39.662,39.662,0,0,0,432.33,958.782Z"></path> <path class="dd17f6c9-ca42-4929-be0d-1797084f226f" d="M417.2,988.71a36.507,36.507,0,0,1-2.375,3.87,38.113,38.113,0,0,1-3.936,4.818H216.246c.882-2.919,1.832-5.837,2.918-8.688Z"></path> <path class="dd17f6c9-ca42-4929-be0d-1797084f226f" d="M385.435,1035.945H205.522c.612-2.918,1.358-5.837,2.1-8.687H385.841A19.758,19.758,0,0,0,385.435,1035.945Z"></path> <path class="dd17f6c9-ca42-4929-be0d-1797084f226f" d="M433.076,1074.56H213.666a53.648,53.648,0,0,1-14.726-5.225c.2-1.154.339-2.307.611-3.461h224.3A65.734,65.734,0,0,1,433.076,1074.56Z"></path> <path class="9a2cbefd-ee67-4773-9fab-9a5bd8c70a95" d="M479.188,887.555c1.418-10.419-.4-20.973-2.1-31.35-16.2-99.137-21.942-201.355-58.657-294.855-5.26,10.435-12.648,26.769-53.694,15.723-15.5-4.171-59.211-24.811-59.211-24.811,31.424,35.857,92.869,161.923,100.257,211.691,12.722,85.693,11.264,112.756,22.777,198.62,12.274,6.17,24.774,7.869,37.552,4.064,1.186-19.467,2.4-39.1,7.618-57.894C475.688,901.709,478.2,894.788,479.188,887.555Z"></path> <path class="4dc7947d-e3f8-4bdc-83f2-a9beff583822" d="M382.638,1028.909c2.51,18.327,68.368,61.776,68.681,62.074,20.512,19.553,62.367,7.835,77.946-12.484,9.972-14.282-41.16-66.805-53.564-75.7,0,0,15.241-2.1,21.26-4.217,4.346-1.526,13.718-11.117,13.5-14.2-.691-9.424-3.393-11.022-10.185-8.98-12.431,3.738-37.373-3.7-42.552-5.475-7.389-2.5-17.72-2.6-25.743-.189Z"></path> <path class="1fcd9b3d-c758-4cc1-88fc-c6330213a26a" d="M1774.046,1069.407l-3.7-1.349-.374-2.16a3.122,3.122,0,0,1-.05-.494c-.576-4.18-5.233-35.266-13.2-79.216-7.055-38.923-10.429-63.014-12.892-92.062a3.392,3.392,0,1,1,6.761-.57c2.442,28.809,5.8,52.732,12.812,91.419,9.5,52.428,12.309,71.389,12.773,78.527a3.344,3.344,0,0,1,.482,1.248l-.418.074c0,.026,0,.052,0,.079l.432-.06-.432.083c.064,2.572-.32,2.9-.7,3.215Z"></path> <path class="1fcd9b3d-c758-4cc1-88fc-c6330213a26a" d="M1745.657,876.917a3.4,3.4,0,0,1-3.384-3.154c-.547-7.821-1.087-16.184-1.659-25.354a3.392,3.392,0,1,1,6.771-.424c.574,9.149,1.115,17.5,1.661,25.3a3.391,3.391,0,0,1-3.148,3.621C1745.815,876.914,1745.737,876.917,1745.657,876.917Z"></path> <path class="1fcd9b3d-c758-4cc1-88fc-c6330213a26a" d="M2007.482,122.973a5.085,5.085,0,0,1-2.608-.72,22.31,22.31,0,0,0-12.545-3.117,4.952,4.952,0,0,1-5.29-4.885,5.1,5.1,0,0,1,4.885-5.289,32.856,32.856,0,0,1,18.173,4.55,5.091,5.091,0,0,1-2.615,9.461Z"></path> <path class="1fcd9b3d-c758-4cc1-88fc-c6330213a26a" d="M2079.559,157.213a5.071,5.071,0,0,1-3.958-1.888,44.961,44.961,0,0,0-13.005-10.637,5.092,5.092,0,1,1,4.972-8.888,54.468,54.468,0,0,1,15.944,13.122,5.089,5.089,0,0,1-3.953,8.291Z"></path> <rect class="f541dd01-3df9-47db-9adb-89f900c7f723" x="1591.935" y="1538.077" width="88.225" height="446.568" transform="translate(-755.817 1520.472) rotate(-41.361)"></rect> <path class="5ef146b2-5be3-4ea2-830c-98e5eb945304" d="M668.34,1962.874s-17.373.476-43.3,2.037l-190.973,8.89c-17.034,1.018-34.815,1.629-34.815,1.629s-12.488-48.727,4.14-82.931c2.51-5.227,5.36-8.28,8.483-9.977l-.068,2.308c6.583,23.617,47.031,31.352,57.889,21.649,27.486-24.636,45.063-29.862,49.882-30.812.813-.135,1.221-.2,1.29-.2,0,0,69.765,31.558,102.408,24.976C673.3,1890.462,668.34,1962.874,668.34,1962.874Z"></path> <path class="4dc7947d-e3f8-4bdc-83f2-a9beff583822" d="M520.87,1875.463c-.477,0-19.14,2.241-51.172,31.016-10.858,9.7-51.306,1.968-57.889-21.649l.814-19.748,103.359-3.258Z"></path> <path class="1fcd9b3d-c758-4cc1-88fc-c6330213a26a" d="M2708.992,1950.455H2580.251a213.679,213.679,0,0,0,24.974-9.365c110.214-49.339,159.756-179.1,110.417-289.311a218.889,218.889,0,0,0-282.183-113.472V973.937a64.156,64.156,0,0,0-63.93-64.065h-207.4a103.877,103.877,0,0,0,30.066-17.85c26.128-22.123,43.026-56.327,44.044-89.378.815-27.825-13.573-55.582-26.332-80.081-8.74-16.831-15.274-34.191-20.834-52.325,5.609-.863,11.2-1.557,16.491-3.733,18.8-7.735,29.725-27.825,26.535-48.931l-24.974-164.709,13.5-.679c6.419-.323,6.079-10.334-.543-10.18l-14.455.747c-1.358-10.044-4.479-32.236-8.077-52.732-3.258-18.121-6.787-34.815-9.908-40.515-4.272-8.071-15.186-13.227-24.821-17.773-18.4-8.681-37.676-14.648-56.956-20.979-3.6-11.469-6.856-23.888-8.688-32.915a63.54,63.54,0,0,1-1.425-10.587c.135-.068.272-.2.408-.272,20.9-14.455,33.592-28.367,46.011-44.586,4.074-5.362,24.636-25.518,29.319-31.829,11.913-16.056,2.986-36.554-16.965-38.548a30.608,30.608,0,0,0-22.737,7.4c-5.835-15.812-22.327-47.981-61.417-55.65a202.822,202.822,0,0,0-20.835-2.647c-14.9-1.367-31.65-2.311-44.052-12.118-12.473-9.86-22.341-24.435-11.463-39.255,9.5-13.031,28.912-21.108,42.281-22.193,1.969-.136,3.8-1.154,7.125-2.986,9.163-5.09,30.54-16.9,66.509-13.913,36.038,3.122,63.387,16.424,81.167,39.634,20.428,26.738,26.061,59.111,27.215,81.507.678,12.622-.951,25.313-2.444,37.665-2.171,17.169-4.343,34.951-.814,53.139,1.9,9.5,22.734,30.743,24.974,34.136,7.8,11.741,16.356,29.183,12.624,45.606-1.018,4.479-10.453,25.925-11.266,33.05-2.171,19.206,8.891,33.526,19.478,47.438,5.9,7.669,11.468,14.931,14.659,22.667a48.709,48.709,0,0,1,1.086,33.662l-32.644,1.7a60.523,60.523,0,0,0-10.452-37.6c-2.917-4.14-20.971-22.734-23.21-29.725-4.75-14.727-1.424-30.947,1.834-46.692.542-2.85,1.153-5.768,1.7-8.618,2.171-11.2-2.44-21.849-6.717-29.857-2.046-3.836-8.106-.755-5.973,3.186,3.936,7.465,7.737,16.287,6.04,25.381-.543,2.85-1.154,5.7-1.7,8.551-3.461,16.559-6.991,33.729-1.629,50.152,2.716,8.484,21.514,27.826,24.024,31.491,7.262,10.45,10.656,24.566,8.959,36.444a5.071,5.071,0,0,0,4.682,7.533l38.955-1.9a5.209,5.209,0,0,0,4.478-3.19,59.065,59.065,0,0,0,0-44.384c-3.731-9.026-9.974-17.17-15.948-24.974-9.908-12.895-19.2-25.043-17.509-40.109.679-5.565,9.841-26.467,11.13-31.965,3.6-16.016-1.153-34-14.114-53.477-2.784-4.208-22.193-23.958-23.414-30.472-3.258-16.56-1.29-32.779.882-49.881,1.56-12.828,3.189-25.993,2.51-39.5-1.221-23.821-7.33-58.365-29.318-87.14-19.613-25.585-49.339-40.244-88.428-43.57-39.023-3.325-62.3,9.569-72.21,15.066-1.628.951-2.849,1.629-3.054,1.833-16.015,1.222-38.207,10.655-49.677,26.264-6.447,8.755-8.687,18.527-6.447,28.164a25.679,25.679,0,0,0,3.258,7.6c-6.38,13.574-12.759,29.521-19.954,47.642-3.461,8.754-5.7,18.731-6.99,31.421a201.043,201.043,0,0,0-.407,32.712c2.918,42.687,20.021,72.344,48.525,84.56l-5.363,27.893c-9.908,1.222-16.627,2.24-17.78,2.443-9.909.069-37.868,2.647-45.742,27.011-3.936,12.216-11.4,24.5-19.272,37.529-17.782,29.454-37.531,62.03-27.825,107.839l-20.225,57.55c-12.827,5.768-22.87,14.455-26.738,26.128h-235.97a5.2,5.2,0,0,0-4.886,6.448l14.116,51.442a221.625,221.625,0,0,0-225.45,50.763v-62.64c0-9.161-8.416-16.627-18.8-16.627h-11.13V568.3h6.379c13.03,0,23.549-11.265,23.549-25.11V322.97c0-13.845-10.519-25.11-23.549-25.11h-6.379V174.344c0-38.072-28.233-69.018-62.98-69.018H465.626c-34.747,0-62.979,30.946-62.979,69.018v63.929c-42.62-7.193-102.2,5.294-118.019,51.443-.881,2.579-6.854,3.257-9.026,4.071-4.75,1.7-8.754,4.615-12.554,7.941-26.536,23.21-30.337,58.636-26.129,91.619,2.715,20.9,10.248,38.547,25.517,53.41,17.917,17.373,34.272,20.36,39.973,20.834,0,.34,13.573,19.546,21.854,27.487-1.29,2.985-19.343,49.066-19.614,49.4-.068.068-.068.2-.136.272-15.2,5.157-50.967,18.866-54.971,20.156-11.265,3.528-19.478,6.312-23.414,9.162a49.075,49.075,0,0,0-17.441,24.7c-.339.544-53.275,256.668-53.275,256.668-8.89,32.644-1.085,64.269,20.5,82.525a4.249,4.249,0,0,0,.814.611l41.942,23.549c-1.154,11.945-7.535,32.711-13.777,52.867-7.263,23.685-14.184,46.013-14.388,58.705a5.029,5.029,0,0,0,3.6,4.953c3.8,1.153,7.941,2.172,12.352,3.056-7.4,50.626-3.326,108.855,5.157,128.807l-7.058,240.449L119.24,1834.541a5.042,5.042,0,0,0,2.511,5.565l-2.171,8.482c-3.6,1.63-6.923,4.48-10.113,8.551-24.431,31.016-22.87,81.372-22.8,83.544a5.125,5.125,0,0,0,4.207,4.818s14.116,2.58,29.183,4.954H5.09a5.09,5.09,0,1,0,0,10.179H180.455S357.041,1990.5,357.38,1990.5a5.217,5.217,0,0,0,4.887-3.666,124.211,124.211,0,0,0,4.072-26.2h25.042a134.957,134.957,0,0,0,2.986,16.085,5.014,5.014,0,0,0,4.887,3.8h.2s268.816-12.556,269.02-12.556c2.512-.066,4.548-4.884,4.887-7.329H2708.988C2715.526,1960.634,2715.637,1950.455,2708.992,1950.455ZM2195.52,716.862c1.7,3.393,3.529,6.854,5.362,10.383,12.149,23.414,25.926,49.882,25.178,75.06-.949,30.268-16.424,61.621-40.448,81.913-28.368,24.025-63.726,25.586-101.119,27.214-6.651.34-98.746,4-116.323,2.851l-4.886-.542c-2.036-5.294-4-10.317-5.9-15-6.108-15.473-10.993-27.687-11.74-36.306-.569-6.554-10.81-5.662-10.181.948.952,10.112,6.042,22.938,12.488,39.158,6.515,16.423,14.66,36.783,20.7,60.468,6.243,31.015,13.438,73.975,14.455,112.115-95.826,32.167-242.687,12.35-340.006-14.591,7.8-28.029,27.078-85.783,46.284-140.347,1.154-3.394,41.6-114.218,47.505-123.787,3.122-4.954,28.3-25.042,28.437-26.467,0,0,177.333-.068,177.808-.2l134.035-38.547c5.333-1.535,4.432-9.82-1.222-9.976l-142.315-5.09-2.713-9.773a159.218,159.218,0,0,1,19.206-6.447,5.078,5.078,0,0,0-2.513-9.841c-.158.039-2.662-20.581-5.263-40.858-1.867-14.548-3.782-28.919-4.917-35.355l240.991,56.6C2183.44,686.8,2190.432,706.683,2195.52,716.862Zm-293.993,443.027a49.8,49.8,0,0,1,17.644,12.419c9.5,10.52,16.356,25.109,20.9,44.452-16.286,10.451-26.942,23.75-33.661,41.732-1.519,4.068,4.748,6.463,6.377,2.382a73.982,73.982,0,0,1,28.776-36.919c.671,3.08,1.9,7.133,1.223,10.314-.408,1.9-2.308,3.6-4.276,5.5-9.366,8.619-22.4,22.327-26.943,41.194-1.562,6.379-2.1,13.03-2.648,19.478-.813,10.519-1.627,20.495-6.582,27.824-3.664,5.565-9.7,9.3-15.066,12.352a225.474,225.474,0,0,1-62.844,24.227c-2.308.476-4.887.884-6.379.272-1.492-.678-3.054-2.579-4.276-4.411,15.879-3.528,44.171-14.519,52.253-19.135,3.83-2.188.473-8.093-3.388-5.84-8.756,4.955-39.839,16.559-53.071,18.935-6.721-10.18-11.742-20.564-9.5-30,1.9-8.009,8.415-12.828,15.947-18.393,4.751-3.6,9.774-7.262,13.777-12.08a43.629,43.629,0,0,0,7.059-11.944,1.23,1.23,0,0,0,.679.135,40.163,40.163,0,0,1,29.454,10.18c2.537,2.3,4.833,4.97,7.665,6.922,8.955,6.17,18.421,2.434,22.6-7.125,2.442-5.632,2.781-11.332,1.017-16.152-1.968-5.428-6.516-9.161-10.655-12.079-12.894-9.163-30.878-15.271-46.758-16.085-.272-5.089-.816-10.179-1.426-15.337a24.635,24.635,0,0,0,15.813,5.632c13.233,0,26.467-9.5,37.326-26.671C1900.78,1198.5,1904.446,1176.448,1901.527,1159.889Zm43.908,87.276a9.1,9.1,0,0,0,.816-.816l15.879,53.479a4.676,4.676,0,0,1-8.821,3.053l-18.121-45A106.509,106.509,0,0,1,1945.435,1247.165Zm-106.413,28.367a78.864,78.864,0,0,0,2.036-20.632c14.389.884,31.083,6.584,42.621,14.727,3.324,2.375,6.854,5.294,8.281,8.963,1.933,5.223-.546,15.6-6.787,17.164-5.391,1.35-10.252-5.109-13.642-8.211A47.028,47.028,0,0,0,1839.022,1275.532Zm44.929-69.29c-8.756,13.911-19.207,21.92-28.708,21.92-7.195,0-13.1-4.887-16.289-13.506l-44.519-116.186c22.463,2.171,45.131,3.393,67.322,3.393,4.208,0,8.416-.067,12.624-.135l16.152,55.514C1894.672,1171.493,1891.687,1193.958,1883.951,1206.242Zm52.526-479.811,107.16,3.8-98.337,28.3Zm-7.532-101.6c1.154,7.433,2.775,16.821,4.347,26.483,2.492,15.306,4.861,31.3,5.069,41.281-2.782.95-7.313,2.749-10.1,3.9l-16.356-59.518A27.568,27.568,0,0,0,1928.945,624.836Zm-19.817,2.172L1903.7,607.19l19.953,3.937-1.7,4.819A17.23,17.23,0,0,1,1909.128,627.008Zm73.159-14.387,12.555-49.611,13.641,2.308c-2.648,10.587-8.755,34.951-13.369,50.493ZM2096.98,316.387a6.219,6.219,0,0,0,.542,1.154c.2.475.408,1.493-.339,3.461-3.6,9.229-23.142,23.55-40.176,29.318-24.5,8.28-41.4,7.94-48.592-1.222-7.261-9.3-3.529-24.838-3.46-25.313l8.482-44.453h.136a81.2,81.2,0,0,0,21.514,2.715c16.219,0,33.865-4.276,50.763-11.673.2,2.171.543,4.547.95,7.126,0,.136.069.271.069.407C2089.448,292.43,2095.419,311.433,2096.98,316.387ZM1965.456,190.564a180.667,180.667,0,0,1,.407-31.014c1.155-11.674,3.189-20.836,6.311-28.64,6.584-16.423,12.285-30.539,17.713-42.551,2.511,2.646,5.158,5.021,7.534,7.125l.882.815c12.691,11.4,32.644,13.3,50.288,14.931,7.126.678,13.845,1.356,19.817,2.511,44.723,8.822,55.787,54.9,56.26,56.871a4.933,4.933,0,0,0,4,3.8,5.028,5.028,0,0,0,5.09-2.037c5.022-7.193,12.283-10.925,19.818-10.179,5.768.543,10.721,3.733,12.69,8.076,1.832,4.208.814,9.095-2.987,14.185-4.206,5.7-9.162,10.586-14.454,15.744a151.3,151.3,0,0,0-14.727,16.016c-10.316,13.506-20.835,25.314-36.513,37.123-20.019,11.469-42.415,18.527-62.5,18.527a69.256,69.256,0,0,1-18.8-2.375C1976.042,258.5,1967.152,215.335,1965.456,190.564ZM1924.33,375.973c8.212-13.573,15.947-26.332,20.292-39.7,5.835-18.12,27.825-20.02,36.986-20.02.34,0,9.434-1.289,14.864-2.035l-1.427,7.4c-.2.815-4.954,20.5,5.362,33.73,5.768,7.4,14.8,11.13,26.943,11.13,9.093,0,20.225-2.172,32.915-6.515,18.188-6.176,41.194-21.853,46.419-35.29q.508-1.426.815-2.647l8.551,2.782c-6.311,11.674-24.3,28.368-47.1,39.294-17.171,8.144-42.689,15.745-66.916,5.565-9.84-4.139-15.744-11.06-20.5-23.952-1.51-4.1-7.875-1.85-6.38,2.3,5.428,14.727,12.624,23.007,24.227,27.894a70.35,70.35,0,0,0,27.622,5.361c14.185,0,29.454-3.733,44.859-11.063,22.6-10.79,43.435-28.842,50.628-43.23,5.6,0,30.193,11.315,35.965,13.978,14.522,6.7,23.4,12.937,25.86,29.456l37.733,248.728c2.444,16.422-5.9,32.03-20.357,38-4.316,1.783-14.363,4.693-19.14,3.733L2001.7,617.438c4.751-15.948,10.926-40.719,13.438-50.966L2137.292,587.1c-.068-.069-.136-.069-.2-.137.137.068.2.068.343.137,3.771,1.885,8.185,2.256,11.874,4.275,11.537,6.311,17.169,12.08,22.533,19.343,3.723,5.316,12.04-.895,8.142-6.042-5.972-8.144-12.622-15.066-25.79-22.193-3.407-1.933-7.383-2.1-10.788-3.8h0s-24.773-150.043-24.841-150.458c-1.033-6.26-11.157-4.9-10.043,1.628l24.16,146.115-140.346-23.685-66.441-22.8c-2.851-.543-5.768-.95-8.822-1.222q-4.579-12.012-9.366-22.6C1881.032,447.571,1904.039,409.5,1924.33,375.973ZM1892.637,495.62a150.4,150.4,0,0,0,5.767,14.32c2.579,5.632,5.158,11.672,7.6,17.984a105.153,105.153,0,0,0-26.061,3.732Zm15.541,42.416c1.764,0,3.529.068,5.226.136a80.359,80.359,0,0,1,10.18,1.222l61.35,21.106-12.556,49.949-71.666-14.184-8.347-30.336a5.172,5.172,0,0,0-4.954-3.733h-35.562C1859.789,546.452,1885.306,538.036,1908.178,538.036Zm-296.573,34.339h271.937l51.51,187.378H1663.115ZM1388.666,735.05V685.644a211.3,211.3,0,0,1,228.843-53.411L1654.293,766.2a5.071,5.071,0,0,0,4.885,3.733h91.687c-7.329,5.565-18.662,14.727-22.6,21.107-6.719,10.857-25.993,61.791-45.742,117.577H1358.738V751.609h11.13C1380.25,751.609,1388.666,744.212,1388.666,735.05Zm-18.8-133.289c4.682,0,8.619,2.919,8.619,6.448V735.05c0,3.462-3.937,6.379-8.619,6.379h-11.13V601.761ZM302.512,456.64c-6.816,2.508-23.442-8.575-27.177-11.475-17.97-13.959-27.1-36.833-29.8-59.428-2.027-16.958-.792-34.582,5.808-50.335s18.945-29.465,34.862-35.656c4.373-1.7,6.274-4.04,8.305-8.46,11.715-25.476,39.669-40.55,67.525-43.767s55.85,3.6,82.694,11.709c5.95,1.8,9.1.66,14.731-1.89,8.265-3.746,18.159-1.722,26.111,2.65,13.364,7.348,22.976,21.626,23.59,36.865.869,21.615-16.03,40.935-36.1,49.021s-42.578,7.064-64.02,4.206c-27.212-3.627-54.6-10.238-77.863-24.813-3.62-2.268-9.552-4.086-11.146-.124-1.048,2.609,1.142,5.288,3.038,7.364A68.525,68.525,0,0,1,338.588,361.2c2.656,10.107,5.045,22.276.539,32.229a4.573,4.573,0,0,1-2.44,2.743c-1.852.58-3.572-1.08-4.9-2.5-6.048-6.453-14.5-11.073-23.345-10.881s-17.743,5.986-20,14.538c-2.627,9.949,3.693,19.809,9.379,28.386s11.213,19.248,7.08,28.668A4.041,4.041,0,0,1,302.512,456.64ZM512.318,323.512a90.8,90.8,0,0,1,5.293,34.68c-.406,9.23-2.578,22.056-10.519,30.947-.339-3.054-.747-6.108-1.289-9.162a302.046,302.046,0,0,0-8.552-36.851A73.47,73.47,0,0,0,512.318,323.512ZM311.164,463.18c-.271-.339.679-4.344,1.154-5.9a49.063,49.063,0,0,0-.2-28.979c-6.855-7.94-11.47-15.609-13.166-21.581a13.164,13.164,0,0,1-.542-7.261c.339-1.018,1.153-4.14,7.057-6.108,4.276-1.018,11.063-1.222,20.835,9.093,4.14,4.344,10.112,5.158,15.609,2.036,7.126-4.071,12.827-14.726,9.5-26.467a70.551,70.551,0,0,1-2.172-12.555c-.747-6.719-1.493-13.573-5.7-21.717,16.423,7.465,35.765,12.284,58.5,14.523,3.461.34,7.058.746,10.655,1.154,23.55,2.782,50.221,5.836,71.87-6.787,1.357-.814,2.714-1.629,4-2.578a271.428,271.428,0,0,1,7.194,31.693,158.4,158.4,0,0,1,2.1,35.29,138.565,138.565,0,0,1-8.347,41.261c-12.827,34.952-37.869,58.026-68.612,63.388a68.447,68.447,0,0,1-12.487,1.085C372.107,522.766,334.51,498.063,311.164,463.18Zm161.588,543.74c16.967,12.214,58.3,60.2,52.46,68.475-8.211,10.725-25.246,19.072-41.465,20.361-11.945.949-22.261-2.1-28.912-8.416-.067-.068-7.668-5.36-10.519-7.4-34.815-24.364-52.731-41.873-56.125-49.882l47.71-58.432a2.088,2.088,0,0,0,.34-.474c6.4,2.081,13.237,2.279,19.816,3.6.339.068,30.2,10.18,45.692,5.493,2.147-.577,5,.9,3.579,3.8-1.29,2.647-7.669,8.89-10.044,9.705-4.546,1.628-16.146,3.459-20.289,4A5.107,5.107,0,0,0,472.752,1006.92Zm60.672,74.516c11.333-16.288-27.417-57.822-46.217-75.331a89.9,89.9,0,0,0,11.469-2.714c4.819-1.7,17.306-12.624,16.831-19.41-.34-4.751-1.221-10.044-5.225-12.759-3.733-2.578-8.076-1.7-11.469-.679-5.973,1.832-16.628.408-25.79-1.7v-.407c0-115.168,93.655-208.823,208.755-208.823S890.533,853.272,890.533,968.44c0,115.1-93.655,208.755-208.755,208.755a208.5,208.5,0,0,1-165.252-81.439A55.731,55.731,0,0,0,533.424,1081.436Zm-17.51-255.785c-7.261-67.12-18.323-120.326-32.847-158.331a5.091,5.091,0,1,0-9.5,3.665c15,39.022,26.128,94.876,33.253,166a213.01,213.01,0,0,0-22.259,36.58c-.476-5.837-9.977-68.816-13.37-93.587-9.976-73.77-21.66-153.395-49.349-223.839,0,0,8.725,2.476,14.212,4.749a72.7,72.7,0,0,1,20.954,12.855c2.943,2.215,7.777,8.212,9.229,10.375,22.6,33.661,57.143,144.758,75.874,215.813A217.947,217.947,0,0,0,515.914,825.651Zm-54.835-44.316c3.394,24.838,6.855,50.559,10.994,75.67,0,0,3.326,20.5,2.1,29.861a104.751,104.751,0,0,1-3.664,14.794c-.611,1.9-1.154,3.8-1.7,5.7-5.019,18.178-6.445,36.965-7.531,55.212-.134,2.126-14.9.518-16.154.3a51.018,51.018,0,0,1-11.877-3.733c-5.09-38.073-7.533-64.472-9.976-89.989-2.851-30.675-5.565-59.722-12.487-105.939-5.43-36.919-39.7-113.743-70.038-166.949,11.47,6.108,28.64,13.029,47.642,13.029a72.678,72.678,0,0,0,25.653-4.546,3.411,3.411,0,0,0,1.969-4.411,3.337,3.337,0,0,0-4.344-1.968c-33.322,12.554-67.391-7.194-78.045-14.388-4.14-6.854-8.077-13.1-11.877-18.663,13.981,6.243,32.44,14.184,41.669,16.7,9.5,2.511,17.985,3.8,25.111,3.8,15.677,0,23.889-6.108,28.91-12.76C441.873,639.63,451.646,711.637,461.079,781.335Zm-128.809-279c22.057,18.663,48.456,30.2,74.788,30.607.339,12.555.95,25.857,1.7,34.747-3.664,4.48-9.3,7.94-20.223,7.94a89.4,89.4,0,0,1-22.463-3.46c-10.181-2.715-33.459-13.1-47.371-19.41a28.418,28.418,0,0,1-3.868-5.022C317.136,543.194,330.777,506.207,332.27,502.339ZM182.084,929.893c-18.189-15.746-24.635-43.164-16.763-72.075l51.985-251.849a38.437,38.437,0,0,1,14.862-23.684c2.851-2.1,13.438-5.43,20.428-7.67,4.343-1.357,36.444-13.776,49.678-18.323,30.607,35.562,91.143,158.8,98.473,208.416,6.854,45.944,9.569,74.855,12.419,105.395,2.308,24.634,4.683,50.017,9.434,85.85L270.648,854.493s28.61-142.982,28.774-143.8c1.291-6.447-8.674-8.548-9.974-2.04,0,0-28.776,143.875-28.782,143.876-5.8,1.156-10.119,2.093-15.193,5.427a5.1,5.1,0,0,0,2.779,9.3,4.886,4.886,0,0,0,2.848-.879c3.949-2.732,8.246-3.227,12.83-4.075L424.5,969.525l-45.674,56.058-.543.678-7.669,9.366L226.942,955c-.271-.135-.61-.339-.95-.475Zm18.866,140.073c1.358-12.08,7.6-32.3,13.709-51.984,5.905-19.138,11.537-37.462,13.641-50.492l141.029,79.065a5.014,5.014,0,0,0,6.443-1.224l5.565-6.854c7.465,11.47,24.7,26.128,43.23,39.837-17.1-.407-37.936-.2-59.653.068C308.314,1078.924,238.277,1079.671,200.95,1069.966Zm13.641,382.763c.068-.34,7.194-243.231,7.194-243.231a5.043,5.043,0,0,0-.408-1.9,4.567,4.567,0,0,0-.406-.813c-7.6-17.646-11.2-74.449-4.344-123.243,32.236,5.021,76.282,5.5,119.376,5.224-12.862,18.556-36.828,30.32-59.649,26.943-4.255-.629-5.315,6.072-.955,6.719a72.324,72.324,0,0,0,9.3.679,46,46,0,0,0,6.108-.34l-22.871,347.608-74.178,333.831-54.971-10.587Zm-22.8,391.244a2.04,2.04,0,0,0,.271-.677l6.922-31.219,75.806,14.591-6.515,32.577Zm38.344,29.726c6.651,4.955,35.832,25.653,63.793,37.6a24.063,24.063,0,0,1-6.515,3.53,37.45,37.45,0,0,1-26.467-.612c-6.447-2.715-37.666-24.567-52.257-36.036,11.6-4.005,18.731-4.48,21.377-4.48Zm-92.841-73.431,54.972,10.521L185.41,1841.8a3.81,3.81,0,0,0-.069.883L130.3,1831.69Zm-5.5,42.078,93.926,18.8.339,2.579c-8.89.814-26.467,4.614-53.342,19.884a11.5,11.5,0,0,1-5.361,1.086c-14.523,0-37.326-13.234-38.887-29.656Zm224.364,118.288a119.435,119.435,0,0,1-2.578,18.867c-6.855-1.221-250.561-42.212-256.737-43.3,0-2.784.136-6.787.544-11.674l247.166,41.806h.543c3.944,0,4.371-6.024.542-6.718L136.07,1924.192a48.3,48.3,0,0,0-1.967-16.625c-.917-3.135-5.873-3.338-6.5.154a8.524,8.524,0,0,0,.474,3.634,38.006,38.006,0,0,1,1.208,11.685l-31.209-5.3a133.564,133.564,0,0,1,9.266-36.707,51.857,51.857,0,0,1,13.626,14.848,13.708,13.708,0,0,0,2.662,3.566c2.89,2.414,7.413-.258,5.314-3.9a68.283,68.283,0,0,0-18.663-20.835,64.819,64.819,0,0,1,7.194-11.266c.679-.814,1.289-1.561,1.833-2.172,5.632,19.817,30.946,33.594,48.048,33.594a21.177,21.177,0,0,0,10.384-2.374,203.117,203.117,0,0,1,23.481-11.538c13.1,10.587,48.931,36.105,57.143,39.5a44.013,44.013,0,0,0,31.354.747,25.865,25.865,0,0,0,11.061-7.127c9.23,3.461,18.188,5.769,25.79,5.838,10.451.2,17.984,3.459,22.87,10.11,4.141,5.566,6.04,12.964,6.583,20.428A85.3,85.3,0,0,1,356.159,1960.634Zm42.688-70.375c-9.434,19.341-10.045,42.687-8.62,60.2H366.2c-.679-9.365-2.986-18.935-8.551-26.467-6.855-9.23-17.238-13.981-30.947-14.251-28.367-.408-80.217-36.784-90.125-43.91l-.34-2.579,35.022,6.991a5.264,5.264,0,0,0,5.969-4.005l75.535-379.165,68.476-319.919a5.022,5.022,0,0,0-3.936-6.039,5.1,5.1,0,0,0-6.04,3.868l-68.477,320.054-66.711,334.983-75.6-14.521,74.177-334.171,22.939-348.965a1.153,1.153,0,0,0-.068-.475,69.735,69.735,0,0,0,35.974-19.329c1.483-1.576,9.379-13.777,10.582-13.79,6.99-.066,76.756-.813,95.487.273,2.714,1.9,8.551,5.9,8.551,5.9,7.8,7.262,18.8,11.13,31.422,11.13,1.628,0,3.325-.069,5.022-.2a76.228,76.228,0,0,0,17.238-3.461l18.8,383.168-1.289,339.465-86.325,4.14a3.465,3.465,0,0,0-3.258,3.6,3.409,3.409,0,0,0,3.394,3.189h.2l85.918-4.139-.069,24.77-128.877,4.14-2.51-376.994a.605.605,0,0,0-.069-.339.426.426,0,0,0,0-.407c0-.068-.068-.2-.068-.272-.271-2.985-10.179-29.386-10.179-29.386a5.1,5.1,0,0,0-6.583-2.987,5.155,5.155,0,0,0-2.987,6.584s9.23,24.433,9.5,26.128l2.782,382.9a5.1,5.1,0,0,0,5.226,5.09l21.853-.679-.339,9.432A27.818,27.818,0,0,0,398.847,1890.259Zm121.14-9.5s35.56,15.2,63.385,21.649a.969.969,0,0,0-.135.408c-.339,2.17-1.7,4.409-3.868,6.65a25.8,25.8,0,0,1-12.828,7.193c-7.871,1.765-16.218-.2-23.48-2.1a273.117,273.117,0,0,1-51.035-19.546A111.674,111.674,0,0,1,519.987,1880.758Zm-53.682,21.92c-1.969,1.764-6.244,2.782-11.4,2.782-15.135,0-33.73-8.143-37.937-21.309l.61-14.116,94.809-2.988,1.765,4.887C505.6,1874.649,489.107,1882.182,466.305,1902.678Zm-66.035,49.048c-1.425-16.356-.814-39.478,7.738-56.988.475-.95.95-1.833,1.358-2.579,8.483,16.151,30.742,23.481,45.538,23.481,5.565,0,13.233-.95,18.188-5.361,4.546-4.14,8.89-7.669,12.826-10.79a276.433,276.433,0,0,0,55.378,21.58c5.7,1.56,12.08,3.055,18.663,3.055a35.71,35.71,0,0,0,8.009-.815,33.014,33.014,0,0,0,16.287-9.094c3.19-3.257,5.09-6.718,5.633-10.248v-.135a122.462,122.462,0,0,0,23.278,2.647,55.005,55.005,0,0,0,11.13-1.019c11.333-2.307,19.952-.068,26.331,6.788,6.583,6.989,9.841,17.711,11.334,27.417l-222.87,10.451c-2.1-13.709-10.451-26.4-23.55-35.9a3.4,3.4,0,0,0-4,5.5c11.4,8.28,18.662,19.07,20.766,30.673C432.3,1950.386,400.338,1952.2,400.27,1951.726Zm3.055,18.48c-.475-2.309-1.9-10.861-1.967-11.539l261.418-12.215c.136,1.355.61,9.5.61,11.468C656.464,1958.192,409.57,1969.932,403.325,1970.206Zm559.553-267.122v247.371H673.363c-.679-12.961-3.733-32.915-15.271-45.129-8.754-9.435-20.97-12.827-35.764-9.842a45.871,45.871,0,0,1-9.162.815c-29.929,0-77.977-20.156-88.225-24.635l-.543-5.022a5.044,5.044,0,0,0,4.887-5.09l1.493-376.179-18.6-378.623a218.582,218.582,0,0,0,169.6,80.625c120.733,0,218.934-98.2,218.934-218.935s-98.2-219-218.934-219A217.332,217.332,0,0,0,550.8,793.075c-10.131-37.738-21.2-75.264-33.508-112.348-9.572-28.835-21.8-56.169-32.706-84.435a79.579,79.579,0,0,0-15.432-25.224,71.408,71.408,0,0,0-30.283-19.463c-1.849-.628-21.092-5.683-21.155-6.918-.2-4-.34-8.144-.475-12.215,1.833-.2,3.665-.408,5.429-.747,33.865-5.9,62.436-32.033,76.417-69.9a147.859,147.859,0,0,0,8.891-44.249,154.919,154.919,0,0,0,.135-15.88,33.309,33.309,0,0,0,6.447-5.5c10.044-11.2,12.759-26.6,13.233-37.6a97.863,97.863,0,0,0-10.179-48.524,58.624,58.624,0,0,0,1.969-15.609,34.1,34.1,0,0,0-2.918-14.32c-4.82-10.452-19.275-34.748-49.135-35.019-6.855,0-14.116,3.393-17.781,5.429a260.984,260.984,0,0,0-36.919-10.383v-65.83c0-32.44,23.685-58.839,52.8-58.839h830.132c29.114,0,52.8,26.4,52.8,58.839V355.885a5.09,5.09,0,0,0,10.18,0V308.04h6.379c7.4,0,13.37,6.718,13.37,14.93V543.194c0,8.28-5.972,14.931-13.37,14.931h-6.379V393.21a5.09,5.09,0,0,0-10.18,0V1434H1032.846a5.083,5.083,0,0,0-5.09,5.089v83.136H944.214a5.083,5.083,0,0,0-5.09,5.09v85.713c0,2.783.481,5.047,6.419,5.369h52.4v76.816h-23.7C965.338,1695.739,962.878,1700.3,962.878,1703.084Zm75.059-180.86v-78.046h436.444v78.046ZM1385.68,1532.4v74.584H949.3V1532.4Zm23.753,418.052H973.057v-68.68h436.376Zm0-164.235H1068.476a5.09,5.09,0,1,0,0,10.179h340.957v75.2H973.057v-75.2h54.021a5.09,5.09,0,0,0,0-10.179H973.057v-79.6h436.376Zm-401.311-91.008V1618.4h436.94v76.816Zm411.491,255.243V1705.392h30.539a5.085,5.085,0,0,0,5.092-5.09v-69.9l280.283,320.054Zm331.32,0-288.36-327.044,58.566-51.578L1809.5,1899.352Zm17.78,0,51.375-46.827a5.064,5.064,0,0,0,1.425-2.17h22.259a3.394,3.394,0,1,0,0-6.788h-24.838s-282.821-319.123-291.547-331.194c-7.106-9.832-8.239-4.708-13.759.539-12.194,11.6-46.7,42.024-58.384,52.338v-4.276a5.041,5.041,0,0,0-5.092-5.09h-54.293V1532.4h83.612a5.128,5.128,0,0,0,5.09-5.089v-88.226a5.083,5.083,0,0,0-5.09-5.089H1358.738V982.963l35.7-.067a3.451,3.451,0,0,0,3.326-3.462,3.347,3.347,0,0,0-3.394-3.325l-35.629.067V918.8h320.19c-.136.339-13.37,38.786-19.342,56.566l-21.852.068c-4.341.013-4.422,6.786,0,6.786l19.545-.068c-10.585,31.829-19.544,59.653-23.956,75.6a10.153,10.153,0,0,0,6.787,12.489c8.958,2.443,18.324,4.886,28.027,7.193,0,0-16.287,137.292-16.355,137.089-1.764,4.343-3.393,8.821-5.157,13.3-2.85,7.737-5.836,15.542-9.231,22.669-5.279,11.439-12.818,23.241-24.838,28.365-4.614,1.969-9.909,2.784-15.473,3.6-10.248,1.629-20.9,3.326-28.775,12.35-9.84,11.47-9.3,28.165-7.263,44.52,1.248,10.017,5.4,16.206,15.338,18.868,22.632,6.063,46.392,9.149,69.834,8.008,7.4-.271,15.881-.882,23.686-5.158,10.043-5.5,16.354-15.474,22.395-25.11,6.447-10.185,13.152-19.459,23.752-25.653,0,0-4.263,41.838-4.275,41.941-1.824,17.9,25.871,22.272,29.387,4.343l12.214-62.436c-.676.34,2.037-5.5,2.987-8.484,8.551-26.4,10.385-48.184,5.7-66.44a58.4,58.4,0,0,0-16.9-28.707l10.519-52.188c1.3-6.417-8.674-8.55-9.977-2.036l-11.876,58.838c-2.916,14.524-16.015,32.983-28.639,40.312-14.93,8.756-28.775,10.724-36.918,5.364-5.429-3.666-7.873-10.248-6.787-18.733l16.559-142.313c24.093,5.564,50.018,10.383,76.688,14.116-.407,1.493-4.256,18.839-4.275,18.934-1.314,6.5,8.723,8.4,9.975,1.968,0,0,3.938-17.645,4.48-19.477,6.04.747,12.08,1.492,18.188,2.1l43.706,113.88v.407c.406,4.886,1.017,9.909,1.7,15,2.715,22.8,5.634,46.419-6.514,61.012-3.258,3.868-7.534,7.058-12.081,10.383-8.347,6.176-17.034,12.623-19.749,24.3-3.461,14.726,4.819,29.249,14.182,42.823,3.863,5.6,8.578,10.45,15.815,10.45a26.9,26.9,0,0,0,6.515-.882A235.978,235.978,0,0,0,1892.3,1349.5c6.38-3.664,13.573-8.142,18.528-15.608,6.687-9.96,7.389-22.1,8.326-33.687a107.261,107.261,0,0,1,2.221-16.722c.585-2.4,7.315-14.872,6.826-15.963,0,0,15.626,39.029,15.676,39.157,6.643,16.593,33.245,7.931,28.029-9.771,0,0-18.527-62.1-18.867-62.5a26.584,26.584,0,0,0-.542-7.4c-4.683-27.35-13.1-47.507-25.789-61.487a58.86,58.86,0,0,0-28.233-17.509l-13.572-46.624c37.014-1.445,73.494-6.71,108.516-19.071-.629-33.983-4.959-67.688-10.926-101.118l60.8-.136c4.3-.01,4.45-6.786.007-6.786l-62.029.136c-4-21.515-12.792-48.949-12.792-48.949-.068-.34,64.982-.8,96.675-2.834,6.582-.406,47.913-2.646,49.268-2.782l192.128.339a53.829,53.829,0,0,1,53.75,53.75v92.022c0,6.558,10.18,6.577,10.18,0V973.937a63.967,63.967,0,0,0-29.385-53.75h28.436a53.831,53.831,0,0,1,53.75,53.75v349.3h-52.8V1106.074c0-6.526-10.18-6.62-10.18,0v217.17h-39.769v-35.629a3.4,3.4,0,0,0-3.393-3.393,3.36,3.36,0,0,0-3.394,3.393v35.629h-137.08c-48.024,0-91.635,32.5-105.453,78.493-13.851,46.1,3.645,97.48,43.455,124.729a110.151,110.151,0,0,0,61.989,19.173h137.089v76.349a3.4,3.4,0,0,0,3.394,3.394,3.448,3.448,0,0,0,3.393-3.394v-76.349H2360.3v349.442c0,29.657-24.16,55.377-53.75,55.377ZM1723.622,1289.8c1.579.115,3.3-1.461,3.832-3.627a87.568,87.568,0,0,0-3.75-52.9,86.582,86.582,0,0,0,18.768-30.783c8.679,10.667,12.1,24.868,11.963,38.62s-3.561,27.242-7.294,40.476a14.289,14.289,0,0,1-2.409,5.447c-2.107,2.513-5.586,3.271-8.773,4.048-19.074,4.657-36.846,15.741-47.916,31.958-7.07,10.358-12.018,23.238-23.121,29.071-6,3.152-12.983,3.725-19.756,3.938a229.384,229.384,0,0,1-64.476-7.164c-7.624-1.97-9.784-6.843-10.18-14.565.107,2.071,19.148,6.54,21.479,7.14a165.541,165.541,0,0,0,24.215,4.347c15.56,1.609,30.021.4,45.428-1.285,3.549-.388,7.386-4.512,2.237-6.46a10.511,10.511,0,0,0-5.285-.079,168.059,168.059,0,0,1-75.7-5.961c-5.339-1.694-11.319-4.428-12.648-9.87-1.473-6.026,1.109-14.442,4.766-19.217,5.623-7.337,15.608-9.475,24.757-10.8s19.073-2.7,25.608-9.234l14.43,14.873c3.636,3.747,6.891,3.564,10.61-.355q7.114-7.5,14.23-15c4.359-4.593,4.105-8.432-.395-12.793a187.888,187.888,0,0,0-17.5-14.987q3.4-8.1,6.8-16.2c4.969,11.437,18.973,16.777,31.36,15.328s23.447-8.229,33.708-15.316a84.323,84.323,0,0,1,2.754,43.551C1720.987,1283.867,1720.018,1289.543,1723.622,1289.8Zm18.216,10.091s-10.68,54.491-10.722,54.7c-1.107,5.648-9.86,4.323-9.23-1.357l4.819-48.251C1730.98,1303.153,1741.5,1300.031,1741.838,1299.894Zm-111.164-21.173a71.426,71.426,0,0,0,12.963-17.847c5.361,4.206,13.03,10.315,17.51,15.066-3.461,4.343-11.606,12.622-16.56,17.509A93.309,93.309,0,0,0,1630.674,1278.721Zm792.605,54.7v202.036H2176.653a100.04,100.04,0,0,1-99.9-99.966c0-48.58,33.779-91.852,82.294-100.517a100.192,100.192,0,0,1,17.6-1.553Zm-82.186,617.034c17.645-11.333,29.385-32.847,29.385-55.377V1545.636h52.8v349.442c0,29.657-24.162,55.377-53.75,55.377Zm60.264,0a61.782,61.782,0,0,0,16.424-13.5,211.148,211.148,0,0,0,33.525,13.5Zm22.532-21.852a63.568,63.568,0,0,0,9.57-33.525V1549.37a207,207,0,0,1,82.185-16.967,209.088,209.088,0,0,1,190.7,123.584c47.032,105.055-.2,228.774-105.327,275.8a207.844,207.844,0,0,1-177.128-3.189Z"></path> <path class="1fcd9b3d-c758-4cc1-88fc-c6330213a26a" d="M2311.413,1209.253a3.391,3.391,0,0,1-3.393-3.393v-81.117a3.394,3.394,0,0,1,6.787,0v81.117A3.391,3.391,0,0,1,2311.413,1209.253Zm0-162.232a3.391,3.391,0,0,1-3.393-3.393v-28.656a35.22,35.22,0,0,0-27.835-34.335,3.392,3.392,0,1,1,1.391-6.64,42.035,42.035,0,0,1,33.231,40.975v28.656A3.391,3.391,0,0,1,2311.413,1047.021Zm-841.62-64.9a3.394,3.394,0,0,1-.009-6.787l81.112-.225h.012a3.393,3.393,0,0,1,.008,6.786l-81.112.226Zm648.919-1.8a3.394,3.394,0,0,1-.01-6.787l81.114-.225h.01a3.393,3.393,0,0,1,.009,6.786l-81.113.226Z"></path> </g> </g> </svg> 