<?xml version="1.0" encoding="UTF-8"?> <svg xmlns="http://www.w3.org/2000/svg" viewBox="0 0 1605.075 1257.977"> <defs> <style>.\39 44251ad-70cb-4a43-a3ff-799e96fb8036{fill:#4b3584;}.ef948ebd-f504-4110-97b0-aaa68bffd509{fill:#e6325c;}.adbafb0a-5650-486a-8e36-828d1847870f{fill:#f7af4d;}.\33 0455c85-2ec9-4f7e-9152-84a5559f216d{fill:#c2def5;}.\38 ae4d36f-a6df-4751-9996-7cb3cbdd54fd{fill:#2a2150;}.e4b3b38a-952d-4d3b-b39f-744061e98c16{fill:#2b2150;}.\35 70974d7-4d6e-4ef8-88e2-0b5884d0dcb1{fill:#2bb19e;}.a15e3b40-1f80-4d6c-a86a-8f8f31c6c9b4{fill:#5970b4;}.e0c59e3e-9434-45a6-97df-660c17bff43c{fill:#4a5da6;}.\32 308b740-d9fd-487b-a339-60151a805a82{fill:#8396cc;}.f514d96f-5fba-41c4-aa8f-21062dd8cb3f{fill:#ea5e83;}.\39 e6c0238-21cb-451b-bb50-65171aa87005{fill:#f5ae9e;}.e8c90941-9414-4a30-9e01-9676267bd6e0{fill:#a4c6e9;}.\36 d85ca9d-b440-497c-bb3d-5dffa3031f2c{fill:#ee7e94;}.\32 eb3d4d8-154d-42ab-8e92-d47083c5fda3{fill:#313c85;}.\30 7eb650a-9719-4881-a21c-c4a36fd23a05{fill:#8ecfd4;}</style> </defs> <title>Asset 3546</title> <g id="78f4aa64-187f-40ac-a954-fff6a16c5a4a" data-name="Layer 2"> <g id="59b54d25-5bf3-434b-9487-4ee49d952d83" data-name="Слой 2"> <path class="944251ad-70cb-4a43-a3ff-799e96fb8036" d="M1356.285,897.18a84.227,84.227,0,0,1,1.5,12.279h-18.492c.074-.147.146-.293.22-.439l2.046-5.116,8-19.917A33.765,33.765,0,0,1,1356.285,897.18Z"></path> <path class="944251ad-70cb-4a43-a3ff-799e96fb8036" d="M1363.667,807.83A220.344,220.344,0,0,0,1358,833.484a30.955,30.955,0,0,0-5.079,4.458c-7.455,8.223-10.926,19.7-12.863,30.807-.22,1.353-.694,4.934-.694,4.934l-8.99,30.221-.512,1.754a4.964,4.964,0,0,0,.365,3.8H389.483a5.4,5.4,0,0,1-5.408-5.409V813.239a5.4,5.4,0,0,1,5.408-5.409Z"></path> <path class="944251ad-70cb-4a43-a3ff-799e96fb8036" d="M1435.823,826.9l.493,74.851a4.5,4.5,0,0,1-.8,2.558c-1.827,3-6.87,5.153-12.791,5.153h-9.83c-2.338-1.828-4.9-3.509-7.126-5.555a19.379,19.379,0,0,1-2.083-2.156c-8.441-10.159-4.567-26.641-3.216-41a3.264,3.264,0,0,0,1.316-.146,3.82,3.82,0,0,0,2.558-2.449c2.522-11.913,12.5-31.025,21.451-50.1a20.335,20.335,0,0,1,5.336,1.425S1435.823,824.412,1435.823,826.9Z"></path> <path class="ef948ebd-f504-4110-97b0-aaa68bffd509" d="M1412.746,939.06c-1.1,1.571-2.266,3.215-3.911,3.946a7.973,7.973,0,0,1-4.97,0,119.593,119.593,0,0,1-33.583-12.937c-3.326-1.9-6.615-4.019-8.808-7.308-4.678-6.98-3.106-17.1-5.189-25.581a33.765,33.765,0,0,0-6.724-13.193l-8,19.917c-.919,2.3-1.544,4.732-3.106,6.688a4.97,4.97,0,0,1-5.3,1.315l-.11-.037a4.945,4.945,0,0,1-3.142-3.216c-.66-1.538.029-3.25.475-4.75l8.99-30.221s.474-3.581.694-4.934c1.937-11.109,5.408-22.584,12.863-30.807a30.955,30.955,0,0,1,5.079-4.458c2.668,2.01,5.628,4.056,8.771,6.067a83.288,83.288,0,0,0,6.286,23.935c22.767,51.125,25.434,18.492,26.275-.4,0,0-4.093,28.5,4.348,38.663,5.116,6.176,14.18,8.844,16.116,17.065C1421.406,925.794,1416.948,933.029,1412.746,939.06Z"></path> <path class="adbafb0a-5650-486a-8e36-828d1847870f" d="M549.4,214.589A76.564,76.564,0,0,0,530.3,255.231a6.964,6.964,0,0,1-6.875,6.01H461.145a6.962,6.962,0,0,1-6.877-6.031,75.1,75.1,0,0,0-19.33-40.744,77.359,77.359,0,1,1,114.461.123Z"></path> <path class="30455c85-2ec9-4f7e-9152-84a5559f216d" d="M492.566,323.58H491.9c-18.26,0-33.064-12.744-33.064-28.464V273.8a1.969,1.969,0,0,1,1.97-1.969H523.66a1.969,1.969,0,0,1,1.97,1.969v21.315C525.63,310.836,510.827,323.58,492.566,323.58Z"></path> <path class="8ae4d36f-a6df-4751-9996-7cb3cbdd54fd" d="M492.565,326.321H491.9c-19.742,0-35.805-14-35.805-31.205V273.8a4.716,4.716,0,0,1,4.711-4.711H523.66a4.716,4.716,0,0,1,4.711,4.711v21.314C528.371,312.323,512.308,326.321,492.565,326.321Zm-30.99-51.748v20.543c0,14.184,13.6,25.723,30.323,25.723h.667c16.722,0,30.324-11.539,30.324-25.723V274.573Z"></path> <path class="e4b3b38a-952d-4d3b-b39f-744061e98c16" d="M380.8,178H317.887a1.827,1.827,0,0,1,0-3.654H380.8a1.827,1.827,0,0,1,0,3.654Z"></path> <path class="e4b3b38a-952d-4d3b-b39f-744061e98c16" d="M666.577,178h-62.91a1.827,1.827,0,0,1,0-3.654h62.91a1.827,1.827,0,0,1,0,3.654Z"></path> <path class="e4b3b38a-952d-4d3b-b39f-744061e98c16" d="M492.232,66.562a1.826,1.826,0,0,1-1.827-1.827V1.827a1.827,1.827,0,0,1,3.654,0V64.735A1.826,1.826,0,0,1,492.232,66.562Z"></path> <path class="e4b3b38a-952d-4d3b-b39f-744061e98c16" d="M413.435,99.2a1.819,1.819,0,0,1-1.292-.536L367.658,54.184a1.827,1.827,0,0,1,2.584-2.583l44.484,44.482a1.828,1.828,0,0,1-1.291,3.119Z"></path> <path class="e4b3b38a-952d-4d3b-b39f-744061e98c16" d="M571.029,99.2a1.828,1.828,0,0,1-1.292-3.119L614.22,51.6a1.827,1.827,0,0,1,2.584,2.583L572.321,98.666A1.821,1.821,0,0,1,571.029,99.2Z"></path> <path class="570974d7-4d6e-4ef8-88e2-0b5884d0dcb1" d="M1477.756,1145.641v42.793c0,35.959-32.852,64.061-73.379,64.061H433.957c-4.677,0-8.441-3.325-8.441-7.967v-.182a8.453,8.453,0,0,1,8.441-8.479h4.751l-.658.768v.475H850.7c24.629,0,44.583-19.478,44.583-43.524V1141.4c0-24.046-19.954-43.524-44.583-43.524H586.564v-.219H433.957a8.468,8.468,0,0,1-8.441-8.441v-.147a8.453,8.453,0,0,1,8.441-8.478H1206.6v26.2c0,2.047,1.535,3.18,2.631,1.936l24.192-28.138h5.92l24.192,28.138c1.1,1.244,2.631.111,2.631-1.936v-26.2h138.209C1444.9,1080.593,1477.756,1109.755,1477.756,1145.641Z"></path> <path class="30455c85-2ec9-4f7e-9152-84a5559f216d" d="M438.056,1236.643v.466H850.707c24.621,0,44.58-19.485,44.58-43.521v-52.183c0-24.036-19.959-43.52-44.58-43.52H438.056v.467C454.913,1118.771,455.705,1217.772,438.056,1236.643Z"></path> <path class="adbafb0a-5650-486a-8e36-828d1847870f" d="M1441.365,912.564a9.33,9.33,0,0,1-.106,1.512c-.725,4.777-4.88,7.3-9.4,7.3,0-.037-11.768-.585-11.768-.585a12.14,12.14,0,0,0-.292-1.974c-.987-4.128-3.727-6.87-6.907-9.354h9.83c5.921,0,10.964-2.156,12.791-5.153.145-.237,2.315,1.2,2.518,1.359A8.9,8.9,0,0,1,1441.365,912.564Z"></path> <path class="adbafb0a-5650-486a-8e36-828d1847870f" d="M1441.359,1071.421v.182c0,4.788-3.728,9.209-8.4,9.209H462.5c-40.49,0-73.38-29.783-73.38-66.583V970.486c0-27.261,18.126-50.722,44.035-61.027h924.631a39.936,39.936,0,0,0,1.754,9.354,15.968,15.968,0,0,0,.839,1.974H878.914c-25.106,0-45.424,19.733-45.424,44.072v52.806a43.131,43.131,0,0,0,11.8,29.6,45.85,45.85,0,0,0,33.62,14.434l554.04,1.06A8.534,8.534,0,0,1,1441.359,1071.421Z"></path> <path class="30455c85-2ec9-4f7e-9152-84a5559f216d" d="M1428.788,920.787c-16.079,23.57-16.445,119.79,1.132,138.428v.475H1266.168V981.737H1206.6v77.953H876.9a46.112,46.112,0,0,1-31.61-12.424,43.228,43.228,0,0,1-13.814-31.612v-52.8c0-24.3,20.355-44.037,45.424-44.037h482.634a15.968,15.968,0,0,0,.839,1.974,10.511,10.511,0,0,0,1.1,1.974c2.193,3.289,5.482,5.408,8.808,7.308a119.593,119.593,0,0,0,33.583,12.937,7.973,7.973,0,0,0,4.97,0c1.645-.731,2.814-2.375,3.911-3.946,3.8-5.446,7.82-11.915,7.344-18.273a12.14,12.14,0,0,0-.292-1.974h10.122S1429.153,920.239,1428.788,920.787Z"></path> <path class="a15e3b40-1f80-4d6c-a86a-8f8f31c6c9b4" d="M589.232,1080.812l-69.105.074c-15.64-19.186-19.4-36.654-19.4-57.7v-56.5c0-20.976,11.438-45.387,31.5-57.227h54.962c-24.447,4.6-43.158,28.5-43.158,57.227v56.5C544.027,1052.747,563.8,1077.194,589.232,1080.812Z"></path> <path class="a15e3b40-1f80-4d6c-a86a-8f8f31c6c9b4" d="M706.428,1080.812l-69.105.074c-15.64-19.3-19.4-36.837-19.4-57.959V966.175c0-20.648,10.891-44.547,30.186-56.716h52.878c-22.766,6.1-39.759,29.2-39.759,56.716v56.752C661.223,1052.6,680.993,1077.194,706.428,1080.812Z"></path> <path class="e0c59e3e-9434-45a6-97df-660c17bff43c" d="M1153.686,534.264v.183a8.757,8.757,0,0,1-8.77,8.7h-1.169c0-.037.037-.073.073-.109v-.475H567.452c-26.129,0-47.325,19.989-47.325,44.619v53.5c0,24.63,21.2,44.619,47.325,44.619h28.065v18.784l-2.741.036H577.209a86.013,86.013,0,0,1-19.843-2.3c-32.634-7.674-56.643-33.839-56.643-64.938V592.7c0-37.055,34.241-67.2,76.486-67.2h567.707A8.773,8.773,0,0,1,1153.686,534.264Z"></path> <path class="e0c59e3e-9434-45a6-97df-660c17bff43c" d="M1153.686,694.618v.183a8.711,8.711,0,0,1-8.77,8.7l-472.438.512V685.3l472.438.549A8.772,8.772,0,0,1,1153.686,694.618Z"></path> <path class="30455c85-2ec9-4f7e-9152-84a5559f216d" d="M1143.747,543.144c-17.833,21.159-18.638,122.348.073,141.68v.475H672.478V600.7H595.517v84.6H567.452c-26.129,0-47.325-19.989-47.325-44.619v-53.5c0-24.63,21.2-44.619,47.325-44.619H1143.82v.475C1143.784,543.071,1143.747,543.107,1143.747,543.144Z"></path> <path class="ef948ebd-f504-4110-97b0-aaa68bffd509" d="M1391.878,702.768c-1.863,14.032-12.131,37.2-18.527,68.3-2.3,11.219-6.285,24.119-9.647,36.763h-.037l-927.773-.4c-4.678,0-8.441-2.376-8.441-5.3v-.11c0-2.923,3.763-5.335,8.441-5.335H588.5v-.622H989.934c25.068,0,45.424-12.168,45.424-27.188V736.241c0-15.055-20.356-27.224-45.424-27.224H672.478v59.346c0,2.631-2.01,4.093-3.4,2.485L634,730.1l-35.082,40.746c-1.389,1.608-3.4.146-3.4-2.485V709.017h-158.6v.292c.22.146.4.329.622.474h-1.645c-4.678,0-8.441-2.375-8.441-5.262v-.109c0-2.961,3.763-5.336,8.441-5.336h792.927c1.535.694,3.106,1.316,4.677,1.9,18.674,6.8,101.043,5.7,126.514,4.713C1368.052,705.4,1388.736,704.3,1391.878,702.768Z"></path> <path class="30455c85-2ec9-4f7e-9152-84a5559f216d" d="M1035.358,736.241v32.634c0,15.02-20.356,27.188-45.424,27.188H436.917v-.293c17.98-11.8,17.176-73.708,0-86.461v-.292h158.6v59.346c0,2.631,2.01,4.093,3.4,2.485L634,730.1l35.082,40.746c1.388,1.608,3.4.146,3.4-2.485V709.017H989.934C1015,709.017,1035.358,721.186,1035.358,736.241Z"></path> <path class="ef948ebd-f504-4110-97b0-aaa68bffd509" d="M960.187,381.876c-.428-1.2-.86-2.409-1.278-3.617,0,0-40.56-115.314-42.063-119.242-4.731-12.42-15.33-22.486-28.431-25.435L858.742,226.9c-5.883-1.324-11.779-2.6-17.642-3.982,2.435.593-.483,4.964-.484,5.919,0,6.56-4.491,11.648-9.247,15.626a77.815,77.815,0,0,1-18.234,11.525c-.364.162-2.3-1.129-2.625-1.3a83.343,83.343,0,0,1-12.1-7.585,41.708,41.708,0,0,1-8.478-8.332,20.341,20.341,0,0,1-2.152-3.571c-1.9-4.3-1.575-8.841-1.575-13.422-1.462.475-2.96.95-4.422,1.5-3.216,1.133-6.761.665-9.977,1.944-8.334,3.325-17.333,4.793-25.745,7.916-7.532,2.8-14.246,9.228-20.848,13.966a35.884,35.884,0,0,0-10.2,11.915c-5.466,9.565-50.43,104.733-51.454,107.364-.97,2.426-2.534,5.385-2.667,8.04-.274,5.2-.5,10.7.8,15.786,1.032,4.514,5.946,12.635,9.6,15.532,12.79,10.14,52.684-7.7,52.684-7.7-.366,1.571-5.859,13.107-6.919,16.03-.366.877-.694,1.791-.987,2.7a3.143,3.143,0,0,0-.182.548l97.937,35.923s79.958-26.056,79.848-26.568C922.194,418.959,970.162,402.425,960.187,381.876Zm-64.426,1.389.731-32.853,9.5,15.86,2.156,3.618,1.9,3.179Z"></path> <path class="adbafb0a-5650-486a-8e36-828d1847870f" d="M741.656,541.646c-12.791.95-40.746,1.864-53.5,2.813a21.137,21.137,0,0,1-8.406-.511c-5.518-1.791-8.624-7.09-10.341-11.767-6.907-18.674-4.9-42.683,6.614-57.155l54.962,18.016Z"></path> <path class="e4b3b38a-952d-4d3b-b39f-744061e98c16" d="M703.506,523.709a1.827,1.827,0,0,1-1.717-2.457,52.951,52.951,0,0,0,2.741-24.717,1.826,1.826,0,1,1,3.626-.429,56.572,56.572,0,0,1-2.934,26.406A1.833,1.833,0,0,1,703.506,523.709Z"></path> <path class="e4b3b38a-952d-4d3b-b39f-744061e98c16" d="M716.435,525.324a1.829,1.829,0,0,1-1.716-2.457,53.709,53.709,0,0,0,2.744-24.716,1.826,1.826,0,1,1,3.626-.428,57.387,57.387,0,0,1-2.937,26.4A1.833,1.833,0,0,1,716.435,525.324Z"></path> <path class="adbafb0a-5650-486a-8e36-828d1847870f" d="M921.433,465.4c14.049,16.681,19.3,45.677,14.567,67-1.1,4.967-3.394,10.488-8.27,11.942-2.463.734-5.105.246-7.627-.246-11.8-2.3-37.485-5.982-49.29-8.286l.375-53.36C883.7,477.737,919.454,463.053,921.433,465.4Z"></path> <path class="e4b3b38a-952d-4d3b-b39f-744061e98c16" d="M903.736,519.6a1.83,1.83,0,0,1-1.705-1.168,79.092,79.092,0,0,1-5.325-29.054,1.828,1.828,0,0,1,1.827-1.816h.01a1.825,1.825,0,0,1,1.817,1.838,76.4,76.4,0,0,0,5.082,27.715,1.83,1.83,0,0,1-1.049,2.362A1.8,1.8,0,0,1,903.736,519.6Z"></path> <path class="e4b3b38a-952d-4d3b-b39f-744061e98c16" d="M892.063,520.129a1.833,1.833,0,0,1-1.706-1.168,79.068,79.068,0,0,1-5.324-29.051,1.828,1.828,0,0,1,1.827-1.817h.011a1.826,1.826,0,0,1,1.816,1.838,76.335,76.335,0,0,0,5.082,27.713,1.827,1.827,0,0,1-1.706,2.485Z"></path> <path class="e4b3b38a-952d-4d3b-b39f-744061e98c16" d="M881.646,522.842a1.835,1.835,0,0,1-1.706-1.169,79.022,79.022,0,0,1-5.321-29.053,1.8,1.8,0,0,1,1.837-1.816,1.826,1.826,0,0,1,1.817,1.838,76.355,76.355,0,0,0,5.079,27.714,1.831,1.831,0,0,1-1.706,2.486Z"></path> <path class="570974d7-4d6e-4ef8-88e2-0b5884d0dcb1" d="M956.423,480.435l-23.351,6.651a65.929,65.929,0,0,0-11.621-21.671c-2.01-2.375-37.728,12.326-50.263,17.04C872.357,499.393,870,519.6,870.8,535.8c.073,0,.256,3.106.256,3.106l-55.729-18.272-73.672,21.013-10.671-48.6L664.11,471.116A33.8,33.8,0,0,1,642.476,428.4l.183-.622a33.744,33.744,0,0,1,20.208-21.122c.512-.219,1.06-.4,1.608-.585a33.393,33.393,0,0,1,5.007-1.242c2.3.548,4.385,2.412,6.578,3.508,4.348,2.083,9.355.95,14.069-.439l123.7,45.352,122.239-38.08A34.149,34.149,0,0,1,977.9,435.743c6.108,16.633-1.129,35.711-17.474,43.163A34.041,34.041,0,0,1,956.423,480.435Z"></path> <path class="2308b740-d9fd-487b-a339-60151a805a82" d="M785.544,226.878H764c5.629-1.191,11.221-2.381,16.849-3.608h4.619A17.227,17.227,0,0,0,785.544,226.878Z"></path> <path class="2308b740-d9fd-487b-a339-60151a805a82" d="M860.954,226.878H841.9a12.364,12.364,0,0,0-.613-3.608h.18Q851.211,225.111,860.954,226.878Z"></path> <path class="2308b740-d9fd-487b-a339-60151a805a82" d="M788.467,235.177a21.08,21.08,0,0,0,2.562,3.608H729.872a41.908,41.908,0,0,1,4.474-3,11.588,11.588,0,0,1,1.154-.613Z"></path> <path class="2308b740-d9fd-487b-a339-60151a805a82" d="M900.535,238.785H837.79a24.283,24.283,0,0,0,2.237-3.608h53.9A45.235,45.235,0,0,1,900.535,238.785Z"></path> <path class="2308b740-d9fd-487b-a339-60151a805a82" d="M800.59,247.12c1.876,1.226,3.788,2.417,5.7,3.608h-87.6c.866-1.227,1.768-2.454,2.706-3.608Z"></path> <path class="2308b740-d9fd-487b-a339-60151a805a82" d="M912.585,250.728H822.564c.288-.181.612-.361.9-.542,1.624-1.01,3.284-2.02,4.871-3.066h81.507A44.615,44.615,0,0,1,912.585,250.728Z"></path> <path class="2308b740-d9fd-487b-a339-60151a805a82" d="M919.044,262.635H711.47c.65-1.227,1.335-2.418,2.021-3.609H917.42C918,260.217,918.54,261.408,919.044,262.635Z"></path> <path class="2308b740-d9fd-487b-a339-60151a805a82" d="M923.3,274.577H705.48c.469-.938.9-1.84,1.371-2.778a8.351,8.351,0,0,0,.4-.83h214.9C922.544,272.16,922.942,273.351,923.3,274.577Z"></path> <path class="2308b740-d9fd-487b-a339-60151a805a82" d="M701.421,282.879H718.6V286.5h-18.93C700.288,285.291,700.873,284.049,701.421,282.879Z"></path> <polygon class="2308b740-d9fd-487b-a339-60151a805a82" points="889.074 282.879 874.967 286.497 739.39 286.497 725.284 282.879 889.074 282.879"></polygon> <path class="2308b740-d9fd-487b-a339-60151a805a82" d="M926.567,286.5H895.761v-3.618h29.856C925.946,284.049,926.275,285.255,926.567,286.5Z"></path> <path class="2308b740-d9fd-487b-a339-60151a805a82" d="M695.647,294.829H718.6v3.582H693.856C694.441,297.205,695.026,296,695.647,294.829Z"></path> <polygon class="2308b740-d9fd-487b-a339-60151a805a82" points="842.444 294.829 828.484 298.411 785.764 298.411 771.804 294.829 842.444 294.829"></polygon> <path class="2308b740-d9fd-487b-a339-60151a805a82" d="M929.637,298.411H895.761v-3.582h32.926c.109.439.219.841.329,1.279C929.235,296.875,929.417,297.68,929.637,298.411Z"></path> <path class="2308b740-d9fd-487b-a339-60151a805a82" d="M689.8,306.743h28.8v3.581H688.046C688.631,309.118,689.215,307.912,689.8,306.743Z"></path> <path class="2308b740-d9fd-487b-a339-60151a805a82" d="M933.145,310.324H895.761v-3.581h36.287C932.341,307.948,932.743,309.154,933.145,310.324Z"></path> <path class="2308b740-d9fd-487b-a339-60151a805a82" d="M683.99,318.656H718.6v3.617H682.2C682.784,321.067,683.405,319.862,683.99,318.656Z"></path> <path class="2308b740-d9fd-487b-a339-60151a805a82" d="M937.238,322.273H895.761v-3.617h40.2C936.361,319.862,936.8,321.1,937.238,322.273Z"></path> <path class="2308b740-d9fd-487b-a339-60151a805a82" d="M678.179,330.569H718.6v3.618H676.389C676.973,332.944,677.6,331.775,678.179,330.569Z"></path> <path class="2308b740-d9fd-487b-a339-60151a805a82" d="M941.915,334.187H895.761v-3.618h44.693C940.929,331.811,941.4,332.981,941.915,334.187Z"></path> <path class="2308b740-d9fd-487b-a339-60151a805a82" d="M672.332,342.519H718.6v3.618H670.541C671.163,344.931,671.748,343.725,672.332,342.519Z"></path> <path class="2308b740-d9fd-487b-a339-60151a805a82" d="M947.288,346.137H895.761v-3.618h49.845C946.155,343.725,946.666,344.931,947.288,346.137Z"></path> <path class="2308b740-d9fd-487b-a339-60151a805a82" d="M666.521,354.432H718.6v3.618H664.841C665.389,356.808,665.937,355.6,666.521,354.432Z"></path> <path class="2308b740-d9fd-487b-a339-60151a805a82" d="M952.924,358.033H904.233c-.632-1.191-1.25-2.381-1.916-3.608H951.31C951.873,355.616,952.433,356.806,952.924,358.033Z"></path> <path class="2308b740-d9fd-487b-a339-60151a805a82" d="M738.257,369.963H661.588a1.681,1.681,0,0,1-.986-.329,1.719,1.719,0,0,1-.8-1.462,1.762,1.762,0,0,1,1.754-1.79h74.111Z"></path> <path class="2308b740-d9fd-487b-a339-60151a805a82" d="M954.961,370.073l-46.812-.183-2.156-3.618,47.873.183C954.267,367.661,954.669,368.83,954.961,370.073Z"></path> <path class="2308b740-d9fd-487b-a339-60151a805a82" d="M746.991,381.876h-85.4a1.686,1.686,0,0,1-.84-.219,1.774,1.774,0,0,1,0-3.142,1.418,1.418,0,0,1,.84-.256h82.736Z"></path> <path class="2308b740-d9fd-487b-a339-60151a805a82" d="M959.311,381.883H897.179c1.516-1.3,3.068-2.49,4.654-3.609h57.3a6.658,6.658,0,0,1,.072.83C959.275,380.006,959.311,380.944,959.311,381.883Z"></path> <path class="2308b740-d9fd-487b-a339-60151a805a82" d="M750.207,390.208c-.183.329-.292.476-.4.512-1.535.4-5.043,1.863-8.186,3.106H661.588a1.6,1.6,0,0,1-.913-.292,1.689,1.689,0,0,1-.877-1.5,1.965,1.965,0,0,1,.292-1.024v-.036a1.9,1.9,0,0,1,1.5-.768Z"></path> <path class="2308b740-d9fd-487b-a339-60151a805a82" d="M958.032,390.208a15.063,15.063,0,0,1-.7,2.047c-.219.512-.475,1.059-.731,1.571H878.659a19.1,19.1,0,0,0-3.071-3.472c-.073-.036-.109-.109-.182-.146Z"></path> <path class="2308b740-d9fd-487b-a339-60151a805a82" d="M709.089,402.124a53.5,53.5,0,0,0-5.81,3.175,8.376,8.376,0,0,0,1.011.433H668.353a12.894,12.894,0,0,1-1.949-1.515,14.78,14.78,0,0,1-1.876-2.093Z"></path> <path class="2308b740-d9fd-487b-a339-60151a805a82" d="M775.5,405.74H719.912c.293-1.206.548-2.376.731-3.618h40.746Z"></path> <path class="2308b740-d9fd-487b-a339-60151a805a82" d="M950.467,402.122a37.83,37.83,0,0,1-4.312,3.618H877.963l.659-3.618Z"></path> <path class="2308b740-d9fd-487b-a339-60151a805a82" d="M813.171,417.689h-94.9c-.731-.329-1.462-.621-2.193-.913-.438-.183-.913-.366-1.352-.548.292-.731.585-1.426.84-2.157H808.64A46.751,46.751,0,0,0,813.171,417.689Z"></path> <path class="2308b740-d9fd-487b-a339-60151a805a82" d="M929.709,414.071c-2.045.8-4.092,1.5-6.1,2.193-1.316.475-2.7.95-4.093,1.425H875.808l.657-3.618Z"></path> <path class="2308b740-d9fd-487b-a339-60151a805a82" d="M895.578,425.985c-3.4,1.169-6.907,2.375-10.452,3.581H746.809c-2.851-1.169-5.738-2.375-8.588-3.581Z"></path> <path class="2308b740-d9fd-487b-a339-60151a805a82" d="M854.175,437.916s-9.374,2.49-12.423,3.609h-65.87c-2.887-1.155-5.74-2.381-8.595-3.609Z"></path> <path class="f514d96f-5fba-41c4-aa8f-21062dd8cb3f" d="M561.934,386.188,509.9,506.783l-42.354,11.036c1.5-3.91,3.252-9.355,3.4-11.731.548-10.012-.329-19.55-3.874-28.577-1.718-4.385-5.664-5.152-10.269-4.056-.548.147-12.242,1.06-13.375,8.186-4.276,26.786-15.056,29.235-20.428,33.8a8.66,8.66,0,0,0-2.3,3.508l-69.47-7.93,38.992-116.1,96.586,7.529.036-.146Z"></path> <path class="adbafb0a-5650-486a-8e36-828d1847870f" d="M152.826,1220.117c-.146,8.3-7.6,14.8-14.4,20.026-1.754,1.352-3.655,2.777-5.81,3-2.12.219-4.057-.731-5.884-1.718a155.45,155.45,0,0,1-35.74-26.129c-3.362-3.252-6.614-6.76-8.222-11.182-3.4-9.392,1.5-20.1,1.608-30.258a39.744,39.744,0,0,0-3.984-17.03l-19.4,24.3a6.188,6.188,0,0,1-8.369.986l-.109-.036a5.885,5.885,0,0,1-1.864-8.04L71.48,1141.8s1.644-3.8,2.3-5.19c5.628-11.693,13.193-23.2,24.484-29.783a33.5,33.5,0,0,1,20.794-4.385l-1.791,1.827c-5.189,8.15-2.814,25.252.621,34.644a40.013,40.013,0,0,0,6.76,12.314c4.37,5.142,10.788,7.418,17.359,4.825a20.8,20.8,0,0,0,3.253-1.608c-5.738,13.887-12.389,28.54-6.286,41.075C143.142,1204.147,153.045,1210.323,152.826,1220.117Z"></path> <path class="9e6c0238-21cb-451b-bb50-65171aa87005" d="M147.82,1148.09c-5.446,12.643-21.342,14.508-29.93-9.173-3.435-9.392-5.81-26.494-.621-34.644l3.858-3.983c-.767,1.535,19.53,18.784,20.992,19.953a89.374,89.374,0,0,0,12.717,8.807,31.244,31.244,0,0,0,2.924,1.462s-3.034,5.486-2.194,4.281C156.005,1134.171,147.82,1148.09,147.82,1148.09Z"></path> <path class="adbafb0a-5650-486a-8e36-828d1847870f" d="M349.285,1245.808c-.621,2.119-1.315,4.348-2.923,5.773-1.571,1.389-3.728,1.755-5.774,2.011a161.268,161.268,0,0,1-44.584-.585c-4.64-.7-9.391-1.682-13.338-4.349-8.368-5.628-10.78-17.1-16.773-25.434a40.976,40.976,0,0,0-13.375-11.512l-1.207,30.88a6.086,6.086,0,0,1-6.212,5.628h-.109a5.985,5.985,0,0,1-6.323-5.409l-2.375-38.079s-.914-4.019-1.206-5.554c-2.448-12.718-3.179-26.385,2.01-38.189A30.12,30.12,0,0,1,251.2,1145.6c-.109.256.365-.073,0,0,2.522,10.744,5.518,22.182,13.74,29.528,8.223,7.382,20.173,9.1,31.172,7.967,2.7-.256,5.664-.841,7.419-2.96a7.851,7.851,0,0,0,1.279-2.522c4.97,14.58,6.614,26.786,18.235,31.756,8.917,3.765,20.245,3.874,25.909,11.914C353.78,1228.12,351.624,1237.658,349.285,1245.808Z"></path> <path class="9e6c0238-21cb-451b-bb50-65171aa87005" d="M302.546,1179.443c-3.8,6.1-18.016,6.14-35.484-3.178-8.734-4.642-15.093-18.017-16.006-27.591a31.767,31.767,0,0,1,2.887-1.571l43.048,4.495C298.234,1154.228,301.559,1176.484,302.546,1179.443Z"></path> <path class="944251ad-70cb-4a43-a3ff-799e96fb8036" d="M343.584,764.344c-.877,45.642-9.5,114.235-14.836,152.862v.073c-1.681,12.242-3.034,21.414-3.691,25.946-.11.622-.183,1.17-.256,1.608a12.706,12.706,0,0,0-.183,1.353.965.965,0,0,0-.036.254l-.073.512-12.754,101.994-4.239,33.912v.111l-8.624,68.811-4.24-.438-4.056-.439-12.754-1.315-4.239-.439-12.717-1.315-4.239-.439-12.717-1.316-.585-.072,7.2-146.8c-.329.476-2.74,3.947-6.614,9.465-1.242,1.827-2.7,3.91-4.276,6.176-3.618,5.189-7.966,11.4-12.717,18.235-.439.585-.84,1.206-1.279,1.827-24.887,35.631-60.37,86.243-67.095,94.648-.182.22-.328.439-.475.585a2.617,2.617,0,0,0-.328.366c-.037.037-.074.037-.11.073-1.571.73-11.986-7.418-15.531-10.306-.512-.4-.877-.73-1.06-.877-1.06-.913-2.12-1.827-3.179-2.777-4.385-3.946-8.551-8.112-12.754-12.315-.146-.146-.512-.439-.914-.767l-.073-.073c-1.279-1.061-3.216-2.632-3-3.18,4.458-10.378,38.773-76.413,50.686-99.582,1.425-2.813,13.156-24.813,16.956-31.355,4.312-7.564,8.625-15.42,13.814-22.437,1.279-1.718,4.97-4.97,7.345-7.126a.035.035,0,0,0,.036-.036,22.821,22.821,0,0,0,1.864-1.827c2.339-2.778,1.535-4.569,1.535-4.569a752.275,752.275,0,0,0-5.883-81.6c2.119.549,4.166.767,4.823.365,4.24-2.594,4.276-4.2,1.535-6.724-5.006-4.6-8.076-17.5-8.624-20.245a107.367,107.367,0,0,0-3.472-12.023c0-.036,0-.036-.036-.072-.951-6.14-1.754-11.329-2.229-14.8a182.79,182.79,0,0,1-1.608-25.288v-1.462c.585.073,1.279.146,2.046.22,14.361,1.5,54.121,5.116,79.41,2.265,6.248-.694,12.973-32.707,12.973-32.707,19.039,0,41.952-3.362,41.952-3.362s.365,22.109,0,26.678C334.083,766.755,339.236,765.586,343.584,764.344Z"></path> <path class="9e6c0238-21cb-451b-bb50-65171aa87005" d="M159.506,799.837c-7.983,5.9-12.45,51.975-12.45,51.975-3.54,13.947,12.7,29.658,26.272,31.632,9.283.953,20.39-34.6,21.289-42.287,0,0,4.981,6.267,7.546,8.429,1.853,1.56,8.787,3.392,10.168,2.54,4.218-2.606,4.255-4.2,1.521-6.72-5.006-4.618-8.074-17.528-8.606-20.263-.769-3.9-5.558-20.338-8.789-23.32Z"></path> <path class="570974d7-4d6e-4ef8-88e2-0b5884d0dcb1" d="M290.925,580.894c-4.02-12.608-12.973-22.95-22-32.6a617.749,617.749,0,0,0-45.095-43.487l-27.042,6.468c-.585.146-1.134.292-1.718.475-9.319,2.631-16.92,6.359-18.455,13.74L156.371,659.645c-3.8,14.983-3.91,140.182-3.91,140.182h46.995l.475-28.1c14.361,1.5,54.121,5.116,79.41,2.265,6.248-.694,12.973-32.707,12.973-32.707,1.79-41.879-.731-84.745,1.1-126.953C293.885,603.112,294.324,591.6,290.925,580.894ZM200.37,747.68l1.388-79.191,11.4-47.032,7.419,45.1Z"></path> <path class="570974d7-4d6e-4ef8-88e2-0b5884d0dcb1" d="M451.5,544.533l-67.569,104.88a14.624,14.624,0,0,1-22.109,7.747l-19.77-13.3c2.886,42.391,7.162,107.4,7.272,118.8-1.718.256-15.348,5.408-15.056,1.938.365-4.569,0-26.678,0-26.678s-6.871-53.9-7.565-61.138c-1.279-13.411,1.535-90.226,1.608-95.707.073-5.153-1.973-10.123-4.019-14.874q-13.212-30.751-27.774-60.882c-1.205-2.412-2.448-4.933-4.677-6.468a10.87,10.87,0,0,0-4.5-1.717c-.074-.878-.183-1.755-.256-2.632l24.265,6.651c11.767,3.837,26.787,39.394,32.049,47.763,4.349,7.017,10.451,16.079,9.83,28.175l6.615,10.452,48.6-62.307Z"></path> <path class="9e6c0238-21cb-451b-bb50-65171aa87005" d="M317.675,424.669a78.62,78.62,0,0,1-6.066,25.837,67.607,67.607,0,0,1-16.7,24.594,50.2,50.2,0,0,1-9.062,6.578c.941,9.129,1.7,18.326,2.73,27.42.5,4.447,1.331,9.579.022,13.968-3.638,12.2-21.385.8-27.42-2.835-14.8-8.917-25.142-22.328-25.142-22.328.037-5.262,2.01-11.548,3.947-20.574a67.872,67.872,0,0,1-8.595-7.683c-.96-1.174.525-3.986.447-5.4-.132-2.4-1.516-4.441-2.523-6.546-1.607-3.362-.073-7.346,1.9-10.525,1.937-3.179,4.422-6.285,4.787-10.013.695-7.126-6.723-13.814-4.494-20.647a27.683,27.683,0,0,1,2.339-4.5c4.275-7.747,1.717-18.747-2.156-23.936l79.958,2.229A73.118,73.118,0,0,1,317.675,424.669Z"></path> <path class="e8c90941-9414-4a30-9e01-9676267bd6e0" d="M292.314,741.284c1.79-41.879-.731-84.745,1.1-126.953.475-11.219.914-22.73-2.485-33.437-4.02-12.608-12.973-22.95-22-32.6a617.749,617.749,0,0,0-45.095-43.487,56.206,56.206,0,0,1,13.229-5.665c2.886,3.472,12.022,13.777,24.118,21.086,6.03,3.618,23.79,15.019,27.408,2.851,1.316-4.422.512-9.539,0-14-.475-3.946-.877-7.966-1.242-11.949a10.87,10.87,0,0,1,4.5,1.717c2.229,1.535,3.472,4.056,4.677,6.468Q311.1,535.469,324.29,566.2c2.046,4.751,4.092,9.721,4.019,14.874-.073,5.481-2.887,82.3-1.608,95.707.694,7.236,7.565,61.138,7.565,61.138S311.353,741.284,292.314,741.284Z"></path> <path class="adbafb0a-5650-486a-8e36-828d1847870f" d="M338.834,479.923l-10.561-.621-.037-.11c-4.239-.256-8.478-.475-12.754-.731-6.671-.4-14.424-.38-20.574-3.361a67.976,67.976,0,0,0,16.738-24.631c4.927-12.006,7.319-27.156,5.587-40.165a74.811,74.811,0,0,0-5.587-19.986l-1.608-.037-78.35-2.192c1.933.054,3.8,8.869,4.021,10.253,1.233,7.613-2.086,11.521-4.2,18.178-2.229,6.833,5.189,13.521,4.494,20.647-.672,6.905-10.2,13.167-6.689,20.533,4.213,8.828,1.963,18.416-5.15,25.111l-58.251-2.961c-4.2-8.331,2.485-18.308,7.162-26.348,1.608-2.74,4.2-4.97,5.226-7.966,3.618-10.233-10.415-22.95,5.189-35.156,21.671-16.883-25.909-33.035,33.036-73.818,32.159-22.255,76.157-10.232,82.479,2.083,0,0,14.4,3.545,23.827,13.3,9.867,10.159,13.521,25.106,12.753,39.029l-4.019-.11a18.356,18.356,0,0,1,2.229,10.233c-.914,7.564-8.259,13.776-7.418,21.378.73,6.614,7.527,11.511,7.674,18.126.109,5.042-3.764,9.939-2.339,14.8.658,2.266,2.412,4.057,3.8,5.957A22.1,22.1,0,0,1,338.834,479.923Z"></path> <path class="e4b3b38a-952d-4d3b-b39f-744061e98c16" d="M254.783,422.525c-.052,0-.1,0-.157,0a2.743,2.743,0,0,1-2.582-2.892l.253-4.456a2.742,2.742,0,0,1,5.475.311l-.253,4.455A2.743,2.743,0,0,1,254.783,422.525Z"></path> <path class="e4b3b38a-952d-4d3b-b39f-744061e98c16" d="M296.6,424.541l-.157,0a2.744,2.744,0,0,1-2.582-2.893l.212-3.738a2.742,2.742,0,0,1,5.475.31l-.212,3.739A2.742,2.742,0,0,1,296.6,424.541Z"></path> <path class="e4b3b38a-952d-4d3b-b39f-744061e98c16" d="M274.623,446.151c-2.933,0-6.216-.588-8.488-3.031a2.741,2.741,0,0,1,4.015-3.733c1.672,1.8,5.954,1.265,8.254.982-.037-.141.247-.709.232-.851l-3.1-31.6a2.741,2.741,0,1,1,5.456-.535l3.078,31.417a5.82,5.82,0,0,1-4.994,7.007A35.585,35.585,0,0,1,274.623,446.151Z"></path> <path class="e4b3b38a-952d-4d3b-b39f-744061e98c16" d="M286.8,456.389a23.692,23.692,0,0,1-7.419,2.668,36.5,36.5,0,0,1-6.468.548,41.063,41.063,0,0,1-12.462-1.864c2.741,4.422,7.236,5.737,14.033,4.349a2.741,2.741,0,0,1,1.1,5.372,30.227,30.227,0,0,1-5.774.621c-8.588,0-14.326-4.787-16.774-14.069a3.621,3.621,0,0,1,.475-3.252,3.353,3.353,0,0,1,2.485-1.17,2.63,2.63,0,0,1,1.973.95l.183.11c.512.292.841.512,1.243.731,4.276,2.375,12.973,3.4,18.966,2.265a17.751,17.751,0,0,0,5.664-1.973,2.736,2.736,0,1,1,2.778,4.714Z"></path> <path class="6d85ca9d-b440-497c-bb3d-5dffa3031f2c" d="M289.978,442.5a12.072,12.072,0,0,0,21.654,8l.036-.033c.92-2.193,1.7-4.428,2.421-6.736a12.071,12.071,0,0,0-24.111-1.233Z"></path> <path class="6d85ca9d-b440-497c-bb3d-5dffa3031f2c" d="M253.614,440.419a12.073,12.073,0,0,1-22.036,6.1c1.9-3.106,4.129-6.139,4.421-9.355a14.957,14.957,0,0,0-1.461-7.235,11.936,11.936,0,0,1,7.711-2.23A12.061,12.061,0,0,1,253.614,440.419Z"></path> <path class="e4b3b38a-952d-4d3b-b39f-744061e98c16" d="M302.356,408.5a2.724,2.724,0,0,1-1.056-.212,23.138,23.138,0,0,0-8.565-1.777,2.744,2.744,0,0,1-2.707-2.775,2.665,2.665,0,0,1,2.774-2.707,28.668,28.668,0,0,1,10.614,2.2,2.741,2.741,0,0,1-1.06,5.269Z"></path> <path class="e4b3b38a-952d-4d3b-b39f-744061e98c16" d="M248.281,404.692a2.741,2.741,0,0,1-.764-5.373,28.668,28.668,0,0,1,10.8-.983,2.741,2.741,0,1,1-.556,5.453,23.115,23.115,0,0,0-8.71.794A2.718,2.718,0,0,1,248.281,404.692Z"></path> <path class="e4b3b38a-952d-4d3b-b39f-744061e98c16" d="M292.886,349.334a1.811,1.811,0,0,1-.892-.234,35.08,35.08,0,0,0-11.927-4.286,1.827,1.827,0,1,1,.536-3.615,38.7,38.7,0,0,1,13.179,4.714,1.827,1.827,0,0,1-.9,3.421Z"></path> <path class="e4b3b38a-952d-4d3b-b39f-744061e98c16" d="M210.568,377.966a1.776,1.776,0,0,1-.6-.1,1.824,1.824,0,0,1-1.12-2.326c2.65-7.574,6.5-12.823,11.773-16.047a1.827,1.827,0,1,1,1.905,3.119c-4.523,2.766-7.869,7.389-10.231,14.134A1.825,1.825,0,0,1,210.568,377.966Z"></path> <path class="e4b3b38a-952d-4d3b-b39f-744061e98c16" d="M214.515,466.72a1.827,1.827,0,0,1-1.827-1.813,40.951,40.951,0,0,0-.508-5.308,28.645,28.645,0,0,1-.27-9.094c.623-3.46,2.356-6.42,4.031-9.284a42.581,42.581,0,0,0,2.709-5.139,20.155,20.155,0,0,0-1.556-18.193,1.827,1.827,0,1,1,3.09-1.952,23.863,23.863,0,0,1,1.842,21.542,45.976,45.976,0,0,1-2.932,5.587c-1.583,2.707-3.08,5.264-3.587,8.085a25.494,25.494,0,0,0,.293,7.946,44.547,44.547,0,0,1,.542,5.781,1.826,1.826,0,0,1-1.812,1.842Z"></path> <path class="f514d96f-5fba-41c4-aa8f-21062dd8cb3f" d="M125.117,1101.205v3.317c-.637-.663-.976-1.036-.976-1.036C124.48,1102.7,124.82,1101.951,125.117,1101.205Z"></path> <path class="f514d96f-5fba-41c4-aa8f-21062dd8cb3f" d="M142.123,1062.974v57.388c-1.484-1.161-2.883-2.363-4.24-3.566V1072.3C139.325,1069.11,140.724,1066,142.123,1062.974Z"></path> <path class="f514d96f-5fba-41c4-aa8f-21062dd8cb3f" d="M159.088,1026.856V1128.78c-.848,1.2-1.314,1.824-1.314,1.824a32.038,32.038,0,0,1-2.927-1.451v-93.506C156.29,1032.621,157.689,1029.677,159.088,1026.856Z"></path> <path class="f514d96f-5fba-41c4-aa8f-21062dd8cb3f" d="M176.053,993.228v111.626c-1.484,2.074-2.927,4.064-4.241,5.971v-109.47C173.254,998.536,174.7,995.841,176.053,993.228Z"></path> <path class="f514d96f-5fba-41c4-aa8f-21062dd8cb3f" d="M193.018,962.958v117.929c-1.442,2.032-2.842,4.022-4.242,5.971V970.132C190.261,967.561,191.661,965.2,193.018,962.958Z"></path> <path class="f514d96f-5fba-41c4-aa8f-21062dd8cb3f" d="M209.982,774.04V831.1c-.933-6.966-4.241-17.291-4.241-17.291V773.542C207.184,773.75,208.583,773.915,209.982,774.04Z"></path> <path class="f514d96f-5fba-41c4-aa8f-21062dd8cb3f" d="M205.741,947.356c1.739-2.286,3.139-6.282,4.241-7.605V1057.2c-1.4,1.925-2.841,3.85-4.241,5.775Z"></path> <path class="f514d96f-5fba-41c4-aa8f-21062dd8cb3f" d="M226.947,775.532v257.545c-1.4,1.99-2.842,3.981-4.241,6.013V775.242C224.105,775.367,225.505,775.449,226.947,775.532Z"></path> <path class="f514d96f-5fba-41c4-aa8f-21062dd8cb3f" d="M243.912,776.486v232.706c-1.4,1.95-2.8,3.94-4.241,5.972V776.279C241.07,776.4,242.47,776.445,243.912,776.486Z"></path> <polygon class="f514d96f-5fba-41c4-aa8f-21062dd8cb3f" points="243.36 1146.029 243.912 1134.793 243.912 1146.071 243.36 1146.029"></polygon> <path class="f514d96f-5fba-41c4-aa8f-21062dd8cb3f" d="M260.886,777.061v370.773l-4.239-.439V776.951Z"></path> <path class="f514d96f-5fba-41c4-aa8f-21062dd8cb3f" d="M277.842,777.061v372.527l-4.239-.439V777.316A27.263,27.263,0,0,0,277.842,777.061Z"></path> <path class="f514d96f-5fba-41c4-aa8f-21062dd8cb3f" d="M294.8,745.742V1150.5a2.139,2.139,0,0,1-.147.841l-4.056-.439a1.389,1.389,0,0,1-.036-.4V756.962q1.479-5.538,2.96-11.073C293.958,745.853,294.4,745.815,294.8,745.742Z"></path> <path class="f514d96f-5fba-41c4-aa8f-21062dd8cb3f" d="M311.771,741.759v307.189l-4.242,34.012V742.135C308.972,742.01,310.371,741.885,311.771,741.759Z"></path> <path class="f514d96f-5fba-41c4-aa8f-21062dd8cb3f" d="M328.735,740.046V917.29c-2.417,17.675-4.156,29-4.156,29l-.085.669V740.464C325.894,740.339,327.335,740.213,328.735,740.046Z"></path> <path class="adbafb0a-5650-486a-8e36-828d1847870f" d="M669.09,770.856l-35.085-40.768L598.92,770.856c-1.384,1.61-3.4.136-3.4-2.482V600.714h76.973v167.66C672.492,770.992,670.474,772.466,669.09,770.856Z"></path> <path class="2eb3d4d8-154d-42ab-8e92-d47083c5fda3" d="M1265.533,1110.72l-27.162-31.564-27.163,31.564c-1.072,1.245-2.633.105-2.633-1.922l.9-126.362h58.686V1108.8C1268.166,1110.825,1266.6,1111.965,1265.533,1110.72Z"></path> <path class="ef948ebd-f504-4110-97b0-aaa68bffd509" d="M557.837,1223.7,536.7,1199.139,515.56,1223.7c-.833.969-2.049.081-2.049-1.5V1121.192h46.376v101.014C559.887,1223.783,558.671,1224.671,557.837,1223.7Z"></path> <path class="e4b3b38a-952d-4d3b-b39f-744061e98c16" d="M731.423,1119.366H497.909a1.827,1.827,0,1,0,0,3.654h12.863v97.828a4.941,4.941,0,0,0,.877,2.923,3.8,3.8,0,0,0,5.994.33l19.039-22.146,19.076,22.146a3.766,3.766,0,0,0,2.85,1.388c2.265,0,4.02-2.047,4.02-4.641V1123.02H731.423a1.827,1.827,0,0,0,0-3.654ZM557.146,1217.34,538.765,1196a2.782,2.782,0,0,0-4.13,0l-18.381,21.342v-94.32h40.892Z"></path> <polygon class="adbafb0a-5650-486a-8e36-828d1847870f" points="481.694 454.802 495.461 420.623 537.097 413.058 522.063 448.054 481.694 454.802"></polygon> <path class="e4b3b38a-952d-4d3b-b39f-744061e98c16" d="M495.459,438.668a1.827,1.827,0,0,1-.363-3.617l26-5.308a1.826,1.826,0,1,1,.731,3.579l-26,5.308A1.847,1.847,0,0,1,495.459,438.668Z"></path> <path class="adbafb0a-5650-486a-8e36-828d1847870f" d="M895.761,281.162v102.1c-3.1,1.088-13.448,11.039-14.947,10.512-1.906-.669-8.713-6.378-10.89-6.748-3.654-.621-7.272-2.777-10.634-5.153-1.717-1.206-3.326-2.484-4.86-3.617-4.094-3.143-7.528-5.482-9.721-3.948-1.919,1.344-.688,5.845-.182,7.565.858,2.92,3.973,8.776,5.052,11.65l-11.594-3.318c-12.316-4.092-29.71-9.9-36.4-4.823-2.744,2.1-5.739,4.841-6.285,8.441-.439,2.595.548,5.262,2.594,8.3a65.444,65.444,0,0,0,10.6,11.84l-.33.109-.109.037-.146-.037L775.5,405.74l-14.106-3.618-25.032-6.432a51.531,51.531,0,0,0,5.262-1.864c3.143-1.243,6.651-2.7,8.186-3.106.11-.036.219-.183.4-.512.219-.511.548-1.461.95-2.631,14.058-1.891,29.248-3.439,42.318-9.318a35.534,35.534,0,0,0,14.435-11.877,68.411,68.411,0,0,0,7.344-11.95,21.5,21.5,0,0,0,2.157-8.3c.148-5.092-2.8-9.168-6.871-11.95a33.413,33.413,0,0,0-3.8-2.193c-3.837-1.9-9.83-.475-16.3,2.193a156.831,156.831,0,0,0-16.408,8.332c-2.339,1.315-4.532,2.558-6.469,3.618a37.9,37.9,0,0,1-6.394,3.032c.355-.116,1.064-6.189,1.169-6.651.657-2.891,1.864-5.247,1.644-8.333-.2-4.04-2.23-6.477-5.957-3.616a30.642,30.642,0,0,0-3.654,3.618c-2.375,2.595-5.006,5.737-7.894,8.332a21.02,21.02,0,0,1-6.5,4.166c-1.864.694-4.458,4.239-6.287,7.749a21.757,21.757,0,0,0-2.082,5.188l-13.009.584V281.162l6.687,1.717L739.39,286.5l32.414,8.332,13.96,3.582,21.342,5.481,21.378-5.481,13.96-3.582,32.523-8.332,14.107-3.618Z"></path> <path class="9e6c0238-21cb-451b-bb50-65171aa87005" d="M879.716,396.059c-.9-3.4-6.459-8.442-9.8-9.014-10.486-1.793-20.531-15.979-25.217-12.725-1.533,1.065-1.153,7.35,1.447,11.008,1.571,2.21,3.433,8.2,3.433,8.2-7.437-.6-38.509-15.353-47.993-8.125-10.826,8.25-6.851,14.351,3.863,25.6,12.939,13.589,28.7,17.436,68.127,19.03Z"></path> <path class="9e6c0238-21cb-451b-bb50-65171aa87005" d="M751.245,387.722c46.524-6.438,50.839-11.968,60.964-27.788,8.375-13.086,6.731-21.919-5.475-27.943-10.693-5.276-38.364,15.154-45.547,17.172,0,0,.68-6.234,1.8-8.7,1.851-4.088,1.019-10.329-.689-11.081-5.222-2.3-12.363,13.553-22.311,17.322-3.17,1.2-8.321,10.411-8.456,14.055Z"></path> <path class="9e6c0238-21cb-451b-bb50-65171aa87005" d="M757.04,145.73l4.532,31.757c-6.176.877-10.159-13.594-10.159-13.594C746.187,151.651,751.121,146.169,757.04,145.73Z"></path> <path class="9e6c0238-21cb-451b-bb50-65171aa87005" d="M881.326,161.152c-.036.11-2.741,15.97-13.959,16.335-4.569,15.312-14.4,28.468-26.751,36.507v14.837c0,15.02-27.481,27.152-27.481,27.152S786.2,243.851,786.2,228.831V213.008c-13.485-10.708-21.561-29.674-24.046-52v-.073c1.79-17.176,6.943-47.909,17.248-58.324a6.432,6.432,0,0,1,10.087,1.133,26.7,26.7,0,0,0,5.518,6.395c6.212,4.385,15.969,5.591,28.284-.658,8.807,5.116,26.02,7.748,33.474-4.2,11.877,8.441,10.635,48.932,12.17,65.048l5.627-24.046.146-1.608a7.28,7.28,0,0,1,3.107.365C883.774,147.119,883.081,153.222,881.326,161.152Z"></path> <path class="e4b3b38a-952d-4d3b-b39f-744061e98c16" d="M791.778,161.79a2.741,2.741,0,0,1-2.74-2.741V152.9a2.741,2.741,0,1,1,5.481,0v6.145A2.742,2.742,0,0,1,791.778,161.79Z"></path> <path class="e4b3b38a-952d-4d3b-b39f-744061e98c16" d="M842.807,161.79a2.741,2.741,0,0,1-2.74-2.741V152.9a2.741,2.741,0,1,1,5.481,0v6.145A2.741,2.741,0,0,1,842.807,161.79Z"></path> <path class="6d85ca9d-b440-497c-bb3d-5dffa3031f2c" d="M831.49,178.35a12.464,12.464,0,1,0,12.463-12.465A12.464,12.464,0,0,0,831.49,178.35Z"></path> <path class="6d85ca9d-b440-497c-bb3d-5dffa3031f2c" d="M772.931,177.5A12.464,12.464,0,1,0,785.4,165.033,12.463,12.463,0,0,0,772.931,177.5Z"></path> <path class="944251ad-70cb-4a43-a3ff-799e96fb8036" d="M877.6,109.443l-3.033,36.836-5.627,24.046c-1.535-16.116-.293-56.607-12.17-65.048-7.454,11.95-24.667,9.318-33.474,4.2-12.315,6.249-22.072,5.043-28.284.658a26.7,26.7,0,0,1-5.518-6.395,6.432,6.432,0,0,0-10.087-1.133c-11.766,11.913-16.846,50.357-17.833,64.755L757.589,146.5,755.4,108.529c0-16.7,16.445-41.075,34.1-41.075h2.192c6.395,0,15.056,1.827,19.515-2.777a16.217,16.217,0,0,1,11.694-4.788c6.541,0,12.132,3.655,14.361,8.844.366-.073.869.2,1.1-.073,7.2-8.771,19.736,2.584,17.907,6.541C864.141,72.968,877.6,95.264,877.6,109.443Z"></path> <path class="e4b3b38a-952d-4d3b-b39f-744061e98c16" d="M815.085,202.939a18.566,18.566,0,0,1-12.879-4.971,2.742,2.742,0,1,1,3.854-3.9,13.164,13.164,0,0,0,9.25,3.389,12.62,12.62,0,0,0,9.065-3.8,2.741,2.741,0,0,1,3.975,3.776,18.058,18.058,0,0,1-12.954,5.5C815.292,202.937,815.189,202.939,815.085,202.939Z"></path> <path class="e4b3b38a-952d-4d3b-b39f-744061e98c16" d="M1114.255,983.564H1045.7a1.827,1.827,0,0,1,0-3.654h68.555a1.827,1.827,0,0,1,0,3.654Z"></path> <path class="570974d7-4d6e-4ef8-88e2-0b5884d0dcb1" d="M1153.672,807.818h-29.8l.181-.54a169.805,169.805,0,0,0,.234-106.95l-.415-1.259h29.8l.415,1.259a169.805,169.805,0,0,1-.234,106.95Z"></path> <path class="570974d7-4d6e-4ef8-88e2-0b5884d0dcb1" d="M1207.693,807.818h-29.8l.181-.54a169.819,169.819,0,0,0,.234-106.95l-.415-1.259h29.8l.415,1.259a169.812,169.812,0,0,1-.235,106.95Z"></path> <path class="570974d7-4d6e-4ef8-88e2-0b5884d0dcb1" d="M1262.2,807.818h-29.8l.18-.54a169.805,169.805,0,0,0,.234-106.95l-.414-1.259h29.8l.414,1.259a169.8,169.8,0,0,1-.235,106.95Z"></path> <path class="ef948ebd-f504-4110-97b0-aaa68bffd509" d="M1540.612,918.192c-.219,1.754-.475,3.581-1.5,4.825a7.2,7.2,0,0,1-4.057,2.119,110.143,110.143,0,0,1-32.779,3.763c-3.509-.145-7.09-.438-10.27-2.192-6.76-3.654-9.793-12.461-15.092-18.454a28.279,28.279,0,0,0-7.674-6.067l2.156,21.3c.577,5.7-8.149,6.922-9.245,1.353,0,0-5.3-27.116-5.263-27.445a7.61,7.61,0,0,1-3.618-1.936,8.931,8.931,0,0,1-1.607-3.289c-3.071-9.429-5.043-19.807-2.887-29.345,4.6-.329,9.574-.987,14.508-1.791a39.336,39.336,0,0,0,10.633,10.891c26.933,17.212,32.159,13.228,30.515,4.494,3.325,7.09,7.345,13.229,12.936,15.531,6.8,2.777,15.275,1.133,20.355,6.943C1542,903.831,1541.453,911.578,1540.612,918.192Z"></path> <path class="9e6c0238-21cb-451b-bb50-65171aa87005" d="M1473.919,871.929a39.336,39.336,0,0,1-10.633-10.891c14.69-2.412,29.015-6.066,32.414-6.687l.218,2.046a3.384,3.384,0,0,0,.4,1.206c.8,1.388,1.644,2.96,2.521,4.677.037.037.037.073.073.111v.036c2.3,4.459,4.678,9.647,5.446,13.777v.036a.136.136,0,0,1,.036.11c.037.037.037.037.037.073C1506.078,885.157,1500.852,889.141,1473.919,871.929Z"></path> <path class="9e6c0238-21cb-451b-bb50-65171aa87005" d="M1400.248,860.746l-.914,2.339c-.841,18.893-3.508,51.526-26.275.4a83.288,83.288,0,0,1-6.286-23.935c9.94,6.468,21.415,12.972,29.966,19.368A8.32,8.32,0,0,0,1400.248,860.746Z"></path> <path class="adbafb0a-5650-486a-8e36-828d1847870f" d="M1495.809,854.314c-4.787.877-34.1,8.515-52.879,8.843,0,0-8.733-46.483-14.215-61.392-9.575,21.085-21.561,43.157-24.375,56.386a3.82,3.82,0,0,1-2.558,2.449c-1.717.621-3.544-.548-5.043-1.681-11.219-8.4-27.517-16.993-38.737-25.435,2.668-19.3,11.4-43.3,15.349-62.417,6.4-31.1,16.664-54.267,18.527-68.3-3.142,1.534-23.826,2.63-31.866,2.922-25.471.988-107.84,2.083-126.514-4.713-17.358-6.359-33.621-18.93-38.919-36.618-6.03-20.245,3.362-41.549,12.5-60.625,3.874-8.04,9.464-28.5,12.9-35.631.109,0,.183.037.292.037.987.329,1.974.658,2.924.986-3,7.054-6.286,14.4-9.977,22.037a3.382,3.382,0,0,0,.329.182c3.911,2.156,44.254,23.754,87.924,27.371,30.624,2.522,39.029-10.451,41.149-19.77.182-.8.293-1.571.4-2.3v-.037c0-1.1.036-2.448.183-3.983,0-.183.036-.365.036-.548.037-.036.037-.036,0-.073.109-1.133.22-2.668.329-4.421,22,4.312,81.091,23.241,112.884,33.985,6.066,2.046,18.126,9.392,21.633,14.763,8.077,12.315,8.479,132,10.013,151.511C1489.852,810.462,1492.7,821.389,1495.809,854.314Z"></path> <path class="944251ad-70cb-4a43-a3ff-799e96fb8036" d="M1388.261,548.881l-22.365,7.857a11.742,11.742,0,0,1-14.982-7.162l-1.938-5.482c-1.717,4.714-4.352,26.207-4.621,30.971-.655,11.591,1.229,25.621-7.5,34.781-8.821,9.255-23.51,9.848-35.384,8.87-43.67-3.617-84.013-25.215-87.924-27.371a3.382,3.382,0,0,1-.329-.182c3.691-7.638,6.98-14.983,9.977-22.037l-5.482-1.827c-6.175-2.083-12.169-4.092-12.79-4.385-8.478-3.472-12.791-13.375-11.293-23.278l16.555-97.572,3.362-22.219a17.45,17.45,0,0,1,2.339-8.113c2.814-4.823,7.747-8.075,12.608-10.341,2.265-1.06,30.185-11.913,33.8-13.448a22.407,22.407,0,0,1,3.436-1.06c-.073.182-.11.256-.11.256-.877,8.916,6.834,16.189,6.834,16.189,19.4,14.288,39.833,7.418,41.55-8.808l.183-.255-.512-6.176a59.929,59.929,0,0,1,8.332,1.571c13.411,1.827,20.137,4.083,24.411,19.734a43.477,43.477,0,0,0,3.4,8.04s-7.528,49.3-7.528,49.334l-13.959,5.591,10.652,23.589.456,5.025-7.93,36.58Z"></path> <path class="f514d96f-5fba-41c4-aa8f-21062dd8cb3f" d="M1359.355,284.707c-2.376,3.618-8.332,5.847-12.389,7.491-10.451,4.166-24.74-2.485-35.849-4.276-25.435-4.02-40.235,18.784-40.235,18.784-2.777-10.6-13.192-12.936-18.71-8.953-2.887,2.01-4.459,5.773-2.924,10.963a52.435,52.435,0,0,0,1.974,5.774c3.435,8.66,6.395,9.355,8.953,26.348a88.627,88.627,0,0,1-10.05-9.538c-.621,6.139-1.791,12.2-4.6,17.687-5.957,11.731-18.783,19.149-32.049,21.122-13.228,1.973-26.823-.95-39.321-5.737,12.1-5.262,24.228-13.777,27.043-26.421,2.448-10.963-1.718-23.059-3.144-34.022a151,151,0,0,1-1.534-29.272c1.2-18.857,8.771-37.348,28.468-43.743a41.627,41.627,0,0,1,34.314,4.129c.219.146.4.256.584.4a4.3,4.3,0,0,1,.512.365,2.563,2.563,0,0,1,.512-.365c14.874-9.428,32.086-9.648,48.749-5.08,23.754,6.541,31.209,20.647,33.218,21.6C1353.727,256.933,1367.139,272.757,1359.355,284.707Z"></path> <path class="9e6c0238-21cb-451b-bb50-65171aa87005" d="M1358.332,315.513a128.8,128.8,0,0,1-3.326,16.3,106.12,106.12,0,0,1-5.554,15.714c-7.894,17.578-20.136,30.076-36.544,30.953l1.1,16.042c-1.717,16.226-22.145,23.1-41.55,8.808,0,0-7.711-7.273-6.834-16.189a100.944,100.944,0,0,0,7.455-28.1,85.01,85.01,0,0,1-13.558-18.747q.33.273.658.548c-3.033-20.136-6.614-17.4-10.927-32.122-4.458-15.2,17.432-18.089,21.634-2.01,0,0,14.8-22.8,40.235-18.784,11.109,1.791,25.4,8.442,35.849,4.276,4.057-1.644,10.013-3.873,12.389-7.491C1360.488,293.44,1360.049,303.673,1358.332,315.513Z"></path> <path class="e4b3b38a-952d-4d3b-b39f-744061e98c16" d="M1321.609,359.364c-4.489,0-9.2-1.394-12.062-3.788-.3-.252-.589-.518-.875-.787a2.978,2.978,0,0,1-.313-4.047,2.533,2.533,0,0,1,3.679-.311l.164.152c.431.4.632.6.853.781,2.626,2.2,8.09,3.159,11.944,2.106a9.8,9.8,0,0,0,3.655-1.832,2.74,2.74,0,1,1,3.49,4.225,15.293,15.293,0,0,1-5.71,2.9A18.5,18.5,0,0,1,1321.609,359.364Z"></path> <path class="e4b3b38a-952d-4d3b-b39f-744061e98c16" d="M1282.139,271.073a1.828,1.828,0,0,1-1.132-3.262c4.64-3.661,10.325-5.488,17.377-5.586a1.743,1.743,0,0,1,1.852,1.8,1.827,1.827,0,0,1-1.8,1.852c-6.217.086-11.178,1.656-15.164,4.8A1.821,1.821,0,0,1,1282.139,271.073Z"></path> <path class="e4b3b38a-952d-4d3b-b39f-744061e98c16" d="M1208.62,360.117c-.749,0-1.517-.034-2.295-.1a1.827,1.827,0,0,1-1.66-1.981,1.855,1.855,0,0,1,1.981-1.659c12.6,1.11,21.138-8.829,25.1-14.852a1.827,1.827,0,0,1,3.054,2.006C1230.624,349.874,1221.842,360.117,1208.62,360.117Z"></path> <path class="6d85ca9d-b440-497c-bb3d-5dffa3031f2c" d="M1309.8,337.679a12.326,12.326,0,1,1-11.233-13.33A12.327,12.327,0,0,1,1309.8,337.679Z"></path> <path class="e4b3b38a-952d-4d3b-b39f-744061e98c16" d="M1262.947,318.427a1.824,1.824,0,0,1-1.453-.719c-2.406-3.153-4.718-7.689-4.457-10.713a1.8,1.8,0,0,1,1.977-1.665,1.826,1.826,0,0,1,1.662,1.975c-.142,1.668,1.492,5.264,3.723,8.187a1.827,1.827,0,0,1-1.452,2.935Z"></path> <path class="e4b3b38a-952d-4d3b-b39f-744061e98c16" d="M1347.05,323.25a2.324,2.324,0,0,1-.235-.011,2.737,2.737,0,0,1-2.5-2.962l.325-3.809a2.769,2.769,0,0,1,2.962-2.5,2.738,2.738,0,0,1,2.5,2.962l-.325,3.809A2.741,2.741,0,0,1,1347.05,323.25Z"></path> <path class="e4b3b38a-952d-4d3b-b39f-744061e98c16" d="M1304.683,321.835a2.33,2.33,0,0,1-.236-.011,2.741,2.741,0,0,1-2.5-2.964l.3-3.507a2.74,2.74,0,0,1,5.461.467l-.3,3.508A2.742,2.742,0,0,1,1304.683,321.835Z"></path> <path class="6d85ca9d-b440-497c-bb3d-5dffa3031f2c" d="M1352.766,330.143c-.249.927-.529,1.85-.809,2.773a113.171,113.171,0,0,1-5.864,15.517c-.719,1.542-1.466,3.045-2.237,4.474-5.092-1.709-8.429-7.208-7.673-13.182.857-6.779,6.611-11.588,12.837-10.8A10.134,10.134,0,0,1,1352.766,330.143Z"></path> <path class="07eb650a-9719-4881-a21c-c4a36fd23a05" d="M1503.885,389.222,1474.175,531.3l-52,23.863-.657.329h-.037l-33.218-6.615-56.753-11.328,5.555-36.325,59.2-11.73c5.518-1.1,9.172-7.017,8.15-13.229v-.146c-2.412-14.435-25.874-20.647-41.953-17.468l-20.172,8.076,7.528-49.3,2.924-19.149,89.97,17.943h.037Z"></path> <path class="9e6c0238-21cb-451b-bb50-65171aa87005" d="M1396.263,489.5l-55.469,10.954-12.475-28.079,34.144-13.734c16.078-3.175,39.542,3.049,41.938,17.5l.018.113C1405.452,482.475,1401.8,488.405,1396.263,489.5Z"></path> <path class="9e6c0238-21cb-451b-bb50-65171aa87005" d="M1490.105,457.8c.574-7.23-14.628-5.225-18.8.71-2.472,3.521-4.94,7.15-6.1,11.292-2.467,8.79-2.525,35.551,3.553,36.058a64.034,64.034,0,0,0,13.412-.218,5.634,5.634,0,0,0,2.531-2.208C1486.87,495.409,1488.983,471.931,1490.105,457.8Z"></path> <path class="e4b3b38a-952d-4d3b-b39f-744061e98c16" d="M1450.476,440.509a1.827,1.827,0,0,1-.7-3.513l34.728-14.5a1.827,1.827,0,0,1,1.4,3.373l-34.727,14.5A1.811,1.811,0,0,1,1450.476,440.509Z"></path> <path class="e4b3b38a-952d-4d3b-b39f-744061e98c16" d="M1448.121,449.13a1.828,1.828,0,0,1-.7-3.514l34.728-14.5a1.827,1.827,0,0,1,1.406,3.372l-34.727,14.5A1.816,1.816,0,0,1,1448.121,449.13Z"></path> <polygon class="30455c85-2ec9-4f7e-9152-84a5559f216d" points="825.978 361.01 825.978 327.504 881.647 312.3 881.647 346.126 825.978 361.01"></polygon> <path class="e4b3b38a-952d-4d3b-b39f-744061e98c16" d="M854.9,332.4a1.827,1.827,0,0,1-.485-3.589l20.519-5.647a1.827,1.827,0,1,1,.971,3.522l-20.52,5.648A1.862,1.862,0,0,1,854.9,332.4Z"></path> <path class="e4b3b38a-952d-4d3b-b39f-744061e98c16" d="M831.241,338.913a1.827,1.827,0,0,1-.485-3.588l15.988-4.4a1.827,1.827,0,1,1,.97,3.522l-15.988,4.4A1.815,1.815,0,0,1,831.241,338.913Z"></path> <path class="e4b3b38a-952d-4d3b-b39f-744061e98c16" d="M831.726,350.424a1.827,1.827,0,0,1-.485-3.588l44.174-12.157a1.827,1.827,0,1,1,.97,3.522l-44.174,12.157A1.815,1.815,0,0,1,831.726,350.424Z"></path> <path class="9e6c0238-21cb-451b-bb50-65171aa87005" d="M420.572,530.137l24.94,11.7c4.26-6.775,18.082-14.273,21.14-21.669,1.517-3.668,4.114-11.182,4.275-14.062.56-10.044-.334-19.569-3.859-28.585-1.72-4.4-5.669-5.169-10.257-4.052-.572.139-12.268,1.064-13.4,8.175-4.264,26.8-15.056,29.237-20.4,33.8C419.761,518.217,418.8,524.858,420.572,530.137Z"></path> <path class="e4b3b38a-952d-4d3b-b39f-744061e98c16" d="M572.093,156.621A80.084,80.084,0,1,0,432.9,216.3a72.634,72.634,0,0,1,18.674,39.284,9.744,9.744,0,0,0,9.575,8.405h62.27a9.656,9.656,0,0,0,9.611-8.368,73.318,73.318,0,0,1,18.382-39.175A79.55,79.55,0,0,0,572.093,156.621Zm-24.7,56.131a78.834,78.834,0,0,0-19.807,42.1,4.182,4.182,0,0,1-4.166,3.655H494.072V213.117L519,183.407a1.816,1.816,0,0,0-2.778-2.339l-23.972,28.577-23.973-28.577a1.847,1.847,0,0,0-2.595-.219,1.805,1.805,0,0,0-.219,2.558l24.959,29.71v45.388H461.146a4.184,4.184,0,0,1-4.166-3.691,77.925,77.925,0,0,0-20.026-42.209A74.612,74.612,0,0,1,492.245,87.882q2.685,0,5.372.219a74.6,74.6,0,0,1,49.772,124.651Z"></path> <path class="e4b3b38a-952d-4d3b-b39f-744061e98c16" d="M1602.334,1252.495H1429.409c29.747-9.246,51.089-34.461,51.089-64.061v-42.793c0-28.578-19.916-53.062-48.092-63h2.047a11.479,11.479,0,0,0,0-22.95.459.459,0,0,0-.22.037c-.11-.147-.219-.256-.329-.4-16.554-17.577-16.774-112.737-.695-135.212a11.328,11.328,0,0,0,10.891-11.548,11.461,11.461,0,0,0-5.153-9.574c.073-.4.11-45.57.11-45.57.731,3.727,1.169,6.1,1.206,6.249.767,2.521,3.07,2.193,5.189,2.3-.913,9.245.8,18.271,3.618,27.079a11.636,11.636,0,0,0,2.156,4.239,7.73,7.73,0,0,0,3.143,2.119s5.079,25.909,5.079,25.946c1.755,8.954,15.6,6.871,14.691-2.156l-1.535-15.348c3.033,2.485,5.189,5.919,7.235,9.209,2.924,4.641,5.957,9.428,10.891,12.059,3.8,2.083,7.893,2.375,11.438,2.522a107.557,107.557,0,0,0,33.62-3.837,10.1,10.1,0,0,0,5.445-3.034c1.572-1.936,1.864-4.421,2.083-6.212,1.023-7.857,1.279-15.933-3.545-21.452-3.837-4.42-9.209-5.261-13.959-5.993a32.042,32.042,0,0,1-7.382-1.717c-4.678-1.937-8.332-7.455-11.365-13.886-2.083-4.459-7.382-17.578-8.4-19.406a4.588,4.588,0,0,1-.146-2.484c0-9.429-2.449-19.441-3.765-28.8-1.717-12.351-3.106-22.219-3.836-35.812-.037-.439-.805-18.674-1.243-34.1-1.316-49.151-2.85-94.611-6.76-112.884-2.266-10.634-12.1-16.956-21.379-21.3-6.833-3.18-14.325-5.19-21.488-7.529-11.474-3.763-48.639-15.421-55.473-17.468-1.352-.4-38.554-10.451-38.554-10.451.585-9.063,2.448-22.986,3.837-31.72a14.391,14.391,0,0,0,16.957,5.774l21.67-7.638s32.816,6.541,33.036,6.541c.439,0,53.792-24.411,53.792-24.411a2.747,2.747,0,0,0,1.535-1.936l4.934-23.462a4.88,4.88,0,0,0,.73-.073,7.387,7.387,0,0,0,4.824-4.2c2.156-7.894,4.166-29.454,5.518-46.118a7.276,7.276,0,0,0-.146-2.01l13.886-66.218a2.821,2.821,0,0,0-.986-2.7,2.631,2.631,0,0,0-2.813-.365l-60.372,26.64-89.129-17.76a2.74,2.74,0,0,0-2.12.438,2.643,2.643,0,0,0-1.132,1.828l-1.244,8.149c-.8-1.791-1.5-3.545-2.083-5.3-4.348-13.521-24.228-14.215-28.138-14.215a15.488,15.488,0,0,0-2.266.255l-.438-5.883c14.91-1.974,27.554-13.266,36.105-32.268a107.873,107.873,0,0,0,5.153-14.289,17.715,17.715,0,0,0,10.414-14.618,17.451,17.451,0,0,0-5.3-14.142,95.97,95.97,0,0,0-.036-20.282,17.919,17.919,0,0,0,1.351-14.069c-2.777-9.684-11.949-18.272-19.258-21.6-.329-.292-.767-.84-1.388-1.534-3.838-4.5-12.865-14.947-32.525-20.355-19.039-5.226-36.105-3.581-49.955,4.824a45.193,45.193,0,0,0-36.325-4.276c-18.052,5.883-28.8,22.292-30.294,46.191-.549,8.625-.073,17.834,1.5,29.82.438,3.143,1.06,6.4,1.681,9.575,1.535,7.929,3.142,16.152,1.535,23.5-2.741,12.242-15.349,20.1-25.471,24.521a2.747,2.747,0,0,0,.11,5.043c11.291,4.349,21.962,6.541,31.683,6.541a60.956,60.956,0,0,0,9.026-.658c15.056-2.229,28.139-10.889,34.1-22.584a44.114,44.114,0,0,0,4.094-12.936c1.681,1.608,3.435,3.216,5.335,4.751a89.727,89.727,0,0,0,12.79,17.979,100.4,100.4,0,0,1-6.614,24.923s-26.02,10.123-26.97,10.451c-8.148,2.741-25.142,8.406-25.727,24.01,0,0-20.866,124.285-20.9,124.541-1.681,9.83,8.259,18.711,16.08,22.8.84.439,9.684,4.349,10.013,3.545-1.426,3.691-3.107,8.624-4.787,13.814-2.339,7.126-4.751,14.471-6.652,18.454-9.794,20.318-18.819,41.915-12.643,62.563a50.8,50.8,0,0,0,11.876,20.136,62.571,62.571,0,0,0,13.7,11.072h-61.247a13.144,13.144,0,0,0,.109-1.717,11.51,11.51,0,0,0-10.415-11.438.748.748,0,0,0-.219-.292c-17.285-17.834-17.468-114.309-.731-137a11.567,11.567,0,0,0-.146-23.133H940.2a93.64,93.64,0,0,0-3.655-33.8l20.684-5.884c16.884-4.787,27.664-22.693,25.361-39.8-2.411-18.235-17.906-32.415-36.433-32.415q-1.206,0-2.412.11c8.843-4.9,15.823-10.378,18.82-16.445A14.624,14.624,0,0,0,962.746,381L920.208,260.624A41.97,41.97,0,0,0,889,230.914l-45.643-10.3v-3c12.5-8.113,22.036-21.414,26.385-37.64,10.926-2.083,13.96-16.554,14.252-18.235,1.424-6.432,3.618-16.189-5.3-19.295a8.915,8.915,0,0,0-1.06-.293l2.7-32.706c0-14.874-10.488-34.352-22.109-36.763a9.213,9.213,0,0,0-1.462-4.459,13.949,13.949,0,0,0-12.352-6.212,10.249,10.249,0,0,0-6.394,2.522,18.582,18.582,0,0,0-15.129-7.383,18.983,18.983,0,0,0-13.668,5.628c-2.631,2.7-7.894,2.412-12.975,2.12-2.254-.154-4.5-.183-6.758-.183-18.638,0-36.837,25.106-36.837,44l2.01,34.643a10.655,10.655,0,0,0-6.5,4.714c-1.718,2.851-3,8.077.657,16.738.877,3.032,4.824,15.421,12.169,15.458,3.838,15.2,11.8,27.553,22.475,35.63v2.85c-3.253,1.206-8.186,2.485-13.814,3.983-11.731,3.07-26.348,6.907-36.4,12.461-8.55,4.715-16.882,16.043-18.564,18.456-.109.145-47.616,97.06-53.975,109.083-1.717,3.289-3.691,13.557-2.558,23.863a41.152,41.152,0,0,0,5.738,16.737c-.256-.439-7.053,3.325-7.711,3.691a40.06,40.06,0,0,0-7.016,5.372c-13.412,12.936-14.655,34.789-3.144,49.3a36.652,36.652,0,0,0,17.213,12.023l8.369,2.741c-8.041,12.278-10.927,29.71-7.639,46.3H577.209c-43.67,0-79.227,31.392-79.227,69.945v44.182c0,25.068,15.019,47.1,37.531,59.456H435.894c-6.285,0-11.182,3.545-11.182,8.186,0,4.5,4.9,8,11.182,8h.584c6.908,6.688,11.4,24.814,10.818,44.365-.512,17.833-6.834,34.387-12.389,37.091-5.81.33-10.195,3.764-10.195,8.15a5.639,5.639,0,0,0,.8,2.96H389.483a8.157,8.157,0,0,0-8.149,8.149V904.05a8.157,8.157,0,0,0,8.149,8.149h30.99c-21.817,12.206-36.4,34.132-36.4,59.092v43.779c0,28.395,18.82,52.879,45.68,63.622a11.279,11.279,0,0,0,4.2,21.707h2.193c15.933,20.1,16.371,112.3,1.242,133.568h-3.435c-6.175,0-11.182,4.2-11.182,10.561a11.127,11.127,0,0,0,3.362,7.967H349.249a16.278,16.278,0,0,0,2.667-5.92c2.741-9.538,4.568-19.4-.731-26.86-6.285-8.88-17.906-8.953-27.078-12.863a18.306,18.306,0,0,1-5.957-4.166c-2.74-3-4.531-6.944-6.212-11.8-2.7-7.821-5.847-15.714-8.04-23.717-.475-1.718-.877-3.472-1.279-5.188-.256-1.1-2.412-7.639-1.791-8.26a2.672,2.672,0,0,0,.768-1.608L327.323,946.77l.182-1.352c3.143-21.159,11.95-82.626,16.335-136.235.11-1.353.22-2.668.293-3.984,1.059-13.448,2.083-38.444,1.973-38.736.512-.147,3.289-1.024,3.618-1.1a2.687,2.687,0,0,0,2.339-2.7c-.073-10.78-3.8-67.788-6.907-113.395l15.129,10.16a17.631,17.631,0,0,0,15.933,1.827c4.9-1.938,7.784-6.213,10.232-10.635,0,0,67.277-104.515,67.351-104.624a2.761,2.761,0,0,0-1.17-3.984l-2.777-1.242a90.31,90.31,0,0,1,7.089-6.322c5.08-4.2,10.305-8.552,12.242-13.229.146-.329.293-.695.439-1.133l40.966-10.671a2.592,2.592,0,0,0,1.827-1.535s51.855-120.265,52-120.594a2.757,2.757,0,0,0-3.069-3.764l-75.1,16.116-95.817-7.455a2.767,2.767,0,0,0-2.814,1.863s-38.919,115.844-38.993,116.1a2.74,2.74,0,0,0,2.266,3.582l66.4,7.637a18.4,18.4,0,0,0-.255,4.714l-7.492-3.362a2.728,2.728,0,0,0-3.252.841l-46.228,59.237s-3.984-6.249-4.166-6.542c-.914-1.461-.329-6.321-.731-8.258a41.077,41.077,0,0,0-2.521-8.04c-2.193-5.116-5.373-9.647-8.15-14.434-2.814-4.9-14.179-25.691-16.956-31.282-3.107-6.286-6.286-12.754-15.458-15.714l-22.4-6.139-.951-9.282a48,48,0,0,0,6.98-5.117s19.624,3.216,19.77,3.216c3.07,0,3.8-4.86.439-5.445l-15.239-2.521c1.571,0,6.615-8.588,7.419-9.831a80.648,80.648,0,0,0,8.587-18.856,85.789,85.789,0,0,0,3.728-19.66,75.631,75.631,0,0,0-4.678-31.721l14.033.4c2.485,5.847.731,10.489-2.156,15.787-4.677,8.624-4.97,14.873.256,23.279,2.083,3.362,3.508,6.943,3.033,11-.512,4.239-3.143,8.113-1.827,12.535,1.06,3.618,4.129,6.1,5.774,9.428.438.877,3.215,11.511,1.791,11.439,0,0-8.186-.476-8.223-.476-3.435-.183-3.91,5.226-.293,5.482l10.562.621h.146a2.74,2.74,0,0,0,2.667-2.01,24.724,24.724,0,0,0-.328-13.923c-1.462-4.531-5.555-7.784-6.834-12.132-1.352-4.568,1.937-8.515,2.375-12.9.439-4.421-1.936-8.441-4.2-11.986-4.2-6.578-3.837-10.89-.073-17.76,3.179-5.81,5.371-11.658,3.252-18.235a2.82,2.82,0,0,0,2.6-2.595c.95-16.3-3.983-31.281-13.485-41.075-8.4-8.7-20.281-12.681-24.009-13.777-5.518-8.4-23.717-14.874-42.5-14.874-11.255,0-27.882,2.266-43.34,12.937-38.152,26.385-33.292,43.779-29.747,56.5,2.119,7.565,3.4,12.132-3.4,17.4-11.328,8.843-8.916,18.308-6.979,25.945,1.059,4.02,1.937,7.492.913,10.452-1.169,3.362-4.348,6.322-6.139,9.392-4.751,8.039-10.707,18.052-6.14,27.042a2.7,2.7,0,0,0,2.3,1.5l58.287,3h.11a2.744,2.744,0,0,0,1.9-.731,26.78,26.78,0,0,0,6.614-10.013c1.389,1.279,2.814,2.485,4.276,3.654-.439,1.937-3.106,16.445-3.655,19.442,0,.073-27.992,7.857-39.028,11.255-10.086,2.851-18.528,7.053-20.355,15.933L153.7,658.988c-3.838,15.129-3.984,135.723-3.984,140.839a2.743,2.743,0,0,0,2.741,2.741h1.827c-6.1,12.571-9.246,41.734-9.94,48.786-1.425,5.883,0,12.243,4.166,18.455a40.3,40.3,0,0,0,11.073,11.036c3.91,2.594,9.245,5.372,14.069,5.372,10.305,0,19.222-26.531,22.438-38.992a32.1,32.1,0,0,0,4.239,4.385c.548.439,4.641,2.082,4.678,2.3.84,6.358,2.229,21.963,2.229,21.963,1.863,20.136,3,39.248,3.4,58.4.073,3.509,5.555,3.436,5.482-.109-.439-19.3-1.535-38.517-3.4-58.8,0,0-1.389-15.238-2.046-20.354a5.406,5.406,0,0,0,3.106-.549c2.157-1.352,4.422-3.069,4.678-5.627.219-2.376-1.352-4.166-2.741-5.445-3.8-3.509-6.87-14.143-7.784-18.784-.292-1.388-3.91-15.568-7.674-22.182A2.675,2.675,0,0,0,202.2,799.9l.438-25.141c11.731,1.169,33.73,3.033,53.939,3.033a208.48,208.48,0,0,0,23.095-1.1c6.469-.73,11.585-17.687,14.874-32.707a343.241,343.241,0,0,0,37.019-2.923c.109,8.077.219,20.246-.037,23.315-.219,2.813,2.266,4.166,4.714,4.166a21.974,21.974,0,0,0,4.5-.621c-1.571,58-14.617,149.829-18.637,176.688-.146.95-.22,1.5-.22,1.5l-25.361,202.671-50.284-5.262,7.016-143.47c1.535-2.193,26.5-37.019,27.043-38.335,3-6.1,7.126-22.511,12.973-51.709,1.388-6.834,9.647-50.9,12.2-65.121,1.645-9.027,7.383-40.344,8.552-46.484.658-3.508-4.678-4.531-5.372-1.023-1.17,6.14-6.907,37.494-8.551,46.52-2.6,14.179-10.854,58.178-12.206,65.011-5.591,27.956-9.794,44.876-12.571,50.467-.219.549-104.7,148.148-105.758,149.684,0,0-11.438,16.225-12.68,17.979-.219-.109-8.661-5.372-13.083-8.953-4.5-3.618-16.993-16.116-19.734-17.8a.792.792,0,0,0-.183-.109c.073-.147,46.155-90.044,50.358-98.23,1.425-2.7,19.77-36.141,21.122-38.371,4.385-7.382,8.624-13.924,12.608-19.441,2.046-2.851-2.412-6.067-4.459-3.18-4.056,5.628-8.368,12.315-12.827,19.77-1.388,2.266-19.916,36-21.305,38.737-4.239,8.185-50.868,99.143-51.343,100.094q-1.316-.111-2.632-.111a37.776,37.776,0,0,0-18.528,5.007c-9.976,5.847-18.344,15.97-25.544,30.989a13.685,13.685,0,0,0-1.5,4.24c-.255.145-21.487,32.852-21.487,32.852a8.609,8.609,0,0,0,2.74,11.84,9.147,9.147,0,0,0,5.263,1.644,8.531,8.531,0,0,0,6.8-3.178L79.629,1162.2a33.584,33.584,0,0,1,2.01,11.621,69.238,69.238,0,0,1-1.352,10.89c-1.243,6.725-2.485,13.7-.073,20.355,1.827,5.08,5.518,8.954,8.844,12.206a160.406,160.406,0,0,0,36.4,26.6,14.087,14.087,0,0,0,6.578,2.046,7.146,7.146,0,0,0,.877-.036c3-.329,5.445-2.194,7.2-3.545,7.93-6.14,15.275-13.083,15.458-22.183.146-7.162-4.129-12.387-8.259-17.467a44.872,44.872,0,0,1-5.884-8.369c-5.7-11.694.95-25.982,5.555-36.873a148.158,148.158,0,0,1,9.063-17.8c5.591-9.5,11.658-18.454,18.016-27.444,1.06-1.535,14.69-20.793,16.956-24.009l56.315-79.7L240.6,1145.86a2.692,2.692,0,0,0,1.937,2.7,35.213,35.213,0,0,0-7.93,11.292c-4.641,10.489-5.372,23.535-2.229,39.833a15.553,15.553,0,0,0,1.279,4.239c-.073.293,2.266,39.029,2.266,39.065.548,8.588,13.484,10.927,17.212,3.253a13.819,13.819,0,0,0,.987-5.592c.328-8,.621-16.042.95-24.082a30.225,30.225,0,0,1,9.647,9.941c2.485,3.91,4.459,8.148,6.614,12.242,2.961,5.591,6.724,11.219,12.5,13.74H2.741a2.741,2.741,0,1,0,0,5.482H1602.334a2.741,2.741,0,1,0,0-5.482ZM468.2,505.942c-.146,2.157-2.3,8.881-4.093,13.193-1.425,3.435-6.1,7.308-10.634,11.072a72.761,72.761,0,0,0-8.844,8.187l-21.78-10.2c-.987-4.094-.183-8.881,1.937-10.671a32.1,32.1,0,0,1,2.85-2.047c5.884-3.946,14.764-9.9,18.491-33.4.439-2.85,4.349-4.97,10.671-5.847a2.781,2.781,0,0,0,.658-.109c3.8-.914,6.029-.292,7.053,2.375C467.614,486.464,468.784,495.2,468.2,505.942Zm20.72-101.262,68.373-14.691L507.922,504.48l-36.069,9.356a38.669,38.669,0,0,0,1.828-7.565c.621-11.438-.695-21.159-4.057-29.746-.512-1.316-1.571-3.326-2.814-4.093Zm-134.043,104,37.275-110.837,91.652,7.09s-20.867,65.486-20.9,65.632a29.95,29.95,0,0,0-6.834.256c-12.2,1.644-14.873,7.2-15.348,10.378-3.362,21.123-10.744,26.092-16.152,29.747a27.855,27.855,0,0,0-3.326,2.412,9.206,9.206,0,0,0-2.156,2.667Zm-.109,75.938s3.179,4.934,3.435,5.116c-.731,11.073-1.681,22.292-2.777,33.4-.329,3.508,5.079,4.057,5.445.548,1.242-12.242,2.266-24.7,3.033-36.909L409.29,528.6l34.461,15.421,2.814,1.279.913.4s-63.513,99.253-66.144,102.907c-2.85,3.947-3.837,6.395-7.418,7.638a11.9,11.9,0,0,1-10.561-1.352l-18.674-12.571c-.877-13.01-2.375-34.717-2.375-34.717C349.249,599.129,353.049,591.491,354.767,584.621ZM223.1,480.033l-37.019-1.9c-.183-5.262,2.7-10.123,5.774-15.239,2.521-4.239,5.153-8.624,6.176-13.521.877-4.276.439-8.588.036-12.754-.4-4.239-.767-8.222.11-12.059,1.17-5.08,4.349-9.393,6.468-14.106,1.791-3.983,2.7-9.611,3.654-15.6.475-3.07,1.024-6.286,1.681-9.465.476-2.229-3.142-3.107-3.581-.731-.694,3.216-1.206,6.5-1.717,9.611-.914,5.737-1.791,11.146-3.362,14.691-2.193,4.933-5.445,9.428-6.688,14.763-1.023,4.422-.621,8.917-.182,13.229.4,4.093.767,7.967,0,11.694-.914,4.275-3.363,8.405-5.738,12.388-3.143,5.3-6.395,10.744-6.322,16.92l-14.617-.767c-1.9-6.1,2.558-13.631,6.541-20.355,2.046-3.435,5.262-6.541,6.578-10.379,1.571-4.531.4-9.172-.731-13.667-1.864-7.272-3.472-13.595,5.006-20.245,9.685-7.528,7.455-15.5,5.3-23.169-3.252-11.767-7.345-26.348,27.627-50.54,14.252-9.867,29.747-11.95,40.2-11.95,18.894,0,35.046,6.725,38.3,13.01a2.6,2.6,0,0,0,1.754,1.388c.147.037,13.778,3.509,22.548,12.571,7.93,8.186,12.242,20.574,12.023,34.315l-8.88-.256c-1.791-12.425-10.2-26.385-21.817-36.142-1.645-1.389-4.312,1.206-2.339,2.814,10.6,8.844,18.564,21.926,20.391,33.218,0,0-88.07-2.448-88.508-2.448a2.768,2.768,0,0,0-2.266,4.385,21.549,21.549,0,0,1,3.91,13.558c-.256,4.934-3.033,7.967-4.5,12.388-1.534,4.678.4,9.063,2.083,12.937,1.316,2.96,2.522,5.737,2.266,8.3-.329,3.289-2.7,6.1-4.386,8.844-3.873,6.249-3.251,10.6-2.009,13.156,1.06,2.229,2.3,3.581,2.265,6.212A22.788,22.788,0,0,1,223.1,480.033ZM234.319,468.6a21.518,21.518,0,0,0,.292-3.435,13.182,13.182,0,0,0-1.06-5.628c-1.9-4.239-2.96-6.5-.036-10.927,2.265-3.4,4.823-6.98,5.189-11.146.4-4.02-1.243-7.747-2.668-11.036-1.5-3.4-2.814-6.359-1.936-9.063,1.607-4.6,4.275-7.82,4.641-13.009.109-1.425-.329-13.3-2.3-13.375l73.38,2.046a70.419,70.419,0,0,1,5.117,31.464,79.292,79.292,0,0,1-3.472,18.418c-6.615,20.9-23.388,42.9-47.763,41.075C252.919,483.176,242.614,477.109,234.319,468.6Zm50.54,56.058c-4.6,4.97-18.455-4.5-22.292-6.8a94.432,94.432,0,0,1-20.026-16.628c-.146-.146-3.07-3.471-3.728-4.239,0-.109,2.559-13.229,2.814-14.362a81.278,81.278,0,0,0,11.037,4.605,42.672,42.672,0,0,0,13.7,2.339,41.589,41.589,0,0,0,17.139-3.728C284.274,493.262,288.294,520.925,284.859,524.653ZM155.238,787.476s41.477.109,41.7,0l-.183,9.611H155.2C155.2,794.054,155.2,790.838,155.238,787.476Zm47.325,38.188c.036.147,3.142,15.97,9.428,21.743a8.575,8.575,0,0,1,.877.914c.146.183-1.791,1.352-2.047,1.389a11.867,11.867,0,0,1-6.906-2.23,84.1,84.1,0,0,1-7.163-8.04,2.77,2.77,0,0,0-4.86,1.39c-1.243,10.78-12.608,40.49-18.163,39.9-7.382-1.059-15.9-6.834-20.684-14a20.025,20.025,0,0,1-3.654-11.036,90.12,90.12,0,0,1,1.133-10.379c.841-7.162,1.9-14.288,3.289-21.342a129.837,129.837,0,0,1,3.179-13.52c.8-2.632,1.681-5.811,3.581-7.894h33.255c1.316-.256,4.239,8.15,4.532,8.916A119.378,119.378,0,0,1,202.563,825.664Zm88.362-218.276a1.979,1.979,0,0,0-.8.146c-15.348,6.724-25.507,5.153-37.275,3.326-1.315-.219-3.252-.768-3.8.95-.694,2.156,1.864,2.448,3.252,2.668a103.9,103.9,0,0,0,16.043,1.644,55.734,55.734,0,0,0,22.438-4.9c-.037,1.024-.073,2.01-.11,3-.913,21.2-.731,42.865-.548,63.841.183,20.757.366,42.172-.548,62.965-3.179,14.984-8.149,29.089-10.525,30.222a206.031,206.031,0,0,1-22.474,1.06c-20.245,0-42.391-1.9-53.829-3.034l.365-21.195,20.136-80.871a2.957,2.957,0,0,0,.037-1.133l-7.345-44.51S232.966,551.33,233,551.11c.841-3.435-4.495-4.714-5.335-1.278l-17.286,71.516-11.255,46.483a3.66,3.66,0,0,0-.109.621l-1.389,78.9L196.971,784c-.256-.109-41.733-.183-41.733-.183.219-45.314,1.17-113.249,3.837-123.737L179.32,526.041c1.1-5.3,6.5-8.441,13.558-10.743,1.681-.585,5.3-1.571,5.3-1.571L222.113,507s5.482,4.824,8,7.09c12.754,11.474,25.142,23.571,36.8,36.068,8.7,9.319,17.541,19.405,21.415,31.574C290.925,589.957,291.181,598.727,290.925,607.388ZM203.549,723.634l.95-54.816,8.149-33.621,5.153,31.245Zm91.615,14.91a3.511,3.511,0,0,1,.037-.622c.731-19.916.548-40.235.4-59.895-.183-20.9-.366-42.5.548-63.586.438-10.817.987-23.059-2.631-34.351-4.2-13.266-13.449-23.9-22.585-33.657-13.411-14.325-27.626-28.1-42.354-41.075.366-.183,5.665-1.608,7.784-2.3,1.937,1.936,3.362,3.215,5.3,5.152a95.349,95.349,0,0,0,18.089,14.362c7.675,4.6,24.265,16.006,30.624,3.654,2.083-4.093,1.681-9.026,1.315-13.411-.182-2.376-.475-8.808-1.059-11.439,1.534,1.718,9.318,17.834,9.318,17.834,1.316,2.923-1.206,8.04-2.777,10.415-3.983,5.883-10.123,7.309-16.847,7.309-2.339,0-4.933.109-7.016-1.17-2.01-1.242-3.91,1.9-1.9,3.143,2.631,1.572,5.774,1.681,8.733,1.681,5.336.037,10.562-.512,15.02-3.654a20.841,20.841,0,0,0,7.894-11.366c6.468,13.814,12.717,27.774,18.71,41.733,1.827,4.2,3.874,8.99,3.8,13.741,0,1.023-2.119,90.556-1.608,96,.622,6.322,7.236,58.471,7.236,58.544A352.1,352.1,0,0,1,295.164,738.544Zm41.916,24.483c.146-4.969.073-9.9.036-14.873a121.09,121.09,0,0,0-.658-14.581c-.511-3.873-.986-7.747-1.461-11.584-1.316-10.305-5.08-40.563-5.555-45.461-.475-5.043,1.608-94.392,1.608-95.415.11-5.92-2.3-11.475-4.239-15.969-8.77-20.465-29.2-63.806-30.185-65.195l13.887,3.8c6.833,2.229,9.172,6.943,12.1,12.9,1.5,3,19.076,34.753,19.076,34.753a66.033,66.033,0,0,1,6.98,13.411,30.844,30.844,0,0,1,1.718,12.937c-.585,7.674-4.166,16.664-13.083,27.3-.621.8-.621.914-.4,3.8.475,6.943,9.172,136.527,9.647,151.766a3.974,3.974,0,0,0-.621.183A60.17,60.17,0,0,1,337.08,763.027ZM58.872,1179.443c-2.339,2.961-8.076-.548-5.92-3.91l18.564-28.76c2.3,2.083,5.7,9.649,5.7,9.649S58.909,1179.371,58.872,1179.443Zm77.619-9.939a102.5,102.5,0,0,0-16.7-1.206,3.807,3.807,0,0,0-3.691,3.545c-.22,4.166.255,12.863.475,15.86a3.383,3.383,0,0,0,3.8,3.069,54.354,54.354,0,0,1,14-.255,26.519,26.519,0,0,0,2.119,6.212,49.992,49.992,0,0,0,6.578,9.428c3.655,4.5,7.126,8.735,7.016,13.887-.109,6.8-6.468,12.644-13.338,17.943-3.106,2.411-5.08,3-8.734,1.023a154.845,154.845,0,0,1-35.119-25.654c-2.887-2.813-6.066-6.175-7.527-10.159a22.078,22.078,0,0,1-.914-9.465,43.084,43.084,0,0,0,5.591,6.469c6.505,6.432,13.3,12.9,20.1,19.186a87.241,87.241,0,0,0,7.126,6.029,44.816,44.816,0,0,0,10.232,5.591c2.193.731,3.472-2.631,1.316-3.435a39.7,39.7,0,0,1-9.392-5.116,78.428,78.428,0,0,1-6.8-5.774c-6.8-6.248-13.521-12.681-20.026-19.076-3.252-3.253-6.505-6.724-7.163-10.67.074-.4.147-.841.22-1.28a70.544,70.544,0,0,0,1.462-11.766c.146-11.731-5.665-22-10.087-28.724-.986-1.462-1.864-2.851-1.864-4.13a8.724,8.724,0,0,1,1.1-3.252c6.724-13.96,14.362-23.315,23.388-28.577A30.9,30.9,0,0,1,113.8,1105c-2.484,5.518-2.7,12.974-1.9,20.026-1.024.548-2.851,1.28-3.582,1.608a27.614,27.614,0,0,0-5.08,3.07,65.482,65.482,0,0,0-15.713,16.664c-1.243,1.937,1.79,3.91,3.033,2.01a62.133,62.133,0,0,1,14.873-15.75,28.69,28.69,0,0,1,7.016-3.911,61.431,61.431,0,0,0,2.851,11.146c3.691,10.013,12.279,23.826,25.032,19.368C138.939,1162.634,137.624,1166.032,136.491,1169.5Zm-2.667,17.285a60.057,60.057,0,0,0-13.632.293,127.958,127.958,0,0,1-.256-15.13c4.386-.182,15.422,1.1,15.5,1.1A42.438,42.438,0,0,0,133.824,1186.789Zm11.474-39.76c-2.047,4.751-5.81,7.529-9.757,7.492-5.737-.146-11.365-6.359-15.093-16.518-3.216-8.916-5.335-24.85-.987-32.049l1.243-1.278c1.169.694,9.538,8.953,15.349,14.032a101.914,101.914,0,0,0,10.963,8.478c2.3,1.535,4.714,3.582,7.272,4.678Zm161.926,46.959a39.427,39.427,0,0,0,5.481,10.707,60.3,60.3,0,0,0-9.794,7.346c-2.521-3.033-6.285-7.711-8.259-10.524A126.887,126.887,0,0,1,307,1194.1C307.078,1194.061,307.15,1194.024,307.224,1193.988Zm-11.877-39.8c.877,4.568,7.345,21.488,4.348,24.485-3.727,3.763-15.969,3.362-31.354-4.824-7.272-3.837-13.083-15.166-14.362-24.009Zm-46.776,88.29c-.146,3.764-6.944,3.873-7.163.182l-2.119-33.985c1.206.585,10.415,3.508,10.415,4.6C249.7,1213.283,248.571,1242.372,248.571,1242.482Zm98.083,2.558c-.475,1.571-1.023,3.545-2.119,4.5-.951.84-2.6,1.1-4.312,1.316a156.536,156.536,0,0,1-43.816-.548c-4.02-.622-8.625-1.462-12.206-3.91-4.678-3.18-7.382-8.625-10.232-14.4a71.168,71.168,0,0,0-5.847-10.379,42.8,42.8,0,0,0-12.791-11.4,80.342,80.342,0,0,0-12.534-5.993c-1.608-.659-3.179-1.243-3.984-2.3a8.748,8.748,0,0,1-1.059-3.252c-2.924-15.2-2.3-27.152,1.864-36.58a30.643,30.643,0,0,1,8.88-11.585,46.352,46.352,0,0,0,9.062,21.013,35.426,35.426,0,0,0-2.7,4.787,31.336,31.336,0,0,0-1.5,4.056,63.574,63.574,0,0,0-2.814,21.378c0,1.206.073,2.523,1.5,2.815,3.4.694,2.12-7.455,2.229-9.246a64.163,64.163,0,0,1,2.559-13.887,26.4,26.4,0,0,1,3.289-7.053,24.075,24.075,0,0,0,5.628,4.313c9.61,5.116,18.856,7.783,26.092,7.783,5.043,0,9.1-1.278,11.694-3.873.146.438,2.046,6.029,1.9,6.1-.366.183-.731.4-1.06.585-3.947,2.157-9.94,5.445-13.631,8.332a4.632,4.632,0,0,0-1.1,6.249c2.339,3.581,7.93,10.378,9.9,12.681a4.331,4.331,0,0,0,6.213.328,55.3,55.3,0,0,1,10.926-8.075,24.114,24.114,0,0,0,5.3,3.106,73.209,73.209,0,0,0,9.246,2.959c6.249,1.682,12.169,3.29,15.494,8C350.674,1228.449,349.03,1236.817,346.654,1245.04Zm1087.8-167.187H1270.918V1064.4s161.122.036,161.6,0C1440.628,1063.819,1443.223,1077.853,1434.453,1077.853Zm-7.529-18.894H1270.918v-75.39H1364a1.833,1.833,0,0,0,1.827-1.827,1.809,1.809,0,0,0-1.827-1.827H1132.71a1.809,1.809,0,0,0-1.827,1.827,1.833,1.833,0,0,0,1.827,1.827h73.124v75.39H878.914c-23.535,0-42.683-18.527-42.683-41.294V964.859c0-22.8,19.148-41.331,42.683-41.331H1358.7c.146.256.329.511.475.767,2.6,3.874,6.395,6.249,9.721,8.149a121.686,121.686,0,0,0,34.351,13.23c2.229.474,4.532.766,6.687-.183,2.412-1.023,3.947-3.253,5.08-4.86,3.691-5.263,6.98-10.818,7.674-16.519h4.13C1412.453,951.374,1412.526,1033.78,1426.924,1058.959Zm-161.487-75.39v122.787l-25-28.979a2.718,2.718,0,0,0-4.129,0l-25,29.016V983.569Zm84.782-93.881a28.259,28.259,0,0,1,3.4,8.113,55.921,55.921,0,0,1,1.206,8.917h-11.476ZM1336.954,908c-1.1,2.667-5.3,1.242-4.459-1.571l8.259-27.847c.11.147,4.129,4.057,5.664,5.847C1346.418,884.426,1337.136,907.559,1336.954,908Zm7.856-33.108a7.114,7.114,0,0,1-2.228-2.778c-.147-.585.8-5.189.621-5.3a38.831,38.831,0,0,1,14.982,19.258,1.841,1.841,0,0,0,3.436-1.315,42.57,42.57,0,0,0-17.578-21.817c2.375-10.085,5.994-17.723,10.926-23.168a20.622,20.622,0,0,1,3.033-2.887c1.938,1.425,4.02,2.85,6.176,4.239a85.537,85.537,0,0,0,6.4,23.5c11.365,25.545,17.1,28.98,21.232,28.98a5.726,5.726,0,0,0,4.458-2.046,25.632,25.632,0,0,0,5.3,11.949,39.2,39.2,0,0,0,7.235,6.322c3.948,2.924,7.346,5.446,8.3,9.612,1.169,4.859-1.462,10.3-4.9,15.6-6.943-1.278-23.2-7.309-27.737-9.9-2.009-1.169-3.837,1.973-1.791,3.179,4.2,2.375,18.967,8.077,27.262,9.977-1.571,2.156-2.887,2.7-5.481,2.046a117.912,117.912,0,0,1-32.817-12.645c-2.813-1.607-5.956-3.544-7.893-6.43-4.714-7.054-2.851-16.811-4.787-24.741C1356.541,886.619,1349.744,879.456,1344.81,874.889Zm25.545-29.784v-.037c.146.111,3.837,2.412,5.554,3.472,6.724,4.166,20.684,13.558,20.83,13.631l.037-.073s-1.827,19.368-2.815,22.621c-1.022,3.216-1.936,3.4-2.155,3.4-.475,0-5.08-.694-16.225-25.726A81.438,81.438,0,0,1,1370.355,845.105Zm32.048,23.059c.22-1.717.914-5.226,1.352-5.481,1.572-.987,2.851-2.047,3.253-3.947,1.973-9.173,8.66-23.1,15.713-37.823,1.024-2.156,4.2-9.794,5.519-11.584,1.827,6.541,5.189,21.6,5.336,22.547v69.872c0,2.01-4.24,4.97-10.855,4.97h-8.952c-.549-.439-1.134-.877-1.682-1.28a34.2,34.2,0,0,1-6.285-5.444C1399.443,892.393,1400.942,880.077,1402.4,868.164Zm31.136,50.394c-.183.073-11.11-.475-11.11-.511a16.175,16.175,0,0,0-2.85-5.848h3.142c5.628,0,10.526-1.754,13.448-4.458a6.146,6.146,0,0,1,2.45,5.007A5.739,5.739,0,0,1,1433.539,918.558Zm24.63-23.68a5.9,5.9,0,0,1-2.85-1.206,7.661,7.661,0,0,1-1.024-2.339c-3.361-10.232-4.384-18.71-3.215-25.946,3.215-.329,6.943-.84,11-1.389a45.907,45.907,0,0,0,4.677,5.519,66.72,66.72,0,0,0-3.509,7.673,26.258,26.258,0,0,0-.657,3.363,54.748,54.748,0,0,0-.037,15.64Q1460.2,895.427,1458.169,894.878Zm8.807,30.879a1.909,1.909,0,0,1-2.156-1.462l-4.494-23.023a37.413,37.413,0,0,1,6.321,2.632s2.047,19.7,2.047,19.843A1.819,1.819,0,0,1,1466.976,925.757Zm49.371-31.281c3,.475,5.774,1.608,8.624,2.083,4.385.658,8.15,1.242,10.671,4.129,2.23,2.558,2.851,6.249,2.814,10.378-3.472,4.532-10.416,5.19-15.641,6.1a80.629,80.629,0,0,1-28.248.219c-2.339-.439-2.96,3.142-.658,3.581a74.527,74.527,0,0,0,13.668,1.242c9.939,0,21.67-1.06,30.513-5.92-.438,1.718.037,4.057-1.535,5.336a4.23,4.23,0,0,1-1.717.73,107.079,107.079,0,0,1-32.487,3.8c-2.924-.109-6.249-.365-9.026-1.827-3.655-2.01-6.177-5.993-8.881-10.2a55.676,55.676,0,0,0-5.482-7.711,35.017,35.017,0,0,0-12.424-8.7,49.8,49.8,0,0,1-.329-16.627,28.155,28.155,0,0,1,.548-2.96,49.365,49.365,0,0,1,2.667-6.14,28.55,28.55,0,0,0,3.034,2.266c13.045,8.332,21.962,12.352,27.664,12.352a8.01,8.01,0,0,0,5.517-2.047C1506.3,887.643,1515.288,894.293,1516.347,894.476Zm-14.508-17.212v.073c.475,2.631-.146,3.361-.293,3.472-.109.145-3.727,3.178-26.129-11.183a31.3,31.3,0,0,1-7.2-6.688l-.036-.036c1.024-.183,25.764-5.262,25.983-5.336C1495.079,859.8,1501.4,874.778,1501.839,877.264ZM1361.547,594.78c20.392,5.08,40.308,12.1,60.37,18.272,4.751,1.462,9.393,2.96,13.814,4.349,8.588,2.7,17.213,5.116,25.289,9.172,5.444,2.741,11.255,6.249,14.836,11.329,6.176,8.807,8.04,91.067,8.844,126.186.219,11.036.438,19.733.658,23.973v.145c.877,11.22,2.01,19.515,3.325,29.089,1.279,9.246,2.7,19.624,4.166,34.863,0,0-44.766,8.076-46.009,8.186a.136.136,0,0,0-.036-.11c-1.279-5.262-2.7-10.817-4.239-16.372a46.238,46.238,0,0,0,9.757.878c13.521,0,30.3-3.509,31.245-3.728a1.827,1.827,0,0,0,1.426-2.156,1.874,1.874,0,0,0-2.157-1.425c-.329.073-30.3,6.395-41.368,2.3-.621-2.265-7.491-26.75-8.842-32.524-.476-2.01-.841-3.764-1.1-5.189a.689.689,0,0,0,.073-.255c16.992-44.876,30.7-115.15,30.807-115.844,4.531-23.1-13.412-38.335-30.3-44.438L1336.3,614.076a28.262,28.262,0,0,0,2.851-2.668c7.053-7.674,7.053-17.139,6.761-20.575C1345.944,591.017,1359.282,594.2,1361.547,594.78Zm3.436-40.6a9.389,9.389,0,0,1-3,.512,9.023,9.023,0,0,1-8.478-6.03l-1.5-4.2,25.947,5.153Zm117.159-51.855a4.269,4.269,0,0,1-.731.657,58.535,58.535,0,0,1-6.8.4c-1.9,0-3.764-.109-5.372-.182-3-2.047-3.91-23.717-1.389-32.67.987-3.582,3.18-6.834,5.7-10.452,1.609-2.3,6.176-4.166,10.195-4.166,1.938,0,3.071.475,3.436.877.073.073.219.256.183.8C1486.308,470.824,1484.261,494.066,1482.142,502.325Zm-127.1-100.788,85.44,17.029s-6.029,41.039-6.067,41.258a1.831,1.831,0,0,0,3.619.549l6.175-41.807,55.913-24.667-11.951,57.228a13.351,13.351,0,0,0-4.422-.694c-5.005,0-11.694,2.229-14.69,6.5-2.813,4.02-5.262,7.711-6.5,12.133-2.228,8-2.777,30.185,1.9,36.946a5.317,5.317,0,0,0,4.092,2.558c2.047.182,7.054.292,7.529.256l-4.313,20.573-47.141,21.671,11.585-78.459a1.811,1.811,0,0,0-1.536-2.047,1.777,1.777,0,0,0-2.083,1.535l-11.877,80.469-86.1-17.175,4.312-28.431c1.937-1.389,5.226-3.838,5.226-3.838l52.659-10.926c6.943-1.389,11.585-8.734,10.306-16.518-2.266-13.521-19.771-20.61-35.923-20.61a46.681,46.681,0,0,0-9.245.877l-16.19,6.468Zm-23.1,72.357,31.282-12.608c14.435-2.741,36.36,2.7,38.48,15.421.8,4.751-1.9,9.283-5.993,10.086l-53.938,10.671Zm23.68-158.783c-.767,5.445-3.435,16.627-3.544,16.956a12.608,12.608,0,0,1-3.326.11,14.021,14.021,0,0,1,1.169-27.992c.841,0,6.87.73,6.761,1.79C1356.431,308.862,1356.066,311.9,1355.627,315.111Zm1.389-13.046a16.855,16.855,0,0,0-5.591-1.462,17.746,17.746,0,0,0-19.113,16.116,17.436,17.436,0,0,0-.036,2.375h-1.791l-.8-6.176a2.752,2.752,0,0,0-3.069-2.375,2.7,2.7,0,0,0-2.339,3.07l.694,5.372s-2.521-.073-2.521-.147a17.663,17.663,0,0,0-34.2-7.527l-13.522-5.117c3.765-4.714,14.472-16.006,30.4-16.006,5.336,0,10.526,1.462,15.641,2.814,6.1,1.608,12.389,3.289,18.418,3.289a22.963,22.963,0,0,0,8.808-1.571c.877-.366,9.136-3,9.136-4.349A105.405,105.405,0,0,1,1357.016,302.065Zm-38.225,16.481A14.011,14.011,0,1,1,1306,303.38,14.118,14.118,0,0,1,1318.791,318.546Zm42.939-7.893a14.042,14.042,0,0,1-3.252,18.674,132.387,132.387,0,0,0,2.558-13.449C1361.291,314.088,1361.511,312.334,1361.73,310.653Zm-118.657,37.092c-5.154,10.159-16.664,17.687-30,19.66a54.775,54.775,0,0,1-8.222.585,78.43,78.43,0,0,1-23.607-4.02c9.83-5.262,19.953-13.448,22.62-25.434,2.632-11.731-1.571-23.425-3.107-34.973-1.534-11.621-2.009-20.5-1.5-28.723.988-15.239,6.36-34.753,26.568-41.331a39.842,39.842,0,0,1,29.527,2.448,55.44,55.44,0,0,0-5.847,5.08,46.523,46.523,0,0,0-7.6-2.485c-9.866-1.462-19.7,3.325-26.86,13.448-1.351,1.9,1.536,4.02,3,2.12,7.638-10.854,18.6-14.727,28.8-10.269-10.049,11.182-16.115,26.2-17.065,43.048-.877,15.641,5.372,31.574,17.468,45.314A44.835,44.835,0,0,1,1243.073,347.745Zm-7.821-60.554c1.206-21.268,11.11-39.284,27.116-49.443a49.654,49.654,0,0,1,27.079-7.528,73.973,73.973,0,0,1,19.477,2.814c18.053,4.933,26.312,14.544,29.821,18.637,0,.438-4.277,8.807-23.645,9.538-1.389.037-3.179.621-2.631,2.485.4,1.425,1.791,1.279,3,1.169,8.772-.877,20.538-2.046,26.422-10.342,6.249,2.924,14.106,10.306,16.408,18.236a12.633,12.633,0,0,1-.914,9.9c-1.717,2.923-4.823,4.422-7.856,5.665a28.252,28.252,0,0,1-10.343,2.485c-5.3,0-11.255-1.572-16.992-3.107-5.628-1.461-11.219-3-17.067-3-16.882,0-28.357,10.6-33.509,16.554a15.716,15.716,0,0,0-13.486-8.076,12.221,12.221,0,0,0-9.976,4.641c-2.3,3.069-2.851,7.2-1.534,11.657a63.426,63.426,0,0,0,5.043,12.425,40.972,40.972,0,0,1,4.384,11.621C1241.831,319.789,1234.338,303.271,1235.252,287.191Zm27.737,53.647c0-.366-2.119-13.923-6.468-21.488a47.7,47.7,0,0,1-4.642-11.4c-1.388-4.75.841-9.282,6.249-9.282,3.581,0,8.406,2.266,10.123,8.734a2.807,2.807,0,0,0,3.911,1.754l15.165,5.738a18.1,18.1,0,0,0,3.983,13.85,17.676,17.676,0,0,0,30.4-6.176l3.727.073,1.973,14.946v.146c-2.63.074-5.81-.365-6.541-1.1a2.739,2.739,0,1,0-3.873,3.874c3.106,3.106,8.4,2.85,12.424,2.594,3.472-.219,3.692-4.2,3.363-6.614l-1.828-13.74,1.9.036a17.719,17.719,0,0,0,15.567,13.047,11.687,11.687,0,0,0,2.522.036,99.674,99.674,0,0,1-3.984,10.525c-6.321,14.069-18.454,30.988-38.809,29.271C1290.653,374.165,1272.783,358.233,1262.989,340.838Zm12.059,24.009c9.575,8.917,21.05,15.312,32.634,16.262.913.073,1.827.146,2.7.146l.877,12.973c-.877,8.442-7.893,14.143-17.468,14.143-6.468,0-13.3-2.522-19.477-7.053-.073-.073-6.469-6.249-5.993-13.522A102.655,102.655,0,0,0,1275.048,364.847ZM1205.616,560.1c-4.9-3.326-11.293-8.552-10.233-15.276l20.94-124.87c.256-6.8,4.458-11.183,10.049-14.362,7.2-3.216,14.618-6.176,21.561-9.209,2.74,7.748,14.252,17.724,27.079,23.827,6.249,3,14.544,5.81,23.424,5.81a37.029,37.029,0,0,0,14.508-2.85c6.066-2.522,9.867-6.907,12.68-14.581a1.833,1.833,0,0,0-3.434-1.279c-2.448,6.724-5.555,10.342-10.671,12.5-12.681,5.336-25.982,1.352-34.936-2.887-13.338-6.4-23.315-16.043-25.325-22.036l11.657-4.458c.877,8.405,7.346,14.617,7.894,15.092,7.382,5.445,15.349,8.332,22.986,8.332A24.534,24.534,0,0,0,1309.4,408.7a22.456,22.456,0,0,0,5.043-6.213c1.571-2.7,2.7-10.78,2.7-10.78,1.974,0,21.086.584,24.375,10.707a71.714,71.714,0,0,0,5.883,12.827l-7.565,49.553-10.012,4.02-86.061,40.454s12.1-57.557,12.133-57.776c.694-3.4-4.678-4.641-5.372-1.133l-12.937,61.8a45.779,45.779,0,0,0-5.664,2.01,37.563,37.563,0,0,0-13.558,11.621c-2.083,2.85,2.265,6.1,4.421,3.252a32.607,32.607,0,0,1,11.731-10.086c2.193-1.206,4.751-1.5,6.907-2.521,11.475-5.446,58.47-27.591,70.6-33.328l.145-.074c2.3,7.967,4.423,16.08,6.25,24.156.512,2.266,4.093,1.5,3.581-.84-1.9-8.3-4.092-16.7-6.468-24.924l11.365-5.335,10.524,25.215c-.949.695-82.844,59.238-111.6,63.733A28.613,28.613,0,0,1,1205.616,560.1Zm16.3,10.743a30.481,30.481,0,0,0,4.787-.366c28.394-4.494,83.612-42.719,106.013-58.944l-3.91,25.617a2.74,2.74,0,0,0,2.156,3.106L1346.2,543.4c-.439,0-5.558,42.793-5.81,47.105-.545,9.29-3.947,17.979-11.767,22-8.077,4.166-18.089,4.2-26.933,3.472-41-3.362-79.593-23.169-86.134-26.677C1215.555,589.3,1221.877,570.844,1221.914,570.844Zm-11.4,20.1a.473.473,0,0,0-.036.22h-.037C1210.476,591.089,1210.476,591.017,1210.512,590.943Zm-13.3,72.649c-5.591-18.82,2.631-38.48,12.352-58.653.621-1.278,3.837-9.94,4.057-10.451,8.55,4.495,46.848,23.607,87.631,26.969,2.668.219,5.189.329,7.638.329q12.552,0,21.049-3.837l100.5,28.76c14.691,5.3,30.441,18.455,26.605,38.151-.147.732-13.887,71.3-30.843,115.771-1.5,3.289-7.163,15.275-8.4,17.907-7.236,15.056-14.253,30.258-16.335,39.979-.184,0-15.861-10.452-22.658-14.655-6.175-3.8-12.571-7.747-17.87-11.584.036-.219,2.157-11,2.7-13.3,4.5,3,34.2,17.723,35.118,18.454,1.792,1.571,4.13-1.352,2.3-2.814-1.17-.95-32.341-16.408-36.47-19.478.365-1.535.767-3.033,1.206-4.568,1.132-4.275,18.235-70.017,21.926-81.675,2.741-8.588,5.189-17.249,8.113-25.763,1.644-5.043,4.787-14.435,6.066-15.934,2.266-2.668-1.791-6.285-4.13-3.617-1.791,2.083-5.261,11.986-7.053,16.736,0,0-7.748,1.206-11.146,1.462-21.305,1.754-42.829,1.9-64.207,1.9-42.829,0-71.553-1.864-80.944-5.3C1215.555,691.512,1201.668,678.5,1197.21,663.592ZM1150.946,694.8a4.222,4.222,0,0,1-.256,1.534H675.219v-8.3l469.7.548A6.077,6.077,0,0,1,1150.946,694.8Zm-12.279-148.916c-15.019,27.553-14.947,111.2.11,136.674H675.219V602.381H808.056a1.832,1.832,0,0,0,1.827-1.827,1.857,1.857,0,0,0-1.827-1.827H574.5a1.857,1.857,0,0,0-1.827,1.827,1.832,1.832,0,0,0,1.827,1.827h18.272v80.178H567.452c-24.594,0-44.584-18.784-44.584-41.879v-53.5c0-23.1,19.99-41.879,44.584-41.879H676.169a15.756,15.756,0,0,0,8.442,2.083c1.279,0,2.521-.073,3.727-.183,6.359-.475,33.767-1.717,37.165-1.9H911.219c3.179.548,6.066,1.06,8.368,1.5,2.923.549,5.994,1.06,8.917.183a10.745,10.745,0,0,0,3.435-1.681h207.02A2.986,2.986,0,0,0,1138.667,545.885ZM669.738,603.441V767.413s-33.511-38.956-33.657-39.1a2.767,2.767,0,0,0-4.166,0l-33.657,39.1V603.441ZM743.7,538.21l-8.99-41.111,71.3,23.388Zm85.988-9.976,35.374,11.585h-107l40.673-11.585Zm-87.377,16.079a1.809,1.809,0,0,1-.438.074h-.219A3.97,3.97,0,0,0,742.313,544.313Zm181.55-11.292a1.671,1.671,0,0,0,2.192-1.206c3.545-13.886,1.974-27.261-1.717-39.357a116.742,116.742,0,0,0-4.385-11.914c-.4-.95-4.751-11.218-5.3-11.218a36.144,36.144,0,0,1,5.335-1.352,63.193,63.193,0,0,1,9.5,17.285c.621,1.68,1.206,3.435,1.754,5.225,3.983,13.3,4.933,28.4,2.083,41.331-.622,2.741-1.681,5.957-3.545,8-2.522,2.777-5.847,2.229-9.172,1.608-2.449-.475-40.93-6.761-46.813-7.821l.11-49.3c9.683-3.765,26.421-10.269,37.165-13.851,1.607-.511,9.026,20.575,9.757,22.986,3.508,11.585,5.043,24.339,1.68,37.458A1.718,1.718,0,0,0,923.863,533.021Zm14.8-.036c.365-1.571.657-3.143.876-4.751h205.376a6.077,6.077,0,0,1,6.03,6.213,5.7,5.7,0,0,1-5.519,5.627c-.438-.328-209.066,0-209.066,0A32.317,32.317,0,0,0,938.664,532.985Zm7.491-116.648c18.235,0,32.889,16.664,31.172,34.717a31.421,31.421,0,0,1-21.671,26.75l-20.829,5.956a67.667,67.667,0,0,0-11.293-20.135,3.664,3.664,0,0,0-2.923-1.169c-5.043,0-24.74,7.454-46.667,16V474.3a2.76,2.76,0,0,0-1.827-2.595l-49.736-18.235,114.492-35.7A30.937,30.937,0,0,1,946.155,416.337Zm-180.2-86.463a5.071,5.071,0,0,0-2.558-3c-4.5-1.973-8.368,2.339-12.79,7.345-3.472,3.911-7.382,8.3-11.585,9.9-3.617,1.353-8.112,8.625-9.72,13.559-1.827-.146-4.6-.293-7.967-.33V284.67l82.26,21.159,1.718.439v22.4c-9.1-1.863-23.1,6.067-34.57,12.572-2.193,1.206-4.276,2.412-6.1,3.362a15.611,15.611,0,0,1,.84-3A17.026,17.026,0,0,0,765.957,329.874Zm-25,19.369c5.482-2.047,9.867-7.016,13.741-11.365,1.827-2.083,4.823-5.445,6.175-5.921a11.651,11.651,0,0,1-.4,7.382c-1.243,2.778-1.937,8.844-2.01,9.538a2.74,2.74,0,0,0,3.471,2.924c2.449-.695,6.432-2.96,11.475-5.811,9.684-5.445,25.91-14.58,32.123-11.547,4.969,2.485,7.856,5.3,8.806,8.66,1.1,3.947-.365,8.99-4.458,15.349-9.319,14.654-12.864,20.135-58.726,26.384-4.348-7.016-13.046-19.441-16.847-24.886C735.151,356.7,739.244,349.974,740.961,349.243Zm111.24,43.45c-.22-.621-2.047-6.468-3.8-8.953a11.656,11.656,0,0,1-1.827-7.162c1.462.255,5.007,2.96,7.2,4.641,4.641,3.545,9.9,7.528,15.678,8.514,2.119.366,6.248,4.057,7.344,6.395l-7.235,30.99c-36.836-1.718-50.5-5.774-62.125-18.016-6.212-6.541-9.793-11-9.5-14.472.183-2.156,1.9-4.458,5.3-7.053,5.518-4.2,23.169,1.681,33.729,5.19,5.519,1.827,9.868,3.288,12.389,3.508A2.772,2.772,0,0,0,852.2,392.693Zm18.162-8.332c-4.422-.767-9.136-4.348-13.266-7.491-5.335-4.093-9.939-7.6-13.959-4.788a5.089,5.089,0,0,0-1.937,3.436,16.949,16.949,0,0,0,2.7,11.4,16.122,16.122,0,0,1,1.389,2.778c-1.937-.585-4.239-1.352-6.615-2.12-9.026-3-19.514-6.5-27.883-6.87V367q1.809-2.575,3.728-5.591c4.97-7.747,6.614-14.216,5.08-19.77-1.17-4.2-4.057-7.638-8.808-10.525V305.792l82.224-21.085v96.621l-13.412,9.1C877.16,388.6,872.117,384.654,870.363,384.361Zm-117.2,5.7c.11-.329,46.739-6.834,52.148-16.481V381a12.42,12.42,0,0,0-5.409,2.229c-4.75,3.655-7.126,7.126-7.418,10.964-.4,5.006,2.814,9.684,7.565,15.019l-54.56-14c1.279-.512,5.518-2.01,5.518-2.01C751.815,392.913,752.363,392.328,753.167,390.062Zm54.195,26.714h.182l.037.036c11.913,10.232,27.371,14.106,60.918,15.714a2.119,2.119,0,0,0,.256.767l-54.779,17.066-94.247-35.447c.695-2.083,1.645-5.007,2.778-8.551.585-1.791,1.242-3.874,1.644-5.153l10.744-3.179h.037C735.151,398.175,807.362,416.776,807.362,416.776Zm71.26-256.1c-.11.475-1.864,9.684-7.456,12.9.183-.84.33-1.718.439-2.595v-.036l5.445-23.279C880.193,148.874,880.558,151.943,878.622,160.677ZM857.244,78.088c8.149,1.791,17.614,18.2,17.614,31.1l-3,36.653-.036.11-1.462.731c-1.169-19.185-3.325-35.046-10.123-42.062.329-.658.622-1.389.914-2.12,2.083-5.627.694-13.886-3.289-19.624a16.258,16.258,0,0,0-2.119-2.521A9.05,9.05,0,0,0,857.244,78.088Zm-13.3,58.178a19.787,19.787,0,0,0-19.7,17.98h-2.193c-.11-8.735,0-16.592,0-16.738a2.786,2.786,0,0,0-2.7-2.777h-.037a2.729,2.729,0,0,0-2.74,2.7c-.037.585-.111,8.259-.037,16.811h-8.661a19.79,19.79,0,0,0-38.663-3.874l-2.741-1.425c2.7-17.541,7.711-37.165,14.873-44.4a3.784,3.784,0,0,1,3.033-1.133,3.884,3.884,0,0,1,2.778,1.791,28.285,28.285,0,0,0,6.285,7.162c7.784,5.482,18.564,5.518,29.82.183a36.813,36.813,0,0,0,10.2,3.4,34.685,34.685,0,0,0,6.285.584c7.272,0,13.3-2.521,17.358-7.2,5.482,7.089,7.126,25.361,7.931,40.016l-2.12,1.059A19.776,19.776,0,0,0,843.942,136.266Zm16.152,19.807a16.152,16.152,0,1,1-16.152-16.153A16.158,16.158,0,0,1,860.094,156.073Zm-55.765,0a16.153,16.153,0,1,1-16.153-16.153A16.182,16.182,0,0,1,804.329,156.073Zm-50.248,7.089-.146-.366c-2.193-5.152-2.595-9.391-1.061-11.876a5.111,5.111,0,0,1,2.376-2.01l3.581,18.711.037.255c.183,2.12.475,4.239.84,6.286C757.7,172.48,755.323,167.693,754.081,163.162Zm6.8-13.85-.584-3.472-2.156-37.311c0-16.043,15.787-38.334,31.355-38.334,2.155,0,4.275.036,6.431.182,6.03.33,12.864.731,17.248-3.8a13.428,13.428,0,0,1,9.722-3.947c5.226,0,10.013,2.887,11.876,7.2,1.06,2.449,4.9,2.156,6.066,0a4.278,4.278,0,0,1,3.874-2.338c5.153-.256,10.013,4.238,7.053,9.318a2.37,2.37,0,0,0-.293.731,10.286,10.286,0,0,0-3.763-.731c-3.435,0-3.618,5.482,0,5.482,2.667,0,4.713,2.338,5.664,3.727,3.874,5.555,4.641,13.521.219,19-5.408,7.017-14.91,6.286-19.185,5.555-2.778-.512-13.778-3.106-13.778-7.236,0-3.508-5.481-3.581-5.481,0a7.925,7.925,0,0,0,2.777,5.518c-8.3,3.18-15.86,2.887-21.3-.95a24.986,24.986,0,0,1-4.824-5.591,9.253,9.253,0,0,0-14.362-1.645c-8.624,8.807-13.521,29.674-16.116,45.68Q761.1,147.887,760.877,149.312Zm3.473,17.979c.292-4.239.8-9.209,1.534-14.507l2.6,1.315a17.89,17.89,0,0,0-.11,1.974,19.794,19.794,0,0,0,39.5,1.827h8.734c.109,5.627.329,11.219.694,15.165a4.616,4.616,0,0,1-.036,1.279l-6.943.293a2.742,2.742,0,0,0,.109,5.482h.109l8.223-.366a2.291,2.291,0,0,0,1.206-.329c2.266-1.279,3.033-4.385,2.778-6.87-.366-3.764-.548-9.173-.622-14.654h2.12a19.793,19.793,0,0,0,39.5-1.827,19.319,19.319,0,0,0-.109-2.01l1.608-.768c.073,1.426.109,2.814.182,4.13.22,5.006.439,9.355.732,12.754-2.413,17.248-10.927,31.756-22.8,40.746a54.564,54.564,0,0,1-5.482,3.617,46.568,46.568,0,0,1-48.932-1.534,50.766,50.766,0,0,1-5.481-4.313C773.01,199.231,765.994,184.759,764.35,167.291Zm73.525,53.5v8.04c0,10.306-16.882,20.428-24.7,24.119-7.71-3.691-24.228-13.813-24.228-24.119v-9.318c5.3,5.335,21.524,6.651,24.01,6.724A52.17,52.17,0,0,0,837.875,220.791Zm-172.3,144.5c6.395-12.1,47.726-98.486,53.317-108.1.037-.073.073-.109.109-.183,1.061-1.5,9.173-12.79,16.884-17.029,9.465-5.189,23.717-8.953,35.155-11.95,4.787-1.279,9.1-2.375,12.425-3.471v4.275c0,16.591,27.408,29.126,28.54,29.674,1.974.767,4.569-1.1,6.213-1.974a81.966,81.966,0,0,0,10.159-6.212c6.907-4.97,14.983-12.242,14.983-21.488v-2.594l3.874.877a54.851,54.851,0,0,1-3.326,16.079,32.359,32.359,0,0,1-3.325,6.761c-3.508,5.3-8.99,8.916-14.326,12.461l-13.009,8.7-14.654-8.039c-7.272-4.02-13.521-7.821-16.3-14.106-.913-2.12-4.312-.768-3.325,1.462,3.471,7.929,11.8,12.5,17.87,15.823l16.59,9.1,14.874-9.9c5.335-3.545,11.4-7.565,15.312-13.448a38.06,38.06,0,0,0,3.727-7.528,57.162,57.162,0,0,0,3.472-16.555l36.982,8.369a36.557,36.557,0,0,1,27.189,25.983L957.7,383.082a9.651,9.651,0,0,1-.038,8.99c-7.162,14.471-44.985,26.969-70.674,33.584-4.13,1.06-11.841,2.814-12.133,2.887,0,0,7.6-32.561,7.638-32.634l14.178-10.049c.731-.256,14.984-11.4,14.984-11.4a2.741,2.741,0,0,0-3.289-4.385l-10.123,7.455L897.99,358.2,900,361.375a2.733,2.733,0,0,0,4.642-2.886l-6.14-11.841V281.162a2.785,2.785,0,0,0-3.434-2.668l-15.239,3.91a45.639,45.639,0,0,1-1.645-13.484c.109-3.508-5.408-3.764-5.481-.183a48.613,48.613,0,0,0,1.827,15.056l-67.351,17.285-61.685-15.86s1.388-16.079,1.388-16.152c.293-3.508-5.152-3.984-5.481-.475l-1.279,15.275s-20.72-5.335-20.83-5.372a2.769,2.769,0,0,0-3.435,2.668v76.267c-13.522.511-32.232,3.508-42.171,15.238-2.3,2.705,1.936,6.213,4.2,3.509,5.993-7.09,15.019-10.233,23.9-11.731,8.953-1.5,28.065-1.279,28.138-1.206,6.907,9.867,14.143,20.5,17.176,25.4l-59.676,17.8c-8.807,1.242-15.312-.987-19.295-6.615C660.565,389.112,663.561,369.086,665.572,365.286Zm52.22,37.822c-.182.512-.328,1.024-.511,1.608-.95,3-2.193,6.834-3,9.1L699.74,408.48ZM664.95,468.522c-16.737-5.482-25.325-24.558-19.331-40.893a31.289,31.289,0,0,1,22.839-19.77c3.363,2.521,8,4.385,14.436,4.385a28.286,28.286,0,0,0,8.039-1.133L868.462,476.2l-.145,58.908S666.339,469,664.95,468.522Zm12.1,9.72,7.565,2.485c-5.518,11.256-10.342,25.836-7.2,42.025a56.688,56.688,0,0,0,3.106,10.306c.877,2.119,4.312.95,3.4-1.389a51.264,51.264,0,0,1-2.74-8.917c-3.325-15.53,1.242-29.454,6.906-40.892l40.6,13.265,2.484,11.438a52.725,52.725,0,0,1-3.069,19.808c-.8,2.155,2.6,3.471,3.435,1.242a52.362,52.362,0,0,0,2.375-8.588l4.385,20.1c-6.321.4-15.055.8-23.534,1.206-10.012.439-20.391.914-26.823,1.389a20.741,20.741,0,0,1-7.345-.366c-3.691-1.206-6.578-4.6-8.624-10.123a57.425,57.425,0,0,1-2.412-8.478C666.229,506.747,669.043,489.5,677.046,478.242ZM503.463,636.879V592.7c0-35.52,33.073-64.463,73.746-64.463h88.07c.439,1.644.987,3.289,1.572,4.9a30.174,30.174,0,0,0,3.4,6.688h-102.8c-27.591,0-50.065,21.268-50.065,47.36v53.5c0,26.091,22.474,47.36,50.065,47.36h25.324v8.3H548.705C522.137,686.578,503.463,663.592,503.463,636.879Zm-73.27,67.533c0-.914,2.157-2.6,5.7-2.6H592.776v4.458H436.917C433.153,706.75,430.193,705.325,430.193,704.412Zm22.584,52.623c.475-15.824-2.3-34.169-9.245-44.511-.146-.255-.329-.511-.512-.767H592.776v56.606a6.566,6.566,0,0,0,1.17,3.874,4.451,4.451,0,0,0,7.052.4l33-38.334,33,38.334a4.461,4.461,0,0,0,3.362,1.644c2.741,0,4.86-2.6,4.86-5.92V711.757H989.934c23.534,0,42.683,10.963,42.683,24.484v32.634c0,13.484-19.149,24.447-42.683,24.447H443.312C448.867,785.9,452.339,772.968,452.777,757.035Zm-16.883,42.391,554.04-.622c27.006,0,48.164-13.156,48.164-29.929V736.241c0-16.81-21.158-29.966-48.164-29.966H675.219v-4.458h553.017c1.426.584,2.887,1.133,4.312,1.717,11.4,4.824,26.713,4.239,39.906,4.824,14.289.621,78.9.4,87.669.074,3.8-.147,19.916-.841,28.357-2.083-1.206,5.628-3.362,12.534-5.993,20.866-7.2,22.8-20.1,74.915-20.9,77.875l-925.69-.4c-3.435,0-5.7-1.534-5.7-2.667C430.193,801.106,432.35,799.426,435.894,799.426ZM389.483,906.718a2.683,2.683,0,0,1-2.667-2.668V813.239a2.683,2.683,0,0,1,2.667-2.668h970.6c-.876,3.289-1.717,6.578-2.448,9.794-.841,3.837-1.607,7.711-2.192,11.62a28.373,28.373,0,0,0-4.568,4.094c-6.615,7.345-11.037,17.906-13.521,32.232a14.7,14.7,0,0,0-.256,3.836c-.4,1.238-9.867,32.707-9.867,32.707a6.6,6.6,0,0,0-.292,1.864Zm.074,108.352V971.291c0-26.678,18.235-49.59,44-59.092H1328.84a7.832,7.832,0,0,0,11.877,0h14.617a39.333,39.333,0,0,0,1.1,5.848H878.914c-26.567,0-48.165,21.013-48.165,46.812v52.806c0,25.763,21.6,46.775,48.165,46.775h326.92v13.778c-.182-.147-758.794-.365-758.794-.365C414.37,1072.3,389.557,1046.205,389.557,1015.07Zm61.028,194.267a250.829,250.829,0,0,0,3.033-37.494c.329-28.248-3.252-57.41-10.781-71.224H850.7c23.058,0,41.842,18.309,41.842,40.783v52.184c0,22.475-18.784,40.381-41.842,40.381H443.02C443.239,1233.565,448.94,1219.058,450.585,1209.337Zm-16.628,43.158c-3.143,0-5.7-4.86-5.7-8.149a5.385,5.385,0,0,1,5.7-5.336H850.7c26.091,0,47.324-19.916,47.324-45.424V1141.4c0-25.507-21.233-46.375-47.324-46.375H433.957a5.846,5.846,0,0,1-5.7-5.992,5.708,5.708,0,0,1,5.7-5.7h771.877v25.471a5.95,5.95,0,0,0,.987,3.326,4.073,4.073,0,0,0,6.469.365l25.069-29.126,25.105,29.126a4.024,4.024,0,0,0,3.07,1.5c2.448,0,4.384-2.3,4.384-5.189v-25.471h133.459c38.956,0,70.639,27.956,70.639,62.307v42.793c0,34.387-31.683,64.061-70.6,64.061Z"></path> </g> </g> </svg> 