<?xml version="1.0" encoding="UTF-8"?> <svg xmlns="http://www.w3.org/2000/svg" viewBox="0 0 1605.075 1280.338"> <defs> <style>.\38 052565e-9580-414a-9fa7-d9506ec4f3e5{fill:#f7af4d;}.\32 ad8c006-91e2-4e7d-aaa0-2822cd74faa5{fill:#f5ae9e;}.b8299278-423f-4567-bd26-d03cacfdba0d{fill:#789ed3;}.\33 b02502b-fb5a-4874-bf83-809d9ab0f4bd{fill:#4b3584;}.\31 5c00cf9-0692-4d65-afe8-499a05150f63{fill:#b16516;}.\37 07d99de-f39f-41d9-8ca7-909e684a642c{fill:#5a8dbf;}.e5e8ade2-f972-4041-8a65-8a64773f8396{fill:#9fc1e6;}.\36 f68b57a-18d5-4cf7-a5d5-22ebde5f66f4{fill:#2b2150;}.\36 0189048-9927-4017-9b4d-5af6823defa5{fill:#313b84;}.\34 e18d7fa-a6cb-4aa2-924d-8055572c9c26{fill:#70c2b9;}.\38 c0eb2de-af27-4cf2-8e8a-495014913d1a{fill:#ee7e94;}.d4e35d9c-d562-4199-9194-f6269438554f{fill:#a49acb;}.\30 f301df8-3afc-443f-9a1f-1b0ecaafa8e1{fill:#2bb19e;}.\31 ce34f33-d8c5-47ef-a338-f73c81d05dae{fill:#dc74aa;}.e32eb04a-a71e-40c5-b345-ff213c481d77{fill:#9bd3d5;}.\39 4c6d59d-5717-4cc4-a048-245897a60723{fill:#2d7cbb;}.bf2b251d-cab9-4605-971a-0fa7f96874ca{fill:#c6368b;}</style> </defs> <title>Asset 9</title> <g id="038bbb5c-768e-4394-9480-0535bda27c41" data-name="Layer 2"> <g id="59ff71f2-02e1-4a8d-b8ec-ac31d79d54e1" data-name="Слой 2"> <path class="8052565e-9580-414a-9fa7-d9506ec4f3e5" d="M967.993,1137.023v-41.661h22.163C982.487,1108.687,975.006,1122.622,967.993,1137.023Z"></path> <path class="8052565e-9580-414a-9fa7-d9506ec4f3e5" d="M995.907,1035.418H944.192V974.632H1074.18a904.935,904.935,0,0,0-78.273,110.911Z"></path> <path class="8052565e-9580-414a-9fa7-d9506ec4f3e5" d="M997.216,1272.293l-30.533.9v-33.771C977.063,1250.865,987.491,1262.156,997.216,1272.293Z"></path> <path class="8052565e-9580-414a-9fa7-d9506ec4f3e5" d="M1260.749,1192.058l3.988,16.654s-4.006,1.852-3.988,3.117c.538,36.612,13.6,62.349,13.6,62.349H1104.394c4.208-15.009-4.449-38.822-14.736-39.991-38.763-4.254-46.618-9.3-55.5-28.569-1.216-2.618-8.137-10.894-10.521-11.223-16.413-2.2-41.429-24.407-55.642-45.448v-7.481l62.609,43.625S1165.36,998.806,1167.23,993.8l7.247-19.171h47.787c.047,22.21,2.571,98.66,31.563,217.426Z"></path> <path class="2ad8c006-91e2-4e7d-aaa0-2822cd74faa5" d="M1021.717,1194.068c-17.767-3.881-44.046-28.569-56.951-50.171l4.021-4.63,51.481,36.66A54.49,54.49,0,0,0,1021.717,1194.068Z"></path> <path class="b8299278-423f-4567-bd26-d03cacfdba0d" d="M923.381,1185.337c2.2-2.05,29.946-28.535,43.188-40.862,13.246,22.541,41.365,48.656,59.213,51.031,2.4.319,9.312,8.637,10.515,11.235,8.92,19.25,16.747,24.338,55.52,28.591,11.172,1.226,21.042,25.365,13.938,40.4L999.4,1271.191c-19.978-19.289-71.167-71.762-75.623-76.194-1.593-1.584-3.313-3.5-3.056-5.667C920.911,1187.7,922.18,1186.454,923.381,1185.337Z"></path> <path class="3b02502b-fb5a-4874-bf83-809d9ab0f4bd" d="M1346.268,1171.063l-92.441,20.995c-34.836-142.519-31.469-224.16-31.469-224.16s-12.3-17.862-28.569-44.186L1167.23,993.8c-1.87,5-136.628,191.288-136.628,191.288l-64.246-44.747c50.92-105.955,127.229-188.2,127.229-188.2s-1.075-109.181,5-174.97c8.931.514,20.293,1.169,25.531,1.356,2.244.093,35.115.514,37.5.514,7.575,0,15.477-.187,23.519-.468,2.338-.046,22.631-1.075,30.533-1.729,2.338-.187,12.3-1.122,14.963-1.4,5.191-.561,10.38-1.216,15.524-1.965.841-.139,2.758-7.247,2.758-7.247l4.163-21.275,3.46-6.312,14.26-2.057,2.665,8.369,3.227,10.054.981,3.086,30.955,180.767Z"></path> <path class="8052565e-9580-414a-9fa7-d9506ec4f3e5" d="M1559.954,1191.5a147.423,147.423,0,0,1-198.63,61.768c30.065-8,60.085-16.366,89.823-25.623,1.823-.562,3.927-1.357,4.629-3.133a6.987,6.987,0,0,0,.327-2.2c.094-4.068-4.208-31.188-11.83-36.612-8.931-6.359-23.566-2.525-34.32.795-33.854,10.38-39.745,5.564-59.618-3.554-2.618-1.215-5.8-.7-8.6.047a13.89,13.89,0,0,0-5.7,2.478c-9.305-3.366-16.085-6.313-16.085-6.313l26.325-8.089-24.175-149.112A147.363,147.363,0,0,1,1559.954,1191.5Z"></path> <path class="15c00cf9-0692-4d65-afe8-499a05150f63" d="M1467.919,1172.69q-7.52,14.239-26.165,17.4-17.122,2.779-35.7-4.672l-8.105,15.347-16.584-8.758,8.1-15.347q-17.389-11.549-24.909-27.585t-.292-29.717l1.174-2.219,17.854,9.429q-5.856,11.1-.228,23.292t20.68,20.152q14.794,7.815,27.69,5.638t18.274-12.346q6.446-12.205-2.187-25.512-5-7.843-18.384-18.937-17.4-14.629-24.069-25.483-10.521-17.145-2.219-32.863,6.74-12.768,21.891-16.111t32.713,3.558l8.1-15.348,16.581,8.759-8.1,15.347q17.582,11.191,24.082,26.675,6.5,15.5-.53,28.809l-17.859-9.429q5.467-10.356.019-21.042t-18.973-17.826q-12.76-6.739-23.886-4.813A21.869,21.869,0,0,0,1420.476,1071q-5.276,9.985,1.589,20.475,4.521,6.876,17.5,17.521,17.748,14.575,25.457,27.16Q1476.9,1155.683,1467.919,1172.69Z"></path> <path class="707d99de-f39f-41d9-8ca7-909e684a642c" d="M742.71,148.458V300.236c0,7.574-5.7,13.793-12.765,13.793H722.09v917.306c0,24.314-17.862,44.047-39.885,44.047h-572c-22.023,0-39.884-19.733-39.884-44.047V46.1c0-24.36,17.861-44.092,39.884-44.092h572c22.023,0,39.885,19.732,39.885,44.092v88.561h7.855C737.006,134.664,742.71,140.836,742.71,148.458Z"></path> <rect class="e5e8ade2-f972-4041-8a65-8a64773f8396" x="97.665" y="64.849" width="597.072" height="1158.007" rx="14.521" ry="14.521"></rect> <rect class="6f68b57a-18d5-4cf7-a5d5-22ebde5f66f4" x="304.193" y="33.391" width="167.479" height="7.014"></rect> <path class="e5e8ade2-f972-4041-8a65-8a64773f8396" d="M694.736,79.349V1208.33a14.528,14.528,0,0,1-14.542,14.542H112.174a14.519,14.519,0,0,1-14.5-14.542V79.349a14.508,14.508,0,0,1,14.5-14.5h568.02A14.517,14.517,0,0,1,694.736,79.349Z"></path> <path class="8052565e-9580-414a-9fa7-d9506ec4f3e5" d="M694.736,1040.28v104.037a146.988,146.988,0,0,1-69.67,78.555H488.625c-.374-.188-.794-.421-1.169-.654A147.366,147.366,0,0,1,607.205,953.73c-.234.562-.515,1.169-.749,1.824-1.5,3.553-3.319,8.51-5.423,14.916q-.7,2.1-1.4,4.489a6.37,6.37,0,0,0-.328,1.122c-.8,2.665-1.637,5.518-2.478,8.557a2.991,2.991,0,0,0-.187.608c-.327,1.309-.7,2.712-1.076,4.114-2.478,9.352-5,20.434-7.481,33.433-1.075,5.61-2.1,11.549-3.132,17.908-1.846,11.409-3.763,22.939-4.723,34.461-.415,4.979-1.176,9.933-1.59,14.916-1.479,17.788-3.077,35.564-3.928,53.4-.24,5.066-.527,10.128-.7,15.2-.14,4.114-.28,8.322-.421,12.578l10.614.654,42.784,2.572,45.076-174.222A146.816,146.816,0,0,1,694.736,1040.28Z"></path> <path class="15c00cf9-0692-4d65-afe8-499a05150f63" d="M573.585,1171.251c.141-4.256.281-8.464.421-12.578.14-3.414.281-6.734.421-10.053.093-1.73.187-3.461.28-5.145-.7.282-1.4.515-2.15.75q-16.2,5.12-28.851.56-12.694-4.558-16.458-16.506l-19.218,6.079.748,2.385c3.086,9.866,10.24,16.739,21.368,20.667s23.52,4.488,37.127,1.637l5.237,16.552,11.689-3.694ZM537.02,1029.105q14.589-4.63,26.045-.982c7.621,2.385,12.624,7.341,14.962,14.775l6.921-2.2c1.028-6.359,2.057-12.3,3.132-17.908a37.273,37.273,0,0,0-10.941-6.593c-10.381-4.162-22.35-4.723-35.911-1.59l-5.237-16.552-17.861,5.658,5.237,16.551q-17.255,7.645-25.53,20.808-8.207,13.116-3.881,26.887c3.6,11.315,11.876,18.469,24.969,21.508q12.414,2.877,35.022.749c10.473-1.077,18.656-1.123,24.641-.141h.047q.139-1.542.28-3.086c.375-3.226.7-6.406,1.029-9.539.094-.8.187-1.543.281-2.291a146.779,146.779,0,0,0-25.951.7q-16.693,1.753-24.782.141c-8.182-1.637-13.42-6.032-15.711-13.234a22.1,22.1,0,0,1,3.04-20.058Q523.272,1033.454,537.02,1029.105Z"></path> <path class="8052565e-9580-414a-9fa7-d9506ec4f3e5" d="M112.174,1222.872a14.519,14.519,0,0,1-14.5-14.542v-86.737c40.961-52.369,96.416-123.535,97.585-126.621l7.014-18.517A146.864,146.864,0,0,1,256.049,990.2c1.137.541-.072,21.26-.01,23.33a500.709,500.709,0,0,0,11.653,91.93c.977,5.858,2.617,11.605,4.115,17.346a553.523,553.523,0,0,0,30.112,86.411l3.694,4.768c.608.889,1.262,8.09,1.964,8.885Z"></path> <path class="15c00cf9-0692-4d65-afe8-499a05150f63" d="M256.1,1095.876c2.2-9.773-.187-19.077-7.061-27.914q-10.38-13.257-30.252-19.4l3.74-16.927-18.282-4.068-3.788,16.926c-12.531-1.355-23.332.374-32.5,5.237-9.165,4.817-14.775,11.877-16.833,21.276-2.618,11.6,1.029,21.976,10.8,31.141,6.173,5.8,16.179,11.876,29.926,18.236q15.851,7.152,22.724,13.419,11.854,10.519,8.838,24.034-2.526,11.221-14.355,16.692-11.853,5.543-28.195,1.871c-11.082-2.478-19.5-7.107-25.25-13.981q-8.7-10.239-5.938-22.537l-19.732-4.349-.514,2.432q-3.367,15.079,8.089,28.569c7.668,9.025,18.1,15.664,31.328,20.059l-3.787,16.927,18.329,4.068,3.74-16.927q19.92,2.315,35.677-4.909,17.184-8,20.667-23.707c2.759-12.484-1.356-23.987-12.438-34.461q-10.8-10.1-31.749-19.5c-10.193-4.535-17.347-8.65-21.462-12.251q-9.4-8.346-6.967-19.357a21.871,21.871,0,0,1,12.719-15.805c6.779-3.18,14.916-3.741,24.267-1.637q14.94,3.3,23,12.157c5.378,5.939,7.248,12.672,5.565,20.293Z"></path> <path class="60189048-9927-4017-9b4d-5af6823defa5" d="M490.823,1221.282s-11.409,3.133-28.242,8.369l-147.57,43.626s-17.815-28.756-13.466-53.07c.655-3.694,1.964-6.126,3.694-7.622l.374,1.4c8.978,13.841,37.313,12.112,42.55,4.209,13.794-20.714,24.735-26.605,27.307-27.727a3.145,3.145,0,0,1,.561-.235s52.369,8.51,72.756-.981C479.928,1174.711,490.823,1221.282,490.823,1221.282Z"></path> <path class="2ad8c006-91e2-4e7d-aaa0-2822cd74faa5" d="M376.031,1190.234c-.047,0-12.11,4.3-27.868,27.962-5.237,7.9-33.572,9.632-42.55-4.209l-1.449-5.47,67.8-21.088-.561-3.32Z"></path> <path class="4e18d7fa-a6cb-4aa2-924d-8055572c9c26" d="M371.963,1187.429l-70.045,21.789c-2.993-4.278-4.273-9.475-6.153-14.276-2.1-5.35-4.307-10.651-6.331-16.03q-6.015-15.981-11-32.325a531.3,531.3,0,0,1-15.669-66.448c-5.17-30.639-8-61.808-6.635-92.89.121-2.728.269-5.456.522-8.176,0,0-15.477-22.163-35.022-53.632l-26.372,69.531c-1.169,3.086-56.624,74.252-97.585,126.621V983.329c15.1-18.7,25.063-29.411,25.063-29.411s.337-71.274.514-80.705c.459-24.375,1.122-48.863,2.946-73.177.772-10.05,1.5-20.1,2.665-30.113.722-6.2,1.563-12.442,2.806-18.563a56.215,56.215,0,0,1,2.338-9.445c2.287-6.608,7.305-.691,14.668-1.621,41.507-25.953,30.874-29.333,30.874-29.333,88.257,26.466,118.813,19.171,118.813,19.171l3.554,21.976,32.45,217.38Z"></path> <path class="3b02502b-fb5a-4874-bf83-809d9ab0f4bd" d="M506.627,650.83s.515-3.04,1.45-8.323c.327-2.011.748-4.3,1.215-6.921.468-2.712.982-5.8,1.59-9.07l-91.693-47.788-76.4-109.554-.608-.842s-1.917-2.853-4.535-6.172a61.152,61.152,0,0,0-7.248-8.043l-20.574-9.632-.8,2.852-4.4,15.477a1.117,1.117,0,0,1-.093.374l-1.684,5.986-2.478,8.79a1.42,1.42,0,0,1-.093.327s-1.73-1.449-4.536-3.834c-1.169-.982-2.478-2.1-3.928-3.319-.748-.609-1.5-1.263-2.291-1.964-2.478-2.1-5.283-4.49-8.182-7.014-2.666-2.291-5.472-4.723-8.277-7.2-1.122-1.029-2.291-2.058-3.46-3.039-.233-.234-.468-.468-.748-.7-1.356-1.216-2.759-2.478-4.115-3.694-2.712-2.384-5.33-4.769-7.715-7.013-.468-.421-.935-.842-1.356-1.263q-2.034-1.893-3.787-3.647c-.8-.8-1.543-1.5-2.2-2.2a44.288,44.288,0,0,1-3.04-3.32,14.4,14.4,0,0,1-1.5-1.776.985.985,0,0,0-.14-.234,1.633,1.633,0,0,1-.234-.374c-.654-.935-.748-1.5-.28-1.637a14.732,14.732,0,0,1-5.377.468s-10.615,1.309-14.963,1.543c-12.017.7-35.957,5.19-35.957,5.19-7.2,1.215-17.722,6.687-29.692,14.4a.046.046,0,0,1-.047.047c-14.5,9.352-31.188,22.117-46.9,34.929-2.245,1.823-4.489,3.647-6.687,5.471q-2.525,2.034-4.909,4.068c-.748.608-1.543,1.262-2.292,1.87V685.618l6.173-4.3,3.319-2.244,35.35-24.455.888-.607-41.054-80.518s15.29-9.072,31.609-18.984c16.459-10.007,36.472-22.351,52.7-32.872C169.78,573.024,156.08,650.6,155.8,650.971c-1.543,3.272-2.992,6.171-4.489,8.7,1.777.842,3.647,1.683,5.378,2.525,1.5.7,2.9,1.4,4.067,1.964h.047c1.263.7,2.244,1.216,2.712,1.543,4.536,3.18,7.108,8.136,10.474,12.344.421.561.888,1.122,1.356,1.637l.187.187a20.906,20.906,0,0,0,3.788,3.226,51,51,0,0,0,5.283,2.758,23.237,23.237,0,0,1,2.1,1.123A17.057,17.057,0,0,1,188.2,688c1.449,1.122,2.665,3.039,1.543,4.442a4.56,4.56,0,0,1-1.917,1.075,22.96,22.96,0,0,1-8.885,1.169h-.14a22.817,22.817,0,0,1-10.286-2.946,6.433,6.433,0,0,1-.655-.327l9.3,13.232a19.07,19.07,0,0,1,2.385,6.313c10.427,3.414,19.826,6.219,26.325,7.855,51.762,13.046,77.853,12.906,87.672,11.97a5.726,5.726,0,0,0,.935-.093,19.9,19.9,0,0,0,2.525-.327h.094a7.666,7.666,0,0,0,.842-.141.425.425,0,0,1,.233-.046.742.742,0,0,1,.187-.047l8.651-42.738s20.339-52.6,31.468-108.853l44.748,48.816c6.78,7.388,75.187,42.082,107.264,58.12a49.793,49.793,0,0,1,5.1-11.736c1.356-2.2,3.741-5.7,6.5-9.585,1.636-2.245,3.413-4.63,5.143-7.014,1.59-2.2,3.18-4.348,4.676-6.312Z"></path> <path class="2ad8c006-91e2-4e7d-aaa0-2822cd74faa5" d="M189.746,692.445a6.029,6.029,0,0,1-1.917,1.075c-8.277,3.935-19.966-2.1-19.966-2.1l9.3,13.232a19.07,19.07,0,0,1,2.385,6.313c.842,4.255.234,8.838-3.554,10.614,0,0-34.741,19.966-37.64,18.656-.982-.42-5-2.757-6.031-3.46-6.641-4.629-13.841-12.063-17.722-19.872-2.946-5.938-5.7-24.407-6.967-33.946-.234-1.59-.374-2.9-.468-3.881l35.35-24.455.888,1.5s17.488,7.762,20.106,9.586c6.593,4.629,9.025,12.952,15.8,17.394,2.805,1.824,6.219,2.852,8.884,4.91C189.652,689.125,190.868,691.042,189.746,692.445Z"></path> <path class="2ad8c006-91e2-4e7d-aaa0-2822cd74faa5" d="M258.574,378.93c-3.18-5.658-9.165-13.794-20.013-25.343a11.229,11.229,0,0,1-1.309-1.73l-.046-.047a26.489,26.489,0,0,1-1.918-4.3,6.358,6.358,0,0,1-.233-.888,13.124,13.124,0,0,1,2.431-10.521c4.068-5.143,12.671-6.593,17.207-1.917a42.684,42.684,0,0,1,4.3,6.406C259.416,350.594,258.34,364.528,258.574,378.93Z"></path> <path class="2ad8c006-91e2-4e7d-aaa0-2822cd74faa5" d="M309.12,447.337c.561,1.87-8.837,30.954-8.837,30.954S239.45,427.465,244.5,426.062c8.276-2.291,13.7-22.35,15.524-27.353.374,2.477.794,4.956,1.355,7.388,4.443,19.264,26.372,25.717,45.216,27.634C305.847,441.352,306.034,447.337,309.12,447.337Z"></path> <path class="2ad8c006-91e2-4e7d-aaa0-2822cd74faa5" d="M371.916,363.64c-1.4,4.162-8.6,9.024-11.689,11.456-11.409,9.071-19.4,3.413-32.5,2.945-10.053-.327-24.267,2.853-34.32,2.2a26.106,26.106,0,0,1-20.948-13.7c-3.132-5.892-1.87-15.711-1.917-22.07,0-.561-.28-3.086-.374-3.787v-.094c-1.59-16.178,8.416-23.52,16.319-28.008,12.25-6.874,28.2-3.414,40.866-1.076a59.289,59.289,0,0,0,22.959-.14,171.015,171.015,0,0,0,18.189-4.629,3.43,3.43,0,0,1,.187.655,120.241,120.241,0,0,1,2.9,13.746c.888,5.752,1.5,11.97,1.87,18.7A99.633,99.633,0,0,1,371.916,363.64Z"></path> <path class="8c0eb2de-af27-4cf2-8e8a-495014913d1a" d="M348.943,371.857a14.387,14.387,0,0,0,12.6,15.949,10.272,10.272,0,0,0,2.267.06,88.214,88.214,0,0,0,8.336-25.563,13.906,13.906,0,0,0-7.25-3.042A14.359,14.359,0,0,0,348.943,371.857Z"></path> <path class="6f68b57a-18d5-4cf7-a5d5-22ebde5f66f4" d="M332.229,372.711c-2.906,0-5.787-.6-7.835-2.4a3.508,3.508,0,0,1,4.644-5.258c.819.719,4.324,1.091,9.566-.338L335.4,338.407a3.508,3.508,0,0,1,6.964-.849l3.258,26.73a6.668,6.668,0,0,1-5.032,7.153A32.568,32.568,0,0,1,332.229,372.711Z"></path> <path class="6f68b57a-18d5-4cf7-a5d5-22ebde5f66f4" d="M353.5,352.122a3.366,3.366,0,0,1-3.486-3.809l.609-5.187a3.466,3.466,0,0,1,3.891-3.073,3.506,3.506,0,0,1,3.075,3.891s-.61,5.172-.612,5.187A3.273,3.273,0,0,1,353.5,352.122Z"></path> <path class="6f68b57a-18d5-4cf7-a5d5-22ebde5f66f4" d="M310.059,349.165a3.364,3.364,0,0,1-3.49-3.806l.612-5.187a3.506,3.506,0,0,1,6.964.817s-.608,5.174-.61,5.188A3.276,3.276,0,0,1,310.059,349.165Z"></path> <path class="8c0eb2de-af27-4cf2-8e8a-495014913d1a" d="M284.079,367.974a14.371,14.371,0,1,0,15.949-12.6A14.371,14.371,0,0,0,284.079,367.974Z"></path> <path class="6f68b57a-18d5-4cf7-a5d5-22ebde5f66f4" d="M303.727,328.571a3.506,3.506,0,0,1-.425-6.986,112.907,112.907,0,0,1,15.594-.849,4.038,4.038,0,0,1,3.564,2.493,3.651,3.651,0,0,1-1.231,4.032,3.719,3.719,0,0,1-3.536.477C313.149,327.731,303.871,328.571,303.727,328.571Z"></path> <path class="6f68b57a-18d5-4cf7-a5d5-22ebde5f66f4" d="M361.047,327.318c-1.924.021-4.025-.962-5.9-1.359a32.43,32.43,0,0,0-6.356-.685,3.565,3.565,0,0,1-3.591-3.422,3.509,3.509,0,0,1,3.422-3.591c4.7-.13,9.283,1.1,13.32,2.164a3.507,3.507,0,0,1,2.493,4.287A3.571,3.571,0,0,1,361.047,327.318Z"></path> <path class="d4e35d9c-d562-4199-9194-f6269438554f" d="M259.072,440.515c2.35,2.384,4.7,4.769,7.139,7.013H165.569c1.611-1.262,3.222-2.571,4.832-3.88,1.35-1.076,2.655-2.151,4.048-3.133Z"></path> <path class="d4e35d9c-d562-4199-9194-f6269438554f" d="M282.086,462.164a61.7,61.7,0,0,1,8.035,7.014H133.745l9.26-7.014Z"></path> <path class="d4e35d9c-d562-4199-9194-f6269438554f" d="M345.373,469.178H302.449c.888-2.291,1.683-4.629,2.431-7.014h35.069C341.866,464.409,343.643,466.793,345.373,469.178Z"></path> <path class="d4e35d9c-d562-4199-9194-f6269438554f" d="M354.07,490.873H107.092l9.45-7.013H349.684C351.146,486.2,352.563,488.536,354.07,490.873Z"></path> <path class="d4e35d9c-d562-4199-9194-f6269438554f" d="M368.471,512.523H95.944c-.321-2.338-.595-4.676-.916-7.014H363.756C365.313,507.847,366.869,510.232,368.471,512.523Z"></path> <path class="d4e35d9c-d562-4199-9194-f6269438554f" d="M383.411,534.172H186.246l2.858-7.014H379.8C381.314,529.5,381.927,531.787,383.411,534.172Z"></path> <path class="d4e35d9c-d562-4199-9194-f6269438554f" d="M135.548,549l-11.062,7.014H97.992c-.047-1.59-.093-3.227-.187-4.863-.047-.7-.093-1.449-.14-2.151Z"></path> <path class="d4e35d9c-d562-4199-9194-f6269438554f" d="M398.315,555.821l-217.571.047,1.487-7.014H393.679A51.531,51.531,0,0,0,398.315,555.821Z"></path> <path class="d4e35d9c-d562-4199-9194-f6269438554f" d="M414.457,577.517H174.719l1.545-7.014H409.776a43.013,43.013,0,0,0,4.045,6.266A9.555,9.555,0,0,0,414.457,577.517Z"></path> <path class="d4e35d9c-d562-4199-9194-f6269438554f" d="M111.24,599.149l-13.575-.076s-.141-4.286,0-6.624l10.052-.224Z"></path> <path class="d4e35d9c-d562-4199-9194-f6269438554f" d="M171.189,592.152H331.345c-.221,2.385-.486,4.676-.883,7.014H169.688Z"></path> <path class="d4e35d9c-d562-4199-9194-f6269438554f" d="M448.942,599.166H362.177q-2.4-2.735-4.808-5.471l-1.335-1.543h81.245A105.732,105.732,0,0,0,448.942,599.166Z"></path> <path class="d4e35d9c-d562-4199-9194-f6269438554f" d="M97.665,621.088c.172-.7,0-7.209,0-7.209l21.465-.031,2.933,7.014Z"></path> <path class="d4e35d9c-d562-4199-9194-f6269438554f" d="M166.583,613.848H326.108c-.525,2.385-1.181,4.723-1.924,7.014H165.1Z"></path> <path class="d4e35d9c-d562-4199-9194-f6269438554f" d="M491.831,620.991l-110.871-.129c-1.876-2.244-3.717-4.629-5.522-7.014H480.631Z"></path> <path class="d4e35d9c-d562-4199-9194-f6269438554f" d="M133.978,642.511H96.852q.069-3.507.421-7.014H130.8Z"></path> <path class="d4e35d9c-d562-4199-9194-f6269438554f" d="M162.286,635.5H320.54l-1.188,3.788c-.307,1.075-.615,2.15-.835,3.226H160.791Z"></path> <path class="d4e35d9c-d562-4199-9194-f6269438554f" d="M512.16,639a3.486,3.486,0,0,1-2.526,3.413,4.319,4.319,0,0,1-.771.094H414.038a110.433,110.433,0,0,1-9.633-7.014H508.863a3.141,3.141,0,0,1,1.841.608A3.458,3.458,0,0,1,512.16,639Z"></path> <path class="d4e35d9c-d562-4199-9194-f6269438554f" d="M156.551,657.146l157.306.18c-.228,1.309-2.532,5.806-2.761,6.834H156.715C156.682,662.617,156.584,657.941,156.551,657.146Z"></path> <path class="d4e35d9c-d562-4199-9194-f6269438554f" d="M512.16,660.653a3.357,3.357,0,0,1-3.253,3.507H455.892c-.465-.327-.887-.607-1.352-.889a114.97,114.97,0,0,0-11.152-6.125h65.519A3.386,3.386,0,0,1,512.16,660.653Z"></path> <path class="d4e35d9c-d562-4199-9194-f6269438554f" d="M175.3,678.843H305.88c-.539,2.338-1.078,4.675-1.645,7.013H178.162C178.19,684.594,175.332,680.807,175.3,678.843Z"></path> <path class="d4e35d9c-d562-4199-9194-f6269438554f" d="M300.594,700.491c-.435,2.338-.869,4.676-1.222,7.014H182.208l-4.046-7.014Z"></path> <path class="8052565e-9580-414a-9fa7-d9506ec4f3e5" d="M364.9,263.343c-50.827-76.59-130.6-20.106-126.342-.608-14.355,5.8-44.42,27.681-23.051,80.8,5.377,13.326,22.163,38.388,43.531,46.337a114.947,114.947,0,0,0,2.338,16.226c5.471,23.659,37.267,27.961,57.373,28.381,28.195.562,48.161-24.127,50.733-50.452.561-5.938,1.917-14.588,2.572-20.807-1.029,4.255-8.651,9.352-11.83,11.877-11.409,9.071-19.4,3.413-32.5,2.945-10.053-.327-24.267,2.853-34.32,2.2a26.106,26.106,0,0,1-20.948-13.7c-3.132-5.892-1.87-15.711-1.917-22.07,0-.561-.28-3.086-.374-3.787v-.094c-1.59-16.178,8.416-23.52,16.319-28.008,12.25-6.874,28.2-3.414,40.866-1.076a59.289,59.289,0,0,0,22.959-.14,170.582,170.582,0,0,0,18.7-4.816c-.375.7,6.078,33.947,4.582,48.348a19.788,19.788,0,0,0,3.366-4.489,36.4,36.4,0,0,0,3.46-10.567,177.989,177.989,0,0,0,3.648-40.446c-.328.187,2.384-2.245,3.6-3.835C394.828,286.208,398.382,258.621,364.9,263.343ZM258.574,378.93c-3.18-5.658-9.165-13.794-20.013-25.343-4.442-4.769-5.1-12.344-1.075-17.488,4.068-5.143,12.671-6.593,17.207-1.917a42.684,42.684,0,0,1,4.3,6.406C259.416,350.594,258.34,364.528,258.574,378.93Z"></path> <path class="6f68b57a-18d5-4cf7-a5d5-22ebde5f66f4" d="M323.357,398.544a20.945,20.945,0,0,1-5.614-.77,17.957,17.957,0,0,1-9.605-6.514,5.705,5.705,0,0,1-1.313-3.233,3.465,3.465,0,0,1,5.237-2.919,11.035,11.035,0,0,1,2.37,2.64c3.714,4.511,10.214,4.4,15.249,2.559,2.785-1.02,3.565-2.86,5.515-4.8,2.408-2.4,6.014.339,5.6,3.311a7.434,7.434,0,0,1-2.381,4.11,19.818,19.818,0,0,1-8.991,4.847A23.9,23.9,0,0,1,323.357,398.544Z"></path> <path class="0f301df8-3afc-443f-9a1f-1b0ecaafa8e1" d="M920.813,1249.477l-59.29,9.82c-7.482,1.216-15.009-1.731-20.62-7.482-5.8-5.891-13.186-10.567-20.574-14.215l1.871,28.2-17.581,2.946L793.63,1227.5c-16.424-6.968-5.972-38.572,2.151-48.442,6.686,9.446,26.84,20.153,34.882,22.444,30.112,8.65,34.928.8,27.353-9.959,17.769,17.675,35.21,24.454,47.086,26.932,9.586,2.058,17.207,10.147,19.592,20.481l.654,2.992A6.045,6.045,0,0,1,920.813,1249.477Z"></path> <path class="2ad8c006-91e2-4e7d-aaa0-2822cd74faa5" d="M830.663,1201.5c-8.79-2.525-32.077-15.1-36.425-25.062l46.244-14.308c4.583,10.847,9.632,19.919,15.243,26.465C866.246,1200.755,863.441,1210.948,830.663,1201.5Z"></path> <path class="0f301df8-3afc-443f-9a1f-1b0ecaafa8e1" d="M686.039,1264.206l-.047,3.086a6.017,6.017,0,0,1-6.172,6.266l-59.944-4.255c-7.575-.514-14.168-5.19-18.329-12.064-4.255-7.06-10.381-13.326-16.693-18.609l-4.723,27.867-17.768-1.262-1.122-42.643a33.6,33.6,0,0,1-2.852-2.338c-6.64-13.234,5.377-36.1,16.225-44.327,4.3,10.754,21.415,25.9,28.71,30.018,27.587,15.571,33.9,8.7,28.756-3.741,13.186,21.6,28.663,32.311,39.7,37.6C680.568,1244.007,686.133,1253.639,686.039,1264.206Z"></path> <path class="2ad8c006-91e2-4e7d-aaa0-2822cd74faa5" d="M630.724,1199.212c7.341,14.262,2.291,23.519-27.4,6.733-8.417-4.769-30.019-24.267-29.739-34.694l50.266,3.039C625.019,1183.922,627.217,1192.386,630.724,1199.212Z"></path> <path class="60189048-9927-4017-9b4d-5af6823defa5" d="M840.482,1162.133l-54.941,17.019C733.452,1040.421,739.11,967.9,739.11,967.9c-.281-.421-18.329-36.05-39.558-78.087l-15.523,64.107-57.046,220.559-53.4-3.226c4.816-165.9,36.238-223.178,36.238-223.178-.421.14,6.032-92.769-6.967-171.37-2.712-16.365-28.242-52.556-1.964-88.98l.234.092a.356.356,0,0,0,.093-.186c5.237,9.679,55.082,21.695,78.18,25.389,48.349,7.668,67.613,3.32,74.253.7l8.323,44.56L812.1,969.535Z"></path> <path class="2ad8c006-91e2-4e7d-aaa0-2822cd74faa5" d="M928.949,693.146c-.515,1.543-8.183,5.892-11.128,6.5-4.022.8-19.639.188-19.639.188,5.471,4.909,30.673,46.15,21.649,52.883-13.7,9.445-30.206,14.729-38.389,4.256C867.835,743.645,849.647,719.845,846,703.2l38.342-29.972c4.77.514,9.352,1.309,11.269,2.1,2.712,1.122,21.042,14.215,29.224,12.9C929.37,687.488,930.585,688.424,928.949,693.146Z"></path> <path class="1ce34f33-d8c5-47ef-a338-f73c81d05dae" d="M827.811,604.492l-8.605-9.538-13.653-60.226c12.392-17.627,19.873-52.79-26.371-115.118-2.338-3.18-6.546-4.4-10.427-4.4h-5.144s17.16,59.337-52.837-2.385c0,0,.655-1.916,1.543-5.143a79.366,79.366,0,0,0-8.6,3.086c-7.575-.047-20.527.187-31.562,4.442-53.865,20.714-133.916,76.17-136.254,85.241-10.848,42.41-29.271,150.375-29.271,150.375h50.219L577.84,525.8c2.011-1.777,52.6-25.624,80.331-37.734,9.165,109.7-4.162,117.738-27.214,147.429-9.257,11.877-27.072,41.054-30.065,49.61-3.507,9.96,53.352,23.894,78.507,27.915,60.646,9.632,75.562.328,77.105-.794-.234-2.291,17.675-89.355,17.675-89.355l69.576,82.107L887.521,670.7Zm-148.552-131.2a.5.5,0,0,1-.327-.14l.561-.374Z"></path> <path class="2ad8c006-91e2-4e7d-aaa0-2822cd74faa5" d="M573.866,674.817l-18.049,44c-1.636,4.022-5.564,6.266-8.744,4.956l-6.873-2.8a9.657,9.657,0,0,1-2.1-1.263c-3.414,4.3-8.884,8.136-13.327,5.7L491.01,712.738c-5.564-3.086-3.928-25.062,4.582-39,2.9-4.723,10.521-15.149,16.319-22.911h44.935l1.075-6.406,1.356,5.938c1.216,1.778,2.244,6.266,2.992,11.363a10.218,10.218,0,0,1,1.965.561l6.873,2.805C574.287,666.4,575.5,670.749,573.866,674.817Z"></path> <path class="6f68b57a-18d5-4cf7-a5d5-22ebde5f66f4" d="M752.354,542.858c-.06,0-.119,0-.18,0a77.033,77.033,0,0,1-33.93-10.909,2.34,2.34,0,0,1,2.429-4,72.153,72.153,0,0,0,31.857,10.242,2.339,2.339,0,0,1-.176,4.671Z"></path> <path class="e32eb04a-a71e-40c5-b345-ff213c481d77" d="M1344.865,345.684l3.225,9.96-2.9,1.029c-6.125,2.2-9.539,8.884-8.369,15.758-.977.454-7.494-2.957-14.963,5.891l-4.443-13.747-9.21,6.827c-13.093,9.725-31.236,7.341-40.587-5.237l-.374-.468c-9.352-12.624-6.36-30.673,6.733-40.4l33.386-24.782,80.564-122.18,93.938,126.482Z"></path> <path class="707d99de-f39f-41d9-8ca7-909e684a642c" d="M1371,453.977l-7.013-2.1-23.52-7.107-7.013-2.1-12.672-3.834-6.546,24.454-1.87,7.014-2.385,8.977-7.014,26.279-5,18.75-.374,1.4-1.262-1.4c-5.957-6.62-9.353-15.2-15.212-22.047-7.061-8.253-13.875-16.724-20.19-25.564-3.051-4.415-18.6-21.036-23.45-25.091-4.185-3.5-8.71-7.583-14.186-8.8-.84-.187-1.729-.374-2.711-.514-2.417-.346-4.82-.791-7.244-1.119a19.386,19.386,0,0,0-5.6-.071c1.118,4.156,4.294,8.4,6.294,12.271q6.178,11.943,12.344,23.894c2.053,3.991,3.95,8.065,5.892,12.11a149.292,149.292,0,0,1,7.48,17.488c18.844,56.2,26.793,229.771,26.793,229.771l-14.214,2.01s-42.5-191.476-53.445-220.372c-10.941-28.943-67.659-77.385-67.659-77.385s-3.507-.468-4.349-.094c-4.826,2.1-9.191,5.121-13.943,7.384-5.45,2.595-11.115,4.71-16.59,7.252a65.948,65.948,0,0,0-7.013,3.6c-4.792,2.9-16.459,22.584-17.489,28.523-1.075,2.01-2.2,4.114-3.272,6.265q-7.527,15.053-14.309,30.487-1.542,3.436-3.086,7.013c-3.319,7.716-6.639,15.664-9.866,23.52-.981,2.338-1.917,4.676-2.852,7.014-1.076,2.665-2.1,5.283-3.132,7.855-3.039,7.53-5.933,15.115-8.885,22.678-6.8,17.767-14.863,35.643-19.872,54.006a41.4,41.4,0,0,0-1.357,7.013,39.576,39.576,0,0,0,5,23.52,41.735,41.735,0,0,0,5.05,7.013c3.729,4.185,8.248,7.127,13.046,9.914l7.014,4.021,23.472,13.56,5.144,2.992,25.39,14.636s7.013,4.067,7.06,4.114c-.374,1.637-.8,3.226-1.169,4.769-.561,2.291-6.266,24.642-7.528,30.487a58.61,58.61,0,0,0-1.31,7.014,8.016,8.016,0,0,0-.14.982s28.57,1.776,37.875,2.1c2.244.093,35.115.514,37.5.514,7.575,0,15.477-.187,23.519-.468,2.338-.046,22.631-1.075,30.533-1.729,2.338-.187,12.3-1.122,14.963-1.4,5.191-.561,10.38-1.216,15.524-1.965.841-.139,2.758-7.247,2.758-7.247l4.163-21.275,3.46-6.312,12.374-1.411,2.062,8.813,1.5,9.5,8,11.293c1.076-.28,3.251-1.154,4.935-1.668,0,0-4.467-36.3-5.215-38.217,0,0-3.413-79.676-3.367-80.564.375-6.967,1.123-45.871.935-54.006,0-1.917-.047-3.834-.094-5.8l1.778.842,10.708,4.956,12.811,5.938.889.421a31.793,31.793,0,0,0,6.125,2.151,31.464,31.464,0,0,0,23.473-3.6,30.916,30.916,0,0,0,6.265-4.862c0-.047.748-2.432.748-2.432l1.45-4.629,7.247-23.519,2.2-7.014,7.248-23.52,2.2-7.013,3.18-10.334,4.068-13.139,2.151-7.014.794-2.478,6.5-21.088,1.963-6.219,2.105-6.873Zm-267.644,213.4-7.014-3.927-7.013-3.929-10.9-6.125-4.161-2.338s.842-1.683,2.385-4.675c2.478-4.91,6.733-13.327,11.83-23.519.28-.562.56-1.17.842-1.731.887-1.73,1.729-3.46,2.618-5.284,1.449-2.852,2.9-5.8,4.395-8.837,2.338-4.769,4.77-9.679,7.154-14.635h.046v-.047c1.122-2.338,2.246-4.629,3.368-6.967C1107.332,584.526,1103.311,663.548,1103.358,667.382Z"></path> <path class="2ad8c006-91e2-4e7d-aaa0-2822cd74faa5" d="M1217.915,748.415l-18.282,32.777c-4.068,5.33-27.213,2.618-40.82-6.592-5.377-3.6-16.272-17.208-22.584-25.391a92.06,92.06,0,0,0,3.366-10.147,119.974,119.974,0,0,1,8.511-20.947c2.338-4.582,5.049-9.071,6.826-13.841,3.928-.092,18.1-.28,22.912.235,8.463.887,14.962,7.107,23.473,7.761,3.507.234,7.2-.561,10.707,0,1.917.281,4.021,1.4,3.694,3.18a4.945,4.945,0,0,1-1.216,1.917,26.156,26.156,0,0,1-19.5,8.042l15.337,7.248C1215.578,735.462,1221.89,743.037,1217.915,748.415Z"></path> <path class="2ad8c006-91e2-4e7d-aaa0-2822cd74faa5" d="M1374.323,409.463c-5.565-14.729-17.3-49.05-17.3-49.05-1.356-3.88-5.284-6.031-8.791-4.816l-3.039,1.076c-6.125,2.2-9.539,8.884-8.369,15.758-.936.42-1.59.654-1.684.42-3.367-1.4-7.434.047-11.176,5.331-.607-2.1-16.6,40.539-3.179,57.139,1.636,2.01,4.489,3.974,7.855,5.891.047,0,.047.047.094.047l4.723,1.4,7.013,2.1,23.52,7.107,1.543.467C1369.927,446.028,1383.02,432.515,1374.323,409.463Z"></path> <path class="e32eb04a-a71e-40c5-b345-ff213c481d77" d="M1361.043,421.854c-6.453,0-12.391-4.395-14.682-10.988l-5.939-16.787c-2.338,4.162-5.829,6.553-7.137,8.423.047.421-.091,5.24,0,7.25l3.667,13.667c2.2,6.78,13.056,12.011,19.416,10,3.367-1.122,7.764-5.414,9.167-8.5.374-.749-2.2-2.5-2.017-3.3A10.819,10.819,0,0,1,1361.043,421.854Z"></path> <polygon class="d4e35d9c-d562-4199-9194-f6269438554f" points="97.665 664.502 121.471 664.502 132.421 657.146 97.665 657.146 97.665 664.502"></polygon> <polygon class="d4e35d9c-d562-4199-9194-f6269438554f" points="97.665 534.172 160.249 534.172 171.077 527.158 97.665 527.158 97.665 534.172"></polygon> <path class="60189048-9927-4017-9b4d-5af6823defa5" d="M808.92,285.273c-2.384,4.442-9.025,7.621-13.513,9.866-11.69,5.891-28.85-.421-41.9-1.356-29.738-2.151-44.56,25.67-44.56,25.67-4.255-11.97-16.506-13.653-22.538-8.557-3.133,2.665-4.582,7.155-2.291,13a64.665,64.665,0,0,0,2.853,6.5c4.862,9.632,8.275,10.146,12.951,29.5a102.654,102.654,0,0,1-12.578-10.006c-.093,7.154-.888,14.261-3.553,20.9-5.752,14.121-19.826,23.94-34.929,27.54-15.1,3.554-31.094,1.544-46.01-2.758,13.466-7.3,26.652-18.283,28.663-33.2,1.73-12.905-4.255-26.465-7.014-38.949-2.431-11.082-4.348-22.351-4.629-33.713-.467-21.883,6.406-44,28.522-53.3a48.808,48.808,0,0,1,24.482-3.379,45.214,45.214,0,0,1,12.059,3.106c1.62.673,3.673,2.307,5.349,2.04,1.454-.231,3.892-2.766,5.23-3.577,15.2-9.2,33.511-10.344,50.652-7.168,28.1,5.19,38.062,20.76,40.54,21.649C799.709,253.758,816.729,270.731,808.92,285.273Z"></path> <path class="2ad8c006-91e2-4e7d-aaa0-2822cd74faa5" d="M810.79,320.95a149.229,149.229,0,0,1-2.2,19.17,131.761,131.761,0,0,1-4.863,18.7c-7.575,21.508-20.9,37.359-40.446,39.51l.327,16.88s17.16,59.337-52.837-2.385c0,0,5.658-15.9,5.892-33.151a99.08,99.08,0,0,1-17.582-20.34l.842.561c-4.676-19.358-8.089-19.872-12.951-29.5v-.047a59.071,59.071,0,0,1-2.853-6.453c-2.291-5.844-.842-10.334,2.291-13,6.032-5.1,18.283-3.413,22.538,8.557,0,0,14.822-27.821,44.56-25.67,13.046.935,30.206,7.247,41.9,1.356,4.488-2.245,11.129-5.424,13.513-9.866a.046.046,0,0,1,.047-.047C811.118,295.185,811.585,307.109,810.79,320.95Z"></path> <path class="6f68b57a-18d5-4cf7-a5d5-22ebde5f66f4" d="M770.43,375.706c-4.537,0-9.078-1.168-12.215-3.365-.418-.292-.808-.6-1.2-.906a3.72,3.72,0,0,1-.778-5.073,3.318,3.318,0,0,1,4.74-.738l.415.331c.265.208.541.432.841.642,3.1,2.169,9.5,2.732,13.692,1.208a11,11,0,0,0,3.922-2.405,3.508,3.508,0,0,1,4.913,5.01,18.122,18.122,0,0,1-6.427,3.982A23.265,23.265,0,0,1,770.43,375.706Z"></path> <path class="6f68b57a-18d5-4cf7-a5d5-22ebde5f66f4" d="M718.235,277.391a2.337,2.337,0,0,1-1.6-4.044c5.034-4.724,11.461-7.413,19.646-8.224a2.371,2.371,0,0,1,2.557,2.1,2.336,2.336,0,0,1-2.1,2.557c-7.121.706-12.653,2.989-16.911,6.982A2.327,2.327,0,0,1,718.235,277.391Z"></path> <path class="6f68b57a-18d5-4cf7-a5d5-22ebde5f66f4" d="M639.691,387.593a2.441,2.441,0,0,1-2.413-2.346,2.338,2.338,0,0,1,2.338-2.331c.036.019.05,0,.075,0,14.52,0,23.31-12.221,27.263-19.516a2.337,2.337,0,0,1,4.109,2.229C666.618,373.836,656.634,387.593,639.691,387.593Z"></path> <path class="8c0eb2de-af27-4cf2-8e8a-495014913d1a" d="M756.933,351.371a14.29,14.29,0,1,1-14.29-14.29A14.29,14.29,0,0,1,756.933,351.371Z"></path> <path class="6f68b57a-18d5-4cf7-a5d5-22ebde5f66f4" d="M700.732,333.98a2.329,2.329,0,0,1-1.73-.767c-3.119-3.431-6.265-8.5-6.265-12.082a2.338,2.338,0,0,1,4.676,0c0,1.863,2.265,5.874,5.05,8.94a2.338,2.338,0,0,1-1.731,3.909Z"></path> <path class="6f68b57a-18d5-4cf7-a5d5-22ebde5f66f4" d="M798.261,331.375a3.508,3.508,0,0,1-3.507-3.507v-4.432a3.507,3.507,0,0,1,7.014,0v4.432A3.508,3.508,0,0,1,798.261,331.375Z"></path> <path class="6f68b57a-18d5-4cf7-a5d5-22ebde5f66f4" d="M749.183,333.916a3.508,3.508,0,0,1-3.507-3.507v-4.082a3.507,3.507,0,1,1,7.013,0v4.082A3.507,3.507,0,0,1,749.183,333.916Z"></path> <path class="8c0eb2de-af27-4cf2-8e8a-495014913d1a" d="M805.817,338.432c-.2,1.095-.428,2.189-.661,3.283a131.1,131.1,0,0,1-5.243,18.5c-.678,1.852-1.393,3.662-2.143,5.388-6.051-1.472-10.446-7.494-10.163-14.47.323-7.914,6.5-14.037,13.764-13.742A11.761,11.761,0,0,1,805.817,338.432Z"></path> <path class="0f301df8-3afc-443f-9a1f-1b0ecaafa8e1" d="M651.734,711.947v350.688c-2.338,9.024-4.676,18.1-7.014,27.12v-379.4C647.011,710.919,649.349,711.433,651.734,711.947Z"></path> <path class="0f301df8-3afc-443f-9a1f-1b0ecaafa8e1" d="M680.724,717V950.7q-3.507,13.538-7.014,27.214V715.969C676.048,716.343,678.386,716.717,680.724,717Z"></path> <path class="0f301df8-3afc-443f-9a1f-1b0ecaafa8e1" d="M709.714,719.8V898.7c-2.852-6.593-5.283-12.484-7.014-16.786V719.382Q706.278,719.661,709.714,719.8Z"></path> <path class="0f301df8-3afc-443f-9a1f-1b0ecaafa8e1" d="M738.7,719.662V957.335c-2.151-5.283-5.1-12.11-7.014-14.869V720.083Q735.268,719.942,738.7,719.662Z"></path> <path class="0f301df8-3afc-443f-9a1f-1b0ecaafa8e1" d="M767.741,796.954v326.514c-2.431-8.183-4.722-16.412-7.014-24.642V764.551C763.065,775.305,765.4,786.059,767.741,796.954Z"></path> <path class="0f301df8-3afc-443f-9a1f-1b0ecaafa8e1" d="M796.731,919.181V1176.5c-2.758.654-5.377,1.169-7.013,1.543v-285.8Q793.014,905.292,796.731,919.181Z"></path> <path class="0f301df8-3afc-443f-9a1f-1b0ecaafa8e1" d="M825.721,1087.276v79.643l-7.014,2.338V1040.612C820.485,1054.172,823.2,1071.519,825.721,1087.276Z"></path> <path class="0f301df8-3afc-443f-9a1f-1b0ecaafa8e1" d="M593.753,707.879v30.767C591.462,725.273,591.041,716.3,593.753,707.879Z"></path> <path class="0f301df8-3afc-443f-9a1f-1b0ecaafa8e1" d="M593.753,1007.975v165.287c-2.385-.187-4.769-.328-7.014-.468V1060.858c.982-11.924,2.105-23.753,3.507-35.4A115.2,115.2,0,0,1,593.753,1007.975Z"></path> <path class="0f301df8-3afc-443f-9a1f-1b0ecaafa8e1" d="M622.743,704.372v469.8c-1.4.094-3.881-.046-7.014-.234V701.894C617.927,702.735,620.265,703.53,622.743,704.372Z"></path> <path class="94c6d59d-5717-4cc4-a048-245897a60723" d="M1211.416,440.932v7.528c.842,1.5,1.683,3.179,2.619,4.909.7,1.356,1.449,2.712,2.2,4.115.7,1.356,1.449,2.805,2.2,4.255V441.913Q1215.345,441.423,1211.416,440.932ZM1241.9,692.351v15.056H1218.43V683.934h21.556c-.515-2.291-1.03-4.628-1.59-7.013H1218.43V653.4h14.542c-.515-2.338-1.075-4.676-1.59-7.013H1218.43V622.869h7.435c-.562-2.338-1.122-4.677-1.637-7.015h-5.8V592.382h.187c-2.478-10.287-4.91-20.153-7.2-29.178v22.164h-23.8l.046-23.519h23.425c-.607-2.432-1.215-4.723-1.776-7.014h-21.649l.046-23.52H1203q-1.122-3.927-2.1-7.013h-13.187l.047-23.473h1.122c-2.43-3.414-5.143-6.874-7.995-10.333v3.319h-23.519V470.3h5.143c-4.209-4.3-8.323-8.323-12.157-12.017v5h-23.473V440.791a57.294,57.294,0,0,0-6.827,3.6.36.36,0,0,1-.186.093v18.8h-23.52v-7.855a65.948,65.948,0,0,0-7.013,3.6v4.255h-2.7a30.163,30.163,0,0,0-5.1,7.014h7.793v23.519H1068.57c-.889,1.73-1.778,3.554-2.713,5.377v.094c-.234.514-.514,1.028-.747,1.543h24.221V524.3h-23.52V507.609c-.234.468-.468.982-.7,1.449h-3.882c-.841,1.73-1.636,3.46-2.431,5.19V524.3h-4.583c-.981,2.291-2.01,4.629-3.039,7.013h7.622v23.52h-17.488c-.981,2.338-1.917,4.676-2.852,7.014h20.34v23.519h-23.472V569.7c-2.152,5.33-4.209,10.614-6.173,15.664-.28.748-.561,1.449-.841,2.2v28.288H1017.6c-.936,2.478-1.823,4.816-2.619,7.015h13.327v23.519h-19.265a3.273,3.273,0,0,0-2.946,1.963c-.141.515-.28,1.029-.374,1.543a3.468,3.468,0,0,0,3.32,3.507h19.265v23.52h-18.1a41.735,41.735,0,0,0,5.05,7.013h13.046v9.914l7.014,4.021V683.934H1058.8v27.5l5.144,2.992h25.39v14.636l7.013,4.067v-18.7h23.52V737.94h-23.52v-4.582c-.374,1.59-.748,3.086-1.122,4.582-.421,1.731-3.741,14.73-5.891,23.567v6.92h-1.637a58.61,58.61,0,0,0-1.31,7.014h33.48v3.086c2.244.093,4.582.14,7.013.234v-3.32h30.487V773.57a52.961,52.961,0,0,1-5.378-5.143h-25.109V744.954h10.8a40.924,40.924,0,0,1,1.87-7.014h-12.671V714.421h25.811a49.641,49.641,0,0,0,3.18-7.014c-.094.281-.235.235-.375,0h-28.616V683.934h23.473v5.752c.7-1.262,3.834,15.664,5.143,17.721h1.871V683.934h23.519v16.833s5.985,8.838,6.5,4.537l.047-21.37h23.987v52.089c.187-.654,7.014,1.917,7.014,1.917V714.421H1241.9V737.94h-28.149a8.981,8.981,0,0,1,.935.936,9.711,9.711,0,0,1,2.011,2.945,5.547,5.547,0,0,1,.187,3.133H1241.9v23.473H1218.43V747.62a23.073,23.073,0,0,1-3.507,5.283c-.655.795-12.11,22.538-12.11,22.538h15.617s25.2-2.2,26.044-2.338l3.507-3.694.935-.982V723.259C1247.093,715.263,1244.708,704.648,1241.9,692.351ZM1058.8,676.921h-23.472V653.4H1058.8Zm0-30.533h-23.472V622.869H1058.8Zm0-30.534h-23.472V592.382H1058.8ZM1096.344,470.3h23.52v23.519h-23.52Zm0,30.533h23.52V524.3h-23.52Zm0,30.486h23.52v23.52h-23.52Zm0,30.534h23.52v23.519h-23.52Zm-30.533-30.534h23.52v23.52h-23.52Zm0,30.534h23.52v23.519h-23.52Zm23.52,145.558h-23.52V683.934h23.52Zm0-30.486h-23.52V653.4h17.066c-2.291-2.712.047-2.384-3.506-3.226a17.228,17.228,0,0,1,.935-3.787h-14.5V622.869h23.52v-7.015h-23.52V592.382h23.52v23.472h7.013V592.382h23.52v23.472h-15.29c0,2.338-.094,4.677-.188,7.015h15.478v23.519h-15.758c0,.608.047,1.262.047,1.87.047,1.73.14,3.414.186,5.143h15.525v23.52h-23.52V661.864a42.093,42.093,0,0,1-7.013-3.413Zm7.013,30.486V683.934h23.52v23.473Zm0,61.02V744.954h23.52v23.473Zm54.006-91.506h-23.473V653.4h23.473Zm0-30.533h-23.473V622.869h23.473Zm0-30.534h-23.473V592.382h23.473Zm0-30.486h-23.473V561.849h23.473Zm0-30.533h-23.473v-23.52h23.473Zm0-30.533h-23.473V500.829h23.473Zm0-30.487h-23.473V470.3h23.473Zm30.533,183.106h-23.519V653.4h23.519Zm0-30.533h-23.519V622.869h23.519Zm0-30.534h-23.519V592.382h23.519Zm0-30.486h-23.519V561.849h23.519Zm0-30.533h-23.519v-23.52h23.519Zm0-30.533h-23.519V500.829h23.519Zm30.533,152.619h-23.987l.047-23.52h23.94Zm0-30.533h-23.94l.047-23.519h23.893Zm0-30.534H1187.57l.047-23.472h23.8Zm51.481,61.067c.187,2.385.328,4.722.515,7.013h9.024v-7.013Zm2.058,30.486q.21,3.718.42,7.014h7.061v-7.014Zm112.5-244.125H1371v-9.305l-7.013-2.1v11.409h-23.52V444.766l-7.013-2.1v20.62h-19.218l-1.87,7.014h21.088v23.519h-23.473V479.273l-7.014,26.279V524.3H1279.45V499.987l-4.116-4.676-.233-.28-2.665-3.039v1.823h-23.52V470.249c-1.215-2.432-2.478-4.77-3.787-6.967h-25.9c1.216,2.291,2.385,4.629,3.647,7.014H1241.9v23.519h-7.529c0,.047.047.047.047.094,1.122,2.478,2.152,4.769,3.039,6.92h4.443v13.186a325.734,325.734,0,0,1,7.013,32.964V531.315h23.52v23.52h-22.257c.374,2.291.7,4.629,1.075,7.014h21.182v23.519h-18.049c.28,2.338.562,4.676.8,7.014h17.254v23.472h-14.729l.7,7.015h14.027v23.519h-11.924c.235,2.337.421,4.675.609,7.013h15.991c-.188-4.255-.281-6.873-.281-7.013.375-6.967,1.123-45.871.935-54.006,0-1.917-.047-3.834-.094-5.8l1.778.842,10.708,4.956h12.811v5.938l.889.421a31.793,31.793,0,0,0,6.125,2.151v-8.51h23.473v4.909a30.916,30.916,0,0,0,6.265-4.862v-.047h.748V561.849h8.7l2.2-7.014h-10.895v-23.52h18.143l1.122-3.6V524.3h-19.265V500.829h23.52v13.139l4.068-13.139,2.945-9.492V470.3h6.5v-.047l1.963-6.219v-.047A3.37,3.37,0,0,0,1377.456,463.282Zm-105.02,61.02h-23.52V500.829h23.52Zm30.533,61.066H1279.45V561.849h23.519Zm0-30.533H1279.45v-23.52h23.519Zm30.487,30.533h-23.473V561.849h23.473Zm0-30.533h-23.473v-23.52h23.473Zm0-30.533h-23.473V500.829h23.473Zm30.533-30.487h-23.52V470.3h23.52Z"></path> <path class="8052565e-9580-414a-9fa7-d9506ec4f3e5" d="M1266.544,736.632l-14.214,2.01s-42.5-191.476-53.445-220.372c-10.941-28.943-67.659-77.385-67.659-77.385l8.463-2.619c9.258,5.611,33.245,9.305,45.028,6.874,13.467-2.806,14.635-4.723,20.808-7.528h.094s28.241,51.761,34.132,69.249C1258.6,563.064,1266.544,736.632,1266.544,736.632Z"></path> <path class="bf2b251d-cab9-4605-971a-0fa7f96874ca" d="M1240.734,316.507c-3.834,6.453-11.55,10.287-18.19,7.435-4.675-1.964-7.948-6.686-10.941-11.222a62.856,62.856,0,0,1-7.061-12.578c-10.8,3.6-23.238,3.881-33.993,4.863-16.972,1.543-34.508.608-50.125-6.921,11.176,9.165,14.73,20.714,19.218,29.645,4.208,8.417-2.432,17.815-7.715,13.934-5.845-4.254-11.456-5.938-16.88-3.413-12.578,7.107-.187,20.013,8,26.512,0,0,7.107,12.3.8,18.984,0,0-10.8,2.432-25.577-7.388-15.991-10.708-18.844-22.07-24.034-40.493-5.237-18.422,2.1-46.057,20.434-53.772,1.075-16.038,15.1-31.094,30.58-37.173,10.24-4.068,22.21-7.341,33.2-7.388,18.282-.186,29.691,2.245,29.691,2.245s5-4.816,9.726-5.7c13.934-2.571,24.6,5.7,30.767,14.449a18,18,0,0,1,2.9,7.2,32.192,32.192,0,0,1,.468,10.146,59.035,59.035,0,0,1,11.97,28.1C1245.082,301.732,1244.568,310.1,1240.734,316.507Z"></path> <path class="2ad8c006-91e2-4e7d-aaa0-2822cd74faa5" d="M1202.439,409.323a40.292,40.292,0,0,1-5.565,1.73c3.227,12.671,7.435,26.559,8.7,26.559-6.22,2.8-7.342,4.722-20.855,7.528-13.7,2.852-43.953-2.665-48.3-9.819,1.4-.235,6.828-35.069,6.968-35.4a95.429,95.429,0,0,1-19.545-16.178c6.312-6.687-.8-18.984-.8-18.984-8.183-6.5-20.574-19.4-8-26.512,5.424-2.525,11.035-.841,16.88,3.413,5.283,3.881,11.923-5.517,7.715-13.934-4.488-8.931-8.042-20.48-19.218-29.645,15.617,7.529,33.153,8.464,50.125,6.921,15.711-1.45,34.976-1.309,47.507-12.438a40.215,40.215,0,0,0,4.909-5.237,176,176,0,0,1,10.334,23.052C1248.963,352.558,1235.076,396.745,1202.439,409.323Z"></path> <path class="8c0eb2de-af27-4cf2-8e8a-495014913d1a" d="M1219.581,348.866a14.41,14.41,0,0,0,16.84,11.566,10.16,10.16,0,0,0,2.181-.638,90.724,90.724,0,0,0,.224-27.282,13.744,13.744,0,0,0-7.837-.72A14.561,14.561,0,0,0,1219.581,348.866Z"></path> <path class="6f68b57a-18d5-4cf7-a5d5-22ebde5f66f4" d="M1216.921,328.6a3.507,3.507,0,0,1-3.442-2.854l-.986-5.206a3.508,3.508,0,0,1,6.894-1.306l.986,5.206a3.505,3.505,0,0,1-2.793,4.1A3.585,3.585,0,0,1,1216.921,328.6Z"></path> <path class="6f68b57a-18d5-4cf7-a5d5-22ebde5f66f4" d="M1201.191,359.41a9,9,0,0,1-4.249-1,3.507,3.507,0,0,1,3.269-6.206c1.186.635,4.706-.276,8.889-3.192l-12.571-28.4a3.507,3.507,0,0,1,6.411-2.845l12.566,28.3a7.1,7.1,0,0,1-2.4,8.7C1210.319,356.711,1205.643,359.41,1201.191,359.41Z"></path> <path class="6f68b57a-18d5-4cf7-a5d5-22ebde5f66f4" d="M1174.581,339.06a3.5,3.5,0,0,1-3.44-2.854l-.987-5.205a3.506,3.506,0,1,1,6.89-1.306l.987,5.2a3.5,3.5,0,0,1-2.792,4.1A3.616,3.616,0,0,1,1174.581,339.06Z"></path> <path class="8c0eb2de-af27-4cf2-8e8a-495014913d1a" d="M1156.517,365a14.4,14.4,0,0,0,16.842,11.565,14.573,14.573,0,0,0,11.408-17.074,14.4,14.4,0,0,0-16.841-11.566A14.574,14.574,0,0,0,1156.517,365Z"></path> <path class="6f68b57a-18d5-4cf7-a5d5-22ebde5f66f4" d="M1131.239,357.437a2.337,2.337,0,0,1-2.087-1.279c-1.195-2.347-5.7-4.114-7.183-4.548a2.338,2.338,0,1,1,1.311-4.488c.785.23,7.727,2.372,10.041,6.917a2.339,2.339,0,0,1-2.082,3.4Z"></path> <path class="6f68b57a-18d5-4cf7-a5d5-22ebde5f66f4" d="M1177.623,271.856q-.677,0-1.369-.013a2.34,2.34,0,0,1-2.287-2.389,2.517,2.517,0,0,1,2.388-2.287c6.626.15,11.624-.8,14.938-2.8a2.338,2.338,0,1,1,2.42,4C1189.88,270.683,1184.471,271.856,1177.623,271.856Z"></path> <path class="6f68b57a-18d5-4cf7-a5d5-22ebde5f66f4" d="M1163.206,295.183c-.034,0-.066,0-.1,0-10.466-.436-20.881-2.491-28.785-4.231a2.338,2.338,0,1,1,1-4.566c7.719,1.7,17.875,3.7,27.977,4.126a2.338,2.338,0,0,1-.1,4.673Z"></path> <path class="6f68b57a-18d5-4cf7-a5d5-22ebde5f66f4" d="M1174.113,295a2.338,2.338,0,0,1-.185-4.668q3.058-.243,6.1-.747a56.272,56.272,0,0,0,22.358-8.763c2.8-1.9,12.53-11.828,13.361-16.822a2.338,2.338,0,0,1,4.612.767c-1.2,7.243-12.653,18.09-15.338,19.918A61.024,61.024,0,0,1,1180.8,294.2c-2.159.36-4.326.621-6.5.8C1174.239,295,1174.174,295,1174.113,295Z"></path> <path class="6f68b57a-18d5-4cf7-a5d5-22ebde5f66f4" d="M1197.576,383.044a21.284,21.284,0,0,1-5.424-.654,8.215,8.215,0,0,0,3.179,3.46c2.572,1.5,6.171,1.4,10.707-.187,4.256-1.491,6.577,5.118,2.339,6.64a27.013,27.013,0,0,1-8.7,1.636,15.231,15.231,0,0,1-7.855-2.01c-4.395-2.572-7.2-7.246-8.416-13.885-.6-3.277,3.491-6.656,6.358-4.4,4.442,3.507,12.017,2.712,17.207.094,3.27-1.635,4.3-3.364,4.3-3.786.022-4.493,6.9-4.79,7.014-.236.093,3.882-2.853,7.622-8.183,10.287A28.636,28.636,0,0,1,1197.576,383.044Z"></path> <path class="6f68b57a-18d5-4cf7-a5d5-22ebde5f66f4" d="M1163.072,326.348a3.507,3.507,0,0,1-2.135-6.29c.843-.646,8.416-6.336,14.827-7.277a3.508,3.508,0,1,1,1.018,6.941c-3.913.573-9.82,4.552-11.58,5.9A3.486,3.486,0,0,1,1163.072,326.348Z"></path> <path class="6f68b57a-18d5-4cf7-a5d5-22ebde5f66f4" d="M1209.223,314.69a3.506,3.506,0,0,1-1.612-6.623c4.557-2.357,11.918-1.16,13.347-.9a3.507,3.507,0,0,1-1.26,6.9c-2.594-.472-7.064-.705-8.872.231A3.511,3.511,0,0,1,1209.223,314.69Z"></path> <path class="2ad8c006-91e2-4e7d-aaa0-2822cd74faa5" d="M1319.943,1179.152s6.78,2.947,16.085,6.313a5.639,5.639,0,0,0-.749.749c-11.363,13.793-43.906,23.753-69.249,24.687l-3.928-18.843Z"></path> <path class="b8299278-423f-4567-bd26-d03cacfdba0d" d="M1261.149,1210.985c25.926.291,62.067-10.066,74.141-24.763,1.538-1.871,4.132-2.626,6.464-3.243,2.8-.74,5.969-1.238,8.571-.043,19.883,9.139,25.759,13.957,59.627,3.539,10.742-3.3,25.406-7.117,34.337-.752,7.584,5.4,11.893,32.528,11.8,36.6a6.172,6.172,0,0,1-.319,2.185c-.712,1.763-2.777,2.547-4.608,3.118-49.62,15.5-99.943,28.4-150.237,41.294l-18.262,4.681c-2.177.559-4.7,1.055-6.433-.273C1274.926,1272.333,1258.6,1235.571,1261.149,1210.985Z"></path> <path class="6f68b57a-18d5-4cf7-a5d5-22ebde5f66f4" d="M1089.661,1261.91a1.148,1.148,0,0,1-.131-.005l-79.144-4.365-32.174-27.287a2.338,2.338,0,0,1,3.023-3.567l30.977,26.27,77.574,4.283a2.337,2.337,0,0,1-.125,4.671Z"></path> <path class="6f68b57a-18d5-4cf7-a5d5-22ebde5f66f4" d="M1601.568,1273.324H1452.082a150.883,150.883,0,1,0-127.651-257.311l-12.344-76.31-28.9-169.64c.841-.233,1.682-.466,2.477-.7a3.485,3.485,0,0,0,2.432-4.068c-.233-1.215-5.938-29.785-6.312-36.284,0,0,.748-89.729-2.338-135.179,0,0,22.865,9.539,22.912,9.539,19.451,9.819,38.481-1.777,40.726-8.416,11.269-33.526,41.8-135.226,41.849-135.319a3.51,3.51,0,0,0-2.339-4.4l-11.314-3.413c5.516-7.528,14.027-21.322,6.452-41.755-.047-.14-17.394-49.377-17.394-49.377a11,11,0,0,0-9.773-7.388l-1.262-3.881s129.24-38.529,133.541-39.791a3.572,3.572,0,0,0,1.824-5.471s-93.61-126.107-93.89-126.481a3.57,3.57,0,0,0-5.752.187l-80.238,121.618-32.918,24.455a33.413,33.413,0,0,0-13.138,21.322c-3.274,19.264,12.2,37.079,31.561,37.079a33.006,33.006,0,0,0,19.967-6.686l5.283-3.928,2.618,8-.748,2.337c-5.938,18.423-13.045,39.512.374,56.485-.186.281-19.357,71.867-19.451,72.288-1.169,4.4,5.565,6.219,6.78,1.824l13.326-49.845s45.356,12.719,45.543,12.719a2.3,2.3,0,0,0,2.244-1.683,2.34,2.34,0,0,0-1.589-2.9l-45.029-12.672,3.647-13.56,4.115,1.215,49.8,15.01-40.539,131.064c-6.079,9.772-20.807,9.912-31.281,5.05,0,0-27.821-12.953-28.616-13.327,0,0-2.2-20.386-2.712-24.641-2.618-20.153-5.191-40.119-10.754-59.711-1.684-5.7-9.118-27.306-12.578-32.076,17.207,19.592,44.513,62.422,44.887,62.7,0,.094.047.14.047.234l2.712,9.3c1.262,4.348,8.042,2.385,6.734-1.964l-2.712-9.305c-.235-.795-44.235-77.478-73.926-87.391-1.5-.982-20.48-5.331-20.947-5.191-1.357-3.086-3.975-11.736-6.36-20.761.889-.28,1.731-.561,2.573-.888,19.964-7.715,34.32-27.213,38.341-52.229a94.257,94.257,0,0,0,.281-28.335,95.764,95.764,0,0,0-1.778-9.586,20.974,20.974,0,0,0,3.18-4.114c4.863-8.137,4.676-18,3.694-24.829a61.558,61.558,0,0,0-11.83-28.616c.421-6.219-.421-13.233-4.115-18.423-4.3-6.125-13.793-16.366-28.476-16.366a34.078,34.078,0,0,0-5.751.515c-4.114.748-8.135,3.694-10.193,5.377a168.678,168.678,0,0,0-27.026-2.01,106.342,106.342,0,0,0-36.1,7.668c-14.728,5.8-30.3,20.62-32.591,38.108-18.422,9.4-26.091,37.313-20.479,57.092,2.618,7.9,4.255,16.038,8.089,23.519a50.374,50.374,0,0,0,17.394,18.89c10.8,7.2,19.779,8.277,24.221,8.277.795,0,1.449-.047,2.011-.094a99.089,99.089,0,0,0,16.645,14.075c-.421,2.01-4.442,27.119-5.33,30.72-13.232,3.273-39.184,20.9-43.064,23.566-.047.047-3.507,2.432-3.648,2.619-12.3,11.923-29.925,46.477-52.51,102.541-2.244,5.61-30.3,81.032-30.3,81.032-7.623,19.966.513,42.317,19.311,53.211l65.04,37.547c-1.59,7.715-6.593,31.889-10.053,42.6-.8,2.524.982,3.881,3.039,4.582.141.047,4.723.421,12.579.935-2.806,26.839-4.208,157.389-4.255,163.093a3.507,3.507,0,1,0,7.013.094c0-1.4,1.45-137.656,4.255-162.813,5.05.281,10.895.562,17.441.748,6.453,20.387,16.413,42.924,27.588,65.088l-12.158,119.982L997.4,1156.8l-25.53-18.19c58.916-116.335,119.046-173.52,119.655-174.128a3.487,3.487,0,0,0,.14-4.957,3.528,3.528,0,0,0-4.957-.139c-.139.139-3.693,3.506-9.772,10.1H944.192A3.5,3.5,0,0,0,940.685,973v60.786a3.533,3.533,0,0,0,3.507,3.507H992.4v49.049c-.748,1.263-1.5,2.572-2.291,3.882H967.993a3.532,3.532,0,0,0-3.508,3.506v43.953l-1.262,2.525s-43.767,42.316-44.374,42.878c-1.309,1.215-3.413,3.179-3.787,6.172-.468,4.02,2.618,7.106,4.067,8.556,0,0,42.364,42.785,44.047,44.467,0,0,.047,30.721.14,31.048H807.19l15.617-2.618a3.449,3.449,0,0,0,2.9-3.694l-1.449-21.836a66.669,66.669,0,0,1,14.121,10.567c5.564,5.658,12.578,8.79,19.779,8.79a22.769,22.769,0,0,0,3.974-.327l59.289-9.819a9.145,9.145,0,0,0,5.986-3.928,10.226,10.226,0,0,0,1.4-7.855l-.7-2.993c-2.712-11.736-11.455-20.807-22.257-23.1-11.689-2.479-28.242-9.072-45.262-26-.654-.888-1.4-1.824-2.2-2.758-5.33-6.173-10.146-14.73-14.448-25.017L815.513,970.189S756.27,718.115,756.224,717.835c.607,1.355,3.787-4.536,3.834-5.05.748-6.5,7.528-43.252,15.149-81.828L841.09,708.67a3.5,3.5,0,0,0,2.759,1.263c5.939,17.674,23.519,39.51,34.835,50.639,3.74,4.769,9.024,7.153,15.43,7.153,7.9,0,17.441-3.6,27.821-10.753,1.4-1.076,3.133-3.133,3.319-7.155.515-11.409-11.969-33.619-19.731-44.841,4.816.046,10.567.046,13-.467,2.806-.562,12.484-5.191,13.747-8.744.561-1.59,1.823-5.285-.327-7.856s-5.846-1.964-7.669-1.684c-5,.749-18-7.107-22.864-10.1a33.285,33.285,0,0,0-4.49-2.571,34.476,34.476,0,0,0-5.938-1.5,3.656,3.656,0,0,0-.889-2.245S830.522,603.7,830.429,603.6c-2.946-3.227-8.323,1.262-5.19,4.723,0,0,43.953,48.769,43.953,48.861a457.069,457.069,0,0,1-36.285,30.954L777.5,622.822s10.007-52.51,13.935-69.25a47.22,47.22,0,0,0,12.3-9.538L815,593.691a43.865,43.865,0,0,0-10.52,4.115c-3.928,2.1-.561,8.37,3.413,6.172,3.694-2.058,12.484-4.255,12.672-4.349a3.491,3.491,0,0,0,2.1-3.787c-.045-.234-13.372-58.915-13.372-58.915a57.209,57.209,0,0,0,3.741-6.734c9.118-19.4,11.082-54.426-31.048-111.238-2.712-3.694-7.574-5.8-13.232-5.8h-1.683l-.188-10.38C784.7,399.456,798.727,385.055,807,361.4a122.354,122.354,0,0,0,4.582-17.02,20.7,20.7,0,0,0,3.086-33.853,120.666,120.666,0,0,0-2.01-23.472,20.813,20.813,0,0,0,.14-16.413c-4.208-10.988-15.711-20.106-24.5-23.192a15.93,15.93,0,0,1-1.73-1.637c-4.91-4.815-17.02-16.038-40.353-20.339-.187-.047,0-75.562,0-75.562,0-9.538-7.294-17.3-16.272-17.3h-4.722V47.553C725.223,21.322,705.771,0,681.831,0H109.836C85.942,0,66.444,21.322,66.444,47.553V565.636a3.507,3.507,0,1,0,7.013,0V47.553c0-22.35,16.319-40.539,36.379-40.539h572c20.059,0,36.378,18.189,36.378,40.539V224.534a62.905,62.905,0,0,0-28.756,11.315,52.916,52.916,0,0,0-42.411-1.216c-20.386,8.6-31.281,28.71-30.673,56.625.234,10.053,1.684,20.667,4.723,34.367.795,3.6,1.823,7.294,2.852,10.895,2.572,8.977,5.237,18.283,4.068,26.839-1.917,14.308-15.617,24.549-26.84,30.58a3.545,3.545,0,0,0,.7,6.453,111,111,0,0,0,30.533,4.723,76.183,76.183,0,0,0,17.254-1.918c17.3-4.114,31.609-15.477,37.36-29.644a54.93,54.93,0,0,0,3.46-14.916c1.964,1.636,4.021,3.179,6.172,4.675a98.5,98.5,0,0,0,16.412,19.358,115.178,115.178,0,0,1-4.255,26.185c-.093-.047-2.431-.047-2.431-.047-7.3-.14-22.444-.42-35.489,4.583-52.51,20.2-135.46,76.309-138.406,87.672-7.247,28.335-17.955,86.409-24.22,121.572l-86.69-45.169s-84.118-121.478-88.607-125.359c-.234-.187-22.445-10.381-23.286-10.381,0-.841.047-1.73.093-2.711,3.32.233,6.64.42,9.96.42,30.112,0,50.639-27.073,53.258-53.632.281-3.086,2.244-17.768,2.525-20.761.093-.421,1.543-6.826,1.543-7.294a21.893,21.893,0,0,0,2.992-4.161,40.655,40.655,0,0,0,3.835-11.6,180.244,180.244,0,0,0,3.694-39.792,21.782,21.782,0,0,0,2.852-3.039c4.255-5.564,8.089-17.722,3.319-27.353-2.478-5.051-8.276-11.082-21.695-11.082-1.73,0-3.554.14-5.424.327-22.024-31.983-47.974-38.763-66.023-38.763-26.185,0-49.33,13.888-59.758,26.793-3.74,4.629-5.75,9.024-5.937,12.905-10.521,5.144-45.637,27.12-22.632,84.3,5.705,14.215,22.164,38.482,43.486,47.554a45.12,45.12,0,0,1-.047,8.042c-1.683,5.144-6.874,20.808-12.158,22.257-.14.047-27.213,2.245-41.8,4.816-5.612.982-10.521,1.87-13.607,2.245a1.181,1.181,0,0,0-.374.046,1.664,1.664,0,0,0-.468.094.281.281,0,0,0-.187.047c-19.077,3.6-58.121,33.385-89.449,59.476v9.212c20.574-17.348,45.075-36.893,64.761-49.377a1.01,1.01,0,0,0,.281-.187c10.333-6.5,19.311-11.035,25.623-12.251a.515.515,0,0,1,.234-.046.417.417,0,0,0,.233-.047c3.273-.374,8.324-1.263,14.168-2.291,5.892-1.076,12.765-2.292,19.218-3.227l49.985,59.57,26.418-9.4c1.45,6.733,5.05,26.886,3.04,55.6-2.525,35.677-13.514,79.816-13.654,80.377-.608,2.9,3.788,4.069,4.535,1.123.094-.468,11.223-45.029,13.794-81.173,1.871-26.138-.794-45.075-2.524-53.959l18.422,11.83L332.5,461.832c7.575,9.539,10.848,23.8,11.736,39.137C346.9,572.7,304.21,686.46,303.743,687.582c0,0-7.95,40.913-8.323,40.96-8.323.842-35.116,1.824-88.7-11.69-6.967-1.729-15.337-4.254-24.174-7.107a22.833,22.833,0,0,0-2.478-5.7l-3.227-4.582a29.5,29.5,0,0,0,3.507.233,26.762,26.762,0,0,0,8.6-1.4c2.805-.936,5.1-3.133,4.675-6.313a8.44,8.44,0,0,0-3.273-5.33c-2.805-2.151-6.218-3.133-9.117-5.05-2.946-1.917-5-4.817-7.2-7.95-2.385-3.319-4.816-6.779-8.51-9.351-2.338-1.636-5.518-3.787-8.884-5.7.748-1.4,24.969-108.76,32.964-133.262,15.711-10.333,27.822-18.937,29.786-22.3a3.5,3.5,0,0,0-1.216-4.77,3.55,3.55,0,0,0-4.817,1.169c-1.262,2.01-8.7,7.482-20.012,15.056,0,0-19.685,12.812-25.249,16.319-10.989,6.92-68.034,41.522-68.267,41.709a3.472,3.472,0,0,0-.608,4.021l21.742,42.6,17.909,35.162L97.678,682.766v8.51l6.687-4.629c1.4,10.147,4.114,27.166,7.107,33.245,3.647,7.387,10.708,15.2,17.815,20.386a3.444,3.444,0,0,0-1.169,1.824c-7.949,28.429-7.715,78.414-7.528,126.762.094,29.364-1.777,85.521-1.964,85.755-2.572,2.712-13.513,14.963-20.948,23.753V989.5c3.7-4.629,28.149-32.45,28.289-32.824a3.529,3.529,0,0,0,.281-1.357c-.234-.233,1.449-57,1.356-86.5-.188-47.834-.421-97.3,7.248-124.844,0-.047.046-.094,0-.141a45.571,45.571,0,0,0,6.686,2.478c-.982,28.8,12.3,66.164,30.019,102.588L150.936,973.649s-53.024,66.21-53.258,66.537v8.184l57.653-72.757L175.11,856.1a837.273,837.273,0,0,0,41.99,72.848l-25.063,66.117-1.777,4.723c-3.413,4.956-51.247,65.742-92.582,118.064v11.363c44.467-56.3,97.865-124.144,98.988-126.622l1.777-4.723.093-.233,6.079-16.085a143.361,143.361,0,0,1,46.758,11.83c-2.057,27.12.094,95.621,47.273,218.549a3.436,3.436,0,0,0,2.1,2.01c.187-.328.281.14,0,0a18.517,18.517,0,0,0-2.665,7.107c-3.694,20.715,7.435,43.813,12.063,52.276H109.836c-20.06,0-36.379-18.189-36.379-40.539V580.318a3.507,3.507,0,1,0-7.013,0v652.467c0,17.113,8.323,32.169,20.761,40.539H3.507a3.507,3.507,0,0,0,0,7.014H1601.568a3.507,3.507,0,1,0,0-7.014Zm-251.279-913.1a4,4,0,0,1,3.459,2.806L1371,412.081a1.052,1.052,0,0,1-.186,1.216l-7.528,2.618a5.958,5.958,0,0,1-2.245.375c-3.414,0-6.78-2.572-8.089-6.313l-12.111-34.414c-2.1-5.985.374-12.3,5.518-14.121C1346.361,361.442,1349.961,360.226,1350.289,360.226Zm13.232,62.844a10.241,10.241,0,0,1-.795,2.291,11.922,11.922,0,0,1-7.294,6.453c-6.359,2.01-13.653-2.151-15.85-8.931l-3.7-11.409c-.094-2.011-.7-6.687-.748-7.108,1.309-1.87,2.945-4.676,5.283-8.837l5.939,16.786c2.291,6.593,8.229,10.989,14.682,10.989A10.875,10.875,0,0,0,1363.521,423.07Zm-30.393-52.791a11.12,11.12,0,0,0-6.265,1.684c-.936.561-2.993,1.964-3.18,1.964l-2.151-6.64,21.135-15.617,1.076,3.319C1337.43,357.328,1333.5,363.406,1333.128,370.279Zm54.988-184.368,87.953,118.439L1343,344h-.047l-31.282-42.176Zm-81.453,120.918,30.066,40.492-7.622,5.658-29.317-41.054Zm-.561,63.217a26.232,26.232,0,0,1-15.805,5.283,25.105,25.105,0,0,1-24.641-28.9,26.469,26.469,0,0,1,10.381-16.88l18.1-13.42,29.318,41.008Zm58.027,79.629s-33.759-10.146-33.853-10.193c-3.273-1.823-5.565-3.507-6.734-4.957-3.833-4.769-6.686-11.595-6.732-17.627-.094-4.536,1.309-9.212,2.2-13.607a87.218,87.218,0,0,1,3.413-12.765c1.543-4.3,3.834-10.1,8.043-12.531,2.245-1.31,4.676.888,5.19,2.618,1.5,5.237.281,7.856.281,7.856-1.263,2.2-8.463,11.97-7.622,18,1.169,8.509.982,12.3-2.385,13.513a3.589,3.589,0,0,0-2.057,4.535,3.518,3.518,0,0,0,3.273,2.291,4.018,4.018,0,0,0,1.263-.233,11.137,11.137,0,0,0,4.161-2.619l.328,1.076c2.805,8.556,10.427,14.308,18.983,14.308a18.947,18.947,0,0,0,17.207-10.989,19.257,19.257,0,0,0,1.871-7.668l2.2-.8c2.571,14.4-4.489,23.707-8.931,29.645C1364.176,449.582,1364.129,449.628,1364.129,449.675ZM999.414,1074.6v-37.312h24.174C1015.873,1048.51,1007.784,1060.9,999.414,1074.6ZM947.7,1030.274V976.5h122.927a620.914,620.914,0,0,0-41.521,52.931c-.187.28-.421.56-.607.841Zm-53.445-350.22a36.534,36.534,0,0,1,3.507,2.057c9.679,5.939,20.573,12.157,27.634,11.035a.355.355,0,0,0,.234-.046c-1.636,1.4-6.639,4.161-8.51,4.535-2.619.514-12.906.374-18.8.14a3.31,3.31,0,0,0-3.413,2.2,3.491,3.491,0,0,0,.935,3.927c4.582,4.116,22.911,34.555,22.4,45.59a3.626,3.626,0,0,1-.373,1.777c-11.83,8.089-26.84,13.7-33.948,4.629-12.39-12.111-29.55-34.133-33.993-49.891l35.4-27.681A49.45,49.45,0,0,1,894.254,680.054Zm-21.882-19.4,10,11.082-38.108,29.831-7.762-9.164C836.648,692.024,861.009,671.4,872.372,660.649ZM814.3,322.633c.094-1.824.187-3.647.234-5.377a15.744,15.744,0,0,1,2.852,9.117,16.021,16.021,0,0,1-4.629,11.269Q813.876,330.279,814.3,322.633ZM368.6,364.06c-1.263,4.256-7.155,7.248-10.568,9.727-9.492,6.919-19.591,2.571-30.206,2.2a128.552,128.552,0,0,0-16.833,1.169c-6.078.655-12.391,1.356-17.347,1.029a22.741,22.741,0,0,1-18.1-11.83c-2.01-3.741-1.777-10.334-1.59-15.617.047-1.356-.28-9.025-.28-9.072-1.309-13.606,6.5-20.059,14.542-24.548,4.3-2.432,9.539-3.6,16.038-3.6,7.575,0,15.056,1.449,22.444,2.852a61.811,61.811,0,0,0,24.361-.093c4.068-.889,9.118-2.011,14.261-3.461,1.871,8,4.209,15.524,4.957,23.8a100.759,100.759,0,0,1,.327,11.269A62.6,62.6,0,0,1,368.6,364.06Zm12.016-57.138a174.093,174.093,0,0,1-3.179,31.562,108.926,108.926,0,0,0-5-26.232,17.832,17.832,0,0,1-.468-1.964c.094-.374,1.824-1.075,3.881-2.057,1.964-.982,4.208-2.338,4.769-2.478ZM234.727,335.4a16.991,16.991,0,0,0,1.31,22.023,194.2,194.2,0,0,1,12.905,14.822c1.964,2.619,5.938,8.837,6.172,9.4.047,1.262.093,2.571.14,4.161a.367.367,0,0,1,.187.187.81.81,0,0,1-.234-.093c-16.225-8.089-29.831-25.9-36.424-42.223-21.135-52.556,10.052-71.26,19.685-75.608,3.507-.514,6.827-.561,10.38-.749,13.092-.7,19.171,2.338,19.452,2.338a2.356,2.356,0,0,0,.841-4.535c-6.64-2.525-13.934-2.478-20.293-2.478a42.529,42.529,0,0,0-6.92.234c-.14-2.292,1.45-5.752,4.4-9.4C256,241.46,277.792,229.3,300.61,229.3c23.659,0,44.748,12.718,60.926,36.752l-13.981,7.107c-1.917.936-3.787,1.917-5.7,2.759a59.337,59.337,0,0,1-43.72,1.356c-2.852-1.029-4.442,3.413-1.589,4.442a65.4,65.4,0,0,0,21.742,3.741,63.412,63.412,0,0,0,25.437-5.284c5.752-2.525,11.409-5.424,16.973-8.323,2.385-1.169,4.957-3.507,7.341-4.3,3.133-1.123,8.463.186,11.55,1.169,11.222,3.506,11.6,17.908,5.283,26.184-7.528,9.819-24.034,12.064-35.3,14.5-15.337,3.32-30.019-2.9-45.309-2.9-13.794,0-29.411,6.827-35.349,20.293-2.666,5.985-2.058,11.409-1.917,17.768.187,7.014-.982,14.262.981,21.135,2.479,8.7,9.96,15.57,18.61,18.143,13.186,3.927,27.26-1.5,41.007-.749,6.874.374,13.7,2.338,20.574,1.777A28.986,28.986,0,0,0,367.1,375.61c-.561,10.848-2.852,21.789-7.9,31.422-5.1,9.632-13.186,17.908-23.285,22.023-11.971,4.909-25.578,3.647-38.3,1.169-10.614-2.058-21.883-5.471-28.335-14.122-4.723-6.4-6.032-14.681-6.64-22.584-.842-11.035-.515-22.069-.28-33.1.186-9.865,2.244-19.591-5.144-27.213C251.093,326.888,240.011,328.711,234.727,335.4Zm20.434,33.572a205.075,205.075,0,0,0-14.028-16.319,10.208,10.208,0,0,1-.888-12.951,9.6,9.6,0,0,1,7.294-3.414c4.3,0,5.985,3.507,7.949,6.687C255.722,347.789,255.207,365.837,255.161,368.97Zm18.516,117.738-46.011-54.754c5.986-.748,11.223-1.123,14.449-.655,3.554,5.144,15.29,17.067,52.229,48.068Zm24.829-13c-21.509-18.1-43.439-37.64-49.471-44.608,4.209-3.085,7.482-9.164,10.287-16.318,6.312,16.365,24.782,23.1,43.532,25.483-.374,5.845.141,9.819,2.058,12.064C304.912,450.844,301.452,464.4,298.506,473.709ZM319.5,489.327l-15.43-9.914c6.125-19.077,8-26.231,8.416-29.223l16.226,7.575.046.046ZM807.19,1266.17,798.633,1234a154.91,154.91,0,0,1,18.329,7.34l1.543,22.959Zm56.718-61.815c.14-.374.28-.7.421-1.075,15.056,12.438,29.411,17.815,40.025,20.106,6.92,1.45,12.718,6.64,15.617,13.7,0,0-61.16,10.146-61.487,10.193-2.712.467-2.432,4.629.374,4.629.14,0,62.516-10.287,62.516-10.287l.561,2.572c.28,1.168-.141,3.039-1.684,3.273l-59.289,9.819a18.82,18.82,0,0,1-2.8.233c-5.284,0-10.521-2.384-14.776-6.686-13.934-14.168-36.986-21.7-46.852-24.875-1.5-.515-3.133-1.028-3.927-1.356-6.64-8.837-2.9-27.961,3.413-38.482a63.789,63.789,0,0,0,9.679,7.9,41.975,41.975,0,0,0-4.723,25.3c.374,2.947,5,2.385,4.676-.608a36.965,36.965,0,0,1,3.975-22.116c7.9,4.862,16.038,8.556,20.106,9.725,8.837,2.526,16.038,3.834,21.509,3.834C857.876,1210.153,862.178,1208.189,863.908,1204.355Zm-10.848-12.016c4.489,5.189,4.91,8.229,4.489,9.117-.375.748-2.245,1.684-6.312,1.684-4.817,0-11.363-1.216-19.592-3.554-8.09-2.291-25.3-11.97-31.936-19.685l38.809-12.017C842.867,1177.8,847.683,1186.12,853.06,1192.339ZM799.1,930.866l9.538,40.633L836.6,1161.1l-49.049,15.2c-52.7-125.968-42.925-201.2-42.784-201.951a3.737,3.737,0,0,0-.328-2.009c-5.47-11.5-33.2-70.232-40.352-84.821l22.07-90.9,13-42.316a3.328,3.328,0,0,0-2.151-2.1,3.566,3.566,0,0,0-4.442,2.244l-13.186,40.259-95.06,377.527-47.133-2.805c.047-.888.047-1.777.094-2.619h-.094c5.05-160.147,35.443-217.613,35.724-218.174a3.655,3.655,0,0,0,.468-1.683c0-.141,1.215-54.8,1.122-60.6-.328-41.241-3.04-77.665-8.183-108.759-.654-4.069-2.525-9.025-4.722-14.729-4.209-11.082-9.305-24.5-8.978-39.044a54.737,54.737,0,0,1,8.931-29.317c14.962,11.456,66.677,21.743,77.338,23.426,8.183,1.262,15.571,2.245,22.21,2.946a244.956,244.956,0,0,0,25.063,1.449c10.894,0,18.376-1.028,23.379-2.244Zm-171.51,271.385c2.993,5.8,2.852,8.885,2.291,9.82-.421.7-1.87.841-2.665.841-3.226,0-9.632-1.5-22.163-8.6-7.669-4.3-23.193-18.843-27.074-27.821l42.831,2.572C622.027,1187.943,624.225,1195.752,627.591,1202.251ZM756.5,713.673a.587.587,0,0,0,.14-.094C756.551,713.813,756.5,713.813,756.5,713.673Zm50.827-391.461a163.124,163.124,0,0,1-2.2,18.75c-.046.327-.139.7-.186,1.029a14.927,14.927,0,0,1-3.6.421,16.039,16.039,0,0,1,0-32.077,16.528,16.528,0,0,1,6.313,1.263C807.658,314.918,807.564,318.518,807.331,322.212Zm-5.986-16.552a20.713,20.713,0,0,0-20.667,20.713,15.522,15.522,0,0,0,.187,2.572l-1.59.093-1.5-6.873a3.495,3.495,0,0,0-6.827,1.5l1.263,5.844-2.338.14a20.7,20.7,0,0,0-40.633-5.423l-15.477-4.442c4.489-6.547,17.768-22.632,39.511-21.042,3.6.281,7.621.982,11.876,1.73,5.939,1.029,12.111,2.105,18.049,2.105,8.557,0,16.646-3.321,23.473-8.417a124.028,124.028,0,0,1,.935,12.485A19.959,19.959,0,0,0,801.345,305.66ZM765.2,329.833A16.038,16.038,0,1,1,749.163,313.8,16.034,16.034,0,0,1,765.2,329.833ZM725.223,139.621h4.722c5.1,0,9.259,4.628,9.259,10.286v74.44a88.544,88.544,0,0,0-13.981-.468Zm-44.7,231.313c-4.909,12.11-17.347,21.836-32.45,25.437-10.66,2.524-22.771,2.291-36.191-.655,13.607-9.024,21.556-19.779,23.1-31.422,1.356-10.006-1.5-20.012-4.3-29.691-1.029-3.647-2.011-7.107-2.759-10.521-2.9-13.232-4.3-23.379-4.535-32.964-.374-17.581,3.881-40.54,26.418-50.032a45.276,45.276,0,0,1,33.573-.234,58.929,58.929,0,0,0-6.453,6.78,2.407,2.407,0,0,0-1.075-.841c-14.636-5.424-29.365.841-38.529,16.412-1.5,2.572,2.478,4.957,4.068,2.384,7.9-13.466,20.433-18.984,32.778-14.4-10.241,13.84-15.524,31.562-15.01,50.873.514,18.142,9.3,36,24.642,50.733C683.654,359.151,682.86,365.276,680.521,370.934Zm-14.354-69.062c-.7-24.6,8.884-46.291,26.325-59.523,10.1-7.716,22.444-11.6,36.612-11.6a89.028,89.028,0,0,1,16.458,1.589A71.68,71.68,0,0,1,767.82,240.2a66.031,66.031,0,0,1,14.214,10.988c.654.654-4.582,5.1-5.143,5.518-5.237,3.693-11.737,5.143-17.909,6.4-1.963.374-7.247.327-6.64,3.6.375,2.105,2.385,1.918,3.975,1.637,10.053-1.823,23.426-4.3,29.551-14.354,7.482,2.758,17.02,10.379,20.387,19.17,5.564,14.5-11.082,22.4-23.052,22.4-5.33,0-11.175-1.028-16.833-2.01-4.442-.795-8.6-1.5-12.578-1.824-23.66-1.729-38.3,13.748-44.514,22.21a18.553,18.553,0,0,0-15.009-7.808c-11.036,0-17.3,10.427-13.42,20.48a69.052,69.052,0,0,0,7.107,13.888,47.783,47.783,0,0,1,5.8,11.83C676.594,338.063,666.681,320.061,666.167,301.872Zm37.22,58.962c0-.093-6.407-19.217-9.493-24.08a62.555,62.555,0,0,1-6.5-12.672c-1.216-3.179-1.169-5.892.187-7.855a7.932,7.932,0,0,1,6.687-3.086c3.974,0,9.024,2.338,11.362,8.931a3.489,3.489,0,0,0,3.039,2.291,3.106,3.106,0,0,0,2.151-.514L728.5,328.9a5.934,5.934,0,0,0-.047.935,20.708,20.708,0,0,0,40.914,4.536l3.88-.234,3.648,16.693c-3.133.281-6.312.046-7.108-.561a3.442,3.442,0,0,0-4.91.421,3.5,3.5,0,0,0,.421,4.956c2.2,1.824,5.705,2.338,8.885,2.338a41.431,41.431,0,0,0,6.078-.514,5.6,5.6,0,0,0,3.647-3.6,5.962,5.962,0,0,0-.233-4.816L780.3,333.667l1.683-.093a20.61,20.61,0,0,0,19.358,13.513,15.522,15.522,0,0,0,2.572-.187,116.066,116.066,0,0,1-3.507,12.2c-4.91,13.981-16.786,37.407-41.662,37.407C738.456,396.511,716.338,379.865,703.387,360.834Zm56.858,76.31c-.561.748-1.59,1.684-4.021,1.684-5.472,0-17.067-4.489-41.382-25.671a121.551,121.551,0,0,0,4.863-24.922c11.923,9.211,25.67,15.29,39.043,15.29a8.969,8.969,0,0,0,1.123-.047l.374,14.168C761.834,423.116,763.19,433.216,760.245,437.144Zm-220.98,65.742c7.06-6.873,83.043-61.861,134.15-82.949,6.639-2.759,14.261-3.6,20.76-3.928,8,9.492,37.173,35.77,51.528,40.259,4.395,1.4,9.258,2.759,14.121,2.759a22.4,22.4,0,0,0,7.574-1.262c7.856-2.9,13.327-10.428,12.953-17.956a2.311,2.311,0,0,0-2.432-2.244A2.345,2.345,0,0,0,775.675,440c.281,5.471-3.974,11.222-9.866,13.373-5.938,2.151-12.765.328-18.657-1.543-12.531-3.928-37.313-25.81-46.992-36.051,2.385-.046,7.108.047,7.108.047l1.215,1.076c22.07,19.5,37.687,28.943,47.741,28.943a11.471,11.471,0,0,0,9.632-4.489c4.3-5.7,2.9-21.182,2.9-21.182,3.366,0,6.219,1.123,7.575,2.946,28.71,38.716,40.119,72.242,33.058,96.977a45.366,45.366,0,0,1-22.024,27.728,3.436,3.436,0,0,0-2.384,2.525c-4.676,19.639-31.188,154.255-31.7,161.176l-.281.14c-3.6,1.637-15.617,5.378-46.337,2.713-7.669-.655-16.506-1.777-26.7-3.367-30.627-4.909-73.691-17.488-75.748-23.285,2.806-8,20.2-36.66,29.5-48.63,1.543-1.963,3.039-3.834,4.489-5.657,20.526-25.858,31.935-40.259,23.706-141.772,7.434-3.179,12.671-5.283,14.121-5.564a3.5,3.5,0,1,0-1.076-6.92c-4.769.748-34.975,14.5-52.556,22.631-24.408,11.268-36.425,16.926-42.363,20.153-.094-.094-15.243-10.147-15.243-10.147a3.528,3.528,0,0,0-3.881,5.892l13.419,8.837c-.046.187-17.347,103.9-17.347,103.9-9.165.982-18.61.608-27.728.281-5-.187-10.1-.374-15.243-.374C520.047,596.4,531.643,532.765,539.265,502.886ZM513.22,635.025c5.284-.047,10.661.188,15.851.374,4.77.187,9.633.375,14.5.375a126.34,126.34,0,0,0,12.625-.561L553.9,648.772H510.789C511.35,645.686,512.145,640.917,513.22,635.025Zm.468,20.761h43.158a.791.791,0,0,0,.327-.047c.327,1.076.655,2.479.982,4.115-5.518,1.076-10.521,5.471-13.046,11.6L531.97,703.526a19.622,19.622,0,0,0-.935,12.906,15.194,15.194,0,0,0,2.245,4.722c-2.338,2.245-5.051,3.6-6.827,2.618-.141-.092-33.807-12.717-33.807-12.717-1.73-1.684-2.1-9.913.047-19.124a49.209,49.209,0,0,1,2.057-6.828,45.67,45.67,0,0,1,3.834-8.088C501.25,672.666,508.123,663.314,513.688,655.786Zm47.085,10.8a5.658,5.658,0,0,1,2.151.422l6.827,2.8c1.216.468,1.824,2.759.842,5.1l-18,44c-1.029,2.479-3.04,3.554-4.209,3.039l-6.826-2.806a6.685,6.685,0,0,1-3.788-4.628,13.4,13.4,0,0,1,.655-8.37l13.139-32.076C553.386,669.674,557.173,666.587,560.773,666.587Zm-218.361-88c.748-2.9,13.934-53.4,7.247-91.974l65.088,93.377s-7.061,8.37-7.107,8.417c-2.9,3.413,2.384,7.948,5.377,4.535l7.014-8.323,86.924,45.262c-2.291,13.046-3.741,21.509-3.788,21.79a3.684,3.684,0,0,0,.8,2.851,4.034,4.034,0,0,0,1.216.936c-4.957,6.78-10.241,14.074-12.578,17.908a52.231,52.231,0,0,0-4.162,8.6c-44-22.023-97.257-49.7-102.634-55.549,0,0-43.486-47.553-43.486-47.6C342.365,578.775,342.365,578.682,342.412,578.588ZM310.429,689.826c1.87-4.956,19.405-51.2,30.159-102.4l40.072,43.765c7.061,7.716,71.915,40.68,105.627,57.56-2.2,8.51-2.571,16.973-1.215,22.21.8,3.039,2.244,5.19,4.208,6.312.187.047,34.04,12.812,34.04,12.812a10.109,10.109,0,0,0,4.395,1.029c4.208,0,8.136-2.525,11.082-5.517.047,0,.047.046.094.046l6.826,2.8a8.677,8.677,0,0,0,3.273.655c4.209,0,8.23-3.039,10.1-7.528l18-44c2.385-5.845.281-12.2-4.676-14.262l-6.827-2.8c-.046-.047-.14-.047-.186-.094-.749-4.161-1.684-7.809-2.853-9.959l-1.075-4.63L581.02,529.351c7.949-4.395,48.488-23.378,74.112-34.741,7.574,96.6-3.179,110.21-22.445,134.477-1.449,1.824-2.945,3.694-4.488,5.705-8.884,11.456-25.624,41.007-30.487,50.172-7.668,14.4-12.39,26.465-12.11,38.716.281,14.916,5.424,28.522,9.445,39.043,2.057,5.377,3.787,10,4.349,13.419,5.19,31.375,7.9,68.361,8.089,110.35.047,5.8-1.122,58.5-1.169,59.57-.421.842-1.122,2.245-2.01,4.349A150.932,150.932,0,0,0,440.464,1189.72c-5.657,1.309-13.046,1.963-22.07,1.963a291.669,291.669,0,0,1-40.446-3.272l-3.179-4.255L340.261,970.984l-38.3-239.356Zm117.364,508.591a14.235,14.235,0,0,1-2.666,3.694,25.222,25.222,0,0,1-16.272,7.388c-5.1.374-31.094-3.32-43.532-5.611,5.752-5.658,9.773-7.9,11.222-8.6a296.344,296.344,0,0,0,41.849,3.414C421.714,1198.7,424.894,1198.6,427.793,1198.417ZM106.983,576.3c13.327-7.9,46.432-27.728,73.317-44.935C171.744,559.417,152.62,650.6,152.479,651.2c-.7,1.543-1.449,2.992-2.2,4.4a23,23,0,0,0-3.507-1.077C146.728,654.29,106.983,576.3,106.983,576.3ZM142.1,739.391a25.253,25.253,0,0,1-8.042-4.3c-5.8-4.115-12.579-10.708-16.319-18.33-2.712-5.377-5.518-24.127-6.921-34.6,5.518-3.788,27.681-19.078,29.131-20.059,1.636-1.123,1.73-.936,3.507-1.029,3.32-.14,10.38,3.554,18,8.931a24.327,24.327,0,0,1,6.827,7.715c2.431,4.162,4.816,7.855,9.117,9.772,1.169.515,7.248,4.77,8.324,4.489-6.547,1.824-14.122.187-18.844-4.209-2.011-1.87-6.173-.513-5.284,2.292.561,1.824,2.665,3.788,3.787,5.331l8.838,12.531c1.73,2.852,4.3,10.38-.141,12.157l-30.3,19.451A3.7,3.7,0,0,1,142.1,739.391Zm109.976,246.7a152.7,152.7,0,0,0-26.045-8.369,143.253,143.253,0,0,0-18.844-2.946l14.636-38.529c15.15,23.239,27.4,40.071,31.048,45.075C252.636,982.393,252.355,983.983,252.075,986.087Zm7.949-4.676a3.576,3.576,0,0,0-.562-2.992c-.421-.561-15.57-20.947-34.507-50.452-1.543-2.385-48.4-85.195-48.629-85.755-16.974-35.3-29.271-70.839-27.727-97.445L177.448,726.2a9.874,9.874,0,0,0,5.378-6.4,12.013,12.013,0,0,0,.514-2.573c9.725,3.133,17.675,5.424,21.649,6.454,9.4,2.384,17.955,4.3,25.764,5.891a47.807,47.807,0,0,1-11.643,30.673,50.491,50.491,0,0,1-7.294,6.874,46.557,46.557,0,0,1-25.016,9.726c-2.712.233-2.759,4.675.187,4.675h.187a51.03,51.03,0,0,0,25.109-8.93l80.378,197.226s36.378,190.775,36.471,191.382c.561,2.946,5.19,2.2,4.629-.888l-36.611-191.8L216.118,769.642a54.861,54.861,0,0,0,6.5-6.312,52.411,52.411,0,0,0,12.765-32.824c23.566,4.489,39.464,5.658,49.564,5.658a87.669,87.669,0,0,0,10.567-.562l37.828,236.457,31.374,194.048-68.734,18.376C245.669,1042.852,259.883,982.019,260.024,981.411Zm37.546,207.514,67.894-18.142,2.525,15.664-63.966,19.919C301.779,1200.428,299.628,1194.583,297.57,1188.925Zm67.333,5.845c-5.284,4.442-12.111,11.6-19.639,22.912-1.45,2.2-7.388,4.536-15.43,4.536-7.388,0-16.693-2.2-21-8.277l-.421-1.59Zm-51.668,69.062s163.139-48.208,163.42-48.3c2.852-.842,1.543-5.331-1.356-4.489L336.427,1252.1a32.715,32.715,0,0,0-6.687-9.119c-2.2-2.15-5.424,1.217-3.273,3.368a26.839,26.839,0,0,1,5.424,7.107l-20.574,6.078c-2.805-6.686-5.7-15.2-6.639-23.893a45.455,45.455,0,0,1,15.524,5.844c2.525,1.543,5-2.431,2.431-3.974a50.9,50.9,0,0,0-18.236-6.687,39.528,39.528,0,0,1,.608-8.509,14.282,14.282,0,0,1,.374-1.637c5.377,5.425,14.215,8.557,24.455,8.557,7.434,0,17.487-2.01,21.275-7.669a126.893,126.893,0,0,1,10.38-13.606c10.8,2.244,38.716,6.406,46.665,6.266a28.887,28.887,0,0,0,20.34-8.884,16.81,16.81,0,0,0,4.348-7.341c7.3-.749,13.139-2.105,17.442-4.115a23.838,23.838,0,0,1,10.006-2.479c15.617,0,23.659,20.761,26.231,28.9-4.629,1.309-165.758,49.143-169.826,50.312C315.807,1269.022,314.591,1266.684,313.235,1263.832Zm19.17,9.492c2.058-.654,159.26-47.18,159.353-47.225,3.6-1.31,2.618-3.695,2.478-4.163-.327-1.543-9.071-37.546-33.946-37.546a30.339,30.339,0,0,0-12.672,2.992A143.954,143.954,0,0,1,601.64,956.91c-7.715,20.107-22.117,67.894-28.709,157.015q-1.754,22.864-2.619,49.47c0,.842.748,12.344.234,12.812-11.549,10.193-22.35,33.012-15.29,47.086a5.928,5.928,0,0,0,2.525,2.385l1.075,41.1a3.505,3.505,0,0,0,3.273,3.413l17.768,1.263h.234a3.508,3.508,0,0,0,3.46-2.946l3.648-21.6a67.6,67.6,0,0,1,11.315,13.608,27.854,27.854,0,0,0,15.945,12.811Zm232.483-43.252a171.273,171.273,0,0,1,16.178,11.409l-3.881,22.725-11.409-.795Zm117.6,38.67a2.577,2.577,0,0,1-2.244,2.759l-60.084-4.256c-6.219-.42-11.924-4.208-15.617-10.38-10.241-17.019-30.955-29.691-39.792-35.069-1.31-.841-2.806-1.73-3.507-2.2-4.395-10.147,3.694-27.869,12.251-36.659a62.673,62.673,0,0,0,7.574,10.006,41.543,41.543,0,0,0-10.426,23.426,2.351,2.351,0,0,0,2.1,2.572h.233a2.369,2.369,0,0,0,2.338-2.1,37.139,37.139,0,0,1,8.978-20.481c6.453,6.5,13.513,11.924,17.3,14.075,11.128,6.266,19.732,9.493,25.623,9.493,5.05,0,7.482-2.292,8.651-4.209a.359.359,0,0,0,.093-.187c11.783,15.617,24.454,24.174,34.274,28.85,6.359,3.039,10.8,9.445,11.97,16.973l-62.142-4.395a2.312,2.312,0,0,0-2.478,2.15,2.356,2.356,0,0,0,2.151,2.526l62.8,4.442Zm-9.211-30.674a85.244,85.244,0,0,1-28.1-22.117,150.8,150.8,0,0,0,49.564-61.206v-20.34a144.04,144.04,0,0,1-53.865,76.076c-1.871-2.525-3.741-5.284-5.565-8.23-.421-1.028-.935-2.1-1.5-3.179a67.054,67.054,0,0,1-5.985-19.732,3.6,3.6,0,0,0,2.571-2.526L673.6,1009.653a141.665,141.665,0,0,1,20.387,40.633c.281.842.514,1.731.748,2.572v-20.34a152.816,152.816,0,0,0-18.843-31.561l25.623-102.775c4.957,10.287,10.427,21.882,16.693,35.115.14.234.234.514.374.795v298.693c0,19.872-12.9,36.471-29.878,39.885,0-.047.046-.047.046-.094a10.305,10.305,0,0,0,.748-3.787l.047-3.087C689.64,1253.685,683.28,1242.838,673.274,1238.068Zm31.609,35.256c12.391-8.37,20.714-23.426,20.714-40.539V948.868q5.61,11.922,12.063,25.576c-1.169,10.053-7.434,84.493,44.654,207.514a3.489,3.489,0,0,0,3.227,2.151c.374,0,4.3-1.169,4.3-1.169-7.809,13.233-11.69,35.49-2.245,46.665a6.32,6.32,0,0,0,2.993,1.777l10.661,39.7a3.534,3.534,0,0,0,1.823,2.244Zm547.447-784.98c.514,1.544,4.254,12.625,4.91,14.916,2.1,7.061,4.067,14.869,5.8,23.239.234,1.076,1.356,12.111,1.4,12.251,10.193,64.573,8.137,134.431,8.09,135.506,0,0,0,54.988.139,55.408,1.778,4.583,5.845,23.707,7.95,33.853l-1.543.421-8.978-26.372s-3.975-74.392-9.633-128.117l-4.815-100.531-18-49.236C1238.116,460.289,1245.831,469.407,1252.33,488.344ZM1228.3,447.805l22.678,61.721,2.011,42.223c-2.853-17.815-6.173-33.386-9.913-44.561-4.77-14.261-23.614-49.844-31.188-63.965Zm8.136,61.628C1253.5,560.4,1261.681,711.2,1262.9,735.042l-7.856,1.122c-5.8-25.9-42.6-190.587-52.882-217.707-6.407-16.974-27.494-39.932-44.609-56.671a93.081,93.081,0,0,0,16.927,1.5,97.863,97.863,0,0,0,22.117-2.525,45.771,45.771,0,0,0,13.84-5.283C1219.178,472.026,1232.644,498.163,1236.432,509.433ZM1233.626,276.2a54.261,54.261,0,0,1,6.874,19.731c.748,5.471.982,13.187-2.337,19.405-.468-1.589-1.03-3.179-1.59-4.722a174.581,174.581,0,0,0-9.446-21.462A46.786,46.786,0,0,0,1233.626,276.2Zm-111.659,105.72c-2.851.187-11.035.094-21.742-7.06-10.1-6.734-15.8-17.02-19.592-28.289-3.461-10.38-5.7-20.34-3.741-31.282,2.058-11.315,7.949-23.8,19.125-28.522a3.422,3.422,0,0,0,2.1-2.993c1.075-15.523,15.1-28.9,28.382-34.18a98.014,98.014,0,0,1,38.529-7.107c7.434.234,15.009,2.151,22.35,2.151a3.481,3.481,0,0,0,3.133-.889c3.648-3.366,7.482-5.19,12.484-5.19,10.568,0,22.913,8.65,25.11,19.311,2.338,11.41-2.618,24.829-12.344,33.526-9.96,8.791-25.3,9.96-38.856,10.988-2.291.188-4.489.374-6.687.561-19.825,1.824-35.256-.28-48.3-6.546-3.646-1.73-6.826,3.273-3.74,5.845,9.118,7.528,13.092,18.282,18.329,28.476a8.752,8.752,0,0,1-.186,8.23c-1.45,2.337-2.479,1.122-4.3-.048a26.04,26.04,0,0,0-6.267-3.085c-7.948-2.572-18.8,1.543-19.545,10.8-.654,8.51,8.324,17.207,14.122,21.883C1121.781,371.355,1124.352,378.041,1121.967,381.922Zm6.406,2.946c4.489-8.463-2.01-19.872-2.291-20.434a4.248,4.248,0,0,0-.841-.981c-7.622-5.985-12.345-12.391-12.017-16.272.046-.608.187-2.525,3.319-4.3,3.881-1.823,8-.8,13.327,3.086a7.749,7.749,0,0,0,4.628,1.543c3.04,0,5.892-1.777,7.809-4.909a15.508,15.508,0,0,0,.468-14.963c-.842-1.683-1.637-3.46-2.479-5.284a101.787,101.787,0,0,0-7.761-14.682c11.035,2.9,23.566,3.6,38.341,2.244,2.152-.187,4.349-.327,6.593-.514,14.636-1.122,31.236-2.384,42.925-12.765.607-.561,1.263-1.122,1.823-1.73a192.266,192.266,0,0,1,7.762,18.142,102.666,102.666,0,0,1,5.378,21.416,86.456,86.456,0,0,1-.234,26.231c-3.694,22.865-16.085,39.932-33.947,46.805a47.169,47.169,0,0,1-17.113,3.039C1164.1,410.538,1143.57,400.532,1128.373,384.868Zm71.728,52.977c-13.467,6.734-27.588,7.061-42.13,4.209-1.309-.281-18-4.022-17.44-5.985.888-3.227,4.629-26.7,5.05-29.224,12.11,6.826,25.436,10.707,38.482,10.707a61.469,61.469,0,0,0,10.287-.888C1195.1,419.423,1200.1,437.1,1200.1,437.845Zm-60.692,5.658c9.164,4.816,25.436,7.388,36.331,7.388a48.066,48.066,0,0,0,9.678-.842c10.755-2.244,14.075-3.974,17.955-5.985.235-.14.468-.234.749-.374,1.029,1.87,2.431,4.489,4.115,7.669-3.227,2.057-7.248,3.553-12.718,4.816a93.7,93.7,0,0,1-44.374-.514c-5.19-4.91-9.68-9.025-12.859-11.831Zm-11.5-.093c.186.607,57.232,49.751,67.706,77.525,4.676,12.344,15.337,55.456,25.857,100.3L1174.29,520.42l-55.128-72.475C1122.248,446.215,1125.241,444.625,1127.906,443.41ZM1027.188,690.574c-15.8-9.164-22.678-27.914-16.272-44.607.047-.141,54.38-154.864,81.172-181.1,4.957-3.413,14.075-9.4,23.006-14.588l55.034,72.382,56.578,120.777c10.942,47.085,20.667,90.664,21.977,96.7l-7.06,31.281c-10.474,1.5-21.791,2.712-33.76,3.6l12.858-23.1a9.9,9.9,0,0,0,1.684-8.277c-1.216-5.47-6.219-10.38-10.568-12.718l-5.47-2.572a29.431,29.431,0,0,0,10.707-7.107,7.945,7.945,0,0,0,2.1-3.741c.936-3.974-3.226-6.826-6.639-7.294-2.338-.327-9.586.094-10.942,0-3.741-.28-7.2-1.87-10.8-3.6-3.881-1.776-7.855-3.646-12.578-4.161-3.835-.421-13.046-.374-18.984-.28l.842-1.964a3.494,3.494,0,0,0-1.543-4.442l-51.621-28.944c.046-2.478.887-72.99,1.543-75.047,14.5-29.972,28.242-60.178,27.96-66.35a3.544,3.544,0,0,0-3.6-3.32,3.7,3.7,0,0,0-3.414,3.6c-1.216,12.672-47.507,104.178-58.028,124.752-3.459,3.413-9.491,5.845-17.113,6.873a3.525,3.525,0,0,0-2.992,3.975c.233,1.73,3.647,2.992,3.928,2.992,5.985-.841,13.886-2.759,19.592-7.481l56.624,31.795-21.275,49.845Zm129.054,18.61c5.1-.093,17.066-.187,21.227.234,3.554.374,6.827,1.917,10.334,3.554,4.069,1.917,8.23,3.88,13.279,4.208a37.758,37.758,0,0,0,5.144-.047,30.376,30.376,0,0,1,5.05,0,22.665,22.665,0,0,1-16.178,6.219,3.544,3.544,0,0,0-3.508,2.665,3.394,3.394,0,0,0,1.917,3.975l15.151,7.2c2.852,1.543,6.218,4.957,6.873,7.95a3.28,3.28,0,0,1-.7,2.992l-18.1,32.5c-2.759,2.666-22.819,1.4-36-7.481-5.518-3.741-16.365-17.488-21.415-24.175Zm-25.2,41.334-16.787-9.725,21.276-49.892,16.832,9.446Zm-30.393-142.706c-.234,10.754-.468,25.016-.608,45.824,0,3.46-.047,6.686-.093,9.257L1078.95,651.11C1083.345,642.507,1091.668,626.048,1100.646,607.812Zm-14.028,166.927c3.087-11.081,6.78-28.475,8.557-36.8,0,0,35.724,20.621,35.817,20.667a3.636,3.636,0,0,0,5.19-2.2c5.565,7.2,11.269,14.683,18.189,20.62C1122.669,777.124,1096.531,775.441,1086.618,774.739Zm39.605,8.932c7.855.233,16.505.373,25.623.373,4.255,0,13.747-.187,14.074-.28a66.318,66.318,0,0,0,23.847,5.1c5.8,0,10.521-1.261,12.672-4.114.094-.141,1.355-2.385,1.355-2.385,14.777-1.028,28.617-2.478,41.242-4.348a3.483,3.483,0,0,0,2.9-2.712l7.247-32.076,8.931-1.263,8.791,27.4a4.547,4.547,0,0,0,3.507,2.619l28.755,168.891,34.649,213.779-33.76,7.9-10.287-65.322-1.075-7.013-8.463-53.773-1.122-7.013-10.334-65.743-61.16-163.421a2.323,2.323,0,0,0-4.349,1.637l60.927,162.766,10.193,64.761,1.075,7.013,8.463,53.773,1.122,7.013,10.428,66.4-49.19,11.5c-7.061-28.99-12.3-54.942-16.178-77.9-.421-2.384-.8-4.722-1.169-7.013-3.32-20.481-5.518-38.436-7.014-53.773-.187-2.431-.421-4.769-.608-7.013-2.759-32.638-1.964-52.323-1.5-59.01v-.281c0-4.768-6.313-11.268-8.79-15.055q-9.47-14.45-18.611-29.178c-17.394-28.1-33.993-56.811-48.675-86.5C1140.858,821.311,1132.535,802.841,1126.223,783.671ZM1078.342,1151h-17.535c11.924-16.365,25.577-35.162,39.044-53.772H1229c2.758,16.412,6.218,34.321,10.52,53.772H1098.027c-4.535,0-4.535,7.014,0,7.014h143.081q4.139,18.375,9.351,38.435a3.486,3.486,0,0,0,3.368,2.665c.28,0,5.61-1.309,5.61-1.309l2.1,10.241H1038.5c-.375-.795-.749-1.637-1.17-2.479-1.075-2.244-8.135-11.877-12.717-13.092a45.972,45.972,0,0,1-.842-6.406l4.816,3.366a3.639,3.639,0,0,0,4.863-.8c5.517-7.621,13.279-18.235,22.256-30.626h22.632C1082.831,1158.018,1082.877,1151,1078.342,1151Zm140.135-174.5c-.327,9.772-.327,27.494,1.87,52.931a5.054,5.054,0,0,0,.047.841h-72.148c.187-.281,19.124-26.652,20.386-28.757l9.492-25.015Zm-37.687-7.014,13.747-36.331c11.409,18.189,20.293,31.468,23.659,36.331Zm40.211,67.8c1.451,15.2,3.648,32.824,6.874,52.931H1104.948c15.383-21.229,30.065-41.476,38.248-52.931Zm35.35,154.068c-1.028-3.974-2.011-7.855-2.946-11.689l48.769-11.408,1.777,11.221Zm63.264-7.06c1.73.7,5.331,2.245,10.1,4.068-11.082,10.1-34.321,17.441-54.614,19.733-.233,0-.515-.047-.748-.047h-5.611l-2.478-11.877Zm-11.081-5.985-1.778-11.128,33.807-7.95,1.729,10.661ZM1138.707,970.236l11.549-114c13.093,25.25,27.4,49.657,39.652,69.437l-27.635,72.943c-2.852,4.769-93.8,129.941-131.578,181.89l-29.224-21.368Zm-167.208,127h14.635Q978.841,1110,971.5,1123.977Zm-2.151,48.208,47.319,33.666c-.046.655.047,8.276.421,11.175-13.933-5.8-32.824-22.631-45.122-40.352-1.028-1.4-1.964-2.806-2.852-4.208Zm.842,127.884v-23.847c6.5,6.64,13,17.675,19.265,23.847Zm131.063-.889-84.913-3.6-17.628-.748c-10.24-9.959-21.228-21.182-32.029-32.263-1.169-1.169-44.654-45.543-44.654-45.729.047-.468,3.787-3.975,6.359-6.407,0,0,30.486,29.365,30.673,29.551,2.151,2.058,5.424-1.308,3.227-3.366L931.8,1180.462c8.7-8.277,22.537-21.368,31.89-30.159,14.167,21.976,40.819,46.524,59.009,48.909a19.469,19.469,0,0,1,3.927,3.694c-7.434.982-17.721,7.014-17.861,7.108-2.012,1.308-1.4,4.4,1.169,4.067,2.1-.233,3.974-1.684,5.845-2.524,5.47-2.62,12.3-5.285,13.886-4.022l2.993,4.489c-3.647,1.215-9.024,3.694-17.02,8.463a2.361,2.361,0,0,0,.7,4.255c2.058.654,5.565-2.477,7.342-3.46a62.7,62.7,0,0,1,11.268-5.143c8.931,14.962,20.76,19.311,54.334,23,2.851.329,6.078,3.274,8.7,7.9,3.18,5.7,5.425,14.215,4.209,21.789a29.657,29.657,0,0,1-.889,3.507h3.6C1103.123,1272.389,1101.253,1272.389,1101.253,1272.435Zm7.294.889a29.681,29.681,0,0,0,.7-4.489,42.941,42.941,0,0,0-5.143-25.2c-3.834-6.827-8.837-10.895-14.074-11.456-30.253-3.32-40.54-7.108-47.46-17.114h214.854c-1.4,20.995,5.471,44.046,11.176,53.772a40.485,40.485,0,0,1,2.2,4.489S1108.5,1273.651,1108.547,1273.324Zm170.061-1.216c0-.14-4.582-7.949-4.723-8.229,0,0,43.112-11.783,43.3-11.83,2.806-.748,1.637-5.33-1.216-4.489l-44,12.017c-4.067-9.959-8.556-27.213-7.574-43.672,3.179-.047,6.546-.281,9.959-.655,24.361-2.478,52.743-12.064,63.638-25.343.888-1.075,6.733-2.572,7.528-2.665-3.227,6.593-5.657,17.3-5.657,20.434a2.338,2.338,0,0,0,4.676,0c0-3.554,3.132-14.777,5.7-19.452l2.759,1.262c.747.374,1.542.7,2.244,1.075-2.759,5.471-2.9,13.608-2.852,15.151a2.367,2.367,0,0,0,2.338,2.291,2.316,2.316,0,0,0,2.338-2.338c0-4.863.842-10.475,2.385-13.232a6.807,6.807,0,0,0,.841.374c13,5.423,23.753,6.732,50.686-1.543,6.5-1.964,14.027-4.022,20.667-4.022,4.442,0,8,.935,10.614,2.806,3.414,2.431,6.453,12.25,8.323,20.76L1341.5,1240.594a2.3,2.3,0,0,0-1.636,2.851,2.342,2.342,0,0,0,2.244,1.731c.233,0,109.415-29.785,109.415-29.785a50.9,50.9,0,0,1,1.075,8.276c-.047.327-.047.842-.094.935-.046.14-.467.514-2.384,1.122-49.564,15.477-168.33,45.917-168.33,45.917A11.293,11.293,0,0,1,1278.608,1272.108Zm25.015,1.216c18.891-4.862,38.109-9.819,57.327-14.916,14.215,6.687,29.691,11.175,46.2,14.916Zm67.707-17.675c27.073-7.248,54.193-14.869,80.892-23.238,1.73-.515,5.377-1.684,6.78-5.144a10.336,10.336,0,0,0,.608-3.414c.047-3.413-3.787-32.777-13.279-39.557-3.834-2.712-8.745-4.068-14.683-4.068-7.575,0-15.757,2.2-22.725,4.349-12.9,3.975-21.789,5.7-28.8,5.7-8.837,0-14.916-2.852-24.174-7.154l-4.162-1.917c-2.852-1.309-6.172-1.449-10.942-.187a21.467,21.467,0,0,0-5.283,2.011c-2.478-.935-4.723-1.777-6.687-2.572l18.236-4.535a3.5,3.5,0,0,0,2.619-3.975l-23.894-147.383a143.841,143.841,0,1,1,45.5,231.08Z"></path> </g> </g> </svg> 