<?xml version="1.0" encoding="UTF-8"?> <svg xmlns="http://www.w3.org/2000/svg" viewBox="0 0 307.938 344.66"> <defs> <style>.\32 7c3ebf6-89c2-4912-9be3-553501309b0c{isolation:isolate;}.\36 5b28d59-7e63-4b09-9c59-0f373111939d{fill:#f4ae9e;}.\35 3778908-fe59-4477-8b07-c7e53865ecd7{fill:#2b2150;}.\35 02edb90-6375-481e-8dc0-8e05bcfb5775,.\37 1e8407d-3dd3-42b0-8077-04b41795491a,.c04dc99b-7479-4c9e-921b-4da1a18d01c3,.e1176574-0022-4a21-9ddb-ed5ea7fdfba6,.f939d82e-8135-41d4-ae15-04e48c9c0fbb,.fcc1d584-609e-479c-9245-843e0a816c35{fill:none;}.\33 d131772-fc90-4e1a-a1ba-e270c44bc115,.\35 02edb90-6375-481e-8dc0-8e05bcfb5775,.\36 16bfc20-2ba7-4f30-a51d-2d7ee507c576,.\36 90b7d59-55e3-4905-b850-9933b20a5240,.\36 c92dea0-6247-43f0-8e0d-662dc7c2b4cd,.\38 240dc3f-ab4b-4b4a-aa12-c1a1b36ac6d3,.c04dc99b-7479-4c9e-921b-4da1a18d01c3{stroke:#2b2150;}.c04dc99b-7479-4c9e-921b-4da1a18d01c3{stroke-linecap:square;stroke-width:15.798px;}.\32 afed894-a140-414c-953e-e32bf6a7792b,.\33 d131772-fc90-4e1a-a1ba-e270c44bc115,.\35 02edb90-6375-481e-8dc0-8e05bcfb5775,.\36 16bfc20-2ba7-4f30-a51d-2d7ee507c576,.\36 90b7d59-55e3-4905-b850-9933b20a5240,.\36 c92dea0-6247-43f0-8e0d-662dc7c2b4cd,.\37 1e8407d-3dd3-42b0-8077-04b41795491a,.\38 15d354f-a089-4a39-ad6b-4d614612199d,.\38 240dc3f-ab4b-4b4a-aa12-c1a1b36ac6d3,.c04dc99b-7479-4c9e-921b-4da1a18d01c3,.e1176574-0022-4a21-9ddb-ed5ea7fdfba6,.f939d82e-8135-41d4-ae15-04e48c9c0fbb,.fcc1d584-609e-479c-9245-843e0a816c35{stroke-linejoin:round;}.\36 16bfc20-2ba7-4f30-a51d-2d7ee507c576{fill:#63beb2;stroke-width:2.64px;}.\32 afed894-a140-414c-953e-e32bf6a7792b,.\33 d131772-fc90-4e1a-a1ba-e270c44bc115,.\35 02edb90-6375-481e-8dc0-8e05bcfb5775,.\36 16bfc20-2ba7-4f30-a51d-2d7ee507c576,.\36 90b7d59-55e3-4905-b850-9933b20a5240,.\36 c92dea0-6247-43f0-8e0d-662dc7c2b4cd,.\37 1e8407d-3dd3-42b0-8077-04b41795491a,.\38 15d354f-a089-4a39-ad6b-4d614612199d,.\38 240dc3f-ab4b-4b4a-aa12-c1a1b36ac6d3,.e1176574-0022-4a21-9ddb-ed5ea7fdfba6,.f939d82e-8135-41d4-ae15-04e48c9c0fbb,.fcc1d584-609e-479c-9245-843e0a816c35{stroke-linecap:round;}.\32 6154ce9-e5fe-4fa2-a3a7-6dadd75633aa,.\33 d131772-fc90-4e1a-a1ba-e270c44bc115,.\36 c92dea0-6247-43f0-8e0d-662dc7c2b4cd{fill:#f1f0ef;}.\36 c92dea0-6247-43f0-8e0d-662dc7c2b4cd{stroke-width:2.618px;}.\35 02edb90-6375-481e-8dc0-8e05bcfb5775{stroke-width:1.47px;stroke-dasharray:6.349 5.079 6.349;}.\32 a2ef2a2-cd38-4ccb-a2af-3dac0d00d961{fill:#f6af4e;}.\38 240dc3f-ab4b-4b4a-aa12-c1a1b36ac6d3{fill:#f3ae9e;}.\33 d131772-fc90-4e1a-a1ba-e270c44bc115,.\38 240dc3f-ab4b-4b4a-aa12-c1a1b36ac6d3{stroke-width:2.939px;}.\36 90b7d59-55e3-4905-b850-9933b20a5240{fill:#ed7e94;stroke-width:2.965px;}.\32 afed894-a140-414c-953e-e32bf6a7792b,.\39 d0fa375-c8e3-4c95-b391-940805f57110{fill:#f8be2c;}.a9309a6f-ee76-4c34-a13b-260e2a0e6eee{fill:#1d4277;}.e1176574-0022-4a21-9ddb-ed5ea7fdfba6{stroke:#f1f0ef;}.e1176574-0022-4a21-9ddb-ed5ea7fdfba6,.fcc1d584-609e-479c-9245-843e0a816c35{stroke-width:0.647px;}.\32 afed894-a140-414c-953e-e32bf6a7792b,.\37 1e8407d-3dd3-42b0-8077-04b41795491a,.\38 15d354f-a089-4a39-ad6b-4d614612199d,.f939d82e-8135-41d4-ae15-04e48c9c0fbb,.fcc1d584-609e-479c-9245-843e0a816c35{stroke:#1d4277;}.\32 afed894-a140-414c-953e-e32bf6a7792b{stroke-width:0.702px;}.\35 7f2043c-e2c8-41e6-9755-9c20b3ac2a90,.ec7919fb-6d1b-44a6-9d10-a5fc288fb5de{mix-blend-mode:multiply;}.\32 dcfc92e-76f0-410c-b66b-107a5ee182c9,.\35 7f2043c-e2c8-41e6-9755-9c20b3ac2a90{fill:#e6e7e8;}.be0d62d0-bb98-4112-975d-ecb79ffedbf0{fill:#82cfcd;}.f939d82e-8135-41d4-ae15-04e48c9c0fbb{stroke-width:0.677px;}.\38 15d354f-a089-4a39-ad6b-4d614612199d{fill:#61cae5;}.\37 1e8407d-3dd3-42b0-8077-04b41795491a,.\38 15d354f-a089-4a39-ad6b-4d614612199d{stroke-width:1.134px;}</style> </defs> <title>Kid 1_1</title> <g class="27c3ebf6-89c2-4912-9be3-553501309b0c"> <g id="a1b667b4-0823-4a7a-8b0f-ffe020dc9d30" data-name="Layer 2"> <g id="ce888eb6-cd9b-4858-ad9f-9f50edfa5f2e" data-name="Capa 1"> <path class="65b28d59-7e63-4b09-9c59-0f373111939d" d="M219.9,155.26l6.608-13.578c-1.413-1.565-1.978-4.5-2.314-7-.029-.219-.051-.386-.068-.477a12.905,12.905,0,0,1,.11-3.794,1.463,1.463,0,0,1,.881-1.009,1.965,1.965,0,0,1,1.571.086,4.087,4.087,0,0,1,2.27,3.076q.029-.077.063-.153l.125-.394c.7-2.2,1.868-5.877,2.255-7.442a2.845,2.845,0,0,1,1.563-1.936,1.89,1.89,0,0,1,1.324-.054,2.521,2.521,0,0,1,1.582,2.976c-.045.184-.089.368-.135.552.18-.355.333-.669.453-.926a3.02,3.02,0,0,1,1.542-1.512,2.019,2.019,0,0,1,1.629.009,2.4,2.4,0,0,1,1.121,3.172c-.235.551-.55,1.324-.9,2.186-.021.055-.045.111-.068.167.345-.445.64-.837.856-1.141a3.3,3.3,0,0,1,1.389-1.1,2.181,2.181,0,0,1,1.982.08,2.288,2.288,0,0,1,.634,3.3c-.269.4-.616.938-1.006,1.541.208-.169.405-.333.595-.492a2.38,2.38,0,0,1,.651-.4,2.417,2.417,0,0,1,2.45.361,1.742,1.742,0,0,1,.58,1.339,2.624,2.624,0,0,1-.953,1.88c-1.189,1.007-4.092,3.78-5.283,4.92a23.916,23.916,0,0,1-2.6,4.331,5.875,5.875,0,0,1-2.334,2.03c-.089.036-.18.068-.274.1l-6.758,14.307Z"></path> <path class="53778908-fe59-4477-8b07-c7e53865ecd7" d="M233.389,123.686a.761.761,0,0,1,.54-.026,1.4,1.4,0,0,1,.836,1.629c-.747,3.019-1.333,6.044-1.72,7.653.09.026.18.054.27.081,1.083-1.988,3.159-5.763,3.9-7.362a1.91,1.91,0,0,1,.942-.938.892.892,0,0,1,.726-.011,1.267,1.267,0,0,1,.567,1.665c-.773,1.8-2.168,5.428-3.319,7.836.193.1.38.2.567.308,1.509-1.851,3.7-4.546,4.591-5.8a2.137,2.137,0,0,1,.895-.708,1.084,1.084,0,0,1,.972,0,1.156,1.156,0,0,1,.293,1.667c-1,1.493-2.8,4.391-4.307,6.533.109.1.215.194.314.291,1.74-1.523,3.8-3.028,5.235-4.249a1.3,1.3,0,0,1,1.614-.055c.413.367.135,1.1-.351,1.509-1.222,1.033-4.126,3.808-5.52,5.142a21.314,21.314,0,0,1-2.52,4.274,4.931,4.931,0,0,1-1.869,1.678,2.507,2.507,0,0,1-.634.164l-6.49,13.739-7.521-3.947,6.506-13.373c-2.1-1.259-2.518-6.63-2.669-7.408a12.179,12.179,0,0,1,.1-3.3.338.338,0,0,1,.211-.234.9.9,0,0,1,.686.073c2.037.9,1.666,3.891,1.863,4,0,0,.652.421.784.5a6.226,6.226,0,0,0,1.2-2.2c.691-2.18,2-6.267,2.423-7.984a1.735,1.735,0,0,1,.892-1.159m-.858-2.1h0a3.966,3.966,0,0,0-2.235,2.707c-.274,1.109-.954,3.321-1.574,5.289a4.613,4.613,0,0,0-1.575-1.132,3.134,3.134,0,0,0-2.461-.1,2.625,2.625,0,0,0-1.557,1.793,13.768,13.768,0,0,0-.119,4.285c.013.072.032.215.056.4.338,2.522.862,5.192,2.106,7l-5.813,11.949-.964,1.979,1.949,1.022,7.52,3.947,2.1,1.1,1.01-2.139,6.059-12.827a7.345,7.345,0,0,0,2.669-2.324,25.747,25.747,0,0,0,2.657-4.373c1.27-1.215,3.951-3.771,5.062-4.71a3.726,3.726,0,0,0,1.354-2.734,2.85,2.85,0,0,0-.964-2.2,3.349,3.349,0,0,0-1.931-.812,3.368,3.368,0,0,0,0-1.389,3.444,3.444,0,0,0-1.553-2.23,3.257,3.257,0,0,0-2.489-.335,3.546,3.546,0,0,0-2.016-3.1,3.144,3.144,0,0,0-2.527-.027,3.785,3.785,0,0,0-.764.427,3.6,3.6,0,0,0-1.9-1.544,3.04,3.04,0,0,0-2.1.082Z"></path> <polyline class="c04dc99b-7479-4c9e-921b-4da1a18d01c3" points="191.368 185.412 217.7 169.314 228.445 148.506"></polyline> <path class="65b28d59-7e63-4b09-9c59-0f373111939d" d="M61.862,152.141a5.572,5.572,0,0,1-2.68-2.031,24.168,24.168,0,0,1-2.746-4.24c-2.761-2.465-4.595-4.057-5.451-4.732a2.626,2.626,0,0,1-1.018-1.85,1.738,1.738,0,0,1,.531-1.356,2.076,2.076,0,0,1,.65-.413,2.458,2.458,0,0,1,2.455.344c.191.151.394.307.6.467-.409-.589-.777-1.115-1.077-1.529a2.289,2.289,0,0,1,.539-3.294,1.847,1.847,0,0,1,.317-.166,2.811,2.811,0,0,1,3.085,1.061c.226.291.536.674.895,1.107-.026-.059-.052-.116-.078-.174-.377-.841-.717-1.6-.984-2.168a2.339,2.339,0,0,1-.074-1.956,2.375,2.375,0,0,1,1.095-1.222l.138-.062a2.564,2.564,0,0,1,3.088,1.451c.125.249.29.557.482.906-.051-.179-.1-.361-.152-.541a2.521,2.521,0,0,1,1.413-3,1.968,1.968,0,0,1,1.624.086,2.918,2.918,0,0,1,1.394,1.778c.431,1.515,1.7,5.082,2.465,7.213l.191.538c.023.048.045.1.065.145a4.073,4.073,0,0,1,2.16-3.148l.164-.075a1.891,1.891,0,0,1,1.544-.011,1.484,1.484,0,0,1,.778.922,12.934,12.934,0,0,1,.243,3.786c-.014.094-.032.263-.052.486-.251,2.512-.715,5.458-2.07,7.071l7.078,13.34L69.118,166.2Z"></path> <path class="53778908-fe59-4477-8b07-c7e53865ecd7" d="M58.493,130.976c.587-.24,1.33.29,1.647.914.8,1.573,3,5.274,4.153,7.223.089-.03.178-.059.267-.09-.446-1.6-1.137-4.6-1.987-7.59a1.4,1.4,0,0,1,.752-1.645l.025-.01c.621-.228,1.273.431,1.472,1.134.485,1.7,1.938,5.74,2.706,7.894a6.138,6.138,0,0,0,1.269,2.155c.131-.084.768-.528.768-.528.192-.118-.284-3.092,1.723-4.062.034-.017.067-.032.1-.045.455-.186.737-.051.8.173a12.211,12.211,0,0,1,.214,3.293c-.126.784-.358,6.164-2.414,7.5l6.971,13.138-7.377,4.206-6.967-13.5c-.85-.082-1.514-.5-2.568-1.753a21.43,21.43,0,0,1-2.666-4.184c-1.437-1.284-4.44-3.956-5.7-4.947-.5-.4-.8-1.112-.4-1.5a.954.954,0,0,1,.3-.183,1.321,1.321,0,0,1,1.319.183c1.483,1.168,3.591,2.6,5.381,4.062.1-.1.2-.2.3-.3-1.584-2.086-3.478-4.919-4.532-6.375a1.161,1.161,0,0,1,.237-1.679.751.751,0,0,1,.129-.067,1.716,1.716,0,0,1,1.76.705c.935,1.219,3.218,3.837,4.789,5.634.183-.113.366-.221.556-.329-1.234-2.366-2.756-5.942-3.591-7.715A1.272,1.272,0,0,1,58.437,131c.018-.009.038-.019.056-.026m-.858-2.1-.083.034-.134.064a3.559,3.559,0,0,0-1.9,3.164,3.271,3.271,0,0,0-1.962.152,3.032,3.032,0,0,0-.5.26,3.442,3.442,0,0,0-1.484,2.28,3.333,3.333,0,0,0,.051,1.4,3.587,3.587,0,0,0-.906.238,3.207,3.207,0,0,0-1,.643,2.863,2.863,0,0,0-.883,2.227,3.733,3.733,0,0,0,1.439,2.68c.58.458,1.949,1.61,5.234,4.54a25.989,25.989,0,0,0,2.806,4.278,7.253,7.253,0,0,0,2.753,2.232l6.5,12.6,1.084,2.1,2.054-1.17,7.377-4.2L80,161.31l-1.031-1.945-6.229-11.739c1.18-1.844,1.611-4.528,1.863-7.056.019-.189.031-.335.045-.425a13.78,13.78,0,0,0-.276-4.276A2.609,2.609,0,0,0,73,134.245a3,3,0,0,0-2.468-.018c-.076.031-.154.065-.236.1a4.644,4.644,0,0,0-1.53,1.18c-.685-1.931-1.451-4.133-1.759-5.221a4.028,4.028,0,0,0-1.971-2.477,3.054,3.054,0,0,0-2.463-.166l-.04.015-.064.025a3.619,3.619,0,0,0-1.74,1.569,3.28,3.28,0,0,0-3.091-.38Z"></path> <polyline class="c04dc99b-7479-4c9e-921b-4da1a18d01c3" points="108.04 190.003 81.163 174.836 69.701 154.418"></polyline> <path class="616bfc20-2ba7-4f30-a51d-2d7ee507c576" d="M121.1,325.19c-13.148,6.6-11.324,16.817-11.239,18.078s28.924-14.349,28.924-14.349,1.874-3.713-4.126-10.132C127.07,310.663,124.452,323.505,121.1,325.19Z"></path> <path class="53778908-fe59-4477-8b07-c7e53865ecd7" d="M134.618,245.337s-.306,1.108-.844,3.048c-.282.971-.625,2.152-1.018,3.507s-.85,2.87-1.341,4.529-1.023,3.434-1.584,5.323-1.139,3.85-1.7,5.881c-.587,2.015-1.151,4.08-1.66,6.141q-.359,1.509-.717,3.034l-.283,1.434a12.8,12.8,0,0,0-.235,1.358l-.175,1.244c0,.291,0,.536-.024.8l-.021.2c-.051-1.183-.013-.313-.023-.57l0,.028,0,.054.008.111.017.219.064.876.031.434.049.149a2.9,2.9,0,0,1,.072.3c.027.119.015.155.058.351l.146.665c.105.452.167.864.3,1.346.259.947.455,1.877.74,2.854.5,1.921,1.145,3.832,1.666,5.678.571,1.856,1.109,3.61,1.609,5.23,1.009,3.267,1.853,6.027,2.4,7.972.274.969.487,1.731.632,2.251.132.5.2.773.2.773L135,318.325l-12.092,5.511-4.3-6.723s-.172-.269-.493-.774-.765-1.21-1.3-2.137c-1.095-1.846-2.566-4.513-4.177-7.822-.831-1.647-1.629-3.479-2.483-5.444s-1.66-4.082-2.468-6.392c-.412-1.123-.8-2.366-1.161-3.609-.188-.61-.349-1.325-.523-1.989l-.253-1.019c-.085-.37-.174-.909-.254-1.359l-.228-1.419-.1-.712-.039-.44-.074-.874-.019-.22-.01-.109-.033-.706.027-.684c.043-.906.095-1.836.174-2.722l.344-2.255c.112-.781.258-1.456.408-2.121l.446-2.022c.326-1.275.655-2.539,1.027-3.764.743-2.412,1.52-4.717,2.3-6.911.823-2.173,1.645-4.245,2.441-6.188s1.625-3.742,2.374-5.4,1.5-3.151,2.145-4.481,1.265-2.463,1.753-3.407c.516-.941.922-1.682,1.2-2.186l.441-.764,3.973-6.9,12.707,5.375Z"></path> <path class="616bfc20-2ba7-4f30-a51d-2d7ee507c576" d="M190.4,319.854c-9.284,11.415-3.435,19.98-2.842,21.1s20.5-24.943,20.5-24.943.187-4.153-7.917-7.551C189.891,304.16,192.763,316.946,190.4,319.854Z"></path> <path class="53778908-fe59-4477-8b07-c7e53865ecd7" d="M170,241.478s.174,1.136.478,3.125c.141,1,.314,2.22.508,3.617s.4,2.965.634,4.681.475,3.551.738,5.5c.248,1.945.539,3.977.855,6.062.292,2.078.623,4.194,1,6.284.194,1.014.393,2.034.59,3.059l.329,1.425a12.837,12.837,0,0,0,.342,1.334l.35,1.208c.118.266.219.489.307.743l.063.188c-.534-1.066-.142-.281-.257-.512l.013.024.027.048.053.1.1.193.418.773.208.381.106.118c.067.08.13.162.188.246.074.1.078.137.2.3l.406.548c.281.369.507.719.825,1.1.625.757,1.183,1.528,1.845,2.3,1.24,1.547,2.615,3.026,3.847,4.494,1.281,1.46,2.494,2.839,3.612,4.113,2.261,2.565,4.163,4.737,5.458,6.286.647.773,1.153,1.381,1.5,1.794l.5.625,5.017,6.257-8.771,9.982-6.673-4.372-.77-.5c-.483-.327-1.192-.79-2.059-1.419-1.755-1.233-4.189-3.063-7.015-5.423-1.432-1.161-2.912-2.5-4.5-3.946s-3.189-3.043-4.872-4.818c-.834-.857-1.7-1.832-2.537-2.816-.424-.481-.861-1.066-1.294-1.6l-.649-.826c-.226-.3-.531-.757-.788-1.133l-.788-1.2-.385-.608-.217-.386-.426-.767-.108-.192-.053-.1-.323-.634-.255-.635c-.331-.843-.664-1.714-.956-2.553l-.608-2.2c-.22-.756-.363-1.433-.5-2.1l-.423-2.026c-.225-1.3-.442-2.585-.606-3.854-.31-2.5-.547-4.926-.735-7.246-.142-2.319-.241-4.545-.311-6.644s-.051-4.079-.048-5.9.081-3.489.121-4.966.144-2.766.2-3.825c.085-1.071.151-1.912.2-2.485s.089-.878.089-.878l.8-7.918L168.8,233.6Z"></path> <path class="53778908-fe59-4477-8b07-c7e53865ecd7" d="M181.865,269a34.332,34.332,0,0,1-12.452,2.509l-30.445.532c-14.82.258-27.23-8.443-28.869-20.239a1.308,1.308,0,0,1,1.273-1.489l84.861-1.48a1.309,1.309,0,0,1,1.324,1.444c-.819,7.924-6.833,15.1-15.691,18.723Z"></path> <path class="53778908-fe59-4477-8b07-c7e53865ecd7" d="M111.4,251.618l84.861-1.48c-.795,7.671-6.623,14.266-14.887,17.647A33.213,33.213,0,0,1,169.39,270.2l-30.446.532c-14.2.248-26.025-8.142-27.549-19.11m-.991-2.424a2.618,2.618,0,0,0-1.6,2.784c1.731,12.451,14.707,21.637,30.187,21.368l30.447-.533a35.607,35.607,0,0,0,12.924-2.606A29.413,29.413,0,0,0,193.6,262.27a21.75,21.75,0,0,0,5.256-11.863,2.62,2.62,0,0,0-2.65-2.887L111.349,249a2.64,2.64,0,0,0-.945.194Z"></path> <path class="53778908-fe59-4477-8b07-c7e53865ecd7" d="M196.051,251.361a1.328,1.328,0,0,1-.474.1l-84.883,1.482a1.308,1.308,0,0,1-1.151-.645c-.2-.341-4.932-8.626-5.317-30.568-.207-11.817.462-15.149,1.926-22.451.575-2.862,1.289-6.423,2.122-11.384a1.312,1.312,0,0,1,1.063-1.073l87.544-15.41a1.308,1.308,0,0,1,1.534,1.23c.014.326,1.464,32.732,1.763,49.874.309,17.653-3.241,27.665-3.393,28.082A1.305,1.305,0,0,1,196.051,251.361Z"></path> <path class="53778908-fe59-4477-8b07-c7e53865ecd7" d="M109.564,188.109,197.108,172.7s1.458,32.516,1.762,49.838c.308,17.615-3.315,27.613-3.315,27.613l-84.884,1.483s-4.753-8.078-5.137-29.928c-.285-16.352,1.108-16.178,4.03-33.595m-.991-2.424a2.616,2.616,0,0,0-1.589,1.99c-.83,4.941-1.542,8.491-2.115,11.344-1.483,7.4-2.16,10.772-1.952,22.73.392,22.283,5.289,30.856,5.5,31.211a2.621,2.621,0,0,0,2.3,1.289l84.882-1.482a2.62,2.62,0,0,0,2.416-1.726c.154-.427,3.783-10.658,3.471-28.55-.3-17.161-1.749-49.584-1.764-49.909a2.618,2.618,0,0,0-3.068-2.462l-87.544,15.411a2.619,2.619,0,0,0-.538.154Z"></path> <path class="26154ce9-e5fe-4fa2-a3a7-6dadd75633aa" d="M168.735,250.618l-51.043.891s-5.55-9.262-5.932-31.113c-.288-16.35,3.188-15.016,4.824-32.408l51.9-6.687s1.753,24.408,2.057,41.732C170.846,240.645,168.735,250.618,168.735,250.618Z"></path> <polygon class="616bfc20-2ba7-4f30-a51d-2d7ee507c576" points="136.21 206.273 134.116 206.31 127.131 233.97 131.173 242.193 136.758 237.58 136.21 206.273"></polygon> <path class="6c92dea0-6247-43f0-8e0d-662dc7c2b4cd" d="M114.025,187.733c.863,1.01.259,14.874.259,14.874l21.894-5.235,21.587,14.8,20.463-24.259,2.076-7.389-59.954-.015Z"></path> <polygon class="616bfc20-2ba7-4f30-a51d-2d7ee507c576" points="126.53 199.678 134.201 211.113 145.757 205.127 136.178 197.372 126.53 199.678"></polygon> <path class="502edb90-6375-481e-8dc0-8e05bcfb5775" d="M116.582,205.554s-5.281,13.922.647,36.882"></path> <path class="65b28d59-7e63-4b09-9c59-0f373111939d" d="M179.638,190.069c-23.5,9.611-62.146,7.743-80.034-10.3-20.276-20.45-1.579-84.838,16.362-104.906a36.546,36.546,0,0,1,13.574-9.441c13.989-5.723,29.065-3.28,33.354-2.4,40.831,8.435,38.009,71.448,36.493,105.3-.4,8.976-7.412,16.7-19.743,21.743Z"></path> <path class="53778908-fe59-4477-8b07-c7e53865ecd7" d="M130.1,66.78c12.241-5.008,26.007-3.657,32.5-2.317,39.4,8.139,36.88,69.006,35.322,103.8-.4,9.017-7.938,15.991-18.835,20.449-23.015,9.416-61.019,7.594-78.438-9.975C80.84,158.753,99.7,95.259,117.061,75.839A35.04,35.04,0,0,1,130.1,66.78m-1.113-2.721a38,38,0,0,0-14.114,9.822c-9.158,10.244-18.332,31.377-22.829,52.585C84.783,160.7,93.01,175.2,98.559,180.8c18.3,18.459,57.711,20.417,81.638,10.628,12.894-5.275,20.231-13.456,20.658-23.038,1.537-34.29,4.4-98.117-37.664-106.8-4.39-.907-19.832-3.407-34.207,2.474Z"></path> <path class="53778908-fe59-4477-8b07-c7e53865ecd7" d="M119.463,133.031c.055,3.221-1.962,5.869-4.513,5.913s-4.66-2.53-4.714-5.751,1.962-5.868,4.511-5.911S119.407,129.811,119.463,133.031Z"></path> <path class="53778908-fe59-4477-8b07-c7e53865ecd7" d="M156.472,138.218c.057,3.223-1.962,5.869-4.51,5.914s-4.659-2.532-4.714-5.752,1.96-5.867,4.508-5.914S156.414,135,156.472,138.218Z"></path> <path class="2a2ef2a2-cd38-4ccb-a2af-3dac0d00d961" d="M205.689,142.564a1.1,1.1,0,0,1-.823,0c-4.071-1.609-5.31-5.765-6.508-9.784-.879-2.952-1.717-5.758-3.56-7.607a8.1,8.1,0,0,1-3.271,2.454,9.217,9.217,0,0,1-10.049-2.364c-1.444-1.563-4.293-5.866-1.157-13.254-5.578-.671-11.5-2.812-17.74-5.067-10.041-3.63-20.424-7.384-30.331-5.289a65.91,65.91,0,0,0-8.91,2.92c-7.345,2.769-15.671,5.909-22.322,2.972-8.508-3.759-19.279-17.534-20.581-26.32-1.3-8.769-1.905-20.109,5.062-30.05a1.1,1.1,0,0,1,1.981.4c.723,3.394,3.194,9.767,7.57,11.194C98.069,49.4,103.933,41.1,112.955,37.4a26.538,26.538,0,0,1,3.136-1.056,1.1,1.1,0,0,1,1.366,1.287l-.039.191c-.892,4.313-2.238,10.828.825,14.374,2.009,2.325,3.278,2.069,4.405,1.608a17.708,17.708,0,0,0,2.427-1.351c.668-.415,1.374-.853,2.135-1.262a46.57,46.57,0,0,1,4.42-2.077c18.139-7.421,44.632-5.3,59.057,4.739,6.506,4.526,10.025,10.241,10.234,16.592,6.469-.084,12.445,5.72,15.416,11.48,3.657,7.089,1.7,14.484-.706,20.785-.893,2.348-1.91,4.738-2.893,7.048a103.918,103.918,0,0,0-4.853,12.948c-1.266,4.656-1.33,9.2-1.4,14.02-.022,1.594-.046,3.209-.114,4.859a1.1,1.1,0,0,1-.5.879A1.031,1.031,0,0,1,205.689,142.564Z"></path> <path class="53778908-fe59-4477-8b07-c7e53865ecd7" d="M113.373,38.424a25.34,25.34,0,0,1,3-1.012c-.943,4.566-2.436,11.5,1.032,15.508,2.154,2.494,3.859,2.643,5.654,1.909,1.413-.578,2.881-1.7,4.668-2.663a45.715,45.715,0,0,1,4.315-2.029c26.555-10.863,68.51-.825,67.772,21.494,6.562-.867,12.736,5.368,15.539,10.8,3.352,6.5,1.731,13.363-.756,19.887-2.54,6.667-5.957,13.4-7.779,20.1-1.729,6.354-1.282,12.463-1.552,19.124-6.729-2.66-4.786-13.735-10.689-18a7.1,7.1,0,0,1-3.472,3.065c-6.08,2.487-15.114-3.692-9.132-15.549-14.725-1.009-32.947-14.081-49.956-10.483-8.862,1.872-21.537,9.944-30.558,5.962-8-3.535-18.66-16.856-19.937-25.474C79.973,70.6,80.289,60.535,86.4,51.812c.991,4.651,4.172,11.535,9.489,12.286,2.286-10.886,6.99-21.382,17.482-25.674m-.835-2.041C103.463,40.1,97.476,48.232,94.286,61.212c-3.016-1.82-5.03-6.58-5.728-9.86a2.2,2.2,0,0,0-3.962-.8c-7.189,10.261-6.582,21.874-5.249,30.845,1.37,9.249,12.28,23.215,21.225,27.167,7.064,3.118,15.613-.106,23.156-2.95a64.838,64.838,0,0,1,8.749-2.871c9.6-2.031,19.833,1.668,29.729,5.246,5.789,2.092,11.305,4.086,16.584,4.927-2.518,7.176.375,11.478,1.878,13.105a10.206,10.206,0,0,0,11.277,2.637,9.188,9.188,0,0,0,2.813-1.809A21.794,21.794,0,0,1,197.3,133.1c1.214,4.073,2.59,8.689,7.16,10.5a2.206,2.206,0,0,0,3.013-1.961c.066-1.667.089-3.3.113-4.887.067-4.744.131-9.226,1.361-13.746a102.828,102.828,0,0,1,4.8-12.807c.987-2.319,2.008-4.718,2.91-7.087,2.487-6.528,4.51-14.208.655-21.682-2.967-5.753-8.835-11.541-15.355-12.043-.546-6.3-4.188-11.937-10.646-16.429-14.946-10.4-41.347-12.528-60.1-4.855a47.809,47.809,0,0,0-4.524,2.127c-.8.43-1.542.891-2.2,1.3a16.655,16.655,0,0,1-2.264,1.269c-.733.3-1.493.611-3.15-1.309-2.711-3.136-1.429-9.33-.582-13.429l.041-.193a2.206,2.206,0,0,0-2.733-2.575,27.718,27.718,0,0,0-3.267,1.1Z"></path> <path class="65b28d59-7e63-4b09-9c59-0f373111939d" d="M193.421,128.01c1.492-5.783,8.365-7.353,12.369-7.422a13.226,13.226,0,1,1-8.957,22.737"></path> <path class="53778908-fe59-4477-8b07-c7e53865ecd7" d="M193.421,128.01s.04-.261.167-.742a7.711,7.711,0,0,1,.845-2.01,9.376,9.376,0,0,1,2.31-2.545,14.4,14.4,0,0,1,3.973-2.068,19.072,19.072,0,0,1,5.259-.99c.462,0,.9-.048,1.4-.014.508.056,1.054.071,1.556.175a13.858,13.858,0,0,1,3.035.862,14.044,14.044,0,0,1,5.353,3.9,14.338,14.338,0,0,1,3.057,6.178,13.683,13.683,0,0,1,.313,3.485l-.037.792-.123.906a12.847,12.847,0,0,1-.365,1.718,14.19,14.19,0,0,1-8.356,9.309,13.294,13.294,0,0,1-5.382.945,13.723,13.723,0,0,1-4.45-.889,12.52,12.52,0,0,1-3.009-1.67,10.714,10.714,0,0,1-1.616-1.46c-.336-.369-.515-.564-.515-.564l.625.434a13.807,13.807,0,0,0,1.83,1.063,14.319,14.319,0,0,0,3.029,1.065,14.5,14.5,0,0,0,4.057.256,12.946,12.946,0,0,0,4.514-1.265,12.812,12.812,0,0,0,4.022-3.179,12.5,12.5,0,0,0,2.485-4.8,10.857,10.857,0,0,0,.261-1.335l.087-.65.022-.777a13.371,13.371,0,0,0-.231-2.787,12.359,12.359,0,0,0-2.347-5.038,12.129,12.129,0,0,0-4.216-3.448,11.737,11.737,0,0,0-2.48-.944c-.42-.126-.82-.163-1.228-.255-.419-.067-.908-.092-1.35-.14a18.169,18.169,0,0,0-4.805.468,11.08,11.08,0,0,0-6.288,3.53,7.611,7.611,0,0,0-1.114,1.78C193.5,127.756,193.421,128.01,193.421,128.01Z"></path> <path class="65b28d59-7e63-4b09-9c59-0f373111939d" d="M200.764,127.637s11.511-.2,7.92,11.744"></path> <path class="53778908-fe59-4477-8b07-c7e53865ecd7" d="M200.764,127.637a6.839,6.839,0,0,1,2.851-.481,8.1,8.1,0,0,1,3,.691,6.36,6.36,0,0,1,.79.437,3.536,3.536,0,0,1,.763.548c.237.216.492.422.715.66l.594.8a8.018,8.018,0,0,1,.839,1.766,10.944,10.944,0,0,1,.277,1.809c-.017.578-.05,1.132-.11,1.642-.125.5-.261.955-.393,1.37a4.444,4.444,0,0,1-.483,1.081c-.161.311-.331.57-.463.782a7.079,7.079,0,0,1-.456.644s-.058-.3-.11-.79c-.024-.244-.062-.539-.072-.863a7.066,7.066,0,0,0-.106-1.074c-.052-.385-.1-.792-.129-1.212-.094-.408-.195-.824-.263-1.251-.1-.415-.29-.8-.387-1.21a10.58,10.58,0,0,0-.6-1.077l-.344-.508-.422-.454a8.787,8.787,0,0,0-.937-.842c-.353-.236-.685-.5-1.053-.7-.348-.233-.714-.4-1.049-.6-.681-.35-1.294-.646-1.738-.841S200.764,127.637,200.764,127.637Z"></path> <path class="65b28d59-7e63-4b09-9c59-0f373111939d" d="M207.82,131.923s-6.954,1.47-5.639,6.713"></path> <path class="53778908-fe59-4477-8b07-c7e53865ecd7" d="M208.143,133.356c-.018,0-.128,0-.351.027a9.712,9.712,0,0,0-.989.157,9.535,9.535,0,0,0-1.374.394,6.848,6.848,0,0,0-1.448.728,6.769,6.769,0,0,0-.635.512,4.1,4.1,0,0,0-.508.609,2.827,2.827,0,0,0-.36.669,2.572,2.572,0,0,0-.209.67c-.035.216-.082.421-.1.606,0,.184,0,.346.006.479l.006.429s-.047-.148-.131-.408c-.041-.132-.094-.294-.151-.479-.04-.19-.055-.411-.088-.655a3.075,3.075,0,0,1,0-.8,3.536,3.536,0,0,1,.18-.9,4.844,4.844,0,0,1,.386-.925,7.78,7.78,0,0,1,.582-.864,8.518,8.518,0,0,1,1.464-1.41,11.654,11.654,0,0,1,1.475-.963,12.182,12.182,0,0,1,1.129-.554c.295-.126.486-.19.468-.186Z"></path> <path class="2a2ef2a2-cd38-4ccb-a2af-3dac0d00d961" d="M167.138,126.226a1.107,1.107,0,0,1-.844-.017l-15.454-6.775a1.1,1.1,0,0,1-.568-1.452l1.923-4.394a1.105,1.105,0,0,1,.592-.578L152.8,113a1.107,1.107,0,0,1,.844.017L169.1,119.8a1.1,1.1,0,0,1,.567,1.453l-1.924,4.394a1.1,1.1,0,0,1-.592.577Z"></path> <path class="53778908-fe59-4477-8b07-c7e53865ecd7" d="M153.205,114.03l15.456,6.775-1.924,4.394-15.455-6.774,1.923-4.395m-.835-2.04a2.193,2.193,0,0,0-1.184,1.156l-1.924,4.395a2.2,2.2,0,0,0,1.135,2.9l15.455,6.775a2.211,2.211,0,0,0,1.687.035l.033-.014a2.205,2.205,0,0,0,1.184-1.155l1.925-4.394a2.2,2.2,0,0,0-1.136-2.9l-15.455-6.775a2.214,2.214,0,0,0-1.688-.035l-.032.014Z"></path> <path class="2a2ef2a2-cd38-4ccb-a2af-3dac0d00d961" d="M123.748,118.568a1.244,1.244,0,0,1-.17.054l-16.446,3.789a1.1,1.1,0,0,1-1.32-.827l-1.078-4.675a1.1,1.1,0,0,1,.656-1.267,1.175,1.175,0,0,1,.171-.054l16.445-3.789a1.1,1.1,0,0,1,1.32.826L124.4,117.3a1.1,1.1,0,0,1-.656,1.268Z"></path> <path class="53778908-fe59-4477-8b07-c7e53865ecd7" d="M105.808,116.662l16.445-3.789,1.078,4.675-16.446,3.789-1.077-4.675m-.838-2.039a2.207,2.207,0,0,0-1.311,2.534l1.079,4.675a2.206,2.206,0,0,0,2.643,1.654l16.445-3.79a2.24,2.24,0,0,0,.34-.108,2.206,2.206,0,0,0,1.312-2.535l-1.078-4.675a2.2,2.2,0,0,0-2.642-1.653l-16.445,3.789a2.322,2.322,0,0,0-.343.109Z"></path> <path class="8240dc3f-ab4b-4b4a-aa12-c1a1b36ac6d3" d="M126.436,146.753c.058,3.689,3.153,4.738,8.776,2.419"></path> <path class="690b7d59-55e3-4905-b850-9933b20a5240" d="M113.238,152.678s16.626,8.37,41.355,2.794c0,0-.719,21.482-21.818,20.013C112.476,174.074,113.238,152.678,113.238,152.678Z"></path> <path class="3d131772-fc90-4e1a-a1ba-e270c44bc115" d="M115.678,153.7c2.508,5.18,7.4,10.229,16.907,10.893,9.8.679,15.2-3.587,18.174-8.354C133.54,159.246,120.778,155.6,115.678,153.7Z"></path> <path class="502edb90-6375-481e-8dc0-8e05bcfb5775" d="M134.573,54.933c1.111.348,33.732-11.849,57.727,8.912"></path> <path class="26154ce9-e5fe-4fa2-a3a7-6dadd75633aa" d="M114.306,130.733a1.287,1.287,0,1,1-.934-1.791A1.448,1.448,0,0,1,114.306,130.733Z"></path> <path class="26154ce9-e5fe-4fa2-a3a7-6dadd75633aa" d="M151.19,136.475a1.286,1.286,0,1,1-.934-1.79A1.445,1.445,0,0,1,151.19,136.475Z"></path> <path class="9d0fa375-c8e3-4c95-b391-940805f57110" d="M67.284,232.43a8.2,8.2,0,1,1,2.046-.259A8.189,8.189,0,0,1,67.284,232.43Z"></path> <path class="a9309a6f-ee76-4c34-a13b-260e2a0e6eee" d="M67.3,216.415a7.823,7.823,0,1,1-1.951.248,7.82,7.82,0,0,1,1.951-.248m0-.758a8.631,8.631,0,0,0-2.141.271,8.576,8.576,0,0,0,2.129,16.881,8.576,8.576,0,0,0,.012-17.152Z"></path> <path class="e1176574-0022-4a21-9ddb-ed5ea7fdfba6" d="M65.608,222.8a1.672,1.672,0,0,0-.984,2.123,1.74,1.74,0,0,0,1.885,1.384c.7-.179,1.041-.779.812-1.947s.031-2.009.75-2.193c.934-.24,1.635.417,1.884,1.386a1.67,1.67,0,0,1-.983,2.122"></path> <line class="e1176574-0022-4a21-9ddb-ed5ea7fdfba6" x1="64.476" y1="224.957" x2="63.497" y2="225.208"></line> <line class="e1176574-0022-4a21-9ddb-ed5ea7fdfba6" x1="71.083" y1="223.258" x2="70.009" y2="223.535"></line> <path class="2afed894-a140-414c-953e-e32bf6a7792b" d="M72.681,226.138a5.674,5.674,0,0,1-.469,1"></path> <path class="2afed894-a140-414c-953e-e32bf6a7792b" d="M68.712,229.77a5.717,5.717,0,1,1,4.115-6.959"></path> <path class="fcc1d584-609e-479c-9245-843e0a816c35" d="M65.608,222.8a1.672,1.672,0,0,0-.984,2.123,1.74,1.74,0,0,0,1.885,1.384c.7-.179,1.041-.779.812-1.947s.031-2.009.75-2.193c.934-.24,1.635.417,1.884,1.386a1.67,1.67,0,0,1-.983,2.122"></path> <line class="fcc1d584-609e-479c-9245-843e0a816c35" x1="64.476" y1="224.957" x2="63.497" y2="225.208"></line> <line class="fcc1d584-609e-479c-9245-843e0a816c35" x1="71.083" y1="223.258" x2="70.009" y2="223.535"></line> <g class="ec7919fb-6d1b-44a6-9d10-a5fc288fb5de"> <path class="2dcfc92e-76f0-410c-b66b-107a5ee182c9" d="M74.861,222.288c0-.012-.006-.023-.009-.033l-15.142,3.89c0,.011.006.022.01.033a7.816,7.816,0,0,0,15.141-3.89Z"></path> </g> <path class="9d0fa375-c8e3-4c95-b391-940805f57110" d="M20.465,156.116a8.2,8.2,0,1,1,2.046-.259A8.192,8.192,0,0,1,20.465,156.116Z"></path> <path class="a9309a6f-ee76-4c34-a13b-260e2a0e6eee" d="M20.476,140.1a7.823,7.823,0,1,1-1.951.248,7.82,7.82,0,0,1,1.951-.248m0-.758a8.623,8.623,0,0,0-2.14.271A8.575,8.575,0,0,0,20.465,156.5a8.576,8.576,0,0,0,.011-17.152Z"></path> <path class="e1176574-0022-4a21-9ddb-ed5ea7fdfba6" d="M18.788,146.482A1.674,1.674,0,0,0,17.8,148.6a1.742,1.742,0,0,0,1.886,1.384c.7-.179,1.041-.779.812-1.947s.031-2.009.75-2.193c.934-.24,1.635.417,1.885,1.386a1.671,1.671,0,0,1-.983,2.122"></path> <line class="e1176574-0022-4a21-9ddb-ed5ea7fdfba6" x1="17.656" y1="148.643" x2="16.678" y2="148.894"></line> <line class="e1176574-0022-4a21-9ddb-ed5ea7fdfba6" x1="24.263" y1="146.944" x2="23.189" y2="147.221"></line> <path class="2afed894-a140-414c-953e-e32bf6a7792b" d="M25.862,149.824a5.75,5.75,0,0,1-.47,1"></path> <path class="2afed894-a140-414c-953e-e32bf6a7792b" d="M21.892,153.456a5.717,5.717,0,1,1,4.116-6.959"></path> <path class="fcc1d584-609e-479c-9245-843e0a816c35" d="M18.788,146.482A1.674,1.674,0,0,0,17.8,148.6a1.742,1.742,0,0,0,1.886,1.384c.7-.179,1.041-.779.812-1.947s.031-2.009.75-2.193c.934-.24,1.635.417,1.885,1.386a1.671,1.671,0,0,1-.983,2.122"></path> <line class="fcc1d584-609e-479c-9245-843e0a816c35" x1="17.656" y1="148.643" x2="16.678" y2="148.894"></line> <line class="fcc1d584-609e-479c-9245-843e0a816c35" x1="24.263" y1="146.944" x2="23.189" y2="147.221"></line> <g class="ec7919fb-6d1b-44a6-9d10-a5fc288fb5de"> <path class="2dcfc92e-76f0-410c-b66b-107a5ee182c9" d="M28.041,145.974a.277.277,0,0,1-.009-.033l-15.142,3.89c0,.011.006.022.01.033a7.816,7.816,0,0,0,15.141-3.89Z"></path> </g> <path class="9d0fa375-c8e3-4c95-b391-940805f57110" d="M242.3,44.507a8.2,8.2,0,0,1-3.377-15.667,8.125,8.125,0,0,1,3.367-.727,8.2,8.2,0,0,1,.01,16.394Z"></path> <path class="a9309a6f-ee76-4c34-a13b-260e2a0e6eee" d="M242.293,28.492a7.82,7.82,0,1,1-3.211.694,7.819,7.819,0,0,1,3.211-.694m0-.759h0a8.581,8.581,0,0,0-7.811,12.106,8.575,8.575,0,1,0,7.811-12.106Z"></path> <path class="e1176574-0022-4a21-9ddb-ed5ea7fdfba6" d="M241.171,38.214a1.671,1.671,0,0,0,2.261.6,1.741,1.741,0,0,0,1.04-2.095c-.3-.66-.947-.89-2.058-.466s-1.984.316-2.289-.36a1.579,1.579,0,0,1,1.041-2.1,1.672,1.672,0,0,1,2.26.6"></path> <line class="e1176574-0022-4a21-9ddb-ed5ea7fdfba6" x1="243.494" y1="38.958" x2="243.91" y2="39.879"></line> <line class="e1176574-0022-4a21-9ddb-ed5ea7fdfba6" x1="240.688" y1="32.741" x2="241.143" y2="33.75"></line> <path class="2afed894-a140-414c-953e-e32bf6a7792b" d="M243.249,30.671a5.794,5.794,0,0,1,1.07.29"></path> <path class="2afed894-a140-414c-953e-e32bf6a7792b" d="M247.509,33.958a5.717,5.717,0,1,1-7.564-2.859"></path> <path class="fcc1d584-609e-479c-9245-843e0a816c35" d="M241.171,38.214a1.671,1.671,0,0,0,2.261.6,1.741,1.741,0,0,0,1.04-2.095c-.3-.66-.947-.89-2.058-.466s-1.984.316-2.289-.36a1.579,1.579,0,0,1,1.041-2.1,1.672,1.672,0,0,1,2.26.6"></path> <line class="fcc1d584-609e-479c-9245-843e0a816c35" x1="243.494" y1="38.958" x2="243.91" y2="39.879"></line> <line class="fcc1d584-609e-479c-9245-843e0a816c35" x1="240.688" y1="32.741" x2="241.143" y2="33.75"></line> <g class="ec7919fb-6d1b-44a6-9d10-a5fc288fb5de"> <path class="2dcfc92e-76f0-410c-b66b-107a5ee182c9" d="M239.082,29.186l-.032.015,6.432,14.248.034-.015a7.817,7.817,0,0,0-6.434-14.248Z"></path> </g> <path class="9d0fa375-c8e3-4c95-b391-940805f57110" d="M226.77,262.445a8.195,8.195,0,1,1,5.136-1.813A8.163,8.163,0,0,1,226.77,262.445Z"></path> <path class="a9309a6f-ee76-4c34-a13b-260e2a0e6eee" d="M226.759,246.432a7.817,7.817,0,1,1-4.9,1.728,7.8,7.8,0,0,1,4.9-1.728m0-.758h0a8.576,8.576,0,1,0,6.685,3.2,8.6,8.6,0,0,0-6.685-3.2Z"></path> <path class="e1176574-0022-4a21-9ddb-ed5ea7fdfba6" d="M226.152,256.375a1.671,1.671,0,0,0,2.34.017,1.741,1.741,0,0,0,.482-2.288c-.455-.565-1.141-.625-2.11.065s-1.842.8-2.308.226a1.579,1.579,0,0,1,.484-2.29,1.672,1.672,0,0,1,2.339.017"></path> <line class="e1176574-0022-4a21-9ddb-ed5ea7fdfba6" x1="228.588" y1="256.511" x2="229.221" y2="257.299"></line> <line class="e1176574-0022-4a21-9ddb-ed5ea7fdfba6" x1="224.309" y1="251.198" x2="225.005" y2="252.062"></line> <path class="2afed894-a140-414c-953e-e32bf6a7792b" d="M226.269,248.552a5.881,5.881,0,0,1,1.11.012"></path> <path class="2afed894-a140-414c-953e-e32bf6a7792b" d="M231.218,250.663a5.717,5.717,0,1,1-8.039-.868"></path> <path class="fcc1d584-609e-479c-9245-843e0a816c35" d="M226.152,256.375a1.671,1.671,0,0,0,2.34.017,1.741,1.741,0,0,0,.482-2.288c-.455-.565-1.141-.625-2.11.065s-1.842.8-2.308.226a1.579,1.579,0,0,1,.484-2.29,1.672,1.672,0,0,1,2.339.017"></path> <line class="fcc1d584-609e-479c-9245-843e0a816c35" x1="228.588" y1="256.511" x2="229.221" y2="257.299"></line> <line class="fcc1d584-609e-479c-9245-843e0a816c35" x1="224.309" y1="251.198" x2="225.005" y2="252.062"></line> <g class="ec7919fb-6d1b-44a6-9d10-a5fc288fb5de"> <path class="2dcfc92e-76f0-410c-b66b-107a5ee182c9" d="M221.863,248.16l-.027.023,9.8,12.176.028-.022a7.817,7.817,0,0,0-9.805-12.177Z"></path> </g> <path class="9d0fa375-c8e3-4c95-b391-940805f57110" d="M297.128,270.642a8.2,8.2,0,1,1,4.336-1.247A8.16,8.16,0,0,1,297.128,270.642Z"></path> <path class="a9309a6f-ee76-4c34-a13b-260e2a0e6eee" d="M297.113,254.627a7.818,7.818,0,1,1-4.135,1.189,7.813,7.813,0,0,1,4.135-1.189m0-.759a8.577,8.577,0,1,0,7.279,4.033,8.552,8.552,0,0,0-7.279-4.033Z"></path> <path class="e1176574-0022-4a21-9ddb-ed5ea7fdfba6" d="M295.081,261.582a1.672,1.672,0,0,0-.294,2.321,1.738,1.738,0,0,0,2.214.751c.616-.384.757-1.057.186-2.1s-.578-1.925.053-2.318a1.579,1.579,0,0,1,2.215.751,1.673,1.673,0,0,1-.3,2.321"></path> <line class="e1176574-0022-4a21-9ddb-ed5ea7fdfba6" x1="294.656" y1="263.985" x2="293.799" y2="264.52"></line> <line class="e1176574-0022-4a21-9ddb-ed5ea7fdfba6" x1="300.441" y1="260.369" x2="299.501" y2="260.957"></line> <path class="2afed894-a140-414c-953e-e32bf6a7792b" d="M302.835,262.631a5.582,5.582,0,0,1-.144,1.1"></path> <path class="2afed894-a140-414c-953e-e32bf6a7792b" d="M300.15,267.293a5.718,5.718,0,1,1,1.819-7.878"></path> <path class="fcc1d584-609e-479c-9245-843e0a816c35" d="M295.081,261.582a1.672,1.672,0,0,0-.294,2.321,1.738,1.738,0,0,0,2.214.751c.616-.384.757-1.057.186-2.1s-.578-1.925.053-2.318a1.579,1.579,0,0,1,2.215.751,1.673,1.673,0,0,1-.3,2.321"></path> <line class="fcc1d584-609e-479c-9245-843e0a816c35" x1="294.656" y1="263.985" x2="293.799" y2="264.52"></line> <line class="fcc1d584-609e-479c-9245-843e0a816c35" x1="300.441" y1="260.369" x2="299.501" y2="260.957"></line> <g class="ec7919fb-6d1b-44a6-9d10-a5fc288fb5de"> <path class="2dcfc92e-76f0-410c-b66b-107a5ee182c9" d="M303.749,258.3l-.019-.029-13.258,8.284.02.029a7.816,7.816,0,0,0,13.257-8.284Z"></path> </g> <path class="9d0fa375-c8e3-4c95-b391-940805f57110" d="M278.116,160.906a8.2,8.2,0,1,1,4.307-1.229A8.155,8.155,0,0,1,278.116,160.906Z"></path> <path class="a9309a6f-ee76-4c34-a13b-260e2a0e6eee" d="M278.1,144.891a7.82,7.82,0,1,1-4.108,1.173,7.812,7.812,0,0,1,4.108-1.173m0-.758h0a8.581,8.581,0,1,0,7.3,4.063,8.54,8.54,0,0,0-7.3-4.063Z"></path> <path class="e1176574-0022-4a21-9ddb-ed5ea7fdfba6" d="M276.073,151.839a1.672,1.672,0,0,0-.3,2.32,1.736,1.736,0,0,0,2.21.759c.618-.382.762-1.054.2-2.1s-.571-1.927.06-2.319a1.579,1.579,0,0,1,2.213.762,1.669,1.669,0,0,1-.305,2.318"></path> <line class="e1176574-0022-4a21-9ddb-ed5ea7fdfba6" x1="275.638" y1="154.239" x2="274.778" y2="154.772"></line> <line class="e1176574-0022-4a21-9ddb-ed5ea7fdfba6" x1="281.437" y1="150.648" x2="280.495" y2="151.232"></line> <path class="2afed894-a140-414c-953e-e32bf6a7792b" d="M283.822,152.919a5.663,5.663,0,0,1-.148,1.1"></path> <path class="2afed894-a140-414c-953e-e32bf6a7792b" d="M281.118,157.57a5.717,5.717,0,1,1,1.852-7.871"></path> <path class="fcc1d584-609e-479c-9245-843e0a816c35" d="M276.073,151.839a1.672,1.672,0,0,0-.3,2.32,1.736,1.736,0,0,0,2.21.759c.618-.382.762-1.054.2-2.1s-.571-1.927.06-2.319a1.579,1.579,0,0,1,2.213.762,1.669,1.669,0,0,1-.305,2.318"></path> <line class="fcc1d584-609e-479c-9245-843e0a816c35" x1="275.638" y1="154.239" x2="274.778" y2="154.772"></line> <line class="fcc1d584-609e-479c-9245-843e0a816c35" x1="281.437" y1="150.648" x2="280.495" y2="151.232"></line> <g class="ec7919fb-6d1b-44a6-9d10-a5fc288fb5de"> <path class="2dcfc92e-76f0-410c-b66b-107a5ee182c9" d="M284.753,148.6l-.018-.03-13.291,8.229.018.031a7.816,7.816,0,1,0,13.291-8.23Z"></path> </g> <path class="9d0fa375-c8e3-4c95-b391-940805f57110" d="M159.973,16.771a8.2,8.2,0,1,1,8.195-8.2A8.205,8.205,0,0,1,159.973,16.771Z"></path> <path class="a9309a6f-ee76-4c34-a13b-260e2a0e6eee" d="M159.973.759a7.817,7.817,0,1,1-7.818,7.816A7.817,7.817,0,0,1,159.973.759m0-.759a8.575,8.575,0,1,0,8.574,8.575A8.586,8.586,0,0,0,159.973,0Z"></path> <path class="e1176574-0022-4a21-9ddb-ed5ea7fdfba6" d="M158.161,9.847a1.671,1.671,0,0,0,1.812,1.48,1.739,1.739,0,0,0,1.81-1.48c0-.725-.5-1.2-1.683-1.272s-1.939-.529-1.939-1.271c0-.965.812-1.481,1.812-1.481a1.67,1.67,0,0,1,1.81,1.481"></path> <line class="e1176574-0022-4a21-9ddb-ed5ea7fdfba6" x1="159.973" y1="11.48" x2="159.973" y2="12.491"></line> <line class="e1176574-0022-4a21-9ddb-ed5ea7fdfba6" x1="159.973" y1="4.659" x2="159.973" y2="5.767"></line> <path class="2afed894-a140-414c-953e-e32bf6a7792b" d="M163.159,3.827a5.8,5.8,0,0,1,.857.705"></path> <path class="2afed894-a140-414c-953e-e32bf6a7792b" d="M165.689,8.575a5.717,5.717,0,1,1-5.716-5.718"></path> <path class="fcc1d584-609e-479c-9245-843e0a816c35" d="M158.161,9.847a1.671,1.671,0,0,0,1.812,1.48,1.739,1.739,0,0,0,1.81-1.48c0-.725-.5-1.2-1.683-1.272s-1.939-.529-1.939-1.271c0-.965.812-1.481,1.812-1.481a1.67,1.67,0,0,1,1.81,1.481"></path> <line class="fcc1d584-609e-479c-9245-843e0a816c35" x1="159.973" y1="11.48" x2="159.973" y2="12.491"></line> <line class="fcc1d584-609e-479c-9245-843e0a816c35" x1="159.973" y1="4.659" x2="159.973" y2="5.767"></line> <g class="ec7919fb-6d1b-44a6-9d10-a5fc288fb5de"> <path class="2dcfc92e-76f0-410c-b66b-107a5ee182c9" d="M159.973.759h-.036V16.392h.036a7.817,7.817,0,0,0,0-15.633Z"></path> </g> <path class="9d0fa375-c8e3-4c95-b391-940805f57110" d="M85.989,342.431a8.2,8.2,0,1,1,3.9-.992A8.194,8.194,0,0,1,85.989,342.431Z"></path> <path class="a9309a6f-ee76-4c34-a13b-260e2a0e6eee" d="M85.975,326.416a7.818,7.818,0,1,1-3.717.945,7.816,7.816,0,0,1,3.717-.945m0-.759h0a8.576,8.576,0,1,0,7.547,4.491,8.592,8.592,0,0,0-7.547-4.491Z"></path> <path class="e1176574-0022-4a21-9ddb-ed5ea7fdfba6" d="M85,336.215a1.671,1.671,0,0,0,2.3.437,1.738,1.738,0,0,0,.887-2.164c-.346-.636-1.01-.82-2.086-.315s-1.957.458-2.311-.194a1.58,1.58,0,0,1,.888-2.165,1.671,1.671,0,0,1,2.3.439"></path> <line class="e1176574-0022-4a21-9ddb-ed5ea7fdfba6" x1="87.366" y1="336.787" x2="87.848" y2="337.676"></line> <line class="e1176574-0022-4a21-9ddb-ed5ea7fdfba6" x1="84.116" y1="330.79" x2="84.645" y2="331.765"></line> <path class="2afed894-a140-414c-953e-e32bf6a7792b" d="M86.522,328.541a5.839,5.839,0,0,1,1.089.211"></path> <path class="2afed894-a140-414c-953e-e32bf6a7792b" d="M91.008,331.51a5.717,5.717,0,1,1-7.75-2.3"></path> <path class="fcc1d584-609e-479c-9245-843e0a816c35" d="M85,336.215a1.671,1.671,0,0,0,2.3.437,1.738,1.738,0,0,0,.887-2.164c-.346-.636-1.01-.82-2.086-.315s-1.957.458-2.311-.194a1.58,1.58,0,0,1,.888-2.165,1.671,1.671,0,0,1,2.3.439"></path> <line class="fcc1d584-609e-479c-9245-843e0a816c35" x1="87.366" y1="336.787" x2="87.848" y2="337.676"></line> <line class="fcc1d584-609e-479c-9245-843e0a816c35" x1="84.116" y1="330.79" x2="84.645" y2="331.765"></line> <g class="ec7919fb-6d1b-44a6-9d10-a5fc288fb5de"> <path class="2dcfc92e-76f0-410c-b66b-107a5ee182c9" d="M82.258,327.361l-.031.017,7.449,13.744.031-.016a7.817,7.817,0,1,0-7.449-13.745Z"></path> </g> <path class="9d0fa375-c8e3-4c95-b391-940805f57110" d="M43.511,113.817a8.2,8.2,0,1,1,3.238-.669A8.192,8.192,0,0,1,43.511,113.817Z"></path> <path class="a9309a6f-ee76-4c34-a13b-260e2a0e6eee" d="M43.505,97.8a7.821,7.821,0,1,1-3.085.638,7.815,7.815,0,0,1,3.085-.638m0-.758h0a8.575,8.575,0,1,0,7.881,5.187,8.522,8.522,0,0,0-7.881-5.187Z"></path> <path class="e1176574-0022-4a21-9ddb-ed5ea7fdfba6" d="M42.347,107.5a1.671,1.671,0,0,0,2.25.643,1.739,1.739,0,0,0,1.078-2.075c-.287-.665-.931-.908-2.048-.5s-1.991.28-2.284-.4a1.578,1.578,0,0,1,1.078-2.076,1.67,1.67,0,0,1,2.249.644"></path> <line class="e1176574-0022-4a21-9ddb-ed5ea7fdfba6" x1="44.658" y1="108.289" x2="45.057" y2="109.217"></line> <line class="e1176574-0022-4a21-9ddb-ed5ea7fdfba6" x1="41.961" y1="102.022" x2="42.4" y2="103.041"></line> <path class="2afed894-a140-414c-953e-e32bf6a7792b" d="M44.56,100a5.751,5.751,0,0,1,1.066.309"></path> <path class="2afed894-a140-414c-953e-e32bf6a7792b" d="M48.761,103.36a5.718,5.718,0,1,1-7.511-2.992"></path> <path class="fcc1d584-609e-479c-9245-843e0a816c35" d="M42.347,107.5a1.671,1.671,0,0,0,2.25.643,1.739,1.739,0,0,0,1.078-2.075c-.287-.665-.931-.908-2.048-.5s-1.991.28-2.284-.4a1.578,1.578,0,0,1,1.078-2.076,1.67,1.67,0,0,1,2.249.644"></path> <line class="fcc1d584-609e-479c-9245-843e0a816c35" x1="44.658" y1="108.289" x2="45.057" y2="109.217"></line> <line class="fcc1d584-609e-479c-9245-843e0a816c35" x1="41.961" y1="102.022" x2="42.4" y2="103.041"></line> <g class="ec7919fb-6d1b-44a6-9d10-a5fc288fb5de"> <path class="2dcfc92e-76f0-410c-b66b-107a5ee182c9" d="M40.42,98.44l-.032.014,6.178,14.359.032-.013A7.816,7.816,0,1,0,40.42,98.44Z"></path> </g> <path class="be0d62d0-bb98-4112-975d-ecb79ffedbf0" d="M45.685,74.16A1.585,1.585,0,0,1,44.6,73.7L28.152,52.779c-.193-.245-.016-.43.387-.426C55.654,52.691,50.008,11.36,77.123,11.7a1.582,1.582,0,0,1,1.087.464Q86.432,22.62,94.656,33.076c.193.246.015.432-.387.428C67.154,33.167,72.8,74.5,45.685,74.16Z"></path> <path class="a9309a6f-ee76-4c34-a13b-260e2a0e6eee" d="M77.474,12.142,93.919,33.058C66.8,32.721,72.449,74.051,45.334,73.715L28.889,52.8C56,53.136,50.359,11.806,77.474,12.142m-.7-.891C49.658,10.914,55.3,52.244,28.189,51.907c-.8-.009-1.176.341-.788.833Q35.622,63.2,43.845,73.656a3.225,3.225,0,0,0,2.19.95C73.15,74.943,67.5,33.612,94.62,33.949c.8.009,1.174-.34.788-.833Q87.184,22.658,78.962,12.2a3.224,3.224,0,0,0-2.189-.949Z"></path> <path class="26154ce9-e5fe-4fa2-a3a7-6dadd75633aa" d="M50.892,70.39a.893.893,0,0,1-.923-.259,4.914,4.914,0,0,0-4.414-1.4,1.175,1.175,0,0,1-1-.355Q40.4,63.081,36.233,57.788c-.194-.247-.056-.481.3-.537,1.629-.251,2.08-1.564,1.2-2.689a.385.385,0,0,1,.223-.633C54.8,48.142,55.064,21.255,71.916,15.467a.893.893,0,0,1,.923.259,4.913,4.913,0,0,0,4.413,1.4,1.163,1.163,0,0,1,1,.356q4.162,5.29,8.324,10.584c.194.248.055.482-.3.538-1.629.252-2.08,1.565-1.2,2.689a.384.384,0,0,1-.223.632C68.006,37.716,67.744,64.6,50.892,70.39Z"></path> <path class="a9309a6f-ee76-4c34-a13b-260e2a0e6eee" d="M72.265,15.912c1.086,1.382,3.352,1.969,5.338,1.661q4.16,5.294,8.322,10.587c-1.985.307-2.5,1.952-1.418,3.322C67.656,37.27,67.394,64.156,50.542,69.944c-1.085-1.382-3.351-1.968-5.337-1.662Q41.044,62.99,36.882,57.7c1.985-.307,2.5-1.952,1.419-3.321C55.152,48.587,55.414,21.7,72.265,15.912m-.7-.89C54.714,20.81,54.451,47.7,37.6,53.484c-.627.215-.848.755-.46,1.249.692.879.314,1.876-.96,2.073-.709.111-1,.561-.611,1.054q4.16,5.294,8.324,10.586a2.375,2.375,0,0,0,2.012.728A3.906,3.906,0,0,1,49.382,70.3a1.816,1.816,0,0,0,1.862.533c16.849-5.788,17.113-32.674,33.963-38.462.626-.216.847-.756.46-1.249-.693-.88-.314-1.875.959-2.072.709-.111,1-.563.614-1.056Q83.076,22.7,78.916,17.409a2.38,2.38,0,0,0-2.014-.726,3.906,3.906,0,0,1-3.477-1.128,1.813,1.813,0,0,0-1.86-.533Z"></path> <path class="be0d62d0-bb98-4112-975d-ecb79ffedbf0" d="M64.867,36.559c2.264,2.88,2.506,8.01.652,11.6s-5.3,4.038-7.578,1.135c-2.266-2.88-2.506-8.011-.653-11.605S62.585,33.656,64.867,36.559Z"></path> <path class="f939d82e-8135-41d4-ae15-04e48c9c0fbb" d="M61.261,45.814c.529.671,1.391.4,1.924-.621a3.276,3.276,0,0,0,.008-3.057c-.469-.6-1.045-.486-1.722.663s-1.376,1.532-1.855.922a2.9,2.9,0,0,1,.008-3.057c.532-1.016,1.395-1.293,1.923-.62"></path> <path class="f939d82e-8135-41d4-ae15-04e48c9c0fbb" d="M63.283,45.318c.218.279.437.556.654.832"></path> <path class="f939d82e-8135-41d4-ae15-04e48c9c0fbb" d="M58.871,39.707c.238.3.478.607.716.911"></path> <path class="815d354f-a089-4a39-ad6b-4d614612199d" d="M52.476,56.847a32.473,32.473,0,0,0,2.881-3.52"></path> <path class="815d354f-a089-4a39-ad6b-4d614612199d" d="M45.874,61.592a19.1,19.1,0,0,0,3.78-2.222"></path> <path class="815d354f-a089-4a39-ad6b-4d614612199d" d="M73.632,26.138a18.852,18.852,0,0,1,3.959-2.148"></path> <path class="815d354f-a089-4a39-ad6b-4d614612199d" d="M67.871,31.952a30.262,30.262,0,0,1,2.878-3.369"></path> <path class="71e8407d-3dd3-42b0-8077-04b41795491a" d="M64.867,36.559c2.264,2.88,2.506,8.01.652,11.6s-5.3,4.038-7.578,1.135c-2.266-2.88-2.506-8.011-.653-11.605"></path> <path class="71e8407d-3dd3-42b0-8077-04b41795491a" d="M59.6,35.138a3.827,3.827,0,0,1,1.158-.424"></path> <path class="be0d62d0-bb98-4112-975d-ecb79ffedbf0" d="M45.685,74.16A1.585,1.585,0,0,1,44.6,73.7L28.152,52.779c-.193-.245-.016-.43.387-.426C55.654,52.691,50.008,11.36,77.123,11.7a1.582,1.582,0,0,1,1.087.464Q86.432,22.62,94.656,33.076c.193.246.015.432-.387.428C67.154,33.167,72.8,74.5,45.685,74.16Z"></path> <path class="a9309a6f-ee76-4c34-a13b-260e2a0e6eee" d="M77.474,12.142,93.919,33.058C66.8,32.721,72.449,74.051,45.334,73.715L28.889,52.8C56,53.136,50.359,11.806,77.474,12.142m-.7-.891C49.658,10.914,55.3,52.244,28.189,51.907c-.8-.009-1.176.341-.788.833Q35.622,63.2,43.845,73.656a3.225,3.225,0,0,0,2.19.95C73.15,74.943,67.5,33.612,94.62,33.949c.8.009,1.174-.34.788-.833Q87.184,22.658,78.962,12.2a3.224,3.224,0,0,0-2.189-.949Z"></path> <path class="26154ce9-e5fe-4fa2-a3a7-6dadd75633aa" d="M50.892,70.39a.893.893,0,0,1-.923-.259,4.914,4.914,0,0,0-4.414-1.4,1.175,1.175,0,0,1-1-.355Q40.4,63.081,36.233,57.788c-.194-.247-.056-.481.3-.537,1.629-.251,2.08-1.564,1.2-2.689a.385.385,0,0,1,.223-.633C54.8,48.142,55.064,21.255,71.916,15.467a.893.893,0,0,1,.923.259,4.913,4.913,0,0,0,4.413,1.4,1.163,1.163,0,0,1,1,.356q4.162,5.29,8.324,10.584c.194.248.055.482-.3.538-1.629.252-2.08,1.565-1.2,2.689a.384.384,0,0,1-.223.632C68.006,37.716,67.744,64.6,50.892,70.39Z"></path> <path class="a9309a6f-ee76-4c34-a13b-260e2a0e6eee" d="M72.265,15.912c1.086,1.382,3.352,1.969,5.338,1.661q4.16,5.294,8.322,10.587c-1.985.307-2.5,1.952-1.418,3.322C67.656,37.27,67.394,64.156,50.542,69.944c-1.085-1.382-3.351-1.968-5.337-1.662Q41.044,62.99,36.882,57.7c1.985-.307,2.5-1.952,1.419-3.321C55.152,48.587,55.414,21.7,72.265,15.912m-.7-.89C54.714,20.81,54.451,47.7,37.6,53.484c-.627.215-.848.755-.46,1.249.692.879.314,1.876-.96,2.073-.709.111-1,.561-.611,1.054q4.16,5.294,8.324,10.586a2.375,2.375,0,0,0,2.012.728A3.906,3.906,0,0,1,49.382,70.3a1.816,1.816,0,0,0,1.862.533c16.849-5.788,17.113-32.674,33.963-38.462.626-.216.847-.756.46-1.249-.693-.88-.314-1.875.959-2.072.709-.111,1-.563.614-1.056Q83.076,22.7,78.916,17.409a2.38,2.38,0,0,0-2.014-.726,3.906,3.906,0,0,1-3.477-1.128,1.813,1.813,0,0,0-1.86-.533Z"></path> <path class="be0d62d0-bb98-4112-975d-ecb79ffedbf0" d="M64.867,36.559c2.264,2.88,2.506,8.01.652,11.6s-5.3,4.038-7.578,1.135c-2.266-2.88-2.506-8.011-.653-11.605S62.585,33.656,64.867,36.559Z"></path> <path class="f939d82e-8135-41d4-ae15-04e48c9c0fbb" d="M61.261,45.814c.529.671,1.391.4,1.924-.621a3.276,3.276,0,0,0,.008-3.057c-.469-.6-1.045-.486-1.722.663s-1.376,1.532-1.855.922a2.9,2.9,0,0,1,.008-3.057c.532-1.016,1.395-1.293,1.923-.62"></path> <path class="f939d82e-8135-41d4-ae15-04e48c9c0fbb" d="M63.283,45.318c.218.279.437.556.654.832"></path> <path class="f939d82e-8135-41d4-ae15-04e48c9c0fbb" d="M58.871,39.707c.238.3.478.607.716.911"></path> <path class="815d354f-a089-4a39-ad6b-4d614612199d" d="M52.476,56.847a32.473,32.473,0,0,0,2.881-3.52"></path> <path class="815d354f-a089-4a39-ad6b-4d614612199d" d="M45.874,61.592a19.1,19.1,0,0,0,3.78-2.222"></path> <path class="815d354f-a089-4a39-ad6b-4d614612199d" d="M73.632,26.138a18.852,18.852,0,0,1,3.959-2.148"></path> <path class="815d354f-a089-4a39-ad6b-4d614612199d" d="M67.871,31.952a30.262,30.262,0,0,1,2.878-3.369"></path> <path class="71e8407d-3dd3-42b0-8077-04b41795491a" d="M64.867,36.559c2.264,2.88,2.506,8.01.652,11.6s-5.3,4.038-7.578,1.135c-2.266-2.88-2.506-8.011-.653-11.605"></path> <path class="71e8407d-3dd3-42b0-8077-04b41795491a" d="M59.6,35.138a3.827,3.827,0,0,1,1.158-.424"></path> <path class="57f2043c-e2c8-41e6-9755-9c20b3ac2a90" d="M76.773,11.251C62.73,11.077,57.474,22.078,51.9,32.68l17.845,22.7c5.572-10.6,10.827-21.6,24.871-21.429.8.009,1.174-.34.788-.833L78.962,12.2A3.224,3.224,0,0,0,76.773,11.251Z"></path> <path class="be0d62d0-bb98-4112-975d-ecb79ffedbf0" d="M233.1,197.211a1.586,1.586,0,0,1,.234-1.158l17.148-20.344c.2-.239.418-.1.5.292,5.166,26.621,44.493,12.714,49.661,39.334a1.587,1.587,0,0,1-.234,1.158q-8.574,10.172-17.148,20.344c-.2.24-.42.1-.5-.292C277.6,209.925,238.268,223.833,233.1,197.211Z"></path> <path class="a9309a6f-ee76-4c34-a13b-260e2a0e6eee" d="M300.275,215.769q-8.572,10.17-17.147,20.343c-5.168-26.621-44.495-12.715-49.662-39.334q8.572-10.171,17.146-20.344c5.168,26.62,44.5,12.715,49.663,39.335m.73-.868c-5.166-26.62-44.494-12.713-49.66-39.333-.154-.79-.572-1.082-.976-.6q-8.576,10.173-17.147,20.344a3.217,3.217,0,0,0-.487,2.336c5.167,26.621,44.5,12.714,49.661,39.334.155.789.572,1.082.976.6q8.575-10.176,17.149-20.345a3.224,3.224,0,0,0,.484-2.337Z"></path> <path class="26154ce9-e5fe-4fa2-a3a7-6dadd75633aa" d="M237.849,201.546a.886.886,0,0,1,.066-.956,4.917,4.917,0,0,0,.479-4.606,1.169,1.169,0,0,1,.144-1.05q4.341-5.148,8.678-10.3c.2-.24.461-.152.587.184.575,1.543,1.954,1.72,2.876.627a.383.383,0,0,1,.664.089c9.084,15.329,35.466,10.134,44.551,25.463a.894.894,0,0,1-.069.958,4.917,4.917,0,0,0-.477,4.6,1.167,1.167,0,0,1-.146,1.05q-4.335,5.148-8.678,10.3c-.2.24-.46.152-.585-.183-.579-1.544-1.956-1.72-2.877-.628a.383.383,0,0,1-.664-.089C273.314,211.682,246.933,216.875,237.849,201.546Z"></path> <path class="a9309a6f-ee76-4c34-a13b-260e2a0e6eee" d="M295.527,211.432c-1.131,1.344-1.249,3.682-.544,5.565q-4.34,5.143-8.68,10.3c-.7-1.883-2.417-2.05-3.54-.716-9.084-15.328-35.465-10.135-44.549-25.463,1.134-1.344,1.248-3.682.545-5.565q4.338-5.143,8.68-10.3c.7,1.881,2.417,2.049,3.539.717,9.084,15.327,35.465,10.133,44.549,25.461m.731-.866c-9.084-15.327-35.465-10.136-44.549-25.462-.339-.57-.912-.677-1.316-.2-.722.856-1.774.687-2.225-.52-.253-.672-.753-.865-1.157-.385l-8.678,10.3a2.375,2.375,0,0,0-.305,2.119,3.9,3.9,0,0,1-.4,3.632,1.82,1.82,0,0,0-.145,1.931c9.084,15.328,35.465,10.135,44.549,25.462.338.569.912.676,1.317.2.72-.856,1.771-.687,2.222.52.254.672.754.865,1.159.386q4.339-5.149,8.679-10.3a2.374,2.374,0,0,0,.3-2.12,3.9,3.9,0,0,1,.4-3.632,1.818,1.818,0,0,0,.146-1.931Z"></path> <path class="be0d62d0-bb98-4112-975d-ecb79ffedbf0" d="M273.81,208.374c-2.362,2.8-7.336,4.077-11.231,2.99s-5.029-4.368-2.648-7.191c2.361-2.8,7.338-4.077,11.23-2.992S276.19,205.551,273.81,208.374Z"></path> <path class="f939d82e-8135-41d4-ae15-04e48c9c0fbb" d="M264.017,206.718c-.551.654-.108,1.443,1,1.758a3.271,3.271,0,0,0,2.994-.612c.488-.579.265-1.121-1-1.551s-1.779-1.035-1.279-1.631a2.9,2.9,0,0,1,3-.611c1.1.314,1.547,1.1,1,1.758"></path> <path class="f939d82e-8135-41d4-ae15-04e48c9c0fbb" d="M264.911,208.6l-.681.809"></path> <path class="f939d82e-8135-41d4-ae15-04e48c9c0fbb" d="M269.511,203.139c-.248.295-.5.592-.746.887"></path> <path class="815d354f-a089-4a39-ad6b-4d614612199d" d="M251.431,200.352a32.3,32.3,0,0,0,4.031,2.108"></path> <path class="815d354f-a089-4a39-ad6b-4d614612199d" d="M245.446,194.85a19.121,19.121,0,0,0,2.942,3.25"></path> <path class="815d354f-a089-4a39-ad6b-4d614612199d" d="M285.79,214.844a18.72,18.72,0,0,1,2.906,3.442"></path> <path class="815d354f-a089-4a39-ad6b-4d614612199d" d="M278.929,210.38a30.281,30.281,0,0,1,3.883,2.137"></path> <path class="71e8407d-3dd3-42b0-8077-04b41795491a" d="M273.81,208.374c-2.362,2.8-7.336,4.077-11.231,2.99s-5.029-4.368-2.648-7.191c2.361-2.8,7.338-4.077,11.23-2.992"></path> <path class="71e8407d-3dd3-42b0-8077-04b41795491a" d="M274.134,202.93a3.8,3.8,0,0,1,.65,1.049"></path> <path class="be0d62d0-bb98-4112-975d-ecb79ffedbf0" d="M233.1,197.211a1.586,1.586,0,0,1,.234-1.158l17.148-20.344c.2-.239.418-.1.5.292,5.166,26.621,44.493,12.714,49.661,39.334a1.587,1.587,0,0,1-.234,1.158q-8.574,10.172-17.148,20.344c-.2.24-.42.1-.5-.292C277.6,209.925,238.268,223.833,233.1,197.211Z"></path> <path class="a9309a6f-ee76-4c34-a13b-260e2a0e6eee" d="M300.275,215.769q-8.572,10.17-17.147,20.343c-5.168-26.621-44.495-12.715-49.662-39.334q8.572-10.171,17.146-20.344c5.168,26.62,44.5,12.715,49.663,39.335m.73-.868c-5.166-26.62-44.494-12.713-49.66-39.333-.154-.79-.572-1.082-.976-.6q-8.576,10.173-17.147,20.344a3.217,3.217,0,0,0-.487,2.336c5.167,26.621,44.5,12.714,49.661,39.334.155.789.572,1.082.976.6q8.575-10.176,17.149-20.345a3.224,3.224,0,0,0,.484-2.337Z"></path> <path class="26154ce9-e5fe-4fa2-a3a7-6dadd75633aa" d="M237.849,201.546a.886.886,0,0,1,.066-.956,4.917,4.917,0,0,0,.479-4.606,1.169,1.169,0,0,1,.144-1.05q4.341-5.148,8.678-10.3c.2-.24.461-.152.587.184.575,1.543,1.954,1.72,2.876.627a.383.383,0,0,1,.664.089c9.084,15.329,35.466,10.134,44.551,25.463a.894.894,0,0,1-.069.958,4.917,4.917,0,0,0-.477,4.6,1.167,1.167,0,0,1-.146,1.05q-4.335,5.148-8.678,10.3c-.2.24-.46.152-.585-.183-.579-1.544-1.956-1.72-2.877-.628a.383.383,0,0,1-.664-.089C273.314,211.682,246.933,216.875,237.849,201.546Z"></path> <path class="a9309a6f-ee76-4c34-a13b-260e2a0e6eee" d="M295.527,211.432c-1.131,1.344-1.249,3.682-.544,5.565q-4.34,5.143-8.68,10.3c-.7-1.883-2.417-2.05-3.54-.716-9.084-15.328-35.465-10.135-44.549-25.463,1.134-1.344,1.248-3.682.545-5.565q4.338-5.143,8.68-10.3c.7,1.881,2.417,2.049,3.539.717,9.084,15.327,35.465,10.133,44.549,25.461m.731-.866c-9.084-15.327-35.465-10.136-44.549-25.462-.339-.57-.912-.677-1.316-.2-.722.856-1.774.687-2.225-.52-.253-.672-.753-.865-1.157-.385l-8.678,10.3a2.375,2.375,0,0,0-.305,2.119,3.9,3.9,0,0,1-.4,3.632,1.82,1.82,0,0,0-.145,1.931c9.084,15.328,35.465,10.135,44.549,25.462.338.569.912.676,1.317.2.72-.856,1.771-.687,2.222.52.254.672.754.865,1.159.386q4.339-5.149,8.679-10.3a2.374,2.374,0,0,0,.3-2.12,3.9,3.9,0,0,1,.4-3.632,1.818,1.818,0,0,0,.146-1.931Z"></path> <path class="be0d62d0-bb98-4112-975d-ecb79ffedbf0" d="M273.81,208.374c-2.362,2.8-7.336,4.077-11.231,2.99s-5.029-4.368-2.648-7.191c2.361-2.8,7.338-4.077,11.23-2.992S276.19,205.551,273.81,208.374Z"></path> <path class="f939d82e-8135-41d4-ae15-04e48c9c0fbb" d="M264.017,206.718c-.551.654-.108,1.443,1,1.758a3.271,3.271,0,0,0,2.994-.612c.488-.579.265-1.121-1-1.551s-1.779-1.035-1.279-1.631a2.9,2.9,0,0,1,3-.611c1.1.314,1.547,1.1,1,1.758"></path> <path class="f939d82e-8135-41d4-ae15-04e48c9c0fbb" d="M264.911,208.6l-.681.809"></path> <path class="f939d82e-8135-41d4-ae15-04e48c9c0fbb" d="M269.511,203.139c-.248.295-.5.592-.746.887"></path> <path class="815d354f-a089-4a39-ad6b-4d614612199d" d="M251.431,200.352a32.3,32.3,0,0,0,4.031,2.108"></path> <path class="815d354f-a089-4a39-ad6b-4d614612199d" d="M245.446,194.85a19.121,19.121,0,0,0,2.942,3.25"></path> <path class="815d354f-a089-4a39-ad6b-4d614612199d" d="M285.79,214.844a18.72,18.72,0,0,1,2.906,3.442"></path> <path class="815d354f-a089-4a39-ad6b-4d614612199d" d="M278.929,210.38a30.281,30.281,0,0,1,3.883,2.137"></path> <path class="71e8407d-3dd3-42b0-8077-04b41795491a" d="M273.81,208.374c-2.362,2.8-7.336,4.077-11.231,2.99s-5.029-4.368-2.648-7.191c2.361-2.8,7.338-4.077,11.23-2.992"></path> <path class="71e8407d-3dd3-42b0-8077-04b41795491a" d="M274.134,202.93a3.8,3.8,0,0,1,.65,1.049"></path> <path class="57f2043c-e2c8-41e6-9755-9c20b3ac2a90" d="M301.005,214.9c-2.676-13.785-14.514-16.7-26.024-20.008l-18.61,22.076c11.511,3.307,23.35,6.223,26.025,20.01.155.789.572,1.082.976.6l17.149-20.345A3.224,3.224,0,0,0,301.005,214.9Z"></path> <path class="be0d62d0-bb98-4112-975d-ecb79ffedbf0" d="M22.611,274.931a1.58,1.58,0,0,1,.235-1.158q8.573-10.172,17.148-20.345c.2-.238.418-.1.495.292,5.167,26.622,44.494,12.715,49.662,39.334a1.588,1.588,0,0,1-.233,1.159q-8.576,10.171-17.149,20.344c-.2.24-.419.1-.5-.292C67.1,287.645,27.778,301.552,22.611,274.931Z"></path> <path class="a9309a6f-ee76-4c34-a13b-260e2a0e6eee" d="M89.786,293.489q-8.574,10.17-17.147,20.343c-5.168-26.621-44.5-12.715-49.663-39.334q8.572-10.171,17.148-20.344c5.168,26.62,44.494,12.715,49.662,39.335m.73-.868C85.35,266,46.021,279.908,40.855,253.288c-.154-.79-.572-1.082-.975-.6Q31.3,262.858,22.732,273.029a3.217,3.217,0,0,0-.486,2.336c5.167,26.621,44.494,12.714,49.661,39.334.154.789.571,1.082.976.6q8.575-10.175,17.148-20.344a3.219,3.219,0,0,0,.485-2.337Z"></path> <path class="26154ce9-e5fe-4fa2-a3a7-6dadd75633aa" d="M27.359,279.266a.89.89,0,0,1,.067-.956A4.92,4.92,0,0,0,27.9,273.7a1.166,1.166,0,0,1,.145-1.05q4.34-5.148,8.677-10.3c.2-.24.461-.152.587.184.577,1.543,1.955,1.719,2.875.627a.385.385,0,0,1,.666.089c9.083,15.329,35.465,10.134,44.549,25.462a.893.893,0,0,1-.066.958,4.914,4.914,0,0,0-.479,4.606,1.164,1.164,0,0,1-.145,1.05l-8.678,10.3c-.2.24-.462.152-.586-.183-.577-1.544-1.956-1.72-2.877-.628a.383.383,0,0,1-.664-.089C62.824,289.4,36.442,294.594,27.359,279.266Z"></path> <path class="a9309a6f-ee76-4c34-a13b-260e2a0e6eee" d="M85.038,289.152c-1.133,1.344-1.249,3.682-.545,5.565q-4.338,5.144-8.68,10.3c-.7-1.882-2.417-2.049-3.541-.715-9.084-15.329-35.464-10.135-44.548-25.463,1.134-1.344,1.248-3.682.545-5.565q4.34-5.144,8.68-10.3c.7,1.881,2.417,2.049,3.539.717,9.084,15.327,35.466,10.133,44.55,25.461m.73-.866C76.684,272.959,50.3,278.15,41.22,262.824c-.339-.57-.912-.677-1.317-.2-.721.856-1.773.687-2.224-.52-.253-.672-.753-.865-1.158-.385l-8.678,10.3a2.376,2.376,0,0,0-.3,2.118,3.912,3.912,0,0,1-.4,3.633,1.816,1.816,0,0,0-.145,1.931c9.084,15.328,35.466,10.135,44.548,25.462.339.569.913.676,1.317.2.721-.856,1.772-.687,2.223.52.254.672.754.865,1.158.386l8.68-10.3a2.381,2.381,0,0,0,.3-2.119,3.9,3.9,0,0,1,.4-3.632,1.82,1.82,0,0,0,.145-1.931Z"></path> <path class="be0d62d0-bb98-4112-975d-ecb79ffedbf0" d="M63.32,286.093c-2.36,2.8-7.336,4.078-11.23,2.991s-5.031-4.368-2.65-7.191c2.363-2.8,7.338-4.077,11.233-2.992S65.7,283.271,63.32,286.093Z"></path> <path class="f939d82e-8135-41d4-ae15-04e48c9c0fbb" d="M53.526,284.438c-.55.654-.106,1.443,1,1.758a3.275,3.275,0,0,0,2.995-.612c.488-.579.265-1.121-1-1.551s-1.78-1.035-1.28-1.631a2.906,2.906,0,0,1,3-.611c1.1.314,1.549,1.1,1,1.758"></path> <path class="f939d82e-8135-41d4-ae15-04e48c9c0fbb" d="M54.422,286.318c-.23.27-.456.541-.682.809"></path> <path class="f939d82e-8135-41d4-ae15-04e48c9c0fbb" d="M59.021,280.859c-.249.3-.5.592-.746.887"></path> <path class="815d354f-a089-4a39-ad6b-4d614612199d" d="M40.94,278.072a32.316,32.316,0,0,0,4.032,2.107"></path> <path class="815d354f-a089-4a39-ad6b-4d614612199d" d="M34.957,272.57a19.074,19.074,0,0,0,2.941,3.25"></path> <path class="815d354f-a089-4a39-ad6b-4d614612199d" d="M75.3,292.564a18.794,18.794,0,0,1,2.9,3.442"></path> <path class="815d354f-a089-4a39-ad6b-4d614612199d" d="M68.44,288.1a30.281,30.281,0,0,1,3.883,2.137"></path> <path class="71e8407d-3dd3-42b0-8077-04b41795491a" d="M63.32,286.093c-2.36,2.8-7.336,4.078-11.23,2.991s-5.031-4.368-2.65-7.191c2.363-2.8,7.338-4.077,11.233-2.992"></path> <path class="71e8407d-3dd3-42b0-8077-04b41795491a" d="M63.644,280.65A3.781,3.781,0,0,1,64.3,281.7"></path> <path class="be0d62d0-bb98-4112-975d-ecb79ffedbf0" d="M22.611,274.931a1.58,1.58,0,0,1,.235-1.158q8.573-10.172,17.148-20.345c.2-.238.418-.1.495.292,5.167,26.622,44.494,12.715,49.662,39.334a1.588,1.588,0,0,1-.233,1.159q-8.576,10.171-17.149,20.344c-.2.24-.419.1-.5-.292C67.1,287.645,27.778,301.552,22.611,274.931Z"></path> <path class="a9309a6f-ee76-4c34-a13b-260e2a0e6eee" d="M89.786,293.489q-8.574,10.17-17.147,20.343c-5.168-26.621-44.5-12.715-49.663-39.334q8.572-10.171,17.148-20.344c5.168,26.62,44.494,12.715,49.662,39.335m.73-.868C85.35,266,46.021,279.908,40.855,253.288c-.154-.79-.572-1.082-.975-.6Q31.3,262.858,22.732,273.029a3.217,3.217,0,0,0-.486,2.336c5.167,26.621,44.494,12.714,49.661,39.334.154.789.571,1.082.976.6q8.575-10.175,17.148-20.344a3.219,3.219,0,0,0,.485-2.337Z"></path> <path class="26154ce9-e5fe-4fa2-a3a7-6dadd75633aa" d="M27.359,279.266a.89.89,0,0,1,.067-.956A4.92,4.92,0,0,0,27.9,273.7a1.166,1.166,0,0,1,.145-1.05q4.34-5.148,8.677-10.3c.2-.24.461-.152.587.184.577,1.543,1.955,1.719,2.875.627a.385.385,0,0,1,.666.089c9.083,15.329,35.465,10.134,44.549,25.462a.893.893,0,0,1-.066.958,4.914,4.914,0,0,0-.479,4.606,1.164,1.164,0,0,1-.145,1.05l-8.678,10.3c-.2.24-.462.152-.586-.183-.577-1.544-1.956-1.72-2.877-.628a.383.383,0,0,1-.664-.089C62.824,289.4,36.442,294.594,27.359,279.266Z"></path> <path class="a9309a6f-ee76-4c34-a13b-260e2a0e6eee" d="M85.038,289.152c-1.133,1.344-1.249,3.682-.545,5.565q-4.338,5.144-8.68,10.3c-.7-1.882-2.417-2.049-3.541-.715-9.084-15.329-35.464-10.135-44.548-25.463,1.134-1.344,1.248-3.682.545-5.565q4.34-5.144,8.68-10.3c.7,1.881,2.417,2.049,3.539.717,9.084,15.327,35.466,10.133,44.55,25.461m.73-.866C76.684,272.959,50.3,278.15,41.22,262.824c-.339-.57-.912-.677-1.317-.2-.721.856-1.773.687-2.224-.52-.253-.672-.753-.865-1.158-.385l-8.678,10.3a2.376,2.376,0,0,0-.3,2.118,3.912,3.912,0,0,1-.4,3.633,1.816,1.816,0,0,0-.145,1.931c9.084,15.328,35.466,10.135,44.548,25.462.339.569.913.676,1.317.2.721-.856,1.772-.687,2.223.52.254.672.754.865,1.158.386l8.68-10.3a2.381,2.381,0,0,0,.3-2.119,3.9,3.9,0,0,1,.4-3.632,1.82,1.82,0,0,0,.145-1.931Z"></path> <path class="be0d62d0-bb98-4112-975d-ecb79ffedbf0" d="M63.32,286.093c-2.36,2.8-7.336,4.078-11.23,2.991s-5.031-4.368-2.65-7.191c2.363-2.8,7.338-4.077,11.233-2.992S65.7,283.271,63.32,286.093Z"></path> <path class="f939d82e-8135-41d4-ae15-04e48c9c0fbb" d="M53.526,284.438c-.55.654-.106,1.443,1,1.758a3.275,3.275,0,0,0,2.995-.612c.488-.579.265-1.121-1-1.551s-1.78-1.035-1.28-1.631a2.906,2.906,0,0,1,3-.611c1.1.314,1.549,1.1,1,1.758"></path> <path class="f939d82e-8135-41d4-ae15-04e48c9c0fbb" d="M54.422,286.318c-.23.27-.456.541-.682.809"></path> <path class="f939d82e-8135-41d4-ae15-04e48c9c0fbb" d="M59.021,280.859c-.249.3-.5.592-.746.887"></path> <path class="815d354f-a089-4a39-ad6b-4d614612199d" d="M40.94,278.072a32.316,32.316,0,0,0,4.032,2.107"></path> <path class="815d354f-a089-4a39-ad6b-4d614612199d" d="M34.957,272.57a19.074,19.074,0,0,0,2.941,3.25"></path> <path class="815d354f-a089-4a39-ad6b-4d614612199d" d="M75.3,292.564a18.794,18.794,0,0,1,2.9,3.442"></path> <path class="815d354f-a089-4a39-ad6b-4d614612199d" d="M68.44,288.1a30.281,30.281,0,0,1,3.883,2.137"></path> <path class="71e8407d-3dd3-42b0-8077-04b41795491a" d="M63.32,286.093c-2.36,2.8-7.336,4.078-11.23,2.991s-5.031-4.368-2.65-7.191c2.363-2.8,7.338-4.077,11.233-2.992"></path> <path class="71e8407d-3dd3-42b0-8077-04b41795491a" d="M63.644,280.65A3.781,3.781,0,0,1,64.3,281.7"></path> <path class="57f2043c-e2c8-41e6-9755-9c20b3ac2a90" d="M90.516,292.621c-2.677-13.785-14.514-16.7-26.025-20.008L45.882,294.689c11.51,3.307,23.349,6.223,26.025,20.01.154.789.571,1.082.976.6l17.148-20.344A3.219,3.219,0,0,0,90.516,292.621Z"></path> <path class="be0d62d0-bb98-4112-975d-ecb79ffedbf0" d="M223.414,310.207a1.585,1.585,0,0,1-.935-.724q-5.319-12.195-10.637-24.389c-.124-.286.093-.42.481-.315,26.153,7.167,31.117-34.25,57.27-27.086a1.584,1.584,0,0,1,.934.723q5.318,12.195,10.638,24.389c.125.287-.1.421-.482.316C254.53,275.955,249.567,317.373,223.414,310.207Z"></path> <path class="a9309a6f-ee76-4c34-a13b-260e2a0e6eee" d="M269.82,258.214,280.457,282.6c-26.154-7.165-31.119,34.251-57.27,27.086q-5.319-12.192-10.637-24.386c26.153,7.165,31.117-34.251,57.27-27.086m-.455-1.039c-26.152-7.167-31.115,34.252-57.267,27.085-.778-.212-1.224.033-.973.607q5.317,12.195,10.638,24.388a3.214,3.214,0,0,0,1.878,1.471c26.154,7.166,31.116-34.252,57.269-27.086.775.211,1.223-.033.973-.607q-5.32-12.2-10.637-24.389a3.221,3.221,0,0,0-1.881-1.469Z"></path> <path class="26154ce9-e5fe-4fa2-a3a7-6dadd75633aa" d="M229.4,307.871a.891.891,0,0,1-.828-.482,4.915,4.915,0,0,0-3.917-2.471,1.167,1.167,0,0,1-.877-.6q-2.691-6.171-5.385-12.342c-.125-.289.069-.48.425-.444,1.639.167,2.408-.99,1.837-2.3-.126-.288.044-.531.374-.556,17.768-1.349,24.8-27.3,42.569-28.651a.9.9,0,0,1,.83.485,4.91,4.91,0,0,0,3.917,2.469,1.171,1.171,0,0,1,.876.6l5.383,12.342c.126.289-.067.481-.423.445-1.64-.168-2.408.99-1.837,2.3.127.288-.045.53-.374.557C254.208,280.572,247.17,306.521,229.4,307.871Z"></path> <path class="a9309a6f-ee76-4c34-a13b-260e2a0e6eee" d="M263.828,260.548c.7,1.61,2.747,2.751,4.747,2.954q2.688,6.17,5.383,12.344c-2-.206-2.909,1.258-2.211,2.856-17.767,1.35-24.8,27.3-42.569,28.65-.7-1.612-2.747-2.751-4.746-2.955q-2.689-6.168-5.382-12.342c2,.2,2.907-1.259,2.211-2.856,17.765-1.35,24.8-27.3,42.567-28.651m-.452-1.039c-17.766,1.35-24.8,27.3-42.568,28.65-.663.052-1.011.519-.761,1.093.448,1.027-.168,1.894-1.451,1.763-.715-.07-1.11.292-.858.868l5.383,12.342a2.377,2.377,0,0,0,1.765,1.212,3.909,3.909,0,0,1,3.079,1.969,1.819,1.819,0,0,0,1.667.985c17.766-1.35,24.8-27.3,42.568-28.65.66-.051,1.01-.519.759-1.094-.448-1.025.17-1.892,1.451-1.761.715.07,1.109-.292.86-.868q-2.692-6.172-5.383-12.344a2.377,2.377,0,0,0-1.766-1.211,3.905,3.905,0,0,1-3.079-1.968,1.817,1.817,0,0,0-1.666-.986Z"></path> <path class="be0d62d0-bb98-4112-975d-ecb79ffedbf0" d="M251.462,278.66c1.464,3.358.4,8.384-2.3,11.393s-6.146,2.573-7.62-.813c-1.465-3.357-.4-8.384,2.3-11.394S249.986,275.276,251.462,278.66Z"></path> <path class="f939d82e-8135-41d4-ae15-04e48c9c0fbb" d="M245.637,286.706c.342.783,1.246.735,2.017-.116a3.27,3.27,0,0,0,.779-2.955c-.3-.695-.887-.735-1.832.207s-1.716,1.136-2.029.423a2.908,2.908,0,0,1,.779-2.955c.772-.849,1.676-.9,2.018-.115"></path> <path class="f939d82e-8135-41d4-ae15-04e48c9c0fbb" d="M247.719,286.736c.14.325.283.65.423.971"></path> <path class="f939d82e-8135-41d4-ae15-04e48c9c0fbb" d="M244.864,280.194c.154.353.311.707.464,1.062"></path> <path class="815d354f-a089-4a39-ad6b-4d614612199d" d="M234.351,295.167a31.873,31.873,0,0,0,3.677-2.681"></path> <path class="815d354f-a089-4a39-ad6b-4d614612199d" d="M226.767,298.093a19.061,19.061,0,0,0,4.217-1.2"></path> <path class="815d354f-a089-4a39-ad6b-4d614612199d" d="M262.572,270.787a18.741,18.741,0,0,1,4.372-1.078"></path> <path class="815d354f-a089-4a39-ad6b-4d614612199d" d="M255.529,274.96a30.266,30.266,0,0,1,3.637-2.533"></path> <path class="71e8407d-3dd3-42b0-8077-04b41795491a" d="M251.462,278.66c1.464,3.358.4,8.384-2.3,11.393s-6.146,2.573-7.62-.813c-1.465-3.357-.4-8.384,2.3-11.394"></path> <path class="71e8407d-3dd3-42b0-8077-04b41795491a" d="M246.725,275.958a3.761,3.761,0,0,1,1.228-.118"></path> <path class="be0d62d0-bb98-4112-975d-ecb79ffedbf0" d="M223.414,310.207a1.585,1.585,0,0,1-.935-.724q-5.319-12.195-10.637-24.389c-.124-.286.093-.42.481-.315,26.153,7.167,31.117-34.25,57.27-27.086a1.584,1.584,0,0,1,.934.723q5.318,12.195,10.638,24.389c.125.287-.1.421-.482.316C254.53,275.955,249.567,317.373,223.414,310.207Z"></path> <path class="a9309a6f-ee76-4c34-a13b-260e2a0e6eee" d="M269.82,258.214,280.457,282.6c-26.154-7.165-31.119,34.251-57.27,27.086q-5.319-12.192-10.637-24.386c26.153,7.165,31.117-34.251,57.27-27.086m-.455-1.039c-26.152-7.167-31.115,34.252-57.267,27.085-.778-.212-1.224.033-.973.607q5.317,12.195,10.638,24.388a3.214,3.214,0,0,0,1.878,1.471c26.154,7.166,31.116-34.252,57.269-27.086.775.211,1.223-.033.973-.607q-5.32-12.2-10.637-24.389a3.221,3.221,0,0,0-1.881-1.469Z"></path> <path class="26154ce9-e5fe-4fa2-a3a7-6dadd75633aa" d="M229.4,307.871a.891.891,0,0,1-.828-.482,4.915,4.915,0,0,0-3.917-2.471,1.167,1.167,0,0,1-.877-.6q-2.691-6.171-5.385-12.342c-.125-.289.069-.48.425-.444,1.639.167,2.408-.99,1.837-2.3-.126-.288.044-.531.374-.556,17.768-1.349,24.8-27.3,42.569-28.651a.9.9,0,0,1,.83.485,4.91,4.91,0,0,0,3.917,2.469,1.171,1.171,0,0,1,.876.6l5.383,12.342c.126.289-.067.481-.423.445-1.64-.168-2.408.99-1.837,2.3.127.288-.045.53-.374.557C254.208,280.572,247.17,306.521,229.4,307.871Z"></path> <path class="a9309a6f-ee76-4c34-a13b-260e2a0e6eee" d="M263.828,260.548c.7,1.61,2.747,2.751,4.747,2.954q2.688,6.17,5.383,12.344c-2-.206-2.909,1.258-2.211,2.856-17.767,1.35-24.8,27.3-42.569,28.65-.7-1.612-2.747-2.751-4.746-2.955q-2.689-6.168-5.382-12.342c2,.2,2.907-1.259,2.211-2.856,17.765-1.35,24.8-27.3,42.567-28.651m-.452-1.039c-17.766,1.35-24.8,27.3-42.568,28.65-.663.052-1.011.519-.761,1.093.448,1.027-.168,1.894-1.451,1.763-.715-.07-1.11.292-.858.868l5.383,12.342a2.377,2.377,0,0,0,1.765,1.212,3.909,3.909,0,0,1,3.079,1.969,1.819,1.819,0,0,0,1.667.985c17.766-1.35,24.8-27.3,42.568-28.65.66-.051,1.01-.519.759-1.094-.448-1.025.17-1.892,1.451-1.761.715.07,1.109-.292.86-.868q-2.692-6.172-5.383-12.344a2.377,2.377,0,0,0-1.766-1.211,3.905,3.905,0,0,1-3.079-1.968,1.817,1.817,0,0,0-1.666-.986Z"></path> <path class="be0d62d0-bb98-4112-975d-ecb79ffedbf0" d="M251.462,278.66c1.464,3.358.4,8.384-2.3,11.393s-6.146,2.573-7.62-.813c-1.465-3.357-.4-8.384,2.3-11.394S249.986,275.276,251.462,278.66Z"></path> <path class="f939d82e-8135-41d4-ae15-04e48c9c0fbb" d="M245.637,286.706c.342.783,1.246.735,2.017-.116a3.27,3.27,0,0,0,.779-2.955c-.3-.695-.887-.735-1.832.207s-1.716,1.136-2.029.423a2.908,2.908,0,0,1,.779-2.955c.772-.849,1.676-.9,2.018-.115"></path> <path class="f939d82e-8135-41d4-ae15-04e48c9c0fbb" d="M247.719,286.736c.14.325.283.65.423.971"></path> <path class="f939d82e-8135-41d4-ae15-04e48c9c0fbb" d="M244.864,280.194c.154.353.311.707.464,1.062"></path> <path class="815d354f-a089-4a39-ad6b-4d614612199d" d="M234.351,295.167a31.873,31.873,0,0,0,3.677-2.681"></path> <path class="815d354f-a089-4a39-ad6b-4d614612199d" d="M226.767,298.093a19.061,19.061,0,0,0,4.217-1.2"></path> <path class="815d354f-a089-4a39-ad6b-4d614612199d" d="M262.572,270.787a18.741,18.741,0,0,1,4.372-1.078"></path> <path class="815d354f-a089-4a39-ad6b-4d614612199d" d="M255.529,274.96a30.266,30.266,0,0,1,3.637-2.533"></path> <path class="71e8407d-3dd3-42b0-8077-04b41795491a" d="M251.462,278.66c1.464,3.358.4,8.384-2.3,11.393s-6.146,2.573-7.62-.813c-1.465-3.357-.4-8.384,2.3-11.394"></path> <path class="71e8407d-3dd3-42b0-8077-04b41795491a" d="M246.725,275.958a3.761,3.761,0,0,1,1.228-.118"></path> <path class="57f2043c-e2c8-41e6-9755-9c20b3ac2a90" d="M269.365,257.175c-13.543-3.711-21.4,5.608-29.469,14.462L251.437,298.1c8.067-8.852,15.928-18.172,29.473-14.462.775.211,1.223-.033.973-.607l-10.637-24.389A3.221,3.221,0,0,0,269.365,257.175Z"></path> <path class="be0d62d0-bb98-4112-975d-ecb79ffedbf0" d="M.9,200.271a1.574,1.574,0,0,1-.4-1.112q2.051-13.144,4.1-26.29c.048-.307.3-.305.575-.007,18.228,20.078,44.634-12.214,62.863,7.861a1.583,1.583,0,0,1,.4,1.112q-2.055,13.143-4.105,26.29c-.049.308-.3.3-.577.009C45.534,188.055,19.128,220.348.9,200.271Z"></path> <path class="a9309a6f-ee76-4c34-a13b-260e2a0e6eee" d="M67.955,181.285q-2.053,13.143-4.106,26.287C45.621,187.5,19.215,219.785.988,199.711q2.048-13.144,4.1-26.287c18.229,20.076,44.635-12.215,62.864,7.861m.173-1.121C49.9,160.088,23.5,192.381,5.267,172.3c-.541-.595-1.051-.628-1.146-.01Q2.067,185.438.016,198.582a3.224,3.224,0,0,0,.8,2.25c18.23,20.077,44.635-12.216,62.862,7.86.542.595,1.051.629,1.148.009q2.05-13.146,4.105-26.287a3.219,3.219,0,0,0-.8-2.25Z"></path> <path class="26154ce9-e5fe-4fa2-a3a7-6dadd75633aa" d="M7.209,201.513a.89.89,0,0,1-.442-.851,4.922,4.922,0,0,0-1.98-4.188,1.163,1.163,0,0,1-.42-.972q1.039-6.651,2.076-13.3c.05-.311.315-.368.6-.147,1.292,1.019,2.563.457,2.784-.957a.383.383,0,0,1,.614-.268c15.719,8.393,35.577-9.736,51.295-1.346a.9.9,0,0,1,.44.856,4.906,4.906,0,0,0,1.981,4.184,1.166,1.166,0,0,1,.42.973q-1.038,6.653-2.077,13.3c-.048.311-.316.369-.6.149-1.294-1.022-2.563-.456-2.784.954-.047.313-.322.424-.615.27C42.785,191.781,22.925,209.905,7.209,201.513Z"></path> <path class="a9309a6f-ee76-4c34-a13b-260e2a0e6eee" d="M61.645,180.041c-.27,1.736.843,3.8,2.423,5.04q-1.043,6.647-2.08,13.3c-1.577-1.245-3.131-.5-3.4,1.225-15.718-8.391-35.577,9.734-51.295,1.344.273-1.737-.842-3.8-2.42-5.04q1.039-6.648,2.078-13.3c1.577,1.242,3.129.5,3.4-1.224,15.717,8.39,35.576-9.737,51.294-1.346m.177-1.119c-15.719-8.391-35.578,9.734-51.295,1.343-.586-.31-1.131-.1-1.229.515-.173,1.107-1.159,1.509-2.17.71-.566-.443-1.093-.349-1.189.272q-1.039,6.653-2.077,13.3a2.378,2.378,0,0,0,.837,1.97,3.9,3.9,0,0,1,1.544,3.312,1.82,1.82,0,0,0,.878,1.728c15.719,8.389,35.576-9.736,51.295-1.346.584.311,1.129.1,1.226-.517.172-1.1,1.158-1.5,2.169-.708.568.443,1.093.35,1.193-.269q1.037-6.655,2.078-13.307a2.377,2.377,0,0,0-.841-1.968,3.91,3.91,0,0,1-1.543-3.314,1.816,1.816,0,0,0-.876-1.725Z"></path> <path class="be0d62d0-bb98-4112-975d-ecb79ffedbf0" d="M41.492,188.693c-.565,3.619-4.156,7.291-8.049,8.382s-6.566-1.124-6-4.772c.566-3.621,4.159-7.291,8.051-8.385S42.062,185.046,41.492,188.693Z"></path> <path class="f939d82e-8135-41d4-ae15-04e48c9c0fbb" d="M32.262,192.359c-.132.844.656,1.288,1.765.985a3.278,3.278,0,0,0,2.242-2.077c.115-.749-.355-1.095-1.658-.808s-2.059.039-1.939-.731a2.9,2.9,0,0,1,2.243-2.076c1.106-.3,1.9.141,1.763.985"></path> <path class="f939d82e-8135-41d4-ae15-04e48c9c0fbb" d="M34,193.5c-.056.348-.11.7-.162,1.047"></path> <path class="f939d82e-8135-41d4-ae15-04e48c9c0fbb" d="M35.1,186.448c-.058.38-.117.764-.177,1.146"></path> <path class="815d354f-a089-4a39-ad6b-4d614612199d" d="M18.2,193.445a31.764,31.764,0,0,0,4.54-.29"></path> <path class="815d354f-a089-4a39-ad6b-4d614612199d" d="M10.228,191.847a19.093,19.093,0,0,0,4.2,1.252"></path> <path class="815d354f-a089-4a39-ad6b-4d614612199d" d="M55.093,188.009a18.671,18.671,0,0,1,4.268,1.434"></path> <path class="815d354f-a089-4a39-ad6b-4d614612199d" d="M46.91,187.752a30.584,30.584,0,0,1,4.429-.188"></path> <path class="71e8407d-3dd3-42b0-8077-04b41795491a" d="M41.492,188.693c-.565,3.619-4.156,7.291-8.049,8.382s-6.566-1.124-6-4.772c.566-3.621,4.159-7.291,8.051-8.385"></path> <path class="71e8407d-3dd3-42b0-8077-04b41795491a" d="M38.945,183.873a3.8,3.8,0,0,1,1.1.558"></path> <path class="be0d62d0-bb98-4112-975d-ecb79ffedbf0" d="M.9,200.271a1.574,1.574,0,0,1-.4-1.112q2.051-13.144,4.1-26.29c.048-.307.3-.305.575-.007,18.228,20.078,44.634-12.214,62.863,7.861a1.583,1.583,0,0,1,.4,1.112q-2.055,13.143-4.105,26.29c-.049.308-.3.3-.577.009C45.534,188.055,19.128,220.348.9,200.271Z"></path> <path class="a9309a6f-ee76-4c34-a13b-260e2a0e6eee" d="M67.955,181.285q-2.053,13.143-4.106,26.287C45.621,187.5,19.215,219.785.988,199.711q2.048-13.144,4.1-26.287c18.229,20.076,44.635-12.215,62.864,7.861m.173-1.121C49.9,160.088,23.5,192.381,5.267,172.3c-.541-.595-1.051-.628-1.146-.01Q2.067,185.438.016,198.582a3.224,3.224,0,0,0,.8,2.25c18.23,20.077,44.635-12.216,62.862,7.86.542.595,1.051.629,1.148.009q2.05-13.146,4.105-26.287a3.219,3.219,0,0,0-.8-2.25Z"></path> <path class="26154ce9-e5fe-4fa2-a3a7-6dadd75633aa" d="M7.209,201.513a.89.89,0,0,1-.442-.851,4.922,4.922,0,0,0-1.98-4.188,1.163,1.163,0,0,1-.42-.972q1.039-6.651,2.076-13.3c.05-.311.315-.368.6-.147,1.292,1.019,2.563.457,2.784-.957a.383.383,0,0,1,.614-.268c15.719,8.393,35.577-9.736,51.295-1.346a.9.9,0,0,1,.44.856,4.906,4.906,0,0,0,1.981,4.184,1.166,1.166,0,0,1,.42.973q-1.038,6.653-2.077,13.3c-.048.311-.316.369-.6.149-1.294-1.022-2.563-.456-2.784.954-.047.313-.322.424-.615.27C42.785,191.781,22.925,209.905,7.209,201.513Z"></path> <path class="a9309a6f-ee76-4c34-a13b-260e2a0e6eee" d="M61.645,180.041c-.27,1.736.843,3.8,2.423,5.04q-1.043,6.647-2.08,13.3c-1.577-1.245-3.131-.5-3.4,1.225-15.718-8.391-35.577,9.734-51.295,1.344.273-1.737-.842-3.8-2.42-5.04q1.039-6.648,2.078-13.3c1.577,1.242,3.129.5,3.4-1.224,15.717,8.39,35.576-9.737,51.294-1.346m.177-1.119c-15.719-8.391-35.578,9.734-51.295,1.343-.586-.31-1.131-.1-1.229.515-.173,1.107-1.159,1.509-2.17.71-.566-.443-1.093-.349-1.189.272q-1.039,6.653-2.077,13.3a2.378,2.378,0,0,0,.837,1.97,3.9,3.9,0,0,1,1.544,3.312,1.82,1.82,0,0,0,.878,1.728c15.719,8.389,35.576-9.736,51.295-1.346.584.311,1.129.1,1.226-.517.172-1.1,1.158-1.5,2.169-.708.568.443,1.093.35,1.193-.269q1.037-6.655,2.078-13.307a2.377,2.377,0,0,0-.841-1.968,3.91,3.91,0,0,1-1.543-3.314,1.816,1.816,0,0,0-.876-1.725Z"></path> <path class="be0d62d0-bb98-4112-975d-ecb79ffedbf0" d="M41.492,188.693c-.565,3.619-4.156,7.291-8.049,8.382s-6.566-1.124-6-4.772c.566-3.621,4.159-7.291,8.051-8.385S42.062,185.046,41.492,188.693Z"></path> <path class="f939d82e-8135-41d4-ae15-04e48c9c0fbb" d="M32.262,192.359c-.132.844.656,1.288,1.765.985a3.278,3.278,0,0,0,2.242-2.077c.115-.749-.355-1.095-1.658-.808s-2.059.039-1.939-.731a2.9,2.9,0,0,1,2.243-2.076c1.106-.3,1.9.141,1.763.985"></path> <path class="f939d82e-8135-41d4-ae15-04e48c9c0fbb" d="M34,193.5c-.056.348-.11.7-.162,1.047"></path> <path class="f939d82e-8135-41d4-ae15-04e48c9c0fbb" d="M35.1,186.448c-.058.38-.117.764-.177,1.146"></path> <path class="815d354f-a089-4a39-ad6b-4d614612199d" d="M18.2,193.445a31.764,31.764,0,0,0,4.54-.29"></path> <path class="815d354f-a089-4a39-ad6b-4d614612199d" d="M10.228,191.847a19.093,19.093,0,0,0,4.2,1.252"></path> <path class="815d354f-a089-4a39-ad6b-4d614612199d" d="M55.093,188.009a18.671,18.671,0,0,1,4.268,1.434"></path> <path class="815d354f-a089-4a39-ad6b-4d614612199d" d="M46.91,187.752a30.584,30.584,0,0,1,4.429-.188"></path> <path class="71e8407d-3dd3-42b0-8077-04b41795491a" d="M41.492,188.693c-.565,3.619-4.156,7.291-8.049,8.382s-6.566-1.124-6-4.772c.566-3.621,4.159-7.291,8.051-8.385"></path> <path class="71e8407d-3dd3-42b0-8077-04b41795491a" d="M38.945,183.873a3.8,3.8,0,0,1,1.1.558"></path> <path class="57f2043c-e2c8-41e6-9755-9c20b3ac2a90" d="M68.128,180.164c-9.439-10.4-21.074-6.749-32.628-3.6l-4.457,28.526c11.556-3.144,23.19-6.792,32.63,3.6.542.595,1.051.629,1.148.009l4.105-26.287A3.219,3.219,0,0,0,68.128,180.164Z"></path> <path class="be0d62d0-bb98-4112-975d-ecb79ffedbf0" d="M249.4,113.424a1.577,1.577,0,0,1-.935-.723l-10.637-24.39c-.124-.285.093-.42.48-.315,26.154,7.167,31.118-34.25,57.27-27.085a1.578,1.578,0,0,1,.935.722q5.318,12.2,10.638,24.389c.125.287-.094.422-.482.316C280.516,79.172,275.553,120.59,249.4,113.424Z"></path> <path class="a9309a6f-ee76-4c34-a13b-260e2a0e6eee" d="M295.806,61.431q5.318,12.192,10.637,24.387c-26.154-7.165-31.118,34.251-57.27,27.086q-5.32-12.192-10.637-24.387c26.153,7.165,31.118-34.251,57.27-27.086m-.455-1.039c-26.152-7.167-31.115,34.252-57.268,27.085-.776-.212-1.223.033-.972.607q5.318,12.195,10.638,24.388a3.213,3.213,0,0,0,1.877,1.472c26.155,7.166,31.116-34.252,57.27-27.086.775.211,1.223-.033.973-.608q-5.321-12.195-10.637-24.388a3.222,3.222,0,0,0-1.881-1.47Z"></path> <path class="26154ce9-e5fe-4fa2-a3a7-6dadd75633aa" d="M255.39,111.088a.889.889,0,0,1-.828-.482,4.918,4.918,0,0,0-3.918-2.471,1.164,1.164,0,0,1-.876-.6q-2.691-6.171-5.385-12.341c-.125-.289.069-.481.425-.445,1.639.167,2.408-.99,1.836-2.3-.125-.289.046-.532.375-.557,17.768-1.349,24.8-27.3,42.569-28.651a.9.9,0,0,1,.829.485,4.914,4.914,0,0,0,3.917,2.47,1.166,1.166,0,0,1,.876.595q2.694,6.171,5.384,12.342c.126.289-.067.482-.423.445-1.64-.168-2.408.991-1.838,2.3.127.288-.043.53-.375.557C280.2,83.789,273.157,109.739,255.39,111.088Z"></path> <path class="a9309a6f-ee76-4c34-a13b-260e2a0e6eee" d="M289.814,63.765c.7,1.61,2.746,2.751,4.746,2.954q2.69,6.169,5.385,12.344c-2-.2-2.91,1.259-2.212,2.856-17.767,1.35-24.8,27.3-42.569,28.651-.7-1.613-2.748-2.751-4.747-2.955q-2.688-6.169-5.381-12.343c2,.2,2.907-1.259,2.21-2.856,17.765-1.349,24.8-27.3,42.568-28.651m-.451-1.039c-17.768,1.351-24.805,27.3-42.57,28.65-.662.052-1.01.519-.76,1.093.448,1.027-.17,1.9-1.451,1.764-.715-.071-1.11.292-.858.867q2.691,6.171,5.384,12.343a2.38,2.38,0,0,0,1.764,1.212,3.909,3.909,0,0,1,3.079,1.968,1.818,1.818,0,0,0,1.667.986c17.766-1.351,24.8-27.3,42.568-28.651.659-.05,1.009-.518.759-1.093-.449-1.026.17-1.893,1.451-1.762.715.07,1.109-.292.86-.867q-2.694-6.174-5.383-12.345a2.38,2.38,0,0,0-1.766-1.211,3.9,3.9,0,0,1-3.078-1.968,1.819,1.819,0,0,0-1.666-.986Z"></path> <path class="be0d62d0-bb98-4112-975d-ecb79ffedbf0" d="M277.448,81.877c1.464,3.359.4,8.384-2.3,11.393s-6.145,2.573-7.62-.813c-1.465-3.357-.4-8.383,2.3-11.394S275.972,78.494,277.448,81.877Z"></path> <path class="f939d82e-8135-41d4-ae15-04e48c9c0fbb" d="M271.624,89.923c.341.783,1.245.736,2.017-.116a3.269,3.269,0,0,0,.778-2.955c-.3-.694-.887-.734-1.832.207s-1.716,1.137-2.029.424a2.9,2.9,0,0,1,.779-2.955c.772-.85,1.676-.9,2.018-.116"></path> <path class="f939d82e-8135-41d4-ae15-04e48c9c0fbb" d="M273.705,89.953c.14.326.283.65.423.971"></path> <path class="f939d82e-8135-41d4-ae15-04e48c9c0fbb" d="M270.85,83.411c.154.353.311.708.464,1.062"></path> <path class="815d354f-a089-4a39-ad6b-4d614612199d" d="M260.338,98.384a31.83,31.83,0,0,0,3.676-2.681"></path> <path class="815d354f-a089-4a39-ad6b-4d614612199d" d="M252.754,101.31a19.09,19.09,0,0,0,4.217-1.2"></path> <path class="815d354f-a089-4a39-ad6b-4d614612199d" d="M288.558,74a18.846,18.846,0,0,1,4.371-1.078"></path> <path class="815d354f-a089-4a39-ad6b-4d614612199d" d="M281.515,78.177a30.381,30.381,0,0,1,3.637-2.533"></path> <path class="71e8407d-3dd3-42b0-8077-04b41795491a" d="M277.448,81.877c1.464,3.359.4,8.384-2.3,11.393s-6.145,2.573-7.62-.813c-1.465-3.357-.4-8.383,2.3-11.394"></path> <path class="71e8407d-3dd3-42b0-8077-04b41795491a" d="M272.71,79.175a3.826,3.826,0,0,1,1.23-.118"></path> <path class="be0d62d0-bb98-4112-975d-ecb79ffedbf0" d="M249.4,113.424a1.577,1.577,0,0,1-.935-.723l-10.637-24.39c-.124-.285.093-.42.48-.315,26.154,7.167,31.118-34.25,57.27-27.085a1.578,1.578,0,0,1,.935.722q5.318,12.2,10.638,24.389c.125.287-.094.422-.482.316C280.516,79.172,275.553,120.59,249.4,113.424Z"></path> <path class="a9309a6f-ee76-4c34-a13b-260e2a0e6eee" d="M295.806,61.431q5.318,12.192,10.637,24.387c-26.154-7.165-31.118,34.251-57.27,27.086q-5.32-12.192-10.637-24.387c26.153,7.165,31.118-34.251,57.27-27.086m-.455-1.039c-26.152-7.167-31.115,34.252-57.268,27.085-.776-.212-1.223.033-.972.607q5.318,12.195,10.638,24.388a3.213,3.213,0,0,0,1.877,1.472c26.155,7.166,31.116-34.252,57.27-27.086.775.211,1.223-.033.973-.608q-5.321-12.195-10.637-24.388a3.222,3.222,0,0,0-1.881-1.47Z"></path> <path class="26154ce9-e5fe-4fa2-a3a7-6dadd75633aa" d="M255.39,111.088a.889.889,0,0,1-.828-.482,4.918,4.918,0,0,0-3.918-2.471,1.164,1.164,0,0,1-.876-.6q-2.691-6.171-5.385-12.341c-.125-.289.069-.481.425-.445,1.639.167,2.408-.99,1.836-2.3-.125-.289.046-.532.375-.557,17.768-1.349,24.8-27.3,42.569-28.651a.9.9,0,0,1,.829.485,4.914,4.914,0,0,0,3.917,2.47,1.166,1.166,0,0,1,.876.595q2.694,6.171,5.384,12.342c.126.289-.067.482-.423.445-1.64-.168-2.408.991-1.838,2.3.127.288-.043.53-.375.557C280.2,83.789,273.157,109.739,255.39,111.088Z"></path> <path class="a9309a6f-ee76-4c34-a13b-260e2a0e6eee" d="M289.814,63.765c.7,1.61,2.746,2.751,4.746,2.954q2.69,6.169,5.385,12.344c-2-.2-2.91,1.259-2.212,2.856-17.767,1.35-24.8,27.3-42.569,28.651-.7-1.613-2.748-2.751-4.747-2.955q-2.688-6.169-5.381-12.343c2,.2,2.907-1.259,2.21-2.856,17.765-1.349,24.8-27.3,42.568-28.651m-.451-1.039c-17.768,1.351-24.805,27.3-42.57,28.65-.662.052-1.01.519-.76,1.093.448,1.027-.17,1.9-1.451,1.764-.715-.071-1.11.292-.858.867q2.691,6.171,5.384,12.343a2.38,2.38,0,0,0,1.764,1.212,3.909,3.909,0,0,1,3.079,1.968,1.818,1.818,0,0,0,1.667.986c17.766-1.351,24.8-27.3,42.568-28.651.659-.05,1.009-.518.759-1.093-.449-1.026.17-1.893,1.451-1.762.715.07,1.109-.292.86-.867q-2.694-6.174-5.383-12.345a2.38,2.38,0,0,0-1.766-1.211,3.9,3.9,0,0,1-3.078-1.968,1.819,1.819,0,0,0-1.666-.986Z"></path> <path class="be0d62d0-bb98-4112-975d-ecb79ffedbf0" d="M277.448,81.877c1.464,3.359.4,8.384-2.3,11.393s-6.145,2.573-7.62-.813c-1.465-3.357-.4-8.383,2.3-11.394S275.972,78.494,277.448,81.877Z"></path> <path class="f939d82e-8135-41d4-ae15-04e48c9c0fbb" d="M271.624,89.923c.341.783,1.245.736,2.017-.116a3.269,3.269,0,0,0,.778-2.955c-.3-.694-.887-.734-1.832.207s-1.716,1.137-2.029.424a2.9,2.9,0,0,1,.779-2.955c.772-.85,1.676-.9,2.018-.116"></path> <path class="f939d82e-8135-41d4-ae15-04e48c9c0fbb" d="M273.705,89.953c.14.326.283.65.423.971"></path> <path class="f939d82e-8135-41d4-ae15-04e48c9c0fbb" d="M270.85,83.411c.154.353.311.708.464,1.062"></path> <path class="815d354f-a089-4a39-ad6b-4d614612199d" d="M260.338,98.384a31.83,31.83,0,0,0,3.676-2.681"></path> <path class="815d354f-a089-4a39-ad6b-4d614612199d" d="M252.754,101.31a19.09,19.09,0,0,0,4.217-1.2"></path> <path class="815d354f-a089-4a39-ad6b-4d614612199d" d="M288.558,74a18.846,18.846,0,0,1,4.371-1.078"></path> <path class="815d354f-a089-4a39-ad6b-4d614612199d" d="M281.515,78.177a30.381,30.381,0,0,1,3.637-2.533"></path> <path class="71e8407d-3dd3-42b0-8077-04b41795491a" d="M277.448,81.877c1.464,3.359.4,8.384-2.3,11.393s-6.145,2.573-7.62-.813c-1.465-3.357-.4-8.383,2.3-11.394"></path> <path class="71e8407d-3dd3-42b0-8077-04b41795491a" d="M272.71,79.175a3.826,3.826,0,0,1,1.23-.118"></path> <path class="57f2043c-e2c8-41e6-9755-9c20b3ac2a90" d="M295.351,60.392C281.808,56.681,273.945,66,265.882,74.854l11.542,26.466c8.066-8.853,15.927-18.173,29.472-14.462.775.211,1.223-.033.973-.608L297.232,61.862A3.222,3.222,0,0,0,295.351,60.392Z"></path> </g> </g> </g> </svg> 