<?xml version="1.0" encoding="UTF-8"?> <svg xmlns="http://www.w3.org/2000/svg" viewBox="0 0 385.235 411.807"> <defs> <style>.d05643dc-7d5e-4dcb-93b6-8a562308e152{fill:#f6af4e;}.c72165e2-9b4e-4065-aa51-549a90992ad4{fill:#2b2150;}.\35 eb5e87b-b253-434b-b88f-948fa4998045,.\36 34f0f07-7346-4959-bfe3-35e8c702cb82,.\36 6a98c94-06a0-4d12-a68f-1a72a3cb6363,.dd1a3df8-c0c3-46d7-b107-5ccc2a015410{fill:none;}.\35 10ada88-8561-4fab-85ad-65d77f766eb0,.\35 eb5e87b-b253-434b-b88f-948fa4998045,.\36 34f0f07-7346-4959-bfe3-35e8c702cb82,.\36 6a98c94-06a0-4d12-a68f-1a72a3cb6363,.\37 ccda897-1434-4475-80e5-53c2c0a7be59,.a405f1a9-62e1-4120-aeec-98485ffcb350,.b5ce48ea-7080-410f-902a-9d71161638ac,.cb6065c8-a9c9-44e5-8fbf-842c7fa0b88a,.dd1a3df8-c0c3-46d7-b107-5ccc2a015410,.dfd5967d-7f13-4a7f-ae23-8015f73cd435,.f493a9ad-fc2b-46b6-b7c8-5037596451aa{stroke:#2b2150;}.\35 eb5e87b-b253-434b-b88f-948fa4998045,.\36 6a98c94-06a0-4d12-a68f-1a72a3cb6363,.\37 ccda897-1434-4475-80e5-53c2c0a7be59,.a405f1a9-62e1-4120-aeec-98485ffcb350,.b5ce48ea-7080-410f-902a-9d71161638ac,.cb6065c8-a9c9-44e5-8fbf-842c7fa0b88a,.dd1a3df8-c0c3-46d7-b107-5ccc2a015410,.dfd5967d-7f13-4a7f-ae23-8015f73cd435,.f493a9ad-fc2b-46b6-b7c8-5037596451aa{stroke-linecap:round;}.\35 eb5e87b-b253-434b-b88f-948fa4998045,.\36 34f0f07-7346-4959-bfe3-35e8c702cb82,.\36 6a98c94-06a0-4d12-a68f-1a72a3cb6363,.\37 ccda897-1434-4475-80e5-53c2c0a7be59,.a405f1a9-62e1-4120-aeec-98485ffcb350,.b5ce48ea-7080-410f-902a-9d71161638ac,.cb6065c8-a9c9-44e5-8fbf-842c7fa0b88a,.dd1a3df8-c0c3-46d7-b107-5ccc2a015410,.dfd5967d-7f13-4a7f-ae23-8015f73cd435,.f493a9ad-fc2b-46b6-b7c8-5037596451aa{stroke-linejoin:round;}.dd1a3df8-c0c3-46d7-b107-5ccc2a015410{stroke-width:5.172px;stroke-dasharray:22.343 17.874 22.343;}.\31 006f5ca-7a04-4288-989d-53c9bc98cc01,.\35 10ada88-8561-4fab-85ad-65d77f766eb0,.b5ce48ea-7080-410f-902a-9d71161638ac,.dfd5967d-7f13-4a7f-ae23-8015f73cd435{fill:#f3ae9e;}.\35 10ada88-8561-4fab-85ad-65d77f766eb0{stroke-miterlimit:10;}.\35 10ada88-8561-4fab-85ad-65d77f766eb0,.dfd5967d-7f13-4a7f-ae23-8015f73cd435{stroke-width:2.309px;}.\36 34f0f07-7346-4959-bfe3-35e8c702cb82{stroke-linecap:square;stroke-width:16.548px;}.a405f1a9-62e1-4120-aeec-98485ffcb350{fill:#63beb2;stroke-width:2.64px;}.\30 5bbaa77-6204-48c3-82dc-5f45e17c7084,.\37 ccda897-1434-4475-80e5-53c2c0a7be59,.cb6065c8-a9c9-44e5-8fbf-842c7fa0b88a{fill:#f1f0ef;}.cb6065c8-a9c9-44e5-8fbf-842c7fa0b88a{stroke-width:2.742px;}.\36 6a98c94-06a0-4d12-a68f-1a72a3cb6363{stroke-width:1.539px;stroke-dasharray:6.65 5.32 6.65;}.\30 c4112f4-8bea-48df-97bc-ac548d901586{fill:#f4ae9e;}.\37 ccda897-1434-4475-80e5-53c2c0a7be59,.b5ce48ea-7080-410f-902a-9d71161638ac{stroke-width:3.079px;}.f493a9ad-fc2b-46b6-b7c8-5037596451aa{fill:#ed7e94;stroke-width:2.965px;}.f1822d6e-a972-4197-87e7-8c05b895294c{fill:#4b3584;}.\39 863ba36-1add-4b19-b725-10cfdfffe679{fill:#f8be2c;}.\35 eb5e87b-b253-434b-b88f-948fa4998045{stroke-width:5.404px;stroke-dasharray:23.345 18.676 23.345;}</style> </defs> <title>Kid 4_1</title> <g id="b548c4ce-bda3-44d6-8283-f6920b06a363" data-name="Layer 2"> <g id="24d25873-915f-447a-9bd1-ab4783a17fa3" data-name="Capa 1"> <path class="d05643dc-7d5e-4dcb-93b6-8a562308e152" d="M235.757,319.171h123.8a12.934,12.934,0,0,1,12.934,12.934v4.273a12.931,12.931,0,0,1-12.931,12.931h-123.8a12.931,12.931,0,0,1-12.931-12.931V332.1a12.931,12.931,0,0,1,12.931-12.931Z"></path> <path class="c72165e2-9b4e-4065-aa51-549a90992ad4" d="M359.559,321.758A10.344,10.344,0,0,1,369.9,332.105v4.273a10.344,10.344,0,0,1-10.344,10.345h-123.8a10.343,10.343,0,0,1-10.343-10.345v-4.273a10.344,10.344,0,0,1,10.343-10.347h123.8m0-5.172h-123.8a15.535,15.535,0,0,0-15.515,15.519v4.273A15.534,15.534,0,0,0,235.756,351.9h123.8a15.535,15.535,0,0,0,15.516-15.517v-4.273a15.536,15.536,0,0,0-15.516-15.519Z"></path> <path class="d05643dc-7d5e-4dcb-93b6-8a562308e152" d="M359.559,321.758H298.128v24.965h61.431A10.344,10.344,0,0,0,369.9,336.378v-4.273A10.344,10.344,0,0,0,359.559,321.758Z"></path> <line class="dd1a3df8-c0c3-46d7-b107-5ccc2a015410" x1="238.752" y1="329.5" x2="297.657" y2="329.5"></line> <rect class="d05643dc-7d5e-4dcb-93b6-8a562308e152" x="212.91" y="349.775" width="149.666" height="30.135" rx="12.931" ry="12.931"></rect> <path class="c72165e2-9b4e-4065-aa51-549a90992ad4" d="M349.645,352.362a10.343,10.343,0,0,1,10.344,10.344v4.274a10.343,10.343,0,0,1-10.344,10.344h-123.8A10.345,10.345,0,0,1,215.5,366.98v-4.274a10.345,10.345,0,0,1,10.345-10.344h123.8m0-5.172h-123.8a15.534,15.534,0,0,0-15.517,15.516v4.274A15.534,15.534,0,0,0,225.841,382.5h123.8A15.533,15.533,0,0,0,365.16,366.98v-4.274a15.533,15.533,0,0,0-15.515-15.516Z"></path> <path class="d05643dc-7d5e-4dcb-93b6-8a562308e152" d="M349.645,352.362H288.214v24.962h61.431a10.343,10.343,0,0,0,10.344-10.344v-4.274A10.343,10.343,0,0,0,349.645,352.362Z"></path> <line class="dd1a3df8-c0c3-46d7-b107-5ccc2a015410" x1="228.838" y1="360.101" x2="287.743" y2="360.101"></line> <path class="d05643dc-7d5e-4dcb-93b6-8a562308e152" d="M235.756,379.084h123.8a12.931,12.931,0,0,1,12.931,12.931v4.276a12.931,12.931,0,0,1-12.931,12.931h-123.8a12.931,12.931,0,0,1-12.931-12.931v-4.277A12.93,12.93,0,0,1,235.756,379.084Z"></path> <path class="c72165e2-9b4e-4065-aa51-549a90992ad4" d="M359.559,381.671A10.345,10.345,0,0,1,369.9,392.015v4.273a10.345,10.345,0,0,1-10.344,10.347h-123.8a10.344,10.344,0,0,1-10.343-10.347v-4.273a10.344,10.344,0,0,1,10.343-10.344h123.8m0-5.173h-123.8a15.534,15.534,0,0,0-15.515,15.517v4.273a15.535,15.535,0,0,0,15.515,15.519h123.8a15.536,15.536,0,0,0,15.516-15.519v-4.273A15.535,15.535,0,0,0,359.559,376.5Z"></path> <path class="d05643dc-7d5e-4dcb-93b6-8a562308e152" d="M359.559,381.671H298.128l15.893,24.964h61.434c-10.182,0-5.552-4.633-5.552-10.347v-4.273A10.345,10.345,0,0,0,359.559,381.671Z"></path> <line class="dd1a3df8-c0c3-46d7-b107-5ccc2a015410" x1="238.752" y1="389.413" x2="297.657" y2="389.413"></line> <path class="510ada88-8561-4fab-85ad-65d77f766eb0" d="M209.656,220.722c-6.388-3.958-8.436-4.22-11.256-10.9-2.348-5.553,8.277-15.473,12.557-12.608,6.183,4.142,7.212,19.424-.442,23.54Z"></path> <path class="dfd5967d-7f13-4a7f-ae23-8015f73cd435" d="M205.554,200.4c-.063-.172-4.016-15.512-4.016-15.512a2.172,2.172,0,0,1,4.18-1.13l6.634,15.553"></path> <path class="1006f5ca-7a04-4288-989d-53c9bc98cc01" d="M203.4,214.245a5.25,5.25,0,0,1-1.455-.29,12.9,12.9,0,0,1-3.459-1.341c-1.325-.823-1.866-1.97-1.443-3.066a2.8,2.8,0,0,1,2.547-1.97,2.051,2.051,0,0,1,.808.16,13.017,13.017,0,0,1,2.536,1.513c.354.248.763.534,1.261.87a2.36,2.36,0,0,1,.86,3.17,1.815,1.815,0,0,1-1.655.954Z"></path> <path class="c72165e2-9b4e-4065-aa51-549a90992ad4" d="M199.593,208.732a.872.872,0,0,1,.351.067,22.209,22.209,0,0,1,3.612,2.281,1.213,1.213,0,0,1,.491,1.654.665.665,0,0,1-.643.356,4.456,4.456,0,0,1-1.127-.241,11.892,11.892,0,0,1-3.178-1.216c-.4-.246-1.27-.9-.975-1.67a1.665,1.665,0,0,1,1.469-1.231m0-2.309a3.922,3.922,0,0,0-3.622,2.7c-.63,1.635.1,3.345,1.913,4.467a13.939,13.939,0,0,0,3.74,1.469,6.255,6.255,0,0,0,1.78.336,2.959,2.959,0,0,0,2.659-1.541,3.522,3.522,0,0,0-1.228-4.7c-.483-.326-.885-.607-1.234-.851a14.026,14.026,0,0,0-2.748-1.63,3.175,3.175,0,0,0-1.26-.253Z"></path> <path class="1006f5ca-7a04-4288-989d-53c9bc98cc01" d="M207.02,207.128a3.344,3.344,0,0,1-1.972-.929,12.854,12.854,0,0,1-2.749-2.5c-.929-1.223-1.024-2.519-.247-3.378a3.037,3.037,0,0,1,2.226-1.08,2.234,2.234,0,0,1,1.554.594,12.848,12.848,0,0,1,1.815,2.309c.244.363.524.781.875,1.281a2.353,2.353,0,0,1-.338,3.267A1.8,1.8,0,0,1,207.02,207.128Z"></path> <path class="c72165e2-9b4e-4065-aa51-549a90992ad4" d="M204.278,200.4a1.088,1.088,0,0,1,.751.268,22.4,22.4,0,0,1,2.551,3.426,1.212,1.212,0,0,1-.136,1.718.644.644,0,0,1-.424.165,2.573,2.573,0,0,1-1.271-.692,11.891,11.891,0,0,1-2.529-2.275c-.281-.372-.862-1.3-.311-1.91a1.868,1.868,0,0,1,1.369-.7m0-2.309a4.175,4.175,0,0,0-3.079,1.456c-1.16,1.281-1.087,3.188.184,4.859a13.864,13.864,0,0,0,2.961,2.711,4.4,4.4,0,0,0,2.676,1.17,2.937,2.937,0,0,0,1.907-.706,3.515,3.515,0,0,0,.54-4.816c-.345-.493-.622-.9-.862-1.261a13.986,13.986,0,0,0-1.966-2.491,3.409,3.409,0,0,0-2.361-.922Z"></path> <path class="1006f5ca-7a04-4288-989d-53c9bc98cc01" d="M214.281,207.406a12.9,12.9,0,0,1-2.888-.5c-.424-.108-.912-.23-1.508-.368a2.361,2.361,0,0,1-1.931-2.655c.222-1.543,1.754-1.66,2.67-1.729.99-.078,1.665-.118,2.2-.118a7.348,7.348,0,0,1,1.507.14c1.531.3,2.445,1.177,2.439,2.352a2.652,2.652,0,0,1-2.412,2.884Z"></path> <path class="c72165e2-9b4e-4065-aa51-549a90992ad4" d="M212.827,203.185a6.314,6.314,0,0,1,1.284.118c.459.09,1.511.393,1.508,1.215-.007,1.241-.771,1.734-1.258,1.734h-.03a22.443,22.443,0,0,1-4.189-.843,1.215,1.215,0,0,1-1.045-1.369c.088-.612.7-.671,1.614-.74.953-.074,1.6-.115,2.116-.115m0-2.308c-.614,0-1.333.046-2.294.121-.919.069-3.368.257-3.722,2.714a3.521,3.521,0,0,0,2.814,3.947c.588.134,1.068.256,1.485.361a14.02,14.02,0,0,0,3.129.54h.122a3.787,3.787,0,0,0,3.566-4.033c.008-1.748-1.285-3.085-3.375-3.492a8.655,8.655,0,0,0-1.725-.16Z"></path> <path class="1006f5ca-7a04-4288-989d-53c9bc98cc01" d="M204.959,210.177a4.647,4.647,0,0,1-1.6-.4,12.852,12.852,0,0,1-3.351-1.6c-1.261-.921-1.715-2.1-1.211-3.167a2.838,2.838,0,0,1,2.514-1.781,2.111,2.111,0,0,1,.965.226,12.956,12.956,0,0,1,2.4,1.689c.338.276.726.593,1.206.97a2.358,2.358,0,0,1,.618,3.228,1.8,1.8,0,0,1-1.547.833Z"></path> <path class="c72165e2-9b4e-4065-aa51-549a90992ad4" d="M201.313,204.386a.957.957,0,0,1,.432.1,22.491,22.491,0,0,1,3.431,2.542,1.215,1.215,0,0,1,.366,1.687.645.645,0,0,1-.583.311,3.871,3.871,0,0,1-1.191-.327,11.885,11.885,0,0,1-3.077-1.448c-.379-.277-1.2-1-.849-1.74a1.694,1.694,0,0,1,1.471-1.121m0-2.31a3.967,3.967,0,0,0-3.558,2.442c-.748,1.578-.144,3.338,1.575,4.594a13.937,13.937,0,0,0,3.62,1.743,5.715,5.715,0,0,0,2.009.476,2.954,2.954,0,0,0,2.516-1.357,3.52,3.52,0,0,0-.874-4.768c-.472-.37-.856-.682-1.189-.954a13.982,13.982,0,0,0-2.6-1.819,3.26,3.26,0,0,0-1.5-.357Z"></path> <polyline class="634f0f07-7346-4959-bfe3-35e8c702cb82" points="265.205 226.52 245.831 241.96 217.909 221.24"></polyline> <path class="a405f1a9-62e1-4120-aeec-98485ffcb350" d="M233.76,363.938c-15.313-1.714-19.548,8.29-20.2,9.446s33.59,3.937,33.59,3.937,3.766-2.187,2.17-11.252C247.3,354.6,237.663,364.376,233.76,363.938Z"></path> <path class="c72165e2-9b4e-4065-aa51-549a90992ad4" d="M291.264,301.575s-.9.8-2.483,2.191c-.8.692-1.78,1.533-2.9,2.5s-2.386,2.033-3.766,3.209-2.859,2.429-4.432,3.766c-1.574,1.321-3.2,2.729-4.857,4.188-1.665,1.433-3.342,2.923-4.969,4.443q-1.173,1.118-2.36,2.252l-1.07,1.1a13.461,13.461,0,0,0-.981,1.056l-.865.994c-.168.253-.307.47-.483.69l-.129.163c.633-1.071.168-.283.305-.516l-.013.025-.029.051-.055.1-.111.2-.445.805-.219.4-.044.16c-.032.1-.069.2-.108.3-.047.122-.076.147-.152.343l-.252.667c-.166.457-.347.854-.5,1.352-.314.981-.674,1.908-.983,2.93-.662,1.967-1.186,4.018-1.783,5.934-.559,1.956-1.089,3.805-1.577,5.511-.982,3.445-1.817,6.351-2.449,8.37l-.731,2.337c-.175.518-.267.794-.267.794l-2.673,7.963-13.762-2.075.072-8.356s0-.334.008-.962c.013-.61.021-1.5.084-2.617.092-2.245.327-5.426.8-9.253.214-1.919.56-3.984.934-6.2s.875-4.533,1.487-7.022c.28-1.22.652-2.533,1.043-3.83.184-.645.451-1.363.678-2.045l.36-1.041c.136-.371.365-.9.553-1.336l.61-1.375.317-.684.218-.408.436-.811.108-.2.055-.1.374-.64.416-.584c.554-.771,1.132-1.558,1.706-2.289l1.593-1.784c.542-.62,1.058-1.13,1.57-1.628l1.546-1.52c1.016-.933,2.026-1.855,3.053-2.717,2.031-1.691,4.031-3.272,5.966-4.753,1.963-1.437,3.87-2.787,5.68-4.036s3.564-2.356,5.171-3.383,3.119-1.907,4.443-2.708,2.518-1.438,3.486-1.987,1.753-.934,2.305-1.229c.532-.277.819-.424.819-.424l7.391-3.838,8.119,12.035Z"></path> <path class="a405f1a9-62e1-4120-aeec-98485ffcb350" d="M275.934,368.667c-15.314-1.715-19.551,8.29-20.2,9.443s33.589,3.94,33.589,3.94,3.767-2.189,2.168-11.251C289.474,359.33,279.836,369.1,275.934,368.667Z"></path> <path class="c72165e2-9b4e-4065-aa51-549a90992ad4" d="M333.437,306.3l-2.483,2.192c-.805.692-1.78,1.533-2.9,2.5s-2.389,2.033-3.767,3.208-2.861,2.43-4.433,3.767c-1.575,1.32-3.2,2.729-4.856,4.188-1.667,1.433-3.343,2.923-4.969,4.442l-2.359,2.252-1.071,1.1a13.87,13.87,0,0,0-.982,1.056l-.863.994c-.168.253-.308.469-.483.69l-.129.161c.63-1.067.168-.28.3-.511l-.015.024-.027.05-.055.1-.111.2-.445.806-.218.4-.045.159c-.031.105-.068.206-.107.306-.047.121-.076.145-.153.342l-.252.667c-.165.457-.346.853-.506,1.352-.312.98-.675,1.908-.982,2.93-.661,1.968-1.185,4.018-1.782,5.935-.559,1.956-1.089,3.8-1.578,5.511-.981,3.445-1.817,6.351-2.448,8.369-.315,1.008-.562,1.8-.731,2.337-.175.519-.267.794-.267.794l-2.672,7.964-13.763-2.075.072-8.356s0-.334.008-.962c.013-.61.021-1.5.084-2.617.092-2.245.327-5.427.805-9.253.211-1.919.557-3.984.93-6.2s.877-4.533,1.488-7.022c.281-1.22.651-2.533,1.042-3.831.184-.644.452-1.362.68-2.044l.36-1.041c.136-.37.365-.9.551-1.336l.612-1.376.317-.683.218-.408.433-.812.11-.2.055-.1.373-.639.415-.584c.556-.77,1.134-1.558,1.709-2.29l1.59-1.784c.544-.621,1.058-1.13,1.572-1.629l1.544-1.521c1.016-.933,2.028-1.854,3.053-2.716,2.031-1.692,4.031-3.272,5.968-4.752,1.964-1.439,3.869-2.788,5.678-4.037s3.567-2.356,5.171-3.384,3.121-1.907,4.445-2.707,2.518-1.439,3.484-1.987,1.755-.935,2.305-1.23l.819-.424,7.391-3.837,8.119,12.034Z"></path> <path class="c72165e2-9b4e-4065-aa51-549a90992ad4" d="M293.952,316.36c-15.526,0-28.365-9.339-29.864-21.721a1.372,1.372,0,0,1,1.361-1.537h88.9a1.373,1.373,0,0,1,1.361,1.535c-1.5,12.384-14.336,21.723-29.865,21.723Z"></path> <path class="c72165e2-9b4e-4065-aa51-549a90992ad4" d="M354.347,294.473h.007m-.007,0c-1.392,11.511-13.621,20.516-28.5,20.516H293.952c-14.881,0-27.109-9-28.5-20.516h88.9m.007-2.741h-88.9a2.74,2.74,0,0,0-2.722,3.071c1.583,13.071,15.006,22.927,31.225,22.927h31.891c16.158,0,29.542-9.781,31.207-22.776a2.749,2.749,0,0,0-2.7-3.222Z"></path> <path class="c72165e2-9b4e-4065-aa51-549a90992ad4" d="M264.691,295.845a1.369,1.369,0,0,1-1.193-.7c-.207-.362-5.011-9.125-5.011-32.113,0-12.373.761-15.85,2.426-23.466.654-2.988,1.468-6.706,2.43-11.89a1.371,1.371,0,0,1,1.134-1.1l91.969-14.54a1.348,1.348,0,0,1,.212-.017,1.371,1.371,0,0,1,1.371,1.333c.007.341.934,34.309.934,52.265,0,18.493-3.9,28.913-4.068,29.347a1.376,1.376,0,0,1-1.281.882Z"></path> <path class="c72165e2-9b4e-4065-aa51-549a90992ad4" d="M356.658,213.389s.932,34.082.932,52.227c0,18.453-3.976,28.857-3.976,28.857H264.691s-4.833-8.546-4.833-31.438c0-17.127,1.457-16.92,4.833-35.106l91.967-14.54m0-2.741a2.67,2.67,0,0,0-.427.033l-91.968,14.541A2.742,2.742,0,0,0,262,227.429c-.958,5.162-1.769,8.868-2.42,11.847-1.688,7.716-2.458,11.237-2.458,23.759,0,23.345,4.975,32.414,5.188,32.788a2.739,2.739,0,0,0,2.386,1.392h88.923a2.742,2.742,0,0,0,2.561-1.763c.17-.445,4.157-11.093,4.157-29.836,0-17.974-.923-51.96-.933-52.3a2.741,2.741,0,0,0-2.741-2.666Z"></path> <path class="05bbaa77-6204-48c3-82dc-5f45e17c7084" d="M325.519,294.473H272.048s-5.646-9.8-5.646-32.69c0-17.132,3.614-15.668,5.646-33.854l54.475-6.055s1.386,25.6,1.386,43.742C327.909,284.069,325.519,294.473,325.519,294.473Z"></path> <polygon class="a405f1a9-62e1-4120-aeec-98485ffcb350" points="292.267 247.438 290.072 247.438 282.251 276.277 286.335 284.961 292.267 280.234 292.267 247.438"></polygon> <path class="cb6065c8-a9c9-44e5-8fbf-842c7fa0b88a" d="M269.372,227.616c.886,1.075,0,15.581,0,15.581l23.023-5.083,22.336,15.892,21.875-25.032,2.309-7.7-62.788-1.116Z"></path> <polygon class="a405f1a9-62e1-4120-aeec-98485ffcb350" points="282.251 240.354 290.072 252.469 302.286 246.411 292.395 238.114 282.251 240.354"></polygon> <path class="66a98c94-06a0-4d12-a68f-1a72a3cb6363" d="M271.726,246.325s-5.789,14.487,0,38.636"></path> <polyline class="634f0f07-7346-4959-bfe3-35e8c702cb82" points="354.244 231.765 376.961 256.649 373.15 280.738"></polyline> <path class="1006f5ca-7a04-4288-989d-53c9bc98cc01" d="M373.487,298.534a10.177,10.177,0,0,1-1.177-.07l-4.7-.53c-2.466-.279-5.7-1.165-5.3-5.613l.024-.261c.147-1.679.369-4.217,2.715-5.18a4.362,4.362,0,0,1,1.668-.274,9.559,9.559,0,0,1,1.356.106,6.121,6.121,0,0,1,2.311-.559,3.149,3.149,0,0,1,.6.054,8.1,8.1,0,0,1,2.417,1.224q.108-.006.234-.006a5.548,5.548,0,0,1,2.6.666,2.879,2.879,0,0,1,1.179,1.255,2.586,2.586,0,0,1,2.1,3.179l-.021.305c-.007.159,0,.314,0,.468a4.155,4.155,0,0,1-.217,1.724c-.841,2.2-3,3.512-5.784,3.512Z"></path> <path class="c72165e2-9b4e-4065-aa51-549a90992ad4" d="M370.381,287.306a2.006,2.006,0,0,1,.383.035,9.567,9.567,0,0,1,2.323,1.284,2.732,2.732,0,0,1,.543-.046,4.4,4.4,0,0,1,2.056.532,2.126,2.126,0,0,1,.871,1.224s1.194.221,1.486.584c.48.6.317,1.192.286,1.859a5.267,5.267,0,0,1-.137,1.833c-.567,1.485-2.048,2.768-4.706,2.768a9.241,9.241,0,0,1-1.047-.062l-4.7-.53c-3.32-.376-4.525-1.609-4.278-4.362.147-1.6.236-3.741,2.029-4.477a3.354,3.354,0,0,1,1.228-.187,8.742,8.742,0,0,1,1.525.149,5.513,5.513,0,0,1,2.142-.6m0-2.308h0a6.981,6.981,0,0,0-2.467.527,10.719,10.719,0,0,0-1.2-.074,5.466,5.466,0,0,0-2.106.362c-3,1.23-3.277,4.428-3.427,6.146l-.022.256c-.364,4.041,1.76,6.349,6.316,6.866l4.706.53a11.275,11.275,0,0,0,1.305.077c3.278,0,5.846-1.59,6.864-4.251a5.258,5.258,0,0,0,.291-2.178c0-.124-.01-.25,0-.381,0-.086.013-.172.018-.259a4.127,4.127,0,0,0-.805-3.139,3.7,3.7,0,0,0-1.678-1.1,3.883,3.883,0,0,0-1.4-1.305,6.751,6.751,0,0,0-3.033-.8,7.89,7.89,0,0,0-2.545-1.2,4.326,4.326,0,0,0-.815-.075Z"></path> <path class="1006f5ca-7a04-4288-989d-53c9bc98cc01" d="M375.2,295.378a12.424,12.424,0,0,1-1.213,2.283,1.106,1.106,0,0,0,.412,1.568h0a1.367,1.367,0,0,0,1.843-.343,14.3,14.3,0,0,0,2.071-4.537"></path> <path class="c72165e2-9b4e-4065-aa51-549a90992ad4" d="M375.2,295.378s.012.2,0,.543a4.661,4.661,0,0,1-.222,1.371l-.139.445c-.024.08-.055.155-.084.234l-.048.118-.013.029,0,.008v0c.018-.033-.047.077.043-.072l0,.014-.018.055c-.095.252.042.064.05.106l.076.016a.312.312,0,0,1,.092.033l.038.009.017.007.008,0H375c-.043-.025.1.058-.1-.055l.239.1a.064.064,0,0,0-.046-.044.08.08,0,0,1,.054-.007.353.353,0,0,0,.087-.029.188.188,0,0,0,.049-.023l.01-.007h.008c.014-.017-.1.157-.048.081v0l.037-.055.144-.224c.189-.3.394-.582.6-.853s.417-.524.62-.764c.187-.243.3-.459.462-.665a10.071,10.071,0,0,1,1.2-1.407,7.14,7.14,0,0,1,0,1.971,4.844,4.844,0,0,1-.163.951c-.1.3-.2.613-.338.923s-.268.634-.428.949l-.117.239-.03.06-.066.105-.018.025-.039.05-.166.2a2.422,2.422,0,0,1-.825.582,2.643,2.643,0,0,1-.957.186,3.052,3.052,0,0,1-.478-.052,3.375,3.375,0,0,1-.556-.189l-.234-.135-.1-.061,0,0-.012-.01-.021-.018-.044-.037-.087-.073-.165-.152a2.273,2.273,0,0,1-.5-.8,1.869,1.869,0,0,1-.094-.947,1.686,1.686,0,0,1,.325-.79l.036-.046.011-.012.047-.078v0l0-.006.019-.018.068-.076c.047-.05.092-.1.143-.147l.293-.273c.391-.338.715-.718.968-.937S375.2,295.378,375.2,295.378Z"></path> <path class="1006f5ca-7a04-4288-989d-53c9bc98cc01" d="M370.559,297.014a1.552,1.552,0,0,0,.771,2.109h0a1.831,1.831,0,0,0,2.466-.634,19.212,19.212,0,0,0,1.869-4.681"></path> <path class="c72165e2-9b4e-4065-aa51-549a90992ad4" d="M370.559,297.014s.006.046.014.131a1.058,1.058,0,0,0,.066.344,1.273,1.273,0,0,0,.577.676,1.849,1.849,0,0,0,.477.171c-.01-.011.111.046-.009-.019l.106.021.218.045c.1-.022.079-.042.155-.056a.875.875,0,0,0,.6-.374l.026-.025,0,0c.032-.059-.042.082-.034.066l0,0,.006-.013.015-.028.026-.053.11-.217c.069-.146.153-.284.229-.424.155-.281.323-.547.491-.8s.372-.5.5-.719a5.8,5.8,0,0,1,.406-.625,8.524,8.524,0,0,1,1.119-1.3,6.456,6.456,0,0,1,.115,1.782,5.792,5.792,0,0,1-.3,1.743c-.095.291-.195.591-.318.886-.061.148-.116.3-.185.445l-.1.222-.024.055-.013.027-.053.1-.112.172a2.637,2.637,0,0,1-1.252.992,2.734,2.734,0,0,1-1.449.128,2.807,2.807,0,0,1-.717-.235l-.457-.321a2.17,2.17,0,0,1-.668-.882,1.645,1.645,0,0,1,.059-1.543.848.848,0,0,1,.263-.281Z"></path> <path class="1006f5ca-7a04-4288-989d-53c9bc98cc01" d="M366.79,296.589a1.558,1.558,0,0,0,.772,2.11h0a1.833,1.833,0,0,0,2.464-.638,19.138,19.138,0,0,0,1.869-4.684"></path> <path class="c72165e2-9b4e-4065-aa51-549a90992ad4" d="M366.79,296.589a2.017,2.017,0,0,0,.082.474,1.28,1.28,0,0,0,.577.677,1.885,1.885,0,0,0,.478.172l.031.009.016,0,.008,0h0c.071.034-.092-.045-.075-.037h.007l.107.021.217.044c.1-.023.08-.041.156-.057a1.287,1.287,0,0,0,.383-.152c.087-.086.183-.127.215-.225l.029-.026h0c-.07.135-.017.034-.033.062l.008-.014.013-.027.027-.054.109-.216c.071-.146.154-.284.231-.424.152-.28.322-.548.491-.8s.373-.494.5-.717a5.929,5.929,0,0,1,.407-.626,8.528,8.528,0,0,1,1.118-1.3,6.384,6.384,0,0,1,.118,1.783,5.9,5.9,0,0,1-.3,1.743c-.094.292-.2.592-.318.887-.062.147-.117.3-.185.445l-.1.22-.026.055-.066.129-.113.172a2.643,2.643,0,0,1-1.246.992,2.756,2.756,0,0,1-2.166-.1c-.157-.111-.312-.217-.462-.322a2.172,2.172,0,0,1-.666-.882,1.639,1.639,0,0,1,.06-1.542.813.813,0,0,1,.26-.282Z"></path> <path class="1006f5ca-7a04-4288-989d-53c9bc98cc01" d="M368.268,292.968a19.266,19.266,0,0,1-1.869,4.684,2.086,2.086,0,0,1-2.467.634c-1.255-.347-.654-4.145-.523-5.4"></path> <path class="c72165e2-9b4e-4065-aa51-549a90992ad4" d="M368.268,292.968a11.351,11.351,0,0,1-.024,2.207,3.7,3.7,0,0,1-.21,1.04c-.113.37-.225.768-.375,1.169-.076.2-.154.4-.231.612l-.063.155-.152.254-.087.13-.042.065-.115.124a2.743,2.743,0,0,1-1.943.844,4.663,4.663,0,0,1-.855-.064,2.859,2.859,0,0,1-.4-.091l-.1-.026-.025-.007-.212-.08-.035-.018-.136-.075a2.245,2.245,0,0,1-.633-.581,3.07,3.07,0,0,1-.241-.5,3.5,3.5,0,0,1-.172-.823,6.88,6.88,0,0,1,.311-2.372,8.514,8.514,0,0,1,.879-2.048s.074.22.16.6.192.92.284,1.54a16.226,16.226,0,0,0,.386,1.937,2.1,2.1,0,0,0,.146.333c.022.047.04.024.045.045.023-.041-.233-.2-.191-.154l.144.062.036.016h0l-.187-.071h0l.016,0,.055.007c.071.007.145.033.214.035a2.574,2.574,0,0,0,.4.019,1.546,1.546,0,0,0,.293-.04c.072-.028.117-.057.069.022l0,.026.05-.059.1-.119.05-.058.026-.029c-.034.051.077-.121-.074.113l0,0,0-.008.011-.015.071-.121.286-.473c.378-.634.853-1.148,1.171-1.731A11.388,11.388,0,0,1,368.268,292.968Z"></path> <path class="0c4112f4-8bea-48df-97bc-ac548d901586" d="M306.169,236.691c-21.808,0-41.156-6.612-51.753-17.682-20.858-21.788-.1-88.878,19.051-109.565,10.035-10.837,24.308-13.112,34.514-13.112a69.334,69.334,0,0,1,14.85,1.577c42.6,9.575,38.5,75.515,36.3,110.941-1.138,18.278-27.5,27.841-52.95,27.841Z"></path> <path class="c72165e2-9b4e-4065-aa51-549a90992ad4" d="M307.981,97.871a68.283,68.283,0,0,1,14.513,1.54c41.114,9.241,37.361,72.937,35.1,109.343-1.044,16.787-25.62,26.4-51.421,26.4-19.322,0-39.334-5.4-50.642-17.207-20.376-21.286.535-87.437,19.07-107.455,9.3-10.039,22.589-12.619,33.384-12.619m0-3.079c-10.512,0-25.229,2.36-35.642,13.606-9.78,10.561-19.772,32.524-24.87,54.653-8.223,35.719.125,51.059,5.835,57.022,10.883,11.37,30.647,18.157,52.865,18.157,13.616,0,26.512-2.557,36.313-7.2,11.328-5.37,17.615-13.006,18.182-22.085,2.231-35.884,6.387-102.676-37.5-112.539a70.891,70.891,0,0,0-15.187-1.615Z"></path> <path class="c72165e2-9b4e-4065-aa51-549a90992ad4" d="M276.066,170.428c0,3.374-2.162,6.11-4.832,6.11s-4.832-2.736-4.832-6.11,2.163-6.108,4.832-6.108S276.066,167.054,276.066,170.428Z"></path> <path class="c72165e2-9b4e-4065-aa51-549a90992ad4" d="M314.731,176.538c0,3.375-2.164,6.11-4.834,6.11s-4.834-2.735-4.834-6.11,2.165-6.11,4.834-6.11S314.731,173.165,314.731,176.538Z"></path> <path class="d05643dc-7d5e-4dcb-93b6-8a562308e152" d="M365.777,182.066a1.147,1.147,0,0,1-.442-.088c-4.236-1.759-5.457-6.135-6.64-10.367-.866-3.1-1.69-6.059-3.587-8.028a8.56,8.56,0,0,1-6.71,3.108h0a9.771,9.771,0,0,1-8.312-4.706c-1.206-2-2.689-6.171.1-12.456-5.832-.8-12-3.154-18.491-5.631-8.532-3.253-17.354-6.617-26-6.617a30.014,30.014,0,0,0-5.662.524,69.245,69.245,0,0,0-9.38,2.894c-5.585,2-11.361,4.06-16.768,4.06a15.534,15.534,0,0,1-6.665-1.355c-8.841-4.089-19.872-18.711-21.078-27.938-1.2-9.207-1.624-21.094,5.853-31.38a1.152,1.152,0,0,1,.933-.475,1.147,1.147,0,0,1,1.134.933c.7,3.567,3.166,10.287,7.722,11.862,3.792-15.513,11.166-24.446,22.521-27.292a1.155,1.155,0,0,1,1.407,1.373l-.048.221c-1.01,4.492-2.533,11.282.607,15.048,1.538,1.844,2.575,2.057,3.222,2.057,1.138,0,2.429-.77,3.924-1.662.709-.424,1.457-.869,2.264-1.285,8.066-4.154,18.151-6.35,29.166-6.35,17.162,0,33.522,5.544,41.679,14.124a20.019,20.019,0,0,1,6,13.737c6.788.033,13.015,6.394,15.935,12.305,3.7,7.491,1.511,15.2-1.119,21.754-.982,2.445-2.09,4.93-3.162,7.333a109.406,109.406,0,0,0-5.319,13.469c-1.41,4.848-1.561,9.607-1.719,14.645-.053,1.672-.107,3.366-.208,5.095a1.155,1.155,0,0,1-1.152,1.088Z"></path> <path class="c72165e2-9b4e-4065-aa51-549a90992ad4" d="M274.586,70.234h.007m-.007,0c-1.068,4.764-2.761,11.993.8,16.261,1.512,1.813,2.824,2.473,4.108,2.473,2.071,0,4.068-1.712,6.717-3.075,8.263-4.255,18.457-6.222,28.638-6.222,23.713,0,47.369,10.665,46.5,27.924a9.9,9.9,0,0,1,1.123-.064c6.447,0,12.27,6.232,14.953,11.663,3.393,6.87,1.568,14.025-1.155,20.812-2.783,6.935-6.484,13.929-8.518,20.909-1.926,6.621-1.567,13.027-1.971,20-7-2.906-4.764-14.471-10.865-19.039a7.462,7.462,0,0,1-6.514,3.665c-5.906,0-12.033-6.39-6.457-16.973-13.724-1.18-30.177-12.437-46.246-12.438a30.921,30.921,0,0,0-5.882.546c-7.413,1.433-17.427,6.932-25.931,6.932a14.548,14.548,0,0,1-6.179-1.248c-8.315-3.846-19.234-17.993-20.415-27.04-1.436-10.987-.919-21.526,5.64-30.551.956,4.89,4.159,12.157,9.712,13.041,2.83-12.392,8.665-24.243,21.946-27.572m0-2.309-.089,0h0a2.341,2.341,0,0,0-.522.081c-11.436,2.888-18.964,11.648-22.959,26.746-3.124-1.963-5.145-6.984-5.817-10.431a2.309,2.309,0,0,0-4.134-.916c-7.717,10.616-7.294,22.789-6.066,32.208,1.271,9.716,12.444,24.538,21.739,28.837a16.907,16.907,0,0,0,7.147,1.461c5.609,0,11.481-2.1,17.161-4.126a68.3,68.3,0,0,1,9.208-2.848,28.805,28.805,0,0,1,5.444-.5c8.436,0,17.157,3.326,25.59,6.542,6.026,2.3,11.771,4.488,17.286,5.465-2.216,6-.706,10.095.526,12.138a10.93,10.93,0,0,0,9.3,5.266,9.72,9.72,0,0,0,6.638-2.516,22.691,22.691,0,0,1,2.546,6.591c1.2,4.289,2.557,9.149,7.31,11.123a2.309,2.309,0,0,0,3.19-2c.1-1.749.156-3.465.208-5.125.156-4.964.306-9.652,1.676-14.36a108.34,108.34,0,0,1,5.264-13.322c1.076-2.412,2.189-4.907,3.179-7.373,2.724-6.789,4.983-14.8,1.083-22.694-3.016-6.1-9.006-12.261-15.866-12.9a21.658,21.658,0,0,0-6.264-13.432c-8.493-8.932-24.784-14.482-42.515-14.482-11.2,0-21.465,2.24-29.7,6.479-.848.436-1.633.905-2.326,1.318a8.47,8.47,0,0,1-3.333,1.5c-.641,0-1.425-.553-2.336-1.643-2.775-3.329-1.326-9.784-.366-14.056l.021-.095a2.339,2.339,0,0,0,.087-.631,2.307,2.307,0,0,0-2.3-2.309Z"></path> <path class="0c4112f4-8bea-48df-97bc-ac548d901586" d="M353.614,166.522c1.666-6.029,8.892-7.547,13.087-7.547a13.853,13.853,0,1,1-9.8,23.648"></path> <path class="c72165e2-9b4e-4065-aa51-549a90992ad4" d="M353.614,166.522s.047-.272.189-.774a8.127,8.127,0,0,1,.918-2.09,9.89,9.89,0,0,1,2.465-2.623,15.144,15.144,0,0,1,4.2-2.093,19.986,19.986,0,0,1,5.526-.941c.483.007.938-.033,1.463.012.531.066,1.1.093,1.627.209a14.642,14.642,0,0,1,8.7,5.137,15.005,15.005,0,0,1,3.087,6.527,14.406,14.406,0,0,1,.264,3.655l-.054.829-.144.946a14.009,14.009,0,0,1-.412,1.794,14.877,14.877,0,0,1-8.922,9.595,13.945,13.945,0,0,1-5.654.892,14.382,14.382,0,0,1-4.646-1.012,13.109,13.109,0,0,1-3.118-1.8,11.158,11.158,0,0,1-1.669-1.56l-.527-.6s.225.162.646.468a14.872,14.872,0,0,0,5.052,2.315,15.181,15.181,0,0,0,4.241.343,13.581,13.581,0,0,0,4.751-1.243,13.4,13.4,0,0,0,4.271-3.256,13.078,13.078,0,0,0,2.69-4.977,10.98,10.98,0,0,0,.3-1.394l.1-.677.04-.815a14.093,14.093,0,0,0-.192-2.922,12.91,12.91,0,0,0-2.365-5.319,12.693,12.693,0,0,0-4.353-3.689,12.283,12.283,0,0,0-2.579-1.034c-.439-.139-.856-.184-1.281-.288-.438-.078-.95-.113-1.412-.171a19.047,19.047,0,0,0-5.043.4,11.6,11.6,0,0,0-6.648,3.583,7.891,7.891,0,0,0-1.2,1.843C353.706,166.258,353.614,166.522,353.614,166.522Z"></path> <path class="0c4112f4-8bea-48df-97bc-ac548d901586" d="M361.31,166.266s12.058,0,8.081,12.442"></path> <path class="c72165e2-9b4e-4065-aa51-549a90992ad4" d="M361.31,166.266a7.146,7.146,0,0,1,2.994-.451,8.452,8.452,0,0,1,3.125.779,6.6,6.6,0,0,1,.819.471,3.715,3.715,0,0,1,.789.588c.244.23.509.45.738.7l.606.843a8.475,8.475,0,0,1,.848,1.865,11.508,11.508,0,0,1,.257,1.9c-.028.6-.074,1.183-.145,1.716-.141.517-.288,1-.437,1.428a4.593,4.593,0,0,1-.523,1.124c-.176.322-.357.59-.5.809a6.626,6.626,0,0,1-.488.666s-.056-.315-.1-.828c-.02-.256-.053-.565-.058-.905a7.529,7.529,0,0,0-.092-1.128c-.048-.4-.089-.83-.114-1.269-.09-.431-.187-.869-.253-1.315-.1-.438-.289-.84-.383-1.275a11.144,11.144,0,0,0-.607-1.14l-.351-.538-.434-.482a9.38,9.38,0,0,0-.965-.9c-.367-.253-.709-.541-1.091-.754-.36-.251-.742-.436-1.088-.643-.706-.379-1.344-.7-1.8-.913Z"></path> <path class="0c4112f4-8bea-48df-97bc-ac548d901586" d="M368.622,170.885s-7.312,1.41-6.029,6.925"></path> <path class="c72165e2-9b4e-4065-aa51-549a90992ad4" d="M368.932,172.393c-.018,0-.134,0-.368.021a10.105,10.105,0,0,0-1.039.146,9.947,9.947,0,0,0-1.446.386,7.144,7.144,0,0,0-1.528.735,6.994,6.994,0,0,0-.674.525,4.07,4.07,0,0,0-.544.629,2.894,2.894,0,0,0-.388.693,2.652,2.652,0,0,0-.231.7c-.042.227-.095.441-.116.633,0,.194,0,.363,0,.5,0,.286,0,.449,0,.449l-.129-.429c-.042-.14-.091-.31-.15-.5-.039-.2-.052-.431-.081-.687a3.1,3.1,0,0,1,.02-.839,3.668,3.668,0,0,1,.2-.941,5.229,5.229,0,0,1,.423-.962,7.975,7.975,0,0,1,.624-.894,8.935,8.935,0,0,1,1.559-1.45,12.28,12.28,0,0,1,1.563-.981,12.979,12.979,0,0,1,1.192-.559c.311-.127.513-.19.494-.186Z"></path> <path class="d05643dc-7d5e-4dcb-93b6-8a562308e152" d="M325.715,164.245a1.137,1.137,0,0,1-.479-.106l-16.062-7.377a1.154,1.154,0,0,1-.567-1.531l2.1-4.565a1.148,1.148,0,0,1,1.049-.672,1.141,1.141,0,0,1,.482.1l16.062,7.377a1.156,1.156,0,0,1,.567,1.531l-2.1,4.565A1.157,1.157,0,0,1,325.715,164.245Z"></path> <path class="c72165e2-9b4e-4065-aa51-549a90992ad4" d="M311.752,151.148l16.062,7.377-2.1,4.565-16.061-7.377,2.1-4.565m0-2.309a2.311,2.311,0,0,0-2.1,1.346l-2.094,4.565a2.308,2.308,0,0,0,1.134,3.062l16.061,7.377a2.306,2.306,0,0,0,3.06-1.135l2.1-4.565a2.308,2.308,0,0,0-1.134-3.063l-16.061-7.377a2.344,2.344,0,0,0-.965-.21Z"></path> <path class="d05643dc-7d5e-4dcb-93b6-8a562308e152" d="M263.11,159.1a1.137,1.137,0,0,1-.627-.186,1.16,1.16,0,0,1-.5-.728l-1.042-4.915a1.154,1.154,0,0,1,.89-1.368l17.29-3.668a1.153,1.153,0,0,1,1.369.89l1.043,4.915a1.155,1.155,0,0,1-.89,1.369l-17.289,3.666A1.1,1.1,0,0,1,263.11,159.1Z"></path> <path class="c72165e2-9b4e-4065-aa51-549a90992ad4" d="M279.358,149.368l1.042,4.915-17.29,3.667-1.042-4.914,17.29-3.668m0-2.309a2.287,2.287,0,0,0-.479.051l-17.291,3.667a2.309,2.309,0,0,0-1.778,2.738l1.04,4.914a2.312,2.312,0,0,0,2.26,1.83,2.347,2.347,0,0,0,.479-.05l17.29-3.667a2.31,2.31,0,0,0,1.78-2.738l-1.042-4.915a2.313,2.313,0,0,0-2.259-1.83Z"></path> <path class="b5ce48ea-7080-410f-902a-9d71161638ac" d="M283.119,184.925c-.005,3.865,3.216,5.022,9.148,2.694"></path> <path class="f493a9ad-fc2b-46b6-b7c8-5037596451aa" d="M269.189,190.889s17.259,9.069,43.257,3.682c0,0-1.144,22.488-23.214,20.561C268,213.283,269.189,190.889,269.189,190.889Z"></path> <path class="7ccda897-1434-4475-80e5-53c2c0a7be59" d="M271.726,192c2.532,5.472,7.558,10.846,17.506,11.714,10.248.895,15.982-3.476,19.185-8.414C290.33,198.139,277.03,194.09,271.726,192Z"></path> <path class="66a98c94-06a0-4d12-a68f-1a72a3cb6363" d="M293.323,88.914c1.154.386,35.541-11.791,60.291,10.392"></path> <path class="05bbaa77-6204-48c3-82dc-5f45e17c7084" d="M270.707,167.926a1.348,1.348,0,1,1-.943-1.891A1.514,1.514,0,0,1,270.707,167.926Z"></path> <path class="05bbaa77-6204-48c3-82dc-5f45e17c7084" d="M309.231,174.615a1.348,1.348,0,1,1-.945-1.892A1.513,1.513,0,0,1,309.231,174.615Z"></path> <path class="c72165e2-9b4e-4065-aa51-549a90992ad4" d="M18.674,401.63c-8.754,0-15.876-6.3-15.876-14.044V16.845C2.8,9.1,9.92,2.8,18.674,2.8a2.8,2.8,0,0,1,.289.015l74.7,7.763c17.866,1.946,21.614,8.2,21.614,13.1V380.752c0,6.932-7.731,11.59-21.77,13.115l-74.548,7.747A2.8,2.8,0,0,1,18.674,401.63Z"></path> <path class="c72165e2-9b4e-4065-aa51-549a90992ad4" d="M18.674,5.6l74.705,7.764c10.6,1.155,19.1,4.334,19.1,10.318V380.752c0,5.978-8.814,9.2-19.274,10.332L18.674,398.83C11.453,398.83,5.6,393.8,5.6,387.586V16.845C5.6,10.635,11.453,5.6,18.674,5.6m0-5.6C8.377,0,0,7.557,0,16.845V387.586c0,9.286,8.377,16.842,18.674,16.842.194,0,.386-.011.579-.03l74.535-7.746c9.089-.987,24.291-4.363,24.291-15.9V23.679c0-6.048-4.18-13.713-24.094-15.883L19.253.03A5.6,5.6,0,0,0,18.674,0Z"></path> <path class="f1822d6e-a972-4197-87e7-8c05b895294c" d="M44.552,399.181c-7.651,0-13.646-7.976-13.646-18.156V23.4c0-10.18,6-18.153,13.646-18.153H44.7L166.792,18.537c7.076.114,12.6,7.584,12.6,17.1V368.787c0,9.517-5.52,16.989-12.6,17.1L44.7,399.181Z"></path> <path class="c72165e2-9b4e-4065-aa51-549a90992ad4" d="M44.552,8.046,166.628,21.334c5.5,0,9.961,6.4,9.961,14.305V368.787c0,7.9-4.458,14.305-9.961,14.305L44.552,396.381c-5.994,0-10.847-6.877-10.847-15.356V23.4c0-8.482,4.853-15.355,10.847-15.355m.3-5.6h-.3c-9.221,0-16.444,9.2-16.444,20.952V381.025c0,11.75,7.223,20.954,16.444,20.954h.3l.3-.033,121.815-13.262c8.559-.227,15.213-8.885,15.213-19.9V35.639c0-11.012-6.654-19.67-15.213-19.9L45.158,2.482l-.3-.033Z"></path> <path class="05bbaa77-6204-48c3-82dc-5f45e17c7084" d="M164.936,326.735c0,6.465-3.734,11.709-8.342,11.709L55.469,348.455c-5.015,0-9.078-5.63-9.078-12.573V43.164c0-6.942,4.063-12.569,9.078-12.569L156.594,42.342c4.608,0,8.342,5.239,8.342,11.707Z"></path> <path class="9863ba36-1add-4b19-b725-10cfdfffe679" d="M90.155,381.067c-4.88,0-8.852-4.422-8.852-9.857,0-5.369,3.872-9.75,8.669-9.859l48.834-6.056h.168c4.877,0,8.846,4.422,8.846,9.858,0,5.369-3.869,9.75-8.662,9.859l-48.836,6.055Z"></path> <path class="c72165e2-9b4e-4065-aa51-549a90992ad4" d="M138.974,358c3.393,0,6.143,3.2,6.143,7.155s-2.75,7.159-6.143,7.159l-48.819,6.053c-3.4,0-6.149-3.2-6.149-7.155s2.75-7.16,6.149-7.16L138.974,358m0-5.4h-.333l-.331.042-48.546,6.019c-6.19.224-11.163,5.77-11.163,12.556,0,6.925,5.184,12.559,11.554,12.559h.334l.33-.041,48.546-6.02c6.187-.224,11.156-5.77,11.156-12.555,0-6.926-5.179-12.56-11.547-12.56Z"></path> <line class="5eb5e87b-b253-434b-b88f-948fa4998045" x1="54.227" y1="71.605" x2="54.227" y2="316.944"></line> </g> </g> </svg> 