<?xml version="1.0" encoding="UTF-8"?> <svg xmlns="http://www.w3.org/2000/svg" viewBox="0 0 321.39 340.656"> <defs> <style>.\36 69b0b15-079f-4571-a395-86570b2d48cd,.d18bf9bc-01d3-4589-8795-d09c49c1bf4e,.eb87dbd1-01bc-4fd9-be2f-66d1953f8768{fill:none;}.\36 69b0b15-079f-4571-a395-86570b2d48cd{stroke:#c3def4;stroke-width:2.92px;}.\36 69b0b15-079f-4571-a395-86570b2d48cd,.\36 aa38411-2028-4133-a544-97c8a37fe5c7,.\37 59e3ed6-4eeb-4b11-bd1b-c5243e98412c,.a00567d0-35c6-41f9-b785-12975dfa6454,.ab799fba-9dcd-4d42-a499-ffe89da94039,.ba4a9ffa-9f5a-49c8-a7ca-b2af8120be95,.d18bf9bc-01d3-4589-8795-d09c49c1bf4e,.eae49597-363e-4a4b-a117-c311d857247b,.f90fa60c-a476-4071-9c69-1f3f4c56923f{stroke-linecap:round;}.\36 69b0b15-079f-4571-a395-86570b2d48cd,.\36 aa38411-2028-4133-a544-97c8a37fe5c7,.\37 59e3ed6-4eeb-4b11-bd1b-c5243e98412c,.a00567d0-35c6-41f9-b785-12975dfa6454,.ab799fba-9dcd-4d42-a499-ffe89da94039,.ba4a9ffa-9f5a-49c8-a7ca-b2af8120be95,.d18bf9bc-01d3-4589-8795-d09c49c1bf4e,.eae49597-363e-4a4b-a117-c311d857247b,.eb87dbd1-01bc-4fd9-be2f-66d1953f8768,.f90fa60c-a476-4071-9c69-1f3f4c56923f{stroke-linejoin:round;}.\32 06da931-2622-4371-8f0b-5493dd453e7e{fill:#c3def4;}.\31 df17c96-8d66-4fbf-94fd-c28826069b80,.\37 59e3ed6-4eeb-4b11-bd1b-c5243e98412c,.a00567d0-35c6-41f9-b785-12975dfa6454,.d642c0a9-c732-45b8-a295-0bd0700d832c{fill:#f3ae9e;}.\31 df17c96-8d66-4fbf-94fd-c28826069b80,.\36 aa38411-2028-4133-a544-97c8a37fe5c7,.\37 59e3ed6-4eeb-4b11-bd1b-c5243e98412c,.a00567d0-35c6-41f9-b785-12975dfa6454,.ab799fba-9dcd-4d42-a499-ffe89da94039,.ba4a9ffa-9f5a-49c8-a7ca-b2af8120be95,.c31015c7-b294-449f-b484-4a70c7393072,.d18bf9bc-01d3-4589-8795-d09c49c1bf4e,.eae49597-363e-4a4b-a117-c311d857247b,.eb87dbd1-01bc-4fd9-be2f-66d1953f8768,.f90fa60c-a476-4071-9c69-1f3f4c56923f{stroke:#2b2150;}.\31 df17c96-8d66-4fbf-94fd-c28826069b80,.c31015c7-b294-449f-b484-4a70c7393072{stroke-miterlimit:10;}.\31 df17c96-8d66-4fbf-94fd-c28826069b80,.\37 59e3ed6-4eeb-4b11-bd1b-c5243e98412c,.eae49597-363e-4a4b-a117-c311d857247b{stroke-width:2.223px;}.\35 72b90c9-098a-4306-9663-9f3c7a3cea4a,.c31015c7-b294-449f-b484-4a70c7393072{fill:#2b2150;}.eb87dbd1-01bc-4fd9-be2f-66d1953f8768{stroke-linecap:square;stroke-width:15.934px;}.ab799fba-9dcd-4d42-a499-ffe89da94039{fill:#63beb2;stroke-width:2.64px;}.\36 aa38411-2028-4133-a544-97c8a37fe5c7,.c8c06f3a-2e15-4f88-87af-1caf586485fa,.f90fa60c-a476-4071-9c69-1f3f4c56923f{fill:#f1f0ef;}.\36 aa38411-2028-4133-a544-97c8a37fe5c7{stroke-width:2.64px;}.d18bf9bc-01d3-4589-8795-d09c49c1bf4e{stroke-width:1.482px;stroke-dasharray:6.403 5.122 6.403;}.a06b6126-0422-4fff-a22d-cab704059a7e,.eae49597-363e-4a4b-a117-c311d857247b{fill:#ec7e94;}.c31015c7-b294-449f-b484-4a70c7393072{stroke-width:0.394px;}.\35 edf8f7e-8d4c-46c4-83c3-1ac19abcb564{fill:#f4ae9e;}.\37 b3880e4-ff84-4c82-9c4b-ec65949d1329{fill:#f6af4e;}.a00567d0-35c6-41f9-b785-12975dfa6454{stroke-width:2.964px;}.ba4a9ffa-9f5a-49c8-a7ca-b2af8120be95{fill:#ed7e94;stroke-width:2.965px;}.f90fa60c-a476-4071-9c69-1f3f4c56923f{stroke-width:2.283px;}</style> </defs> <title>Kid 3</title> <g id="e9a58474-af65-48c9-98ca-790428be5676" data-name="Layer 2"> <g id="3d750203-c3ee-4b48-84c3-546f7b588695" data-name="Capa 1"> <path class="669b0b15-079f-4571-a395-86570b2d48cd" d="M143.369,29.776A80.346,80.346,0,1,1,111.976,7.2"></path> <path class="206da931-2622-4371-8f0b-5493dd453e7e" d="M155.314,82.039A73.278,73.278,0,1,1,82.035,8.761,73.278,73.278,0,0,1,155.314,82.039Z"></path> <path class="1df17c96-8d66-4fbf-94fd-c28826069b80" d="M148.9,187.6c-6.151-3.812-8.121-4.063-10.84-10.493-2.257-5.345,7.972-14.9,12.091-12.141,5.957,3.99,6.947,18.705-.424,22.666Z"></path> <path class="759e3ed6-4eeb-4b11-bd1b-c5243e98412c" d="M144.952,168.029c-.059-.165-3.866-14.936-3.866-14.936a2.092,2.092,0,0,1,4.025-1.09L151.5,166.98"></path> <path class="d642c0a9-c732-45b8-a295-0bd0700d832c" d="M142.883,181.365a5.062,5.062,0,0,1-1.4-.277,12.293,12.293,0,0,1-3.334-1.3c-1.257-.776-1.791-1.908-1.388-2.951a2.691,2.691,0,0,1,2.453-1.9,1.98,1.98,0,0,1,.776.155,12.369,12.369,0,0,1,2.434,1.45c.343.24.739.518,1.225.844a2.268,2.268,0,0,1,.826,3.053,1.745,1.745,0,0,1-1.593.918Z"></path> <path class="572b90c9-098a-4306-9663-9f3c7a3cea4a" d="M139.215,176.057a.863.863,0,0,1,.338.064,21.619,21.619,0,0,1,3.478,2.2,1.168,1.168,0,0,1,.472,1.592.642.642,0,0,1-.621.344,4.274,4.274,0,0,1-1.084-.231,11.386,11.386,0,0,1-3.057-1.173c-.384-.237-1.227-.871-.943-1.608a1.6,1.6,0,0,1,1.417-1.184m0-2.223a3.779,3.779,0,0,0-3.489,2.6c-.6,1.556.126,3.243,1.847,4.306a13.292,13.292,0,0,0,3.594,1.413,6.019,6.019,0,0,0,1.715.323,2.853,2.853,0,0,0,2.565-1.487,3.392,3.392,0,0,0-1.181-4.522c-.476-.32-.865-.592-1.2-.829a13.446,13.446,0,0,0-2.633-1.562,3.078,3.078,0,0,0-1.214-.243Z"></path> <path class="d642c0a9-c732-45b8-a295-0bd0700d832c" d="M146.365,174.513a3.209,3.209,0,0,1-1.9-.9,12.5,12.5,0,0,1-2.647-2.4c-.9-1.2-.992-2.421-.236-3.257a2.92,2.92,0,0,1,2.142-1.04,2.158,2.158,0,0,1,1.5.575,12.613,12.613,0,0,1,1.75,2.229c.235.348.5.748.838,1.225a2.273,2.273,0,0,1-.319,3.144,1.749,1.749,0,0,1-1.128.423Z"></path> <path class="572b90c9-098a-4306-9663-9f3c7a3cea4a" d="M143.723,168.03a1.04,1.04,0,0,1,.723.258,21.494,21.494,0,0,1,2.458,3.3,1.172,1.172,0,0,1-.129,1.655.624.624,0,0,1-.409.159,2.443,2.443,0,0,1-1.224-.666,11.449,11.449,0,0,1-2.435-2.19c-.273-.361-.831-1.253-.3-1.84a1.8,1.8,0,0,1,1.316-.674m0-2.224a4.006,4.006,0,0,0-2.963,1.405c-.883.974-1.3,2.711.169,4.669a13.44,13.44,0,0,0,2.861,2.619,4.214,4.214,0,0,0,2.576,1.125,2.836,2.836,0,0,0,1.83-.673,3.4,3.4,0,0,0,.523-4.648c-.327-.467-.592-.861-.822-1.2a13.46,13.46,0,0,0-1.9-2.406,3.265,3.265,0,0,0-2.273-.888Z"></path> <path class="d642c0a9-c732-45b8-a295-0bd0700d832c" d="M153.359,174.778a12.4,12.4,0,0,1-2.793-.488c-.406-.1-.872-.218-1.44-.349a2.275,2.275,0,0,1-1.862-2.559c.215-1.479,1.688-1.6,2.567-1.666.9-.07,1.565-.112,2.122-.112a7.119,7.119,0,0,1,1.454.135c1.474.286,2.354,1.134,2.35,2.263a2.555,2.555,0,0,1-2.324,2.779Z"></path> <path class="572b90c9-098a-4306-9663-9f3c7a3cea4a" d="M151.952,170.715a6.018,6.018,0,0,1,1.24.114c.444.086,1.455.378,1.454,1.169-.007,1.2-.742,1.671-1.21,1.671h-.03a21.5,21.5,0,0,1-4.031-.811,1.171,1.171,0,0,1-1.01-1.318c.085-.589.677-.645,1.555-.715.913-.071,1.537-.109,2.032-.109m0-2.223c-.59,0-1.282.044-2.2.115-.891.071-3.242.258-3.583,2.613a3.392,3.392,0,0,0,2.711,3.8c.559.129,1.019.245,1.418.345a13.558,13.558,0,0,0,3.023.521h.119a3.646,3.646,0,0,0,3.433-3.881c0-1.322-.848-2.9-3.251-3.364a8.248,8.248,0,0,0-1.666-.155Z"></path> <path class="d642c0a9-c732-45b8-a295-0bd0700d832c" d="M144.38,177.448a4.4,4.4,0,0,1-1.539-.389,12.162,12.162,0,0,1-3.227-1.538c-1.215-.886-1.65-2.026-1.164-3.047a2.734,2.734,0,0,1,2.42-1.714,2.01,2.01,0,0,1,.931.22,12.416,12.416,0,0,1,2.319,1.627c.324.266.7.572,1.157.932a2.269,2.269,0,0,1,.591,3.108,1.722,1.722,0,0,1-1.488.8Z"></path> <path class="572b90c9-098a-4306-9663-9f3c7a3cea4a" d="M140.87,171.873a.9.9,0,0,1,.416.092,21.541,21.541,0,0,1,3.305,2.448,1.168,1.168,0,0,1,.348,1.624.616.616,0,0,1-.559.3,3.691,3.691,0,0,1-1.146-.317,11.346,11.346,0,0,1-2.964-1.394c-.365-.267-1.156-.96-.816-1.675a1.63,1.63,0,0,1,1.416-1.078m0-2.224A3.819,3.819,0,0,0,137.445,172c-.566,1.189-.465,2.977,1.515,4.424a13.3,13.3,0,0,0,3.488,1.68,5.429,5.429,0,0,0,1.932.459,2.847,2.847,0,0,0,2.42-1.3,3.389,3.389,0,0,0-.837-4.592c-.453-.355-.82-.656-1.14-.917a13.44,13.44,0,0,0-2.512-1.755,3.125,3.125,0,0,0-1.441-.343Z"></path> <polyline class="eb87dbd1-01bc-4fd9-be2f-66d1953f8768" points="202.391 193.186 183.74 208.052 156.85 188.102"></polyline> <path class="ab799fba-9dcd-4d42-a499-ffe89da94039" d="M307.374,311.4c6.922-1.6,12.487-1.335,12.372,6.355-.041,2.985,2.224,15.644-4.673,18.885-7.641,3.589-16.43,3.419-17.41.532-.307-.875,5.756-6.785,6.719-9.766s-.789-2.3-1.195-5.435C302.1,313.605,303.128,313.86,307.374,311.4Z"></path> <path class="ab799fba-9dcd-4d42-a499-ffe89da94039" d="M172.115,325.508c-14.746-1.653-18.826,7.983-19.45,9.093s32.343,3.794,32.343,3.794,3.628-2.107,2.09-10.833C185.152,316.517,175.872,325.929,172.115,325.508Z"></path> <path class="572b90c9-098a-4306-9663-9f3c7a3cea4a" d="M227.485,265.456l-2.391,2.11-2.791,2.4-3.626,3.091c-1.323,1.123-2.754,2.34-4.269,3.627-1.514,1.271-3.081,2.628-4.676,4.032-1.6,1.381-3.218,2.816-4.783,4.278l-2.267,2.177-1.022,1.063c-.35.357-.7.708-.945,1.017l-.839.95c-.163.242-.3.448-.47.659l-.126.154c.606-1.024.16-.27.292-.492l-.014.024-.026.05-.055.1-.106.193-.427.776-.211.384-.042.153a3.1,3.1,0,0,1-.1.294c-.045.117-.073.141-.145.331l-.243.642c-.161.441-.335.821-.489,1.3-.3.943-.642,1.839-.933,2.824-.617,1.9-1.166,3.863-1.728,5.712-.54,1.883-1.049,3.662-1.519,5.306-.946,3.318-1.75,6.116-2.358,8.06-.3.97-.543,1.73-.7,2.249-.168.5-.257.765-.257.765l-2.575,7.669-13.251-2,.07-8.046s0-.322.008-.927c.012-.587.019-1.443.08-2.52.088-2.163.315-5.226.775-8.91.2-1.849.538-3.836.9-5.967.185-1.067.369-2.157.624-3.288.229-1.123.482-2.282.8-3.477.277-1.174.643-2.435,1.017-3.685.177-.62.435-1.312.653-1.969l.346-1c.132-.355.352-.862.532-1.287l.589-1.323.306-.659.21-.394.418-.78.1-.2.054-.1.026-.049.333-.565.4-.563c.532-.744,1.086-1.5,1.638-2.211l1.527-1.723c.52-.6,1.015-1.094,1.512-1.57l1.5-1.458c.981-.895,1.96-1.777,2.946-2.609,1.957-1.63,3.882-3.151,5.747-4.578,1.89-1.384,3.726-2.683,5.468-3.887s3.433-2.268,4.979-3.257,3-1.837,4.279-2.607,2.424-1.387,3.357-1.915l2.214-1.189c.517-.263.791-.4.791-.4l7.155-3.641,7.782,11.536Z"></path> <path class="572b90c9-098a-4306-9663-9f3c7a3cea4a" d="M261.652,256.862s.445,1.135,1.225,3.121c.377,1,.837,2.218,1.363,3.613s1.092,2.974,1.724,4.695l4.229,11.685c.759,2.117,1.541,4.307,2.382,6.468l1.244,3.248.624,1.62.651,1.55.65,1.549.668,1.416c.441,1.02.851,1.74,1.247,2.513l.147.29a.881.881,0,0,0,.109.153,3.014,3.014,0,0,1,.174.274,3.235,3.235,0,0,1,.146.295l.009.019c-1.164-1.311-.312-.352-.566-.64l.019.022.078.081.154.163.31.325c.193.2.439.471.588.612a.139.139,0,0,0-.024-.111.094.094,0,0,0-.087-.03c.038.04.258.172.375.256a19.848,19.848,0,0,0,1.952,1.194l1.173.587c.375.207.773.406,1.192.594,1.6.789,3.3,1.431,4.847,2.1l4.367,1.7c1.33.5,2.49.931,3.446,1.287l2.212.826.559.216.158.069,7.5,3.218-2.484,12.978L296,324.267l-1.028-.07c-.634-.05-1.552-.12-2.706-.259s-2.55-.32-4.148-.587-3.4-.628-5.387-1.1a63.01,63.01,0,0,1-6.479-1.88,39.981,39.981,0,0,1-7.7-3.5c-.374-.224-.668-.376-1.111-.667q-.755-.525-1.491-1.1c-.49-.379-.974-.774-1.441-1.183l-.673-.657-.32-.314-.161-.158-.08-.079-.02-.02-.6-.68-.054-.074-.874-1.2-.849-1.228c-.131-.2-.3-.434-.394-.608l-.284-.515c-.758-1.378-1.55-2.805-2.081-4.059l-.873-1.956-.758-1.893-.751-1.891-.678-1.854c-.455-1.235-.9-2.464-1.27-3.679-.8-2.436-1.5-4.813-2.185-7.116-.627-2.308-1.218-4.54-1.749-6.652s-.962-4.127-1.384-5.977-.729-3.562-1.029-5.073-.5-2.843-.7-3.933-.295-1.963-.387-2.568c-.083-.589-.127-.9-.127-.9L245.1,252.9l13.618-3.512Z"></path> <path class="572b90c9-098a-4306-9663-9f3c7a3cea4a" d="M230.074,279.694c-14.95,0-27.312-8.993-28.756-20.917a1.319,1.319,0,0,1,1.31-1.479h85.6a1.319,1.319,0,0,1,1.311,1.479c-1.446,11.924-13.809,20.917-28.758,20.917Z"></path> <path class="572b90c9-098a-4306-9663-9f3c7a3cea4a" d="M288.23,258.618h.006m-.006,0c-1.344,11.087-13.118,19.756-27.447,19.756H230.074c-14.331,0-26.1-8.669-27.446-19.756h85.6m.006-2.64H202.628a2.641,2.641,0,0,0-2.622,2.957c1.526,12.588,14.452,22.079,30.068,22.079h30.709c15.558,0,28.446-9.42,30.05-21.938a2.566,2.566,0,0,0,.041-.458,2.638,2.638,0,0,0-2.638-2.64Z"></path> <path class="572b90c9-098a-4306-9663-9f3c7a3cea4a" d="M201.9,259.938a1.317,1.317,0,0,1-1.149-.671c-.2-.348-4.824-8.785-4.824-30.92,0-11.919.732-15.266,2.337-22.6.629-2.876,1.412-6.456,2.339-11.445a1.318,1.318,0,0,1,1.091-1.063l88.556-14a1.319,1.319,0,0,1,1.526,1.268c.007.328.9,33.033.9,50.324,0,17.808-3.757,27.84-3.916,28.259a1.321,1.321,0,0,1-1.233.848Z"></path> <path class="572b90c9-098a-4306-9663-9f3c7a3cea4a" d="M290.454,180.542s.9,32.815.9,50.289c0,17.769-3.829,27.787-3.829,27.787H201.9s-4.653-8.229-4.653-30.271c0-16.5,1.4-16.293,4.653-33.806l88.556-14m0-2.64a2.723,2.723,0,0,0-.412.032l-88.556,14a2.644,2.644,0,0,0-2.184,2.126c-.922,4.969-1.7,8.538-2.33,11.405-1.625,7.431-2.367,10.822-2.367,22.884,0,22.478,4.792,31.209,5,31.571a2.639,2.639,0,0,0,2.3,1.34h85.626a2.641,2.641,0,0,0,2.466-1.7c.163-.427,4-10.68,4-28.729,0-17.31-.891-50.033-.9-50.361a2.638,2.638,0,0,0-2.639-2.568Z"></path> <path class="c8c06f3a-2e15-4f88-87af-1caf586485fa" d="M260.47,258.618H208.98s-5.436-9.435-5.436-31.479c0-16.494,3.48-15.085,5.436-32.6l52.457-5.829s1.336,24.645,1.336,42.119C262.773,248.6,260.47,258.618,260.47,258.618Z"></path> <polygon class="ab799fba-9dcd-4d42-a499-ffe89da94039" points="228.452 213.327 226.337 213.327 218.806 241.098 222.739 249.461 228.452 244.906 228.452 213.327"></polygon> <path class="6aa38411-2028-4133-a544-97c8a37fe5c7" d="M206.406,194.241c.85,1.034,0,15,0,15l22.169-4.893,21.508,15.3,21.064-24.106,2.223-7.414-60.458-1.072Z"></path> <polygon class="ab799fba-9dcd-4d42-a499-ffe89da94039" points="218.806 206.507 226.337 218.171 238.098 212.339 228.575 204.35 218.806 206.507"></polygon> <path class="d18bf9bc-01d3-4589-8795-d09c49c1bf4e" d="M208.673,212.256s-5.573,13.948,0,37.205"></path> <path class="eae49597-363e-4a4b-a117-c311d857247b" d="M248.234,221.849c-2.011-2.213-1.729-15.777.236-15.429,4.277.756,7.574,3.14,12.755,7.481"></path> <path class="c8c06f3a-2e15-4f88-87af-1caf586485fa" d="M250.3,221.936c-1.383-1.521-1.191-10.858.162-10.618,2.943.521,5.214,2.161,8.779,5.15"></path> <path class="a06b6126-0422-4fff-a22d-cab704059a7e" d="M254.055,271.075c-2.662-.728-3.216-5.746-3.31-14.754-.008-.841-.017-1.552-.035-2.059l-.019-.475.66-.685.51-.008c.15,0,17.059,3.98,17.714,5.179l.316.578-.357.564c-.353.548-.81,1.351-1.339,2.278-2.937,5.155-5.585,9.421-8.222,9.421h0a2.46,2.46,0,0,1-.462-.044l-5.306.045Z"></path> <path class="572b90c9-098a-4306-9663-9f3c7a3cea4a" d="M251.861,254.206c.934,0,16.886,4.375,16.738,4.607-1.71,2.649-5.831,11.189-8.628,11.189a1.268,1.268,0,0,1-.341-.045l-5.282.045c-2.794-.763-2.4-12.5-2.529-15.784,0-.008.015-.012.042-.012m0-2.224h-.942l-.7.686-.656.677.03.948c.019.512.026,1.212.036,2.04.1,9.768.767,14.9,4.128,15.814l.3.081.308,0,5.053-.042a3.644,3.644,0,0,0,.552.042c3.249,0,5.858-4.137,9.191-9.982.524-.921.978-1.716,1.306-2.223l.716-1.112-.633-1.168c-.535-.981-.579-1.061-9.449-3.5-8.242-2.262-8.941-2.262-9.241-2.262Z"></path> <path class="a06b6126-0422-4fff-a22d-cab704059a7e" d="M283.738,271.07a2.452,2.452,0,0,1-.462.044c-2.638,0-5.284-4.264-8.221-9.416-.529-.929-.988-1.734-1.341-2.281l-.359-.556.319-.59c.656-1.2,17.562-5.177,17.709-5.177h.474l.369.348.328.341-.017.477c-.018.5-.026,1.208-.033,2.042-.1,9.019-.648,14.045-3.311,14.773l-.148.04Z"></path> <path class="572b90c9-098a-4306-9663-9f3c7a3cea4a" d="M291.383,254.206c.03,0,.045,0,.044.012-.129,3.282.266,15.021-2.526,15.784l-5.284-.045a1.257,1.257,0,0,1-.341.045c-2.8,0-6.917-8.54-8.628-11.189-.148-.232,15.8-4.607,16.735-4.607m0-2.224h0c-.3,0-1,0-9.238,2.262-8.867,2.434-8.911,2.515-9.447,3.493l-.633,1.155.709,1.118c.334.518.789,1.316,1.315,2.238,3.33,5.843,5.94,9.977,9.187,9.977a3.641,3.641,0,0,0,.554-.042l5.052.042.308,0,.3-.081c3.362-.92,4.029-6.053,4.129-15.833.007-.821.014-1.514.033-2.009l.037-.947-.659-.688-.655-.68-.986-.008Z"></path> <path class="a06b6126-0422-4fff-a22d-cab704059a7e" d="M271.512,266.363c-17,0-30.838-12.614-30.838-28.12s13.833-28.116,30.838-28.116,30.836,12.613,30.836,28.116S288.516,266.363,271.512,266.363Z"></path> <path class="572b90c9-098a-4306-9663-9f3c7a3cea4a" d="M271.512,211.238c16.417,0,29.725,12.09,29.725,27s-13.308,27.009-29.725,27.009-29.727-12.093-29.727-27.009,13.308-27,29.727-27m0-2.223c-17.617,0-31.951,13.111-31.951,29.228s14.334,29.232,31.951,29.232,31.949-13.114,31.949-29.232-14.333-29.228-31.949-29.228Z"></path> <path class="a06b6126-0422-4fff-a22d-cab704059a7e" d="M265.759,254.158c-7.377,0-13.377-4.608-13.377-10.271s6-10.273,13.377-10.273,13.375,4.609,13.375,10.273S273.133,254.158,265.759,254.158Z"></path> <path class="572b90c9-098a-4306-9663-9f3c7a3cea4a" d="M265.759,234.726c6.772,0,12.263,4.1,12.263,9.161s-5.491,9.159-12.263,9.159-12.266-4.1-12.266-9.159,5.49-9.161,12.266-9.161m0-2.223c-7.989,0-14.49,5.107-14.49,11.384s6.5,11.382,14.49,11.382,14.488-5.106,14.488-11.382-6.5-11.384-14.488-11.384Z"></path> <polygon class="c31015c7-b294-449f-b484-4a70c7393072" points="269.597 216.376 267.606 216.376 270.517 211.238 272.506 211.238 269.597 216.376"></polygon> <path class="572b90c9-098a-4306-9663-9f3c7a3cea4a" d="M264.675,243.887c0,2.4-1.313,4.348-2.932,4.348s-2.929-1.947-2.929-4.348,1.313-4.35,2.929-4.35S264.675,241.485,264.675,243.887Z"></path> <path class="572b90c9-098a-4306-9663-9f3c7a3cea4a" d="M272.7,243.887c0,2.4-1.312,4.348-2.929,4.348s-2.932-1.947-2.932-4.348,1.313-4.35,2.932-4.35S272.7,241.485,272.7,243.887Z"></path> <path class="572b90c9-098a-4306-9663-9f3c7a3cea4a" d="M251.338,236.93c0,1.449-.793,2.626-1.77,2.626s-1.771-1.177-1.771-2.626.8-2.627,1.771-2.627S251.338,235.479,251.338,236.93Z"></path> <path class="572b90c9-098a-4306-9663-9f3c7a3cea4a" d="M283.716,236.93c0,1.449-.79,2.626-1.768,2.626s-1.77-1.177-1.77-2.626.793-2.627,1.77-2.627S283.716,235.479,283.716,236.93Z"></path> <path class="5edf8f7e-8d4c-46c4-83c3-1ac19abcb564" d="M241.839,202.979c-21,0-39.63-6.366-49.839-17.027-20.081-20.981-.095-85.582,18.349-105.5,9.662-10.436,23.407-12.626,33.235-12.626a66.786,66.786,0,0,1,14.3,1.518c41.021,9.221,37.072,72.715,34.949,106.828-1.1,17.6-26.482,26.809-50.991,26.809Z"></path> <path class="572b90c9-098a-4306-9663-9f3c7a3cea4a" d="M243.583,69.306a65.821,65.821,0,0,1,13.975,1.483c39.589,8.9,35.975,70.234,33.8,105.288-1.007,16.165-24.674,25.419-49.514,25.419-18.61,0-37.876-5.193-48.766-16.569-19.619-20.5.516-84.194,18.363-103.47,8.952-9.667,21.752-12.151,32.147-12.151m0-2.965c-10.123,0-24.3,2.274-34.323,13.1-9.416,10.169-19.038,31.318-23.944,52.626-7.923,34.4.117,49.165,5.614,54.908,10.482,10.948,29.511,17.484,50.908,17.484,13.11,0,25.527-2.462,34.964-6.933,10.909-5.17,16.965-12.523,17.507-21.267,2.15-34.552,6.15-98.867-36.1-108.365a68.359,68.359,0,0,0-14.624-1.555Z"></path> <path class="572b90c9-098a-4306-9663-9f3c7a3cea4a" d="M212.853,139.174c0,3.248-2.085,5.882-4.655,5.882s-4.654-2.634-4.654-5.882,2.084-5.883,4.654-5.883S212.853,135.925,212.853,139.174Z"></path> <path class="572b90c9-098a-4306-9663-9f3c7a3cea4a" d="M250.083,145.056c0,3.25-2.085,5.884-4.655,5.884s-4.652-2.634-4.652-5.884,2.083-5.882,4.652-5.882S250.083,141.807,250.083,145.056Z"></path> <path class="7b3880e4-ff84-4c82-9c4b-ec65949d1329" d="M299.234,150.381a1.108,1.108,0,0,1-.427-.086c-4.076-1.693-5.253-5.907-6.389-9.981-.836-2.99-1.63-5.836-3.456-7.732a8.243,8.243,0,0,1-6.459,2.992,9.407,9.407,0,0,1-8-4.532c-1.163-1.925-2.591-5.943.1-11.993-5.616-.774-11.554-3.037-17.807-5.422-8.215-3.133-16.709-6.372-25.037-6.372a28.882,28.882,0,0,0-5.454.505,66.52,66.52,0,0,0-9.031,2.787c-5.379,1.922-10.941,3.909-16.15,3.909a14.982,14.982,0,0,1-6.417-1.3c-8.512-3.938-19.133-18.018-20.3-26.9-1.155-8.868-1.558-20.316,5.641-30.216a1.116,1.116,0,0,1,.9-.457,1.11,1.11,0,0,1,1.092.9c.668,3.435,3.046,9.905,7.434,11.422,3.65-14.939,10.752-23.54,21.683-26.28a1.119,1.119,0,0,1,1.048.282,1.111,1.111,0,0,1,.308,1.04l-.047.214c-.972,4.325-2.439,10.862.584,14.487,1.482,1.777,2.48,1.982,3.1,1.982,1.1,0,2.34-.742,3.779-1.6.682-.408,1.4-.837,2.178-1.236,7.769-4,17.48-6.114,28.086-6.114,16.526,0,32.279,5.338,40.134,13.6A19.279,19.279,0,0,1,296.1,77.5c6.536.031,12.533,6.157,15.342,11.85,3.564,7.214,1.457,14.637-1.074,20.947-.944,2.353-2.012,4.743-3.043,7.055a104.947,104.947,0,0,0-5.124,12.975c-1.358,4.666-1.5,9.247-1.659,14.1-.049,1.613-.1,3.246-.2,4.914a1.113,1.113,0,0,1-1.11,1.047Z"></path> <path class="572b90c9-098a-4306-9663-9f3c7a3cea4a" d="M211.426,42.694h.006m-.006,0c-1.029,4.587-2.659,11.548.768,15.657,1.456,1.746,2.719,2.382,3.956,2.382,1.992,0,3.916-1.649,6.466-2.962,7.957-4.1,17.773-5.991,27.577-5.991,22.835,0,45.614,10.27,44.775,26.889a9.358,9.358,0,0,1,1.082-.062c6.207,0,11.814,6,14.4,11.232,3.268,6.615,1.511,13.506-1.11,20.04-2.68,6.679-6.245,13.412-8.2,20.133-1.855,6.376-1.51,12.545-1.9,19.257-6.739-2.8-4.585-13.934-10.461-18.335a7.179,7.179,0,0,1-6.27,3.528c-5.686,0-11.587-6.152-6.22-16.342-13.214-1.136-29.057-11.976-44.529-11.977a29.8,29.8,0,0,0-5.665.526c-7.138,1.379-16.781,6.675-24.971,6.675a14.008,14.008,0,0,1-5.95-1.2c-8.006-3.7-18.521-17.327-19.658-26.039-1.381-10.58-.884-20.728,5.435-29.417.918,4.708,4,11.7,9.35,12.557,2.725-11.932,8.341-23.344,21.131-26.55m0-2.224c-.032,0-.062,0-.093,0a2.113,2.113,0,0,0-.5.078c-11.012,2.779-18.26,11.215-22.106,25.755-3.008-1.891-4.954-6.726-5.6-10.045a2.222,2.222,0,0,0-1.7-1.745,2.173,2.173,0,0,0-.48-.053,2.221,2.221,0,0,0-1.8.916c-7.43,10.218-7.027,21.941-5.845,31.012,1.223,9.356,11.983,23.629,20.931,27.77a16.292,16.292,0,0,0,6.884,1.406c5.4,0,11.056-2.02,16.523-3.973a65.738,65.738,0,0,1,8.87-2.742,27.712,27.712,0,0,1,5.241-.485c8.124,0,16.52,3.2,24.641,6.3,5.8,2.213,11.334,4.323,16.647,5.264-2.131,5.779-.681,9.719.507,11.686a10.522,10.522,0,0,0,8.956,5.071,9.366,9.366,0,0,0,6.392-2.423,22.032,22.032,0,0,1,2.452,6.35c1.153,4.128,2.458,8.808,7.033,10.71a2.225,2.225,0,0,0,3.073-1.925c.1-1.686.152-3.342.2-4.942.152-4.778.3-9.291,1.614-13.823a104.3,104.3,0,0,1,5.072-12.831c1.035-2.322,2.108-4.722,3.059-7.094,2.624-6.539,4.8-14.248,1.041-21.854-2.9-5.878-8.67-11.807-15.277-12.418a20.861,20.861,0,0,0-6.03-12.933c-8.178-8.6-23.868-13.946-40.941-13.946-10.781,0-20.669,2.157-28.595,6.238-.817.42-1.573.871-2.239,1.27a8.153,8.153,0,0,1-3.209,1.444c-.617,0-1.374-.532-2.249-1.582-2.672-3.2-1.277-9.419-.354-13.532l.022-.1a2.186,2.186,0,0,0,.083-.6,2.221,2.221,0,0,0-2.211-2.223h-.015Z"></path> <path class="5edf8f7e-8d4c-46c4-83c3-1ac19abcb564" d="M287.524,135.413c1.6-5.807,8.563-7.269,12.6-7.269a13.34,13.34,0,1,1-9.435,22.773"></path> <path class="572b90c9-098a-4306-9663-9f3c7a3cea4a" d="M287.524,135.413s.044-.263.181-.745a7.877,7.877,0,0,1,.886-2.013,9.453,9.453,0,0,1,2.373-2.526,14.515,14.515,0,0,1,4.044-2.016,19.267,19.267,0,0,1,5.321-.906c.466.006.9-.032,1.409.01.512.065,1.061.091,1.566.2a14.094,14.094,0,0,1,8.376,4.946,14.506,14.506,0,0,1,2.972,6.285,13.94,13.94,0,0,1,.255,3.52l-.051.8-.14.912a13.216,13.216,0,0,1-.4,1.727,14.309,14.309,0,0,1-8.59,9.24,13.447,13.447,0,0,1-5.444.859,13.857,13.857,0,0,1-4.474-.975,12.59,12.59,0,0,1-3-1.736,10.657,10.657,0,0,1-1.607-1.5l-.51-.577.624.449a13.8,13.8,0,0,0,1.827,1.1,14.429,14.429,0,0,0,3.038,1.127,14.586,14.586,0,0,0,4.084.331,13.059,13.059,0,0,0,4.576-1.2,12.916,12.916,0,0,0,4.11-3.135,11.432,11.432,0,0,0,1.54-2.235c.235-.394.4-.826.607-1.239.142-.439.332-.866.443-1.318a10.554,10.554,0,0,0,.287-1.342l.1-.653.037-.784a13.59,13.59,0,0,0-.185-2.813,12.437,12.437,0,0,0-2.279-5.123,12.189,12.189,0,0,0-4.19-3.552,11.772,11.772,0,0,0-2.483-1c-.422-.134-.823-.178-1.233-.277-.423-.076-.915-.11-1.36-.165a18.319,18.319,0,0,0-4.854.387,11.185,11.185,0,0,0-6.4,3.451,7.637,7.637,0,0,0-1.151,1.775A7.553,7.553,0,0,0,287.524,135.413Z"></path> <path class="d642c0a9-c732-45b8-a295-0bd0700d832c" d="M294.935,135.165s11.61,0,7.782,11.982"></path> <path class="572b90c9-098a-4306-9663-9f3c7a3cea4a" d="M294.935,135.165a6.869,6.869,0,0,1,2.883-.434,8.28,8.28,0,0,1,3.01.75,6.5,6.5,0,0,1,.788.454,3.454,3.454,0,0,1,.759.567c.236.221.49.432.71.676l.584.813a8.129,8.129,0,0,1,.818,1.8,11.271,11.271,0,0,1,.246,1.829c-.028.582-.071,1.14-.139,1.653-.136.5-.279.959-.422,1.375a4.524,4.524,0,0,1-.5,1.082c-.168.31-.345.569-.482.78a7.386,7.386,0,0,1-.469.641s-.055-.3-.1-.8c-.019-.246-.052-.544-.056-.871a7.077,7.077,0,0,0-.089-1.086c-.047-.389-.085-.8-.109-1.223-.087-.414-.182-.836-.244-1.266-.094-.422-.277-.808-.368-1.228a10.8,10.8,0,0,0-.584-1.1l-.339-.518-.417-.464a8.787,8.787,0,0,0-.929-.865c-.354-.244-.683-.522-1.05-.727-.346-.241-.714-.42-1.048-.619-.682-.365-1.294-.674-1.737-.88Z"></path> <path class="d642c0a9-c732-45b8-a295-0bd0700d832c" d="M301.976,139.611s-7.041,1.359-5.806,6.671"></path> <path class="572b90c9-098a-4306-9663-9f3c7a3cea4a" d="M302.276,141.063c-.019.005-.131,0-.356.02a9.943,9.943,0,0,0-1,.141,9.739,9.739,0,0,0-1.393.373,6.91,6.91,0,0,0-1.472.709,6.609,6.609,0,0,0-.65.5,4.133,4.133,0,0,0-.523.6,2.822,2.822,0,0,0-.374.667,2.667,2.667,0,0,0-.224.672c-.037.218-.09.425-.111.609,0,.188,0,.351,0,.485,0,.275,0,.433,0,.433s-.046-.151-.125-.414l-.145-.487c-.035-.192-.049-.414-.077-.661a3.075,3.075,0,0,1,.019-.808,3.613,3.613,0,0,1,.2-.906,4.754,4.754,0,0,1,.408-.926,7.562,7.562,0,0,1,.6-.861,8.621,8.621,0,0,1,1.5-1.4,11.782,11.782,0,0,1,1.5-.944c.461-.242.857-.423,1.147-.539s.494-.183.475-.179Z"></path> <path class="7b3880e4-ff84-4c82-9c4b-ec65949d1329" d="M260.661,133.219a1.115,1.115,0,0,1-.464-.1l-15.466-7.1a1.112,1.112,0,0,1-.546-1.474l2.019-4.4a1.112,1.112,0,0,1,1.012-.649,1.1,1.1,0,0,1,.462.1l15.468,7.1a1.112,1.112,0,0,1,.546,1.474l-2.019,4.4A1.113,1.113,0,0,1,260.661,133.219Z"></path> <path class="572b90c9-098a-4306-9663-9f3c7a3cea4a" d="M247.214,120.608l15.466,7.1-2.019,4.4L245.2,125l2.018-4.4m0-2.225a2.223,2.223,0,0,0-2.021,1.3l-2.02,4.4a2.224,2.224,0,0,0,1.093,2.948l15.466,7.1a2.221,2.221,0,0,0,2.949-1.092l2.019-4.4a2.224,2.224,0,0,0-1.093-2.948l-15.466-7.1a2.218,2.218,0,0,0-.927-.2Z"></path> <path class="7b3880e4-ff84-4c82-9c4b-ec65949d1329" d="M200.375,128.268a1.111,1.111,0,0,1-1.088-.88l-1-4.732a1.112,1.112,0,0,1,.857-1.318l16.649-3.531a1.152,1.152,0,0,1,.232-.025,1.112,1.112,0,0,1,1.087.882l1,4.732a1.126,1.126,0,0,1-.156.837,1.112,1.112,0,0,1-.7.481l-16.65,3.53A1.073,1.073,0,0,1,200.375,128.268Z"></path> <path class="572b90c9-098a-4306-9663-9f3c7a3cea4a" d="M216.021,118.9l1,4.732-16.65,3.53-1-4.732,16.648-3.53m0-2.224a2.225,2.225,0,0,0-.462.048l-16.649,3.531a2.221,2.221,0,0,0-1.713,2.636l1,4.732a2.22,2.22,0,0,0,2.175,1.762,2.165,2.165,0,0,0,.46-.048l16.65-3.53a2.223,2.223,0,0,0,1.716-2.637l-1-4.732a2.224,2.224,0,0,0-2.174-1.762Z"></path> <path class="a00567d0-35c6-41f9-b785-12975dfa6454" d="M219.643,153.133c0,3.721,3.1,4.834,8.809,2.593"></path> <path class="d18bf9bc-01d3-4589-8795-d09c49c1bf4e" d="M229.468,60.682c1.112.371,34.224-11.355,58.056,10.006"></path> <path class="c8c06f3a-2e15-4f88-87af-1caf586485fa" d="M207.691,136.764a1.3,1.3,0,1,1-.909-1.822A1.46,1.46,0,0,1,207.691,136.764Z"></path> <path class="c8c06f3a-2e15-4f88-87af-1caf586485fa" d="M244.787,143.205a1.3,1.3,0,1,1-.91-1.821A1.461,1.461,0,0,1,244.787,143.205Z"></path> <path class="ba4a9ffa-9f5a-49c8-a7ca-b2af8120be95" d="M227.592,172.967c-.572,4.294-3.634,7.428-6.839,7s-5.339-4.255-4.765-8.548,3.634-7.43,6.839-7S228.165,168.673,227.592,172.967Z"></path> <path class="f90fa60c-a476-4071-9c69-1f3f4c56923f" d="M222.107,169.805a17.16,17.16,0,0,0,5.4-.117c-.552-2.815-2.325-4.957-4.677-5.272s-4.623,1.291-5.9,3.861A17.089,17.089,0,0,0,222.107,169.805Z"></path> <path class="d642c0a9-c732-45b8-a295-0bd0700d832c" d="M286.307,266.394a1.7,1.7,0,0,1-.759-.177,2.454,2.454,0,0,1-1.156-2.9c.077-.237.151-.485.23-.743-.413.6-.782,1.131-1.067,1.561a2.31,2.31,0,0,1-3.3.65,2.7,2.7,0,0,1-.351-3.533c.195-.314.449-.742.732-1.238-.045.045-.091.089-.134.133-.666.656-1.263,1.244-1.707,1.7a2.367,2.367,0,0,1-1.751.761,2.423,2.423,0,0,1-1.616-.608,2.544,2.544,0,0,1,.181-3.537c.192-.207.426-.471.689-.777l-.461.337a2.543,2.543,0,0,1-3.384-.329,1.948,1.948,0,0,1-.446-1.508,2.949,2.949,0,0,1,1.189-1.949c1.282-.942,4.206-3.4,5.953-4.871l.437-.367a1.4,1.4,0,0,1,.118-.114,5.874,5.874,0,0,1-1.034.1,3.772,3.772,0,0,1-2.706-1.029,1.979,1.979,0,0,1-.683-1.534,1.491,1.491,0,0,1,.6-1.108,13.235,13.235,0,0,1,3.5-1.566c.1-.018.261-.063.481-.121a21.978,21.978,0,0,1,5.229-.861,6.433,6.433,0,0,1,2.181.325L297.377,231.7l8.338,6.968-10.734,11.808a5.6,5.6,0,0,1-.982,3.252,23.911,23.911,0,0,1-3.039,4.088c-1.357,3.477-2.215,5.768-2.551,6.816A2.4,2.4,0,0,1,286.307,266.394Z"></path> <path class="572b90c9-098a-4306-9663-9f3c7a3cea4a" d="M297.5,233.29l6.57,5.491L293.758,250.12c.224.833.062,1.609-.754,3.043a21.549,21.549,0,0,1-3.014,4c-.708,1.811-2.176,5.589-2.67,7.123-.165.507-.587.968-1.013.968a.582.582,0,0,1-.257-.06,1.3,1.3,0,0,1-.569-1.525c.582-1.812,1.193-4.309,1.946-6.516-.13-.056-.261-.117-.394-.182-1.417,2.233-3.424,5.021-4.431,6.53a1.169,1.169,0,0,1-1.668.367c-.537-.4-.45-1.389-.063-2.009.821-1.31,2.491-4.392,3.637-6.511-.169-.133-.34-.269-.507-.409-1.8,2-4.645,4.7-6.027,6.109a1.238,1.238,0,0,1-.932.417,1.272,1.272,0,0,1-.837-.3c-.492-.457-.254-1.388.241-1.922,1.206-1.305,3.93-4.693,5.365-6.469l-.179-.221c-1.352.984-3.946,2.691-6.475,4.551a1.367,1.367,0,0,1-.821.273,1.394,1.394,0,0,1-1.017-.425c-.435-.506-.041-1.355.552-1.792,1.438-1.056,4.744-3.851,6.51-5.335a6.223,6.223,0,0,0,1.592-1.96c-.129-.093-.77-.539-.77-.539a.066.066,0,0,0-.041-.009,10.8,10.8,0,0,1-2.494.522,2.67,2.67,0,0,1-1.916-.711c-.412-.394-.4-.747-.194-.9a12.4,12.4,0,0,1,3.04-1.362,24.561,24.561,0,0,1,5.484-.96,4.16,4.16,0,0,1,2.449.6L297.5,233.29m-.236-3.178-1.474,1.659-8.9,10.018a8.63,8.63,0,0,0-1.8-.175,22.979,22.979,0,0,0-5.52.9c-.185.048-.329.088-.417.106a13.974,13.974,0,0,0-3.945,1.765,2.634,2.634,0,0,0-1.062,1.959,3.1,3.1,0,0,0,1.032,2.431,4.763,4.763,0,0,0,1.665,1.035c-1.585,1.327-3.4,2.826-4.318,3.5a4.073,4.073,0,0,0-1.648,2.744,3.081,3.081,0,0,0,.715,2.383,3.6,3.6,0,0,0,2.164,1.175,3.266,3.266,0,0,0,.9,3.223,3.586,3.586,0,0,0,3.657.682,3.218,3.218,0,0,0,1.265,2.184,3.453,3.453,0,0,0,3.976.052,3.445,3.445,0,0,0,1.506,1.5,2.853,2.853,0,0,0,1.254.288,3.476,3.476,0,0,0,3.187-2.545c.228-.705.835-2.4,2.446-6.54A26.12,26.12,0,0,0,295,254.29a7.232,7.232,0,0,0,1.142-3.388l9.623-10.582,1.6-1.765-1.83-1.529-6.571-5.491-1.7-1.423Z"></path> <polyline class="eb87dbd1-01bc-4fd9-be2f-66d1953f8768" points="288.981 198.831 309.631 224.244 294.371 242.266"></polyline> <path class="eae49597-363e-4a4b-a117-c311d857247b" d="M294.788,221.849c2.01-2.213,1.727-15.777-.236-15.429-4.276.756-7.576,3.14-12.758,7.481"></path> <path class="c8c06f3a-2e15-4f88-87af-1caf586485fa" d="M291.7,221.936c1.383-1.521,1.19-10.858-.161-10.618-2.945.521-5.215,2.161-8.779,5.15"></path> </g> </g> </svg> 